<?xml version="1.0" encoding="UTF-8"?><svg id="Layer_1" xmlns="http://www.w3.org/2000/svg" width="255.999984741210938" height="249.599990844727472" viewBox="0 0 255.999984741210938 249.599990844727472"><g id="Layer_2"><g id="Surfaces"><g id="Photo_Surface"><g id="Outline_no_shadow"><path d="m45.333332061767578,0h165.333324432373047c25.066665649414062,0,45.333328247070312,20.266666412353516,45.333328247070312,45.333332061767578v158.933330535889581c0,25.066665649414062-20.26666259765625,45.333328247070312-45.333328247070312,45.333328247070312H45.333332061767578c-25.066667556762695,0-45.333332061767578-20.26666259765625-45.333332061767578-45.333328247070312V45.333332061767578C0,20.266666412353516,20.266666412353516,0,45.333332061767578,0Z" style="fill:#fff; stroke-width:0px;"/></g></g></g></g><path d="m182.914415563109287,154.275867477651445c-4.242247533693444,0-8.463273655066587-.589548276455389-12.564820318046259-1.793645397303408-11.09007751406898-2.564593143441016-21.263564438559115-8.401644348061382-30.24196607482736-17.352719782164058-4.57975520083528-4.565365339058189-8.807176816331776-9.946301530975688-12.521505380575036-15.90443106751809-4.297481346575296,6.506979214032981-9.013867558223865,12.856687413488544-14.750335082540914,18.517571825439518-5.878912620699339,6.454216387515771-13.61746050988404,11.197638097051822-22.397311124052067,13.725021092863244-8.14291754034457,2.343948596188056-17.060271278164691,2.768376842554062-25.790120756459146,1.225027828890234-8.759501314686531-1.548000282113208-17.026840286156585-5.021334999619285-23.908391962820133-10.044704929186992-7.446390089461602-5.435588596243178-13.131402956512829-12.614676101778969-16.449210885110915-20.769076461118857-3.386995546840808-7.638109561019519-4.479171520532873-16.237723522624037-3.158792688351241-24.882541999508248,1.212818249200609-7.942040884016933,4.420739960588435-15.77870146713849,9.277245634394603-22.662578778029456,4.877436381846564-6.913383795141272,11.221185143596813-12.590692998816849,18.34547489266788-16.418396231607403,7.487670096985312-4.02276580355192,15.693379761448341-5.898099103068489,23.787458983032593-5.449106345185101l.54070995769689-.000872112835168c4.755049880669503-.008866480488905,9.236256331149889.460620929015931,13.330826091449126,1.391165323955647,11.098798642419752,2.522441023082138,21.42403320019821,8.641330025543539,30.689359959181274,18.186895708837255,4.157943292975688,4.283527541215335,7.831573258250501,8.950203321271147,11.048216097990007,13.537952889760163,6.53096231699601-9.542222584092997,14.116890460056311-18.525130136677035,24.724980280652744-25.263364604123126,7.23039681066075-4.90069272411256,15.906465997464693-7.723576618850529,25.100570208256613-8.16501106549731,8.542054514493429-.40873021533389,17.354754712112481,1.22241149038382,25.489532532663361,4.720456071547233,16.981490418736939,7.302200767409886,28.707919598073204,21.540750967948952,31.368154449084614,38.088074546995813,1.377647575014635,8.416615618393735.281692445703811,17.263328216578884-3.173327902266465,25.559301559464984-3.175944240771059,7.625318572773722-8.267338971469144,14.64989675437846-14.723880993213243,20.314560321946374-10.002552808829932,8.775780754271182-22.092071631803265,13.440130900098666-34.022865918806929,13.440421604376752Zm-44.67601490254674-52.031559905027279c4.927146813441141,10.018541544140135,16.559969215155434,28.72550720691379,36.275824075877608,33.173864073941331l.303495266578466.068315505408464.297971885289371.089827622005032c9.873189404974255,2.975358288720599,21.17751597217466.006395494123353,30.238768327768412-7.943349053271959,9.185964490996412-8.059194708183895,13.838977169971258-19.500442990475676,12.14358981874102-29.858817835985064-1.704689888134453-10.603002495725377-9.54236793623204-19.852049815121063-20.96966241316477-24.765969583897459-11.768581299695143-5.060434725056439-24.749980848589985-4.331348395000532-33.878385892478036,1.902804853818452l-.261052441941501.171515524215465c-10.289768635822838,6.502764001998003-17.33702175113649,16.352115656148271-24.15054862667057,27.161808893765738Zm-68.01375436699891-32.278494896679149c-9.45602876556859,0-19.062933051590335,5.419599860934795-25.464241260450763,14.492771091940085-6.787944899040667,9.621875556355917-8.46385506362185,21.26763429845596-4.373355163219458,30.392696243143291l.133142559475345.3127978034845c4.187013720809773,10.401399078702525,14.349453882723537,17.965379048750037,27.184629179616422,20.233453828290294,12.761627114475232,2.255574495575274,24.821494101060125-1.336948976046187,32.262651513511628-9.609665976666292l.184597216739348-.205237220499839.197097500709788-.193172992952896c6.793758984607848-6.659889664434559,12.08893741441716-14.843215099466761,17.491385722929408-23.572047112788823-8.794676532363155-13.986654943364556-19.870509536794998-27.323440472518996-35.318825591610221-30.834276041929115-2.611687236530088-.593472784213191-5.5306488952574-.912811433960087-8.685953132267969-.950748342283077l-.563966299961976.098403398215851-1.11019963894887-.088228748473739c-.643619272226715-.051309305125869-1.29101770007037-.076745929480239-1.936962606522684-.076745929480239Z" style="fill:#00979c; stroke-width:0px;"/><rect x="56.188280918604505" y="97.754525345933871" width="35.72174172137602" height="7.44202952528758" style="fill:#00979c; stroke-width:0px;"/><polygon points="185.084232296576374 116.359599159151912 175.55843450420798 116.359599159151912 175.55843450420798 106.238439004760949 165.734955530828302 106.238439004760949 165.734955530828302 96.712641212393464 175.55843450420798 96.712641212393464 175.55843450420798 86.59148105800341 185.084232296576374 86.59148105800341 185.084232296576374 96.712641212393464 195.503073631976804 96.712641212393464 195.503073631976804 106.238439004760949 185.084232296576374 106.238439004760949 185.084232296576374 116.359599159151912" style="fill:#00979c; stroke-width:0px;"/><path d="m46.06712824164515,196.733580265669843l-1.905160012698616-6.846667163263191h-12.085855494840871l-1.964695908231079,6.846667163263191h-6.459681571171132l10.240233364910637-34.531016997329061h9.109044820290364l10.240233081020051,34.531016997329061h-7.174118279279355Zm-7.858783632927953-28.279712196090259l-4.554521842363101,16.10455370962336h9.049507221411659l-4.494985379048558-16.10455370962336Zm36.436177010031315,28.279712196090259s-3.482868909384706-8.216002412817033-5.447566520962027-12.204928421469958c-1.140119468343983-1.714646509668455-3.393563646628536-2.387399801289575-5.358261258205857-2.113538202083873-.178610525508702,4.673598175684674-.142885695054247,14.318466623553832-.142885695054247,14.318466623553832h-6.51921831837717v-34.531016997329061s9.823481244506183-.28875110896297,14.705450796192054.357221051015586c10.329536072648807,1.166914226747394,11.014203697425728,16.193854430121064.634062369075764,17.771570140188487,1.946832925223134.773972887531272,3.12565240062122,2.574940398848412,3.959160615903784,4.405677845166792l5.209420667701124,10.776062386419653c.36614658081271.738252599330735.357216508762576,1.309795379547722-.696572873425794,1.303845026352064l-6.34358978284763-.083359451813521Zm-1.613431456012222-24.439626777942976c-.02976993500306-5.328491323203707-5.358261258206767-4.733128961181137-9.317421874110551-4.762898896184197v9.763939103373559c4.673593633428936.157770662553958,9.228116611356199-.31852104396603,9.317421874110551-5.001040207189362Zm37.93053553941354,15.509191347598971c-3.15542233562519,7.293188934781938-10.061620284384844,8.989975300351944-16.610610808891579,8.870895560339704h-8.007621952308909v-34.531016997332699l12.175163028723546.059539870007939c15.062669576082044.491172131765779,15.598492068100313,16.729686006647171,12.41330888198172,25.719652222489458l.029760850495222-.119070655504402Zm-8.335073068323254-18.247852762200637c-3.036351680120788-2.60769005270231-6.370375456743204-2.07483819502886-9.763943645626568-2.07483819502886v23.725184675909986c2.976811810114668,0,6.22153940849239.238141311005165,8.751829447090131-1.607476560560826,5.388031193209827-3.393563646628536,4.703359026178077-16.253394300129003.997233773288826-20.033948932778003l.014880425247611-.008920987542297Zm39.591597074528181,14.377997409052114c.645972159978555,17.444119024174142-24.261016252436093,17.384579154169842-25.005219204964305,3.780554632649-.455451843567062-4.167536534161627-.080370648451208-8.335073068321435-.202421022806448-12.502609602481243v-13.157511834513571h6.519216047248847l.119070655502583,24.707538023954839c.765042815482957,6.816897228260132,9.823478973379679,6.221534866237562,11.192814222933521,2.440989318096399,1.387195393655929-3.006581745117728.744202952530031-6.400145391744445.887093189838197-9.615098512866098v-17.533419744675484h6.519216047250666v21.879557719836157h-.02976993500306Zm6.251304801240622-16.67014613664287v-5.328491323203707h21.879566804343995v5.328491323203707h-7.620640050796283v23.933565136419929h7.620640050796283v5.388031193209827h-21.879566804343995v-5.388031193209827h7.620640050794464v-23.933565136419929h-7.620640050794464Zm46.140583056780088,29.470436920135398l-11.192805138425683-25.124289860466888v25.124289860466888h-5.923862769735933v-34.531016997329061h8.007631036816747l11.133283437435239,24.886148549459904c.029760850495222-1.786087086069529.011900706394954-24.886148549459904.011900706394954-24.886148549459904h5.923862769735933v34.531016997329061h-7.960010042221256Zm34.828698178342165-2.976811810114668c-7.233649064775818,6.221534866239381-19.855338407269301,4.852199616685539-22.355849426354325-7.412259590282702-3.423333581633415-18.634843748221101,6.668065722262327-29.351366264634635,20.718602930792258-23.100061463394013,8.632754249330901,4.852199616685539,8.15647162732057,24.826608679457422,1.637246495562067,30.661161644182357v-.148840590505642Zm-8.722054969832243-26.404324389521207c-6.162004080741099-.163721015753254-7.055047623776773,6.132234145739858-7.293188934781938,9.168576741350989-.050600713446329,5.745243159717575-.559642073822033,15.300810887089028,7.412268674794177,14.884059050573342,2.470750168591621,0,4.614058305676735-1.792037439265187,5.417801128211067-4.078235813660285,1.622366070316275-3.601944107140298,2.845831363709294-20.272090243783168-5.536862699205813-19.974409062771883l-.000018169017494.000009084507838Z" style="fill:#00979c; stroke:#00979c;"/></svg>