<?xml version="1.0" encoding="UTF-8"?><svg id="Layer_1" xmlns="http://www.w3.org/2000/svg" width="256" height="249.599999999999454" xmlns:xlink="http://www.w3.org/1999/xlink" viewBox="0 0 256 249.599999999999454"><defs><linearGradient id="linear-gradient" x1="1.571006057567502" y1="253.593986801414758" x2="1.571006057567502" y2="252.439935349660459" gradientTransform="translate(44.701987981796265 20658.002227783217677) scale(45.607620239257812 -81.335014343261719)" gradientUnits="userSpaceOnUse"><stop offset="0" stop-color="#0994dc"/><stop offset=".35000602722168" stop-color="#66cef5"/><stop offset=".846161041259766" stop-color="#127bca"/><stop offset="1" stop-color="#127bca"/></linearGradient><linearGradient id="linear-gradient-2" x1="1.545804318016053" y1="253.595631164859697" x2="1.545804318016053" y2="252.441585985692655" gradientTransform="translate(45.932990789413452 21181.53239746095278) scale(47.869163513183594 -83.408287048339844)" gradientUnits="userSpaceOnUse"><stop offset="0" stop-color="#0e76bc"/><stop offset=".360000991821289" stop-color="#36aee8"/><stop offset=".846161041259766" stop-color="#00adef"/><stop offset="1" stop-color="#00adef"/></linearGradient><linearGradient id="linear-gradient-3" x1="1.423812838575941" y1="252.557374378143322" x2="1.423812838575941" y2="253.463768403290658" gradientTransform="translate(74.56035590171814 21446.09056396485903) scale(45.452232360839844 -84.500015258789062)" gradientUnits="userSpaceOnUse"><stop offset="0" stop-color="#1c63b7"/><stop offset=".5" stop-color="#33bdf2"/><stop offset="1" stop-color="#33bdf2" stop-opacity=".419607996940613"/></linearGradient><linearGradient id="linear-gradient-4" x1="1.455764445494424" y1="253.577413258376509" x2="1.455764445494424" y2="252.423352766717045" gradientTransform="translate(68.716254949569702 21979.158796691910538) scale(45.010551452636719 -86.598236083984375)" gradientUnits="userSpaceOnUse"><stop offset="0" stop-color="#166ab8"/><stop offset=".39999397277832" stop-color="#36aee8"/><stop offset=".846161041259766" stop-color="#0798dd"/><stop offset="1" stop-color="#0798dd"/></linearGradient><linearGradient id="linear-gradient-5" x1="1.505337677047464" y1="253.604020566778672" x2="1.505337677047464" y2="252.449915890276571" gradientTransform="translate(38.526649236679077 23372.749079895034811) scale(58.350906372070312 -92.082221984863281)" gradientUnits="userSpaceOnUse"><stop offset="0" stop-color="#124379"/><stop offset=".389999008178711" stop-color="#1487cb"/><stop offset=".780228042602539" stop-color="#165197"/><stop offset="1" stop-color="#165197"/></linearGradient><linearGradient id="linear-gradient-6" x1="1.65863357777107" y1="252.443481413428344" x2="2.432431749743955" y2="252.443481413428344" gradientTransform="translate(51.47393012046814 7858.977981567388269) scale(19.4176025390625 -30.921882629394531)" gradientUnits="userSpaceOnUse"><stop offset="0" stop-color="#33bdf2" stop-opacity=".698038995265961"/><stop offset="1" stop-color="#1dacd8"/></linearGradient><linearGradient id="linear-gradient-7" x1="1.244807484713419" y1="252.733211028597907" x2="1.244807484713419" y2="253.489296890043278" gradientTransform="translate(98.001807928085327 25042.449098205583141) scale(79.142471313476562 -98.678680419921875)" gradientUnits="userSpaceOnUse"><stop offset="0" stop-color="#136ab4"/><stop offset=".600000038146973" stop-color="#59caf5" stop-opacity=".549019992351532"/><stop offset="1" stop-color="#59caf5" stop-opacity=".235293999314308"/></linearGradient><linearGradient id="linear-gradient-8" x1="1.393980319953698" y1="253.085467005644205" x2="2.167778491926583" y2="253.085467005644205" gradientTransform="translate(-70.035866022109985 25167.057261085526989) scale(72.0225830078125 -99.161277770996094)" gradientUnits="userSpaceOnUse"><stop offset="0" stop-color="#05a1e6" stop-opacity=".247059002518654"/><stop offset="1" stop-color="#05a1e6"/></linearGradient><linearGradient id="linear-gradient-9" x1="1.894536399836397" y1="252.403998976363255" x2="1.894536399836397" y2="253.438838615771346" gradientTransform="translate(-31.700660943984985 18737.971827697765548) scale(49.051113128662109 -73.822219848632812)" gradientUnits="userSpaceOnUse"><stop offset="0" stop-color="#318ed5"/><stop offset="1" stop-color="#38a7e4"/></linearGradient><linearGradient id="linear-gradient-10" x1="1.893539697889537" y1="252.69184299571225" x2="1.893539697889537" y2="253.991710516248986" gradientTransform="translate(-20.315317392349243 14541.085061645517271) scale(45.603584289550781 -57.128349304199219)" gradientUnits="userSpaceOnUse"><stop offset="0" stop-color="#05a1e6"/><stop offset="1" stop-color="#05a1e6" stop-opacity=".549019992351532"/></linearGradient><linearGradient id="linear-gradient-11" x1="1.819498763982665" y1="252.675446283205929" x2="1.819498763982665" y2="253.449244491578611" gradientTransform="translate(-25.529390573501587 20599.356502532973536) scale(52.519119262695312 -81.093582153320312)" gradientUnits="userSpaceOnUse"><stop offset="0" stop-color="#1959a6"/><stop offset=".5" stop-color="#05a1e6"/><stop offset=".917586975097656" stop-color="#7ec5ea"/><stop offset="1" stop-color="#7ec5ea"/></linearGradient><linearGradient id="linear-gradient-12" x1="1.819367979978779" y1="252.740514030819213" x2="1.654293122887135" y2="253.427744314842158" gradientTransform="translate(-59.783973932266235 25127.485894489305792) scale(72.676811218261719 -99.004669189453125)" gradientUnits="userSpaceOnUse"><stop offset="0" stop-color="#165096"/><stop offset="1" stop-color="#0d82ca"/></linearGradient><linearGradient id="linear-gradient-13" x1=".997531636043277" y1="252.636518266062012" x2=".997531636043277" y2="253.257855208754933" gradientTransform="translate(151.065147161483765 14523.92911529542107) scale(32.76629638671875 -57.226127624511719)" gradientUnits="userSpaceOnUse"><stop offset="0" stop-color="#05a1e6"/><stop offset=".873627014160156" stop-color="#0495d6"/><stop offset="1" stop-color="#0495d6"/></linearGradient><linearGradient id="linear-gradient-14" x1="1.298399991681435" y1="253.489949474457717" x2="1.05851935378209" y2="252.638732250253327" gradientTransform="translate(122.20861029624939 24444.609457397476945) scale(60.269119262695312 -96.323081970214844)" gradientUnits="userSpaceOnUse"><stop offset="0" stop-color="#38a7e4" stop-opacity=".329412013292313"/><stop offset=".961532974243164" stop-color="#0e88d3"/><stop offset="1" stop-color="#0e88d3"/></linearGradient><linearGradient id="linear-gradient-15" x1="1.25010318965451" y1="253.46627233378149" x2="1.25010318965451" y2="252.675623040615051" gradientTransform="translate(99.651252508163452 24898.245596087181184) scale(70.281509399414062 -98.110458374023438)" gradientUnits="userSpaceOnUse"><stop offset="0" stop-color="#168cd4"/><stop offset=".5" stop-color="#1c87cc"/><stop offset="1" stop-color="#154b8d"/></linearGradient><linearGradient id="linear-gradient-16" x1="1.516699644288565" y1="259.627940296667475" x2="2.067170408333646" y2="261.372091102990851" gradientTransform="translate(39.34850287437439 -1074.234931850433895) scale(32.459449768066406 4.249133110046387)" gradientUnits="userSpaceOnUse"><stop offset="0" stop-color="#97d6ee"/><stop offset=".703292999267578" stop-color="#55c1ea"/><stop offset="1" stop-color="#55c1ea"/></linearGradient><linearGradient id="linear-gradient-17" x1="1.383998432482258" y1="257.865555226154356" x2="1.916915253992581" y2="257.011016923254033" gradientTransform="translate(62.275001287460327 -1892.01837310791143) scale(26.472221374511719 7.484035968780518)" gradientUnits="userSpaceOnUse"><stop offset="0" stop-color="#7accec"/><stop offset="1" stop-color="#3fb7ed"/></linearGradient><linearGradient id="linear-gradient-18" x1="1.221463885111007" y1="253.342271926479043" x2="1.221463885111007" y2="252.401344725617861" gradientTransform="translate(113.448631048202515 20463.234695291532262) scale(52.044876098632812 -80.635543823242188)" gradientUnits="userSpaceOnUse"><stop offset="0" stop-color="#1da7e7"/><stop offset="1" stop-color="#37abe7" stop-opacity="0"/></linearGradient></defs><g id="Layer_2"><g id="Surfaces"><g id="Photo_Surface"><g id="Outline_no_shadow"><path d="m45.33333333333303,0h165.33333333333303c25.066666666667516,0,45.33333333333394,20.266666666666424,45.33333333333394,45.33333333333394v158.933333333333394c0,25.066666666665697-20.266666666666424,45.333333333332121-45.33333333333394,45.333333333332121H45.33333333333303c-25.066666666666606,0-45.33333333333303-20.266666666666424-45.33333333333303-45.333333333332121V45.33333333333394C0,20.266666666666424,20.266666666666424,0,45.33333333333303,0Z" style="fill:#fff; stroke-width:0px;"/></g></g></g></g><path d="m203.845640174637083,129.819695517343462c0-.332180724464706-.091151762202571-.569640953552152-.278520585305159-.724855018441303-.207559174579728-.167061875306899-.566569599644936-.256140731904452-1.066310316638919-.256140731904452h-.718457717379351v1.974654747440582h.867087041551713c.8007068333809,0,1.196201577771717-.332180724459249,1.196201577771717-.993658997094826Zm1.120222097231817,4.117185330631401h-.987331801432447l-.6296319781286-1.389341919108119c-.319763215535204-.696207005485121-.661535094895953-1.044309770273685-1.034903103231045-1.044309770273685h-.531655640988902v2.433651689381804h-.813435019859753v-5.791379458429219h1.629869074391536c.724798196177289,0,1.268851421400541.156969651377949,1.642538224754389.484323435450278.316445385849875.281529213340036.474673982387685.642483402501966.474673982387685,1.091889927489319,0,.398755013869959-.129135598859648.734195269849806-.389354988390551,1.012402225795086-.253194091790647.281780116829395-.617222586664866.471660188693932-1.082297296688921.569891857037874v.025074852070247c.322774057427523.075977266686095.645559922069879.43041239280501.958746514352242,1.069636263788198l.762782032834366,1.541295714529042v-.003134817730825Zm1.803765855958773-2.83873832662357c0-1.139219181221051-.389095229480517-2.101220799380826-1.164546412688651-2.864001356314475-.778450217869249-.762530391395558-1.727857218751524-1.145362258006571-2.848079315983341-1.145362258006571-1.155206899227778,0-2.116952448237498.382832604560463-2.879734481071864,1.151944784873194-.762782032841642.772121546297058-1.142289797177,1.72754063758839-1.142289797177,2.857418829447852,0,1.155203947417249.395435708278455,2.120277657433689,1.180273633830438,2.889389837746421.775439375984206.768861276823372,1.724787340754119,1.148621420550626,2.841750644418426,1.148621420550626,1.110634632086658,0,2.059970789636282-.382832973535187,2.84175064441115-1.161535570798151.781779854780325-.765852648786677,1.170875084260842-1.727603363458911,1.170875084260842-2.876475687498896Zm.547382862132508-.025074852072066c0,1.278761371322616-.439748216509543,2.351406263142053-1.322574286430608,3.215238938833863-.883014985492991.870353214633724-1.965312282181912,1.30377423547543-3.259679112665253,1.30377423547543-1.303588271712215,0-2.385826532283318-.427089397457166-3.246832853947126-1.265847959031817-.860510418297054-.851107441012573-1.287849243342862-1.920742966847683-1.287849243342862-3.218185578938574,0-1.269107490552415.4366783385085-2.335483484866927,1.310105858852694-3.211916681444563.873427520349651-.873424199566216,1.961994452494764-1.310105120899607,3.262760797892042-1.310105120899607,1.275191900194841,0,2.344820046509994.417686420174505,3.211918895287454,1.249862454878894.889095705379077.854429698405511,1.332173558797876,1.930396847619704,1.332173558797876,3.237179711126373h-.000023614444217Z" style="stroke-width:0px;"/><path d="m83.543287614088513,147.22166868309705h-2.806830782144971v-16.063282757771958c0-1.268856587059418.083562669564344-2.813161667572786.232946180107319-4.635924607518973h-.063314757878288c-.262785984647053,1.066313268438535-.503316829684991,1.838497540609751-.715200399714377,2.316489352680946l-8.158206692871318,18.382718012609985h-1.367087517451182l-8.17416710667294-18.249819599343027c-.230382536798061-.509649191013523-.471390836418323-1.329350156578585-.715188592494087-2.449386659020092h-.060744104028345c.086076132179187.958741717664452.13418244877721,2.512637953075682.13418244877721,4.667581617482938v16.031624640880182h-2.705822202524359v-23.9207152016279h3.702527463181468l7.338726005810713,16.680251489142393c.55367463613311,1.256444981745517.911393646170836,2.21211423857676,1.085314042185018,2.864001356314475h.116460544881193c.477715818233264-1.307033029048398.857464154739318-2.288092243214123,1.145563349773511-2.933647737570936l7.496709971444943-16.610606583790286h3.512629680480131v23.920713725729001l.001502469138359.000002951803253Z" style="stroke-width:0px;"/><path d="m92.177478891107967,147.220915972623516h-2.72759250803756v-17.08226677248058h2.72759250803756v17.08226677248058Zm.471660188693022-23.205764229499437c0,.503254841761191-.177217563058548.924012984817637-.528641847293329,1.269107490550596-.344779769442539.344780876370351-.771870642803151.518989442424754-1.272116118581835.518989442424754-.487331325531159,0-.911411357006727-.16712460117833-1.25926395625811-.499994941265868-.348103502738923-.335440624959119-.519240345911385-.762780925907464-.519240345911385-1.288101622732938,0-.493663686863329.172140457132627-.914421829918865.519240345911385-1.256193709282343.347852599251382-.341771971607159.771932630726951-.506326564640403,1.25926395625811-.506326564640403.499994572286596,0,.927336349139296.164554500792292,1.272116118581835.506326564640403.351427236040763.341771879363478.528641847293329.762530022419014.528641847293329,1.256193340305799Z" style="stroke-width:0px;"/><path d="m109.224514385813563,146.43055226667002c-1.310105858853603.803779663181558-2.873405809501492,1.202533201147162-4.680495398757557,1.202533201147162-2.449071922726034,0-4.420718780089373-.81318116456896-5.927037072137864-2.436724519189738-1.462058916321439-1.575963197403325-2.199263552154662-3.610608969431269-2.199263552154662-6.104315147218585,0-2.797678708355306.800517917810794-5.063264908467318,2.414405915755196-6.784787552040143,1.604548484489897-1.724782175097062,3.762814406291909-2.585543496883474,6.477994571062482-2.585543496883474,1.48406167653593,0,2.800499158768616.291120368243355,3.952379372889482.867092945167315v2.807080947684881c-1.275188948390678-.8956782322457-2.623281595708249-1.338753133861246-4.069607387272299-1.338753133861246-1.740517513704617,0-3.154934284886622.607629217915019-4.253156573706292,1.819754311916768-1.14254070066545,1.240521465517304-1.721522643571916,2.898730827111649-1.721522643571916,4.968356973422487,0,1.987317994200566.528579859372257,3.560019446229489,1.579221990974474,4.721493029108387,1.053712009601441,1.15495304392789,2.455719389323349,1.734185890325534,4.224571286623359,1.734185890325534,1.493655045292144,0,2.892397727830939-.490655058827542,4.202503586683633-1.46832855178036l.000005903611964,2.597955102201013Z" style="stroke-width:0px;"/><path d="m122.272092157388215,132.910061264846263c-.481002653958058-.37010700090832-1.173885926143157-.550646821364353-2.088556076720124-.550646821364353-1.110634632087567,0-2.044302604605946.496985944257176-2.800496206960815,1.499984454818332-.857753431707351,1.120287036957961-1.284844305068873,2.670923740843136-1.284844305068873,4.651910111668258v8.708854252181482h-2.734175034904183v-17.082266772475123h2.734175034904183v3.522282085345068h.065819365077004c.402012331531296-1.246853088889111,1.02230479620448-2.205846079019466,1.851413904709261-2.886067580349845.775191424296281-.620229738799026,1.651877738216172-.933666496614023,2.616952924136058-.933666496614023.727862170568187,0,1.269105276696791.078484825688065,1.639214491458915.232884192186248v2.835478795102972l.000495903368574.001253779500985Z" style="stroke-width:0px;"/><path d="m137.510848485111637,138.710781712637072c0-2.186538317479062-.493665900714404-3.85740944992358-1.480991798534887-5.003022980396054-.958740610733003-1.101230178897822-2.297496696397502-1.651877000263994-4.022024278245226-1.651877000263994-1.699519883355606,0-3.063283667507676.556977706790349-4.082518585710204,1.670871870401243-1.079038503117772,1.189869954387177-1.616957875949993,2.870144064123451-1.616957875949993,5.050665125534579,0,2.044301128706138.512657819045671,3.648597233797773,1.54756682588868,4.79414730044482,1.028326479979114,1.151881690024311,2.414405915758834,1.72785426694827,4.151915539383481,1.72785426694827,1.797437184384762,0,3.17392915502387-.585312090383013,4.116936640999484-1.749857027163671.924074603764893-1.139281907097029,1.38607943578063-2.750160539057106,1.38607943578063-4.838781555505193m2.803819940261747-.096162452498902c0,2.721513264052192-.76886275272409,4.908364472941685-2.300566574404002,6.547577488499883-1.537908517406322,1.645546114836179-3.607537615524052,2.468379684269166-6.208816451015082,2.468379684269166-2.56328909522199,0-4.604580857943802-.822836521239878-6.101246745121898-2.46838116017534-1.465317709890769-1.585553614351738-2.202525297529064-3.680504778276372-2.202525297529064-6.284792979751728,0-2.971636001937441.832114046780589-5.262799599056962,2.502983703326208-6.889350105810081,1.54430803231935-1.509388170050443,3.610672433253967-2.268909195461674,6.199535973672937-2.268909195461674,2.54730211516835,0,4.537946794476738.794187032384798,5.971355483983643,2.367140863803797,1.420999298050447,1.582230619007532,2.139274003471655,3.759491410944975,2.139274003471655,6.528332452826362" style="stroke-width:0px;"/><path d="m153.874337269284297,142.650812206083174c0,1.398745634345687-.521997332503815,2.5569589477509-1.56956958610499,3.481035027412872-1.142289797169724.999989144582287-2.711918419390713,1.499983716868883-4.686576118641824,1.499983716868883-1.617211731243515,0-3.034952235722812-.338513085796876-4.237482485063083-1.028388467897457v-2.939977885049302c1.3387560856645,1.088630395968721,2.816424150900275,1.636205125476408,4.4399645537178,1.636205125476408,2.164594593376023,0,3.249902731951806-.797446563905396,3.249902731951806-2.386073008066887,0-.667872621887-.237962774015614-1.221528071280773-.718209765698703-1.648868372232755-.481061690075876-.436681290308115-1.414729662594254-.958742086635539-2.803819940263566-1.569631574024243-1.430403751232006-.626560624223202-2.449384814139194-1.26885584910633-3.05062042075042-1.936666483079534-.721533498997815-.791178404348102-1.085556090261889-1.819503408425589-1.085556090261889-3.085351367448311,0-1.417739028576761.566569599644936-2.59820674364164,1.686791696873115-3.537953960143568,1.123297878843005-.943070211847953,2.566364876836815-1.414667674669545,4.338475567707064-1.414667674669545,1.357748003994857,0,2.572941500096931.265794612676473,3.651920967095066.800706833379081v2.753169905041432c-1.126556672415973-.81336934218416-2.414405915757015-1.218455979429564-3.876464832077545-1.218455979429564-.905017745708392,0-1.632885819886724.22529878930618-2.174128926017147.664549626544613-.547388765739015.449343799113194-.822833569436625,1.022307010054647-.822833569436625,1.7215219056161,0,.756448933556385.230376633186097,1.34508475723851.686867492024248,1.765842531318413.405023173421796.38935203658184,1.265787447011462.86402159125646,2.563289095220171,1.41767704065569,1.458735183025055.610889487386885,2.51263610820024,1.243843722908423,3.154931333083368,1.892408583255019.832361998467604.819763691431945,1.253124200255115,1.864074199656898,1.253124200255115,3.132930048763228" style="stroke-width:0px;"/><path d="m170.584244075103925,138.710781712637072c0-2.186538317479062-.49365999710426-3.85740944992358-1.48406167653593-5.003022980396054-.955664829121815-1.101230178897822-2.297496696399321-1.651877000263994-4.018954400244183-1.651877000263994-1.699519883353787,0-3.063348607238368.556977706790349-4.088664245326072,1.670871870401243-1.075909588998911,1.189869954387177-1.610883059671323,2.870144064123451-1.610883059671323,5.050665125534579,0,2.044301128706138.512657819042943,3.648597233797773,1.537973457132466,4.79414730044482,1.041302618146801,1.151881690024311,2.427387957537576,1.72785426694827,4.161573847864929,1.72785426694827,1.800448026269805,0,3.173864215297726-.585312090383013,4.11693073738752-1.749857027163671.924009664035111-1.139281907097029,1.386085339392594-2.750160539057106,1.386085339392594-4.838781555505193m2.810095479326264-.096162452498902c0,2.721513264052192-.7751914242981,4.908364472941685-2.310095003425886,6.547577488499883-1.531644785558456,1.645546114836179-3.601273883679823,2.468379684269166-6.202546815562528,2.468379684269166-2.566299937108852,0-4.607591699823388-.822836521239878-6.104310719509158-2.46838116017534-1.465252770161896-1.585553614351738-2.202525297529064-3.680504778276372-2.202525297529064-6.284792979751728,0-2.971636001937441.838507658076196-5.262799599056962,2.500043704776544-6.889350105810081,1.544302128708296-1.509388170050443,3.613931226827845-2.268909195461674,6.205557657447571-2.268909195461674,2.547550066852637,0,4.534930048972456.794187032384798,5.965268860481956,2.367140863803797,1.424069176051489,1.582230619007532,2.148607613320564,3.759491410944975,2.148607613320564,6.528332452826362" style="stroke-width:0px;"/><path d="m185.44267794010193,124.334355591465282c-.537984312557455-.297451991616981-1.135902089485171-.449343614625832-1.816435006327083-.449343614625832-1.914659295152887,0-2.864066296042438,1.205542382645945-2.864066296042438,3.620262665715018v2.632872750609749h4.003286215212938v2.316489352677308h-4.003286215212938v14.765777419803271h-2.737185876789226v-14.765776681850184h-2.905060974586377v-2.316489352680946h2.905060974586377v-2.768841779827198c0-1.879996608965484.575909113098533-3.354656046167293,1.746843233471736-4.417960686576407,1.003247938149798-.924075618445386,2.230856729316656-1.38282239484306,3.689851671246288-1.38282239484306.845090184955552,0,1.503307450164357.101302930001111,1.980980467214977.29751462524473l.000011807225746,2.468317696353552Z" style="stroke-width:0px;"/><path d="m196.234314536919555,147.048775515492707c-.645559922069879.370357166442773-1.506318292047581.55390635288677-2.569617766797819.55390635288677-2.980981419010277,0-4.471371767122037-1.680463025302743-4.471371767122037-5.041262148257374v-10.104276153228057h-2.930387468097251v-2.319748884203364h2.930387468097251v-4.167587045196342c.87342752035147-.275448493449403,1.781509240448941-.575972207949235,2.740503706480013-.886087077346929v5.053674122543271h4.300485827439843v2.319748884203364h-4.300485827439843v9.639260479325458c0,1.145550066645228.187309786992046,1.965062854591451.578978991105032,2.439732409269709.395683659962742.490591595007572,1.041243582025345.731123915946227,1.95265493903571.731123915946227.680284965152168,0,1.268851421398722-.182294668989925,1.768851897299101-.550646083413085v2.332161227470351Z" style="stroke-width:0px;"/><path d="m48.424607206121436,213.890708099072981c0,1.33850223036643-.477722459795586,2.496714067870926-1.443039693788705,3.474700452228717-.962026708507437.974662651062317-2.129868812337008,1.465317709895317-3.499996689733052,1.465317709895317-1.338734316096634,0-2.477972130590388-.490655058832999-3.411388277178958-1.465317709895317-.933666865591476-.977986384357791-1.398732443461995-2.136198221862287-1.398732443461995-3.474700452228717,0-1.376427030909326.465065577870519-2.537962601711115,1.398732443461995-3.499967909623592.933415962100298-.965323137608721,2.072653592107599-1.44306699799381,3.411388277178958-1.44306699799381,1.370127877396044,0,2.537970719174155.484320483645206,3.499996689733052,1.46205891632053.965317971942568.977986384361429,1.443039693788705,2.139209063750968,1.443039693788705,3.480970087684909" style="stroke-width:0px;"/><path d="m109.645022732304824,217.82465639673228h-8.917664992407481l-32.370119009689915-49.990353859793686c-.756456313069066-1.202533201152619-1.408347858516208-2.50956623019556-1.962023970550945-3.93670897400807h-.266075772177828c.23038253679897,1.33850223036643.34835440623101,4.211907301916654.34835440623101,8.613945579187202v45.313117254614554h-7.351382242030922v-62.718162512224808h9.541256100029386l31.401773222974043,49.202499188739239c1.250113358368253,1.952401083743098,2.104289201480242,3.351084730160437,2.537962601711115,4.19291021792742h.174646540232061c-.291118892336272-1.803830795683098-.442759058391857-4.87977770994803-.442759058391857-9.221512071224424v-44.173900287249126h7.306846872463211v62.718165464031699h-.000814698391878Z" style="stroke-width:0px;"/><path d="m156.773134512028264,217.82465639673228h-33.240520929123704v-62.718162512224808h31.797453931129894v6.645558991298458h-24.452369366710627v20.863762419543491h22.658190975897014v6.648880510741947h-22.658190975897014v21.911330983391963h25.895436364704437v6.648629607248949Z" style="stroke-width:0px;"/><path d="m207.192964304245834,161.752804848326377h-18.066208424985234v56.072855162368796h-7.34809540630522v-56.072856638269513h-18.101252263093556v-6.648567619335154h43.51555609438401v6.648569095235871Z" style="stroke-width:0px;"/><path d="m98.706294967923895,46.778011553639772c7.091707460668658,21.686536214915577,9.778429265998966,60.373339513902465,30.515750347405628,60.373339513902465,1.579098015130512,0,3.174053130860557-.154462092372341,4.77533691816825-.458999893742657-18.851247073334889-4.395457226306462-21.085421632337784-42.66143928738984-32.588573299365635-62.477885522485849-.901947867707349.81970170351633-1.797502124111816,1.67413140192366-2.702519869819298,2.563539998714987" style="fill:url(#linear-gradient); stroke-width:0px;"/><path d="m101.408814837742284,44.214471554925694c11.503145763417706,19.816440331484046,13.737326226033474,58.082428296179387,32.58856739575549,62.477885522484939,1.480991798534887-.272126974006824,2.965183354521287-.683543758725136,4.452503824630185-1.202536152954053-16.92084874980992-8.291102892282652-21.598079451381636-45.449340139128253-34.661331311601316-63.338643892464461-.791178404350831.65846890665398-1.585426686703613,1.34834355080784-2.379739908784359,2.063294522933575" style="fill:url(#linear-gradient-2); stroke-width:0px;"/><path d="m117.982938578105859,32.429419484984464c-1.575963197404235,0-3.174177106707248.15439918201173-4.778477639511038.458997495401491-4.196233951223803.791115493990219-8.458730038392787,2.597956024634186-12.756205023943039,5.332131797489637,1.173944962260066,1.158213313402484,2.290914169531789,2.484053034965655,3.341556301133096,3.930377350627168,4.370319648362965-3.626594473583282,8.712113045755359-6.306858465841287,13.038173318389454-7.917737835755361,1.623292451133239-.601235237638321,3.240504182376753-1.053650575146094,4.863790729898028-1.351102566764894-1.170875084256295-.297765436493137-2.405066402297962-.452666056510679-3.7088376859665-.452666056510679" style="fill:#14559a; stroke-width:0px;"/><path d="m151.658756400633138,97.847282892515977c1.730986132872204-1.376427030910236,3.465172023197738-2.898732303013276,5.202498634869698-4.559949554687591-7.205676681478508-21.585546084079397-9.784763841187669-60.826007784267858-30.667703404872555-60.826007784267858-1.493655045290325,0-2.999973337339725.139228745229957-4.503150908048156.417686420176324,19.022127109406938,4.73114690987768,21.458854580401749,46.117147821289109,29.968355678051012,64.968265015167162" style="fill:url(#linear-gradient-3); stroke-width:0px;"/><path d="m121.691026505406626,32.880518317118913c-1.170875084257204-.297451991617891-2.405001462571818-.452352611635433-3.708837685965591-.452352611635433l8.2120535337408.030089970075096c-1.493714081407234,0-3.000032373454815.139228745229957-4.503215847775209.421008862058443" style="fill:#3092c4; stroke-width:0px;"/><path d="m151.294043086818419,102.432865928518368c-.816445861748434-.77845021786743-1.591637286046534-1.63287991627476-2.354419318884538-2.544297176893451-3.512696096107902,2.487315518294054-7.012652198513024,4.373389526363098-10.490363492626784,5.6012462692197,1.237196256312018.604559339913067,2.53464477201851,1.05396586489951,3.911378790737217,1.332421510479435,1.066310316629824.21771338643066,2.170864228824939.329108632606221,3.332151847940622.329108632606221,3.901980241160345,0,6.987325705005787-.462004832017556,9.613877901501837-1.721522643571006-1.446077839878853-.781773951165633-2.77209983544526-1.794426342498809-4.012625728668354-2.996962495452863" style="fill:#1969bc; stroke-width:0px;"/><path d="m116.826480113233629,34.236761453632425c17.038011824464775,8.911334106983304,18.519003622997843,49.265749006895021,32.11389931697704,65.651807297992491.911411357010365-.642295224885856,1.813294284987933-1.32276910561086,2.7151772129655-2.041291762720903-8.509442061535083-18.851117193878054-10.943028811187105-60.240440362685149-29.961967970360092-64.968265015167162-1.623416426974472.303783430508702-3.243698036219939.753440490010689-4.867114463195321,1.35774726604177" style="fill:url(#linear-gradient-4); stroke-width:0px;"/><path d="m103.788554746526643,42.15117703199212c13.06325186021968,17.889306705142189,17.740482561791396,55.047541000181809,34.661331311601316,63.338643892464461,3.477841173569686-1.227856742857512,6.977868119312916-3.113936654537611,10.49049337208271-5.60124626922061-13.594907501201305-16.38605829109656-15.075887492512265-56.740478356669882-32.11389931697704-65.651808773894118-4.32593629679377,1.607557112518407-8.667670658072893,4.287821104777322-13.037925366706986,7.914415578359694" style="fill:url(#linear-gradient-5); stroke-width:0px;"/><path d="m90.348369096603165,46.25569985382208c-2.047496458450041,4.62990587555305-4.139252292627134,10.71516564061767-6.667751405033414,18.658227018079742,5.028471973845626-7.085561801052791,10.041151786821501-13.189876948271376,15.025305348825896-18.135916794164586-.686678576455051-2.110874680154666-1.42401013993549-4.057006128435205-2.218323362016235-5.791379458429219-2.037968029420881,1.560227858790313-4.091799063053259,3.316666674872977-6.139230581776246,5.269067758610618" style="fill:url(#linear-gradient-6); stroke-width:0px;"/><path d="m98.303214082701743,39.651703025727329c-.601300546341008.43034966693358-1.205606030956005.870352476686094-1.813170309143061,1.335430876462851.794189246239512,1.734185890328263,1.528321052264801,3.680504778276372,2.215188544288139,5.79112855493986.904828830139195-.886087815298197,1.803517904269938-1.743588867610015,2.702266014523047-2.56328909522199-.965075185920796-1.658271349516326-1.990390824010319-3.189913183271528-3.104284249668126-4.563270336180722" style="fill:#2b74b1; stroke-width:0px;"/><path d="m100.448255914651781,38.220548777875592c-.71519892381275.452666056510679-1.427080017935623.930344239220176-2.145537735318612,1.430339549458949,1.113893425657807,1.373419140830265,2.13920906374733,2.905061712537645,3.107602079352546,4.566592593574569.794378161807799-.718460669188062,1.588561504432619-1.411408143148037,2.379739908783449-2.066554054455992-1.050642131602217-1.446074150121603-2.167605435262885-2.772164037223774-3.341804252817383-3.930377350626259" style="fill:#125a9e; stroke-width:0px;"/><path d="m216.661947181677533,30.777981390708192c-9.636193553129488,37.161245312045139-29.762738791667289,67.009309001323345-46.636134311902424,74.534624922493094h-.031973960110918c-.306916956820714.139230774596399-.610764035640386.265857338550632-.911352320892547.389101133092481-.041372509680514.025072638217353-.078990322424943.028207455945449-.110893439194115.043255761765067-.088636823686102.035734560658966-.170885939684013.063316233783553-.259522763364657.098731999420124-.041372509685971.025072638216443-.078990322424943.03322552575537-.116915122971477.048267927964844-.142300652594713.05077696286844-.28164949942402.093719833220348-.42088027401951.14938498644733-.060181416050909.025072638214624-.116974159085657.040746726859652-.174203769365704.060807198876319-.063310330175227.025072638218262-.136219932710446.048267927963934-.208869776344727.068393339709473-.063251294051952.025072638217353-.129572466112222.043255761764158-.20254110476526.070837434886926-.060181416050909.025072638218262-.123491746226136.035734560660785-.180225453137609.060807198878138-.123562589567882.035734560660785-.237207111740645.065819365076095-.360769701306708.108827175155966-.050782866477675,0-.097976337141517.027581673123677-.151888117741692.040746726861471-.0759794805399.025072638215534-.161546426219502.043255761763248-.243795542217413.065819365076095-.057040694717216.025072638216443-.104316815939455.033225525756279-.164557268110002.045758893058519-.085566945679602.025072638216443-.180544248160004.048267927962115-.265851434936849.068393339708564-.113904281084615.025072638216443-.215139411800919.048267927963934-.322774057420247.070902374613979.762652153382078.281720342762128,1.556971279071149.424015091747606,2.41458892771152.424015091747606,15.999967999890941,0,32.132578343896967-28.673864871721889,58.825710700095442-76.357382521659929h-10.480964943060826l.003813733055722.008707651903933Z" style="fill:url(#linear-gradient-7); stroke-width:0px;"/><path d="m80.205976275455214,33.937491518635397c.010030236008788,0,.022569506922991-.025074852070247.028839142379184-.025074852070247.012539270914203,0,.031968056498954,0,.038237691955146-.025074852072066h.020060472017576c.088577787570102-.030089970075096.170885939681284-.065821763419081.259463727252296-.098732737372302.022569506922991,0,.034477091401641,0,.050776962867531-.025075036558519.022569506922082,0,.044507327412248-.025075036559429.066575027355611-.028209300823619.094971398867528-.030089970076915.189877858008003-.065821763419081.278520585306069-.098732737373211h.015042402207655c.212134473521473-.063251663031224.408222930875127-.141736304231927.613898853369392-.215143286042803.028839142381912,0,.057046598327361-.02507503655761.091647665572054-.02507503655761.08556694568324-.027582411074945.174209672979487-.058299270900534.262657581094572-.078484641200703.041372509682333-.025075036559429.082308152111182-.025075036559429.120232952654987-.038239352344135.091647665570235-.027582411074945.180538344552588-.058299270900534.265857338550632-.078484641199793.038237691955146,0,.072903698926893-.025075036560338.101241034326449-.027582411074036.294318649790512-.080992200201763.585437542126783-.156969282399587.879756191920933-.227868889696765.041372509682333,0,.07597948053899-.02507503655761.120232952655897-.027582411073126.085318993996225-.02507503655761.164616304222363-.038239352345045.256328909521471-.050776778381078.038237691952418-.025075036559429.082308152110272-.025075036559429.126626563953323-.038239352345045.085318993999863-.025075036558519.167562206383082-.027582411074036.259463727252296-.04826940386738h.060181416054547c.177214611251657-.035731793341256.357628979962101-.065821763419081.53484949482754-.098732737371392h.10756970589955c.085318993996225-.025075036559429.16129257092507-.027582411074036.246865420219365-.043254285861622.047016362318573,0,.094906459143203-.025075036559429.139230774597308-.025075036559429.078984418814798,0,.158222692924028-.025075036559429.237207111739735-.035731793342165.041372509681423,0,.082243212384128,0,.129891261134617-.025075036560338.186560028325403-.02507503655761.379696679908193-.035104903592583.575909113101261-.050776778380168-.553782377041898-.053284337383047-1.123421854686057-.088639959978536-1.702530725240649-.088639959978536-18.018955918206302,0-42.844876305211073,33.433408891067302-54.028412346989171,76.730814731769897h2.155062843567066c3.579108405169791-6.382772268701956,6.7942971633056-12.420761816154481,9.734168783346831-18.088589016339029,7.832269775562963-30.66757647722261,23.784781594078595-51.582239097527236,37.955669051720179-57.123244914579118" style="fill:url(#linear-gradient-8); stroke-width:0px;"/><path d="m90.348558012173271,46.25569985382208c2.047561398176185-1.95240108373855,4.101262552354456-3.708840637773392,6.139230581777156-5.268816855121258-.465080613631471-1.018984752661709-.946077363979384-1.962054226560213-1.46205891632053-2.826075079869042-1.648618944645932,1.999980503006554-3.154931333083368,4.63924686491373-4.677171665456626,8.094893410893746" style="fill:#0d82ca; stroke-width:0px;"/><path d="m91.828794148429552,34.190936882895585c1.177209659442269.987327373723019,2.230856729318475,2.345011913892449,3.196179866922648,3.971625884467358.303782139092618-.373429258303076.610888011485258-.718460669188971.930409178948139-1.041238416368287-1.338502230368249-1.249925180749415-2.784828021932299-2.275240818838938-4.354456644152378-3.047362365134177.063316233785372.035105088079035.126567527840962.063314388903564.192386892917057.091147703468778,0,0,.025072638218262.025074852072066.035734560660785.025074852072066" style="fill:#0d82ca; stroke-width:0px;"/><path d="m42.250628232611234,91.059481546784809c16.430361205957524-31.661484901910626,24.215164468824696-51.699467111907325,37.95566093425532-57.123498769873549-14.167714266440271,5.544516990014927-30.123393372546161,26.45893018273091-37.955661672208407,57.123498769873549" style="fill:url(#linear-gradient-9); stroke-width:0px;"/><path d="m95.954320544221446,37.1205089146506c-.319456227735827.326100004574073-.623238366828446.667871883937551-.930344239218357,1.041301142239718.515916612613182.863770687769829.996730351004771,1.803768807763845,1.465317709891679,2.825824914330042.607564278185237-.465078399776758,1.211875666414016-.905081209530181,1.813170309140332-1.335430876462851-.743536259210487-.917744456287437-1.528380088377162-1.768914623173259-2.348143779813654-2.531695180106908" style="fill:#127bca; stroke-width:0px;"/><path d="m49.709482032995766,109.005769910526396c-.101264648769757.025072638216443-.202530773444778.025072638216443-.29747117835268.035734560660785h-.056983134503753c-.085568421584867,0-.174177203116415.025072638216443-.253163097830111.025072638216443h-.041248533842918c-.205571133390549.025072638217353-.408227358583645.025072638217353-.604432412264032.040746726860561h-.063289667529716c16.629731333376185-.465328565315758,24.230973602581798-8.791410355981498,28.003127522331852-20.867336318381604,2.867074186122409-9.154937043876998,5.221549589314236-16.867060945055528,7.28484411224963-23.33847594105282-6.965201920750587,9.803814795629478-13.962061958391132,21.490385769640852-20.996846796576392,34.58221701333332-3.392407059144716,6.310116521459349-8.550624179743863,8.946061363923945-12.974671120843595,9.509620121679291" style="fill:url(#linear-gradient-10); stroke-width:0px;"/><path d="m49.709482032995766,108.999441238952386c4.424046941099732-.563558757755345,9.582271441214289-3.19643372221708,12.974669644943788-9.509620121679291,7.034778934570568-13.088578353731464,14.034773789941028-24.778405169509824,20.993644087312532-34.582219965138393,2.531633930135285-7.946323122839203,4.620254946583373-14.028322618429229,6.670886222762419-18.658228493982278-13.870222425444808,13.202538719125187-27.794279884536991,35.155183176080754-40.639198479115294,62.74373990922868" style="fill:url(#linear-gradient-11); stroke-width:0px;"/><path d="m42.249844528177164,91.060237209061597c-2.93974690624691,5.667821296574402-6.154929391793303,11.705816747637073-9.734169152322465,18.088589016338119h6.269108559789856c.82911648802019-6.338766748269336,2.006330575170068-12.383025931178963,3.465061330483877-18.085578174452166" style="fill:#05a1e6; stroke-width:0px;"/><path d="m85.516422447361037,32.569149852707596c-.05077696286844,0-.088642727296246.025075036558519-.132896199409515.025075036558519-.075979480541719.025075036559429-.155211851040804.025075036559429-.234202173465746.033224418828468-.047016362318573,0-.091647665571145,0-.13923077459458.025075036558519-.085566945685059.025075036560338-.164557268110912.027582411073126-.246865420223912.043254285862531-.038237691953327,0-.075914540811027,0-.107569705896822.025075036559429-.180538344552588.030089970075096-.357634883574974.063314388904473-.534849494831178.093655077982476h-.060181416054547c-.091647665569326.025075036559429-.174144733252433.038239352345045-.259463727248658.050776778381078-.044507327411338.025075036558519-.088642727298975.025075036558519-.129891261139164.035104903592583-.085318993995315.025075036558519-.170885939681284.035731793343984-.253129152066322.050776778381078-.044507327411338.025075036559429-.078984418812979.025075036559429-.120297892381132.027582411073126-.294253710065277.070899422807997-.585437542128602.146876689493183-.879756191921842.227868889695856-.031342273673545,0-.06325129405559.025075036558519-.10124103432463.030089970076915-.088577787570102.0250750365567-.174144733252433.050776778379259-.265792398823578.078484641198884-.038237691953327.025075036558519-.08230815211391.025075036558519-.120297892382951.035104903591673-.088577787567374.025075036559429-.177214611252566.050776778381078-.262657581093663.078484641200703-.034477091401641,0-.063251294056499.025075036558519-.094906459141384.025075036558519-.202541104768898.075914540812846-.401888355690971.15189162301067-.610764035642205.215206011915143-.088577787568283.027582411073126-.18354918643854.063251663030314-.278455645580834.096162636984445-.038237691953327.025075036560338-.072903698925074.030716859827407-.116974159084748.04826940386647-.088642727293518.027582411074036-.177214611253476.063314388904473-.259528666977531.096225178370332-.031342273673545.025074852071157-.063251294056499.027582411074036-.085318993998044.040746726859652-13.740466947373534,5.424031288990591-21.525270210239796,25.462010547181308-37.955632154149498,57.123501352702988-1.458862110669543,5.702552243274113-2.639242009510781,11.74681142618283-3.465186782229466,18.085330222769699h.87974290879265c2.477846863334889,0,3.177213038943592-.025072638218262,6.028475877455094-.025072638218262h2.762655532881581c.196199150069333-.025072638217353.398735827127894-.025072638217353.604432412264941-.040746726857833h.037988264364685c.085568421589414,0,.170885939682194-.025072638218262.253163097834658-.025072638218262h.059992500484441c.091643237863536,0,.196199150068423-.025072638216443.297463798842728-.035734560660785,12.844928925897875-27.588556733149744,26.76894505970904-49.541201190104402,40.639167485152939-62.743736957423607,1.525310210377938-3.455645070076571,3.028493684695604-6.094912169935014,4.674101787454674-8.091633141420061-.962064344032115-1.626551244702569-2.015841293363337-2.987307507752121-3.193045049193643-3.974885784964499-1.177203755828486-.987578277212378-.031968056497135,0-.034477091400731-.025074852071157-.066575027356521-.027582411073126-.12957246611677-.060806829901594-.196147493469653-.093654893495113-.066634063468882-.035731977830437-.12355668595319-.063314388903564-.192953639622829-.098732737371392-.060181416053638-.025074852072066-.129826321411201-.058299270899624-.189877858010732-.091147703468778-.082243212385038-.025074852072066-.148818239740649-.060806829902504-.221473986980527-.093717803855725-.060181416054547-.025075036559429-.113963317198795-.050776778380168-.174209672979487-.075914540812846-.1235566859541-.04826940386647-.24680048049504-.098732737371392-.363898615419203-.15189162300976-.053911780599265-.025075036558519-.104310912327492-.038239352345045-.155211851042623-.058299270900534-.085318993995315-.030716859826498-.183549186436721-.070899422808907-.272126974004095-.108888056150136-.044507327414067-.025075036559429-.094971398870257-.030089970076006-.14555944617041-.04826940386738-.129637405840185-.043254285861622-.256328909521471-.088577418593559-.376626801903512-.129136152322644h-.031342273674454c-.145624385895644-.048269403865561-.287984074608175-.083499759203733-.436743278231916-.124058492932818-.03447709140346-.025075036560338-.063316233781734-.025075036560338-.097982240754391-.030089970077825-.129891261137345-.035731793341256-.243789638607268-.070899422807088-.367098372877081-.103810396761219-.031342273672635,0-.060181416054547-.025075036559429-.085318993998044-.025075036559429-.297453467520427-.078484641199793-.604429460456231-.141736304231017-.914546174733914-.199973033745664-.031968056499863,0-.063251294058318-.025075036559429-.094906459143203-.025075036559429-.132896199411334-.025075036559429-.262657581094572-.048269403865561-.39555968411878-.063314388904473-.031968056496225-.025075036559429-.05077696286844-.025075036559429-.078984418814798-.025075036559429-.158222692924028-.025075036559429-.313310568119959-.043254285860712-.468398443315891-.060806829901594h-.082243212385038c-.126567527839143-.025075036559429-.243541686922072-.027582411073126-.360763797693835-.040746911348833-.199471226764217.025075036560338-.389225108932806.035731793343984-.575974052826496.053284337384866" style="fill:url(#linear-gradient-12); stroke-width:0px;"/><path d="m179.022645292954621,51.350622879181174c-3.161395787719812,10.126593280760972-5.721544161600832,18.481012406825357-7.949331012918265,25.354439734356674,8.673999329639628-11.936692235999544,17.218296313720202-26.952655119563133,25.354500246372481-44.28147294495102-9.490634106959988,2.980725349859313-14.553890160012088,9.803752807709316-17.405169233454217,18.927033210594345" style="fill:url(#linear-gradient-13); stroke-width:0px;"/><path d="m171.348576071768548,104.679709637892302c-.443007010073416.225299527259267-.886025827374397.43975412011514-1.322763201993439.63289077169884,16.873395520235135-7.525315921170659,36.999952565995045-37.373379610448865,46.636134311902424-74.534624747374437h-1.95265493903571c-22.139204485276423,39.547316669089014-29.259432293300051,66.021982928384205-43.360716170873275,73.901728072062724" style="fill:url(#linear-gradient-14); stroke-width:0px;"/><path d="m160.33050055066451,101.357151158698798c3.670853849311243-4.480959232262649,6.661233817894754-12.097922819003543,10.743746499992994-24.651840593475754-4.709086589449726,6.468339214383377-9.449320633390016,12.028590805060048-14.193132265932945,16.56327880596109q0,.025072638216443-.025078541828407.040746726858742c1.034973946570972,3.101273407781264,2.170864228835853,5.8384592845714,3.465301902659121,8.047313253674474" style="fill:#079ae1; stroke-width:0px;"/><path d="m160.33050055066451,101.357151158698798c-1.250113358368253,1.525375150104082-2.572687644798862,2.68684578117518-4.044339929869238,3.547610054767574-.322774057423885.187374726716371-.648558956730994.363839579305022-.980991322636328.525321065800199,1.553960437187925.838507658080744,3.249902731948168,1.398742682538796,5.148586854267705,1.623292451132329.27827263362451.027581673122768.553723340932265.053285997774765.841831391378946.07340550590834h.050771059259205c.129135598859648,0,.265863242166233,0,.405082209535976.025072638216443h1.372542454515497c.050782866481313,0,.103750069230955,0,.154403056254523-.025072638216443.098731999425581,0,.202541104770717,0,.30378804270913-.025072638216443h.149632938127979c.103809105348773,0,.217713386433388-.025072638218262.329114536220004-.035734560661695h.025078541828407c.033225525756279,0,.06832839998242-.025072638218262.101235130716304-.025072638218262.116478255713446-.025072638215534.238021810131613-.035734560660785.351430187844016-.053285997772946h.103809105348773c.129076562743649-.025072638217353.2625336052497-.040746726860561.395435708271179-.065819365076095h.063322137397336c.265851434942306-.05077696286935.525315162187326-.101241034326449.787860574666411-.167060399404363-2.177192900406226-.797507075923022-3.999956578303681-2.67725831603093-5.569597007748598-5.354445788724661" style="fill:#1969bc; stroke-width:0px;"/><path d="m129.222423146462461,107.151852874523684c1.579227894591895,0,3.17418301032194-.154397152645288,4.775407761509996-.462004832017556,1.481050834650887-.268868180436584,2.965112511184998-.680532916839184,4.452432981293896-1.19952531106901,1.237456015222051.604559339911248,2.534892723708253,1.05396586490042,3.908308912732537,1.332421510480344,1.066381159975208.217713386427931,2.173934106835077.329108632606221,3.335469677631409.329108632606221h-16.471619333167837Z" style="fill:#1e5cb3; stroke-width:0px;"/><path d="m145.694302238543969,107.151852874523684c3.898721447585558,0,6.987325704996692-.462004832017556,9.610867059614975-1.721522643571006,1.553712485501819.838507658078925,3.249902731948168,1.398742682536977,5.148586854267705,1.623540402816616.278520585314254.027581673121858.553971292614733.053285997774765.841831391378946.073405505907431h.050771059259205c.129135598859648,0,.265863242166233,0,.405082209535976.025072638215534h.472985549484292-16.541270142133726l.011146018592626-.000495903368574Z" style="fill:#1e5cb3; stroke-width:0px;"/><path d="m162.234261778912696,107.151852874523684h.902071843549493c.053285997772036,0,.103750069232774,0,.154403056258161-.025072638216443.098731999416486,0,.20254110476526,0,.307105872387183-.025072638216443h.149703781473363c.103750069230955,0,.217713386426112-.025072638218262.326032850993215-.03510287422705h.02758167311913c.033225525756279,0,.065825268688059-.025072638216443.098731999425581-.025072638216443.116478255709808-.025072638217353.238021810127975-.03510287422705.351170428935802-.053285997774765.038243595565291,0,.068328399978782,0,.108827175155966-.025072638215534.129135598859648-.025072638218262.262781556937625-.038237691956056.395742696075104-.063251294057409h.063322137395517c.265863242160776-.05077696286844.525315162187326-.101300070440629.787860574666411-.167125339128688.76253408114826.281531427192022,1.556971279074787.424080031474659,2.414411819370798.424080031474659l-6.082254826795179.025072638217353-.004711082010544-.030096611639237Z" style="fill:#1d60b5; stroke-width:0px;"/><path d="m156.86620226197374,93.309837905024324v-.025072638216443c-1.737255768333853,1.661282191402279-3.471441658659387,3.183581559892446-5.202557670987517,4.5600085908045-.905082685434536.718463620993134-1.806835733956177,1.398742682536977-2.718188054852362,2.041291762719084.762534081155536.911352320890728,1.537973457139742,1.765782019298058,2.354419318884538,2.544297176892542,1.240525893226732,1.202282297657803,2.566299937110671,2.21518854428723,4.01262572867563,2.996708640156612.329114536216366-.162048233203677.658217265212443-.338761037475706.977732529065179-.525321065800199,1.474663126957239-.860764273593304,2.797485365073953-2.022045989094295,4.047598723442206-3.547356199472233-1.29443767381963-2.208853969102165-2.430386992198692-4.94635273730546-3.465301902657302-8.047561205356942" style="fill:#175fab; stroke-width:0px;"/><path d="m208.525802285143072,30.777981390708192h-9.827565024863361c-.531655640985264.025074975304051-1.047324301915069.043254334146695-1.556971279078425.075977188135766-.240465905306337.515980330109414-.48733132552843,1.031898049652227-.724786388951543,1.550887492075162-8.135955980966173,17.328815980508807-16.680252965046748,32.344780339974022-25.354252294686376,44.281472575973567-4.079135816304188,12.55366391917687-7.072774578457029,20.170875457602961-10.743687463882452,24.651899629593572,1.56962862221917,2.677193376304785,3.395592057573595,4.559949554687591,5.566456286411267,5.357456630610614.063310330167951-.025072638216443.113904281080977-.025072638216443.170885939674918-.038237691953327h.035102874226141c.038243595565291,0,.078990322426762-.025072638217353.120291988772806-.025072638217353.088577787566464-.025072638218262.183543282826577-.040746726860561.272121070400317-.06832839998242.057040694711759-.025072638217353.104316815935817-.027581673120949.161546426219502-.045758893058519.082249115997911-.025072638217353.167568109995045-.043255761764158.243535783309198-.063316233781734.050782866484951-.025072638217353.101235130716304-.033225525756279.151888117741692-.043255761766886.126561624230817-.040746726858742.240465905309975-.07090237461307.360769701301251-.108886211271965.057040694717216-.025072638216443.117222110771763-.045764796669573.180473404829172-.060807198877228.069650808965889-.025072638217353.139230774595489-.043255761765067.202541104768898-.073405505907431.072909602535219-.025072638217353.145559446165862-.038237691955146.20886977633927-.065819365077004.057040694713578-.025072638215534.116974159082019-.040746726860561.170885939678556-.063316233782643.14224161648599-.05077696286935.281649499425839-.093654893495113.424020995360479-.14938498644733.038243595568929,0,.075979480541719-.035102874226141.117222110771763-.043255761765067.085318993993496-.035734560660785.173955817679598-.063316233783553.259522763362838-.101300070441539.031348177286418-.025072638217353.0695799656296-.027581673121858.11057464417172-.040746726859652.297518407251118-.124058492933727.604435364071833-.25062602077287.911411357012184-.389101133091572h.03197396010728c.436678338504862-.192386892916147.879756191920023-.40834690671727,1.319634287881854-.63289077169884,14.104424598905098-7.879751047291393,21.224782286386471-34.354414354780602,43.363974964442605-73.901728072063634h-6.183548993616569l.007107948295015-.003081860344537Z" style="fill:url(#linear-gradient-15); stroke-width:0px;"/><path d="m86.093016379400069,32.51574006357805c.03510287422705,0,.066575027355611,0,.101241034326449.025075036559429.085318993998953,0,.170885939681284,0,.256328909521471.027582411073126h.085566945685059c.154963899352879.025075036559429.310116714277683.038239352345954.468339407201711.060806829901594.028839142379184,0,.053911780597446,0,.078984418812979.025075036559429.129637405842914.025075036559429.262657581095482.04576184486541.395559684119689.065821763419081.028839142380093,0,.066634063469792.025075036559429.098230192437768.025075036559429.303847078820581.060806829901594.613963793097355.124058492934637.911411357008546.202543134133521.028207455944539,0,.057046598324632.025075036558519.082308152111182.025075036558519.126567527839143.030089970076915.240471808921939.06832932242196.367033433150937.103747670889788.038237691952418,0,.066321172056632.025075036559429.101300070440629.030716859826498.14881823973883.038239352345045.287984074608175.075977266685186.433543520776766.124058492933727.006269635457102,0,.015042402206745,0,.031968056495316.025075036559429.123243794542759.037612462594552.249870358496082.08606985959068.379696679907283.129073426450304.050776962870259.025075036560338.097982240754391.035731793343984.145559446168591.04826940386738.088642727294427.038239352345045.186872919735833.075914540812846.272186010121914.111395615152105.05077696286935,0,.101241034327359.035104903593492.154898959627644.053284337383047.116974159084748.053284337383957.240530845035209.101240296375181.360763797691106.15189162301067.063316233784462.025075036559429.116974159084748.053284337383047.177214611256204.075914540812846.069644905354835.035731793343075.142300652595623.068391863806028.218280133135522.093717619367453.06325129405559.030089970075096.132896199410425.063251663032133.192888699897594.091084977595528.066575027353792.035731977831347.129637405840185.063314388904473.193142555191116.098732737372302,1.56962862222008.772183903192854,3.015830437940167,1.800759810756063,4.354456644152378,3.047612899649721.493665900715314-.518989442422935,1.009458537489081-.984318376713418,1.544308032317531-1.402004796890651-2.927252650371884-2.075957400715197-6.243671373558755-3.259496469680926-10.069607194453056-3.259496469680926-.44307785341698,0-.886084863492215.025075036559429-1.335432352368116.058299270900534" style="fill:#7dcbec; stroke-width:0px;"/><path d="m95.954379580337445,37.1205089146506c.81963971559253.762530391394648,1.604424508645934,1.61395146176983,2.348084743697655,2.531695180106908.718333741542665-.499995310239683,1.430403751236554-.981058476217186,2.145602675048394-1.430402275333108-.93673785052215-.936738588471599-1.924063748339904-1.77850577807294-2.952579143883668-2.503298070640994-.534784555103215.414677423169451-1.047442374146158.883015354467716-1.541108274862381,1.402004427915017" style="fill:#5ec5ed; stroke-width:0px;"/><path d="m86.092266620736154,32.515218516396999c.449365199706335-.037974612265316.892401727843207-.053797398124516,1.335444159588405-.053797398124516,3.82594762811641,0,7.142395869363099,1.183543127698613,10.069613098063201,3.256325861307232,3.088604257413863-2.436706439379122,6.822780244115165-3.287971433023813,12.009480814500421-3.287971433023813h-25.117062893782531c.579114774164736,0,1.145566301576764.034809907502677,1.702530725240649.085442969841097" style="fill:url(#linear-gradient-16); stroke-width:0px;"/><path d="m109.506798789277127,32.429776653482804c-5.186700570385256,0-8.920876557087468.851264624669057-12.009480814500421,3.287971433023813,1.025315638090433.724682706778367,2.012653343131205,1.566454139601774,2.949361675592627,2.503161918600199,4.30062751411424-2.734174665929459,8.560118663008325-4.544298711516603,12.759481528350079-5.335437266489862,1.601266076470893-.300632562335522,3.199361913543726-.455695347181972,4.775313303724033-.455695347181972l-8.474675693166319-.000000737952178Z" style="fill:url(#linear-gradient-17); stroke-width:0px;"/><path d="m171.073314280036357,76.711394236915112c2.230986608770763-6.879758950908581,4.784747274963593-15.230854343674764,7.952471734257415-25.360769881831402,2.854478830897278-9.126539934408356,7.908277298256507-15.949316488766272,17.398710682427918-18.927033210593436.250690960505381-.509649006525251.487390361649886-1.034969703349816.731185903870937-1.550887422892629-15.471641995820391.927335426700665-22.702633363584027,8.797430379362595-26.341891083920927,20.452657603798798-6.363904326215561,20.348032508643882-10.21837230168785,33.537907981010903-13.930338901775031,41.942980094102495,4.740481995628215-4.531677159015089,9.480975798478539-10.094933687966659,14.189873472361796-16.556944230776935" style="fill:url(#linear-gradient-18); stroke-width:0px;"/><path d="m193.771366441060309,101.731333865423949h-1.753183712267855v5.449358151480737h-.715198923813659v-5.449358151480737h-1.759453347722229v-.648564860342049h4.227824176585273l.00001180721847.648564860342049Z" style="stroke-width:0px;"/><path d="m200.950087232240548,107.179688402941792h-.71188109412833v-4.094933880783174c0-.322779961034939.025078541832045-.718209765698703.058304067584686-1.183538331014461-.073464542021611.278520585306978-.13421270478284.471663140499913-.189883761619058.594965971155943l-2.07595776969174,4.683506240641691h-.348100550938398l-2.082286441263932-4.648586378372784c-.060807198875409-.129135598859648-.121484518303987-.338702001361526-.187309786988408-.629885833424851h-.025078541832045c.025078541832045.245607950962949.033225525756279.642549080182107.033225525756279,1.193190735884855v4.085275572301725h-.683543758721498v-6.097923011821877h.943007485979251l1.870157871348056,4.256161511983009c.141733905886213.319769119148077.230370729572314.566569599641298.275450707305936.731120964139336h.027581673122768c.124058492934637-.335443207789467.225293623647303-.585561517970746.294448529246438-.750118786078929l1.908082671892771-4.237169593655381h.898754013865982v6.097923011822786l-.004970840918759.000011807222108Z" style="stroke-width:0px;"/></svg>