<?xml version="1.0" encoding="UTF-8"?><svg id="Layer_1" xmlns="http://www.w3.org/2000/svg" width="256" height="249.600000000000364" viewBox="0 0 256 249.600000000000364"><g id="Layer_2"><g id="Surfaces"><g id="Photo_Surface"><g id="Outline_no_shadow"><path d="m45.33333333333394,0h165.333333333332121c25.066666666667516,0,45.33333333333394,20.266666666666424,45.33333333333394,45.33333333333394v158.933333333334303c0,25.066666666665697-20.266666666666424,45.333333333332121-45.33333333333394,45.333333333332121H45.33333333333394c-25.066666666667516,0-45.33333333333394-20.266666666666424-45.33333333333394-45.333333333332121V45.33333333333394C0,20.266666666666424,20.266666666666424,0,45.33333333333394,0Z" style="fill:#fff; stroke-width:0px;"/></g></g></g></g><path d="m137.3846757967749,141.864005787948372c0-7.426992998515743-.13100530391057-13.80972256491259-.521501882869416-19.672209914827363h10.031983080085411l.390496578957027,12.37622222022128h.521501882867597c2.865741023004375-8.468737097866324,9.769972472267909-13.80972256491259,17.456456745832838-13.80972256491259,1.302495040783469,0,2.214493502608093.131005303907841,3.257497268345105.390496578957936v10.812976238001283c-1.172749403260241-.259491275050095-2.345498806520482-.390496578957936-3.908744788737749-.390496578957936-8.076980852523775,0-13.80972256491259,6.123238291346752-15.372968547129858,14.721721026736304-.260750941433798,1.563245982219087-.521501882865778,3.387242905871062-.521501882865778,5.340985467048085v33.611678117262272h-11.333218454485177v-43.381650589529272Z" style="fill:#333568; stroke-width:0px;"/><path d="m185.065567753998039,155.80347399038601c.260750941433798,15.502714184655815,10.161728717608639,21.886703417435456,21.62721214238627,21.886703417435456,8.206726490047004,0,13.157215378138062-1.433500344694039,17.456456745831019-3.257497268345105l1.953742561176114,8.207986156432526c-4.038490426260978,1.822737257267363-10.942721875524512,3.907485122352227-20.974704955608104,3.907485122352227-19.410199307008952,0-31.00542836931163-12.766718799177397-31.00542836931163-31.787681193610297,0-19.019702728051016,11.203472816960129-34.002174696221118,29.573187691001294-34.002174696221118,20.582948710267374,0,26.054939481222391,18.108963932607367,26.054939481222391,29.702933328524523,0,2.345498806519572-.260750941431979,4.169495730170638-.390496578958846,5.342245133431788h-44.294908717738508Zm33.611678117262272-8.207986156433435c.13100530391057-7.295987694606083-2.995486660527604-18.629206149089441-15.893210763613752-18.629206149089441-11.595229062300859,0-16.675463587913328,10.681970934091623-17.58746204973977,18.629206149089441h33.480672813353522Z" style="fill:#333568; stroke-width:0px;"/><path d="m136.115579765670191,196.56980914178348c-3.133181616160073,3.008066948483247-21.650885969119372,20.206852906178028-49.710227353470145,18.752963747361719-4.140435363914548-.214536980975026-32.59213204783282-2.167395216116347-49.412567466969449-26.492278442414317-15.300032493022627-22.12616470368539-13.78771134031922-52.366719463705522,1.541096384140474-73.237307314671853,16.411031824469319-22.344083031738592,42.064658977872568-24.970929639956012,45.787814878766767-25.290159689599932,28.743994995820685-2.46454194861326,47.819103636263208,15.452067638007975,50.603224707935624,18.157634322564263" style="fill:none; stroke:#333567; stroke-miterlimit:10; stroke-width:8px;"/><path d="m62.086037019168543,56.456031252831053l-3.141961058177912,9.516378944752432h-4.039974240849006l10.279191012682531-30.254884445616881h4.713158603502052l10.324764422145563,30.254884445616881h-4.174958339358454l-3.231805779690148-9.516378944752432h-10.728414620254625Zm9.920680191567044-3.052333352899041l-2.962705647619259-8.708427499828758c-.673618395121593-1.975064759668385-1.122407970224231-3.770657092542024-1.571197545324139-5.521327064659999h-.089844721514055c-.449223607572094,1.795592332875458-.942718527195211,3.636107026506579-1.52649220080275,5.476404703902517l-2.962705647619259,8.753349860586241h9.112945762879463Z" style="fill:#333467; stroke-width:0px;"/><path d="m84.126639933285333,61.214329233323951c1.750886988352249,1.077268593230656,4.30950840539208,1.975064759667475,7.002679888469174,1.975064759667475,3.995268896326706,0,6.329495525817038-2.109831841939013,6.329495525817038-5.162165194837144,0-2.828155581582905-1.615902889845529-4.444058471428434-5.701016507688109-6.01503900051739-4.937553391051551-1.750669972117976-7.990103760184866-4.309291389156897-7.990103760184866-8.573877433793314,0-4.713158603500233,3.905424174812651-8.214498547735275,9.785696093059414-8.214498547735275,3.097255713654704,0,5.34163762163098.718323739643893,6.68844037940471,1.481352823810084l-1.077268593230656,3.187100435169668c-.987423871716601-.538634296615783-3.007410992141558-1.436430463053512-5.745721852210409-1.436430463053512-4.129818962363061,0-5.701016507689019,2.468776695526685-5.701016507689019,4.533686176708215,0,2.827938565348632,1.840297677396848,4.219446667643751,6.015256016753483,5.835566573724464,5.11724283408148,1.975064759667475,7.721003628113067,4.443841455194161,7.721003628113067,8.887899926622595,0,4.668453258979753-3.456634599712743,8.708210483593575-10.593864554217362,8.708210483593575-2.917566270626594,0-6.105100738266628-.852873805680247-7.721003628113976-1.930142398910903l.98742387171751-3.27672814044854Z" style="fill:#333467; stroke-width:0px;"/><path d="m106.79572186553014,36.076687621788551c1.885437054389513-.314239509065374,4.354213749916198-.583556657372355,7.496174808091382-.583556657372355,3.860718830293081,0,6.68844037940471.897796166437729,8.484032712278349,2.513699056282348,1.661042266839104,1.436430463052602,2.648466138556614,3.636107026506579,2.648466138556614,6.329278509582764,0,2.73831086006885-.807734428688491,4.892848046530162-2.33422662949215,6.464045591853392-2.064692464944528,2.199459547218794-5.431482343144125,3.321650501206022-9.247061796443631,3.321650501206022-1.166679282272526,0-2.244381907974457-.044922360756573-3.141961058176094-.269317148307891v12.119922722550655h-3.90542417481447v-29.895722575794935Zm3.90542417481447,14.588699418075521c.852873805679337.224611803785592,1.930142398909993.314239509064464,3.231805779691058.314239509064464,4.713158603501142,0,7.586453562076713-2.289304268733758,7.586453562076713-6.463828575618209,0-3.995051880092433-2.828155581582905-5.925411295239428-7.137229954504619-5.925411295239428-1.705747611359584,0-3.007845024612834.134767082272447-3.681029387263152.314239509064464v11.760760852728708Z" style="fill:#333467; stroke-width:0px;"/><path d="m123.314997714988749,63.638183568092245c0-1.660825250602102,1.121973937750226-2.827938565347722,2.693171483075275-2.827938565347722,1.571197545324139,0,2.648466138554795,1.16711331474562,2.648466138554795,2.827938565347722,0,1.616119906081622-1.032563248710176,2.827938565347722-2.693171483076185,2.827938565347722-1.571197545325049,0-2.648466138553886-1.2118186592661-2.648466138553886-2.827938565347722Z" style="fill:#333467; stroke-width:0px;"/><path d="m133.683599416712241,65.972410197583486v-30.254884445616881h4.264369028400324l9.695851371545359,15.307023157718504c2.244381907976276,3.546262304992524,3.995268896327616,6.733362740162192,5.431482343145035,9.830618453817806l.089844721514964-.044922360758392c-.358944853587673-4.039974240849006-.448789575100818-7.720786611876974-.448789575100818-12.4341622316133v-12.658557019164618h3.681029387262242v30.254884445616881h-3.950563551807136l-9.606006650028576-15.351945518476896c-2.10983184194265-3.366572861963505-4.129818962363061-6.822990445441064-5.655877130695444-10.099718585888695l-.134550066037264.04470534452139c.224394787550409,3.815579453299506.314239509063555,7.451686479805176.314239509063555,12.479084592371692v12.92787416747251h-3.681029387262242Z" style="fill:#333467; stroke-width:0px;"/><path d="m178.88634515022386,51.787577993851301h-11.760543836489887v10.907887047047552h13.107346594266346v3.276945156684633h-17.012770769080817v-30.254884445616881h16.33958640642777v3.276945156683723h-12.4341622316133v9.561301305509005h11.760543836489887v3.231805779691967Z" style="fill:#333467; stroke-width:0px;"/><path d="m191.769296956939797,39.03939326940781h-9.201922419451876v-3.321867517441206h22.399113735233186v3.321867517441206h-9.247061796444541v26.933016928175675h-3.95012951933677v-26.933016928175675Z" style="fill:#333467; stroke-width:0px;"/><path d="m89.589456881009028,176.52973984973687c-10.408087673991758.360127435675167-18.582174437753565-6.000539467611816-20.765735746233986-16.344963172737152-1.440150850243299-6.822560616857118-.987124070185928-13.53609938259433,2.323167488273612-19.817111857644704,2.969915445074548-5.635164487623115,7.771307382291525-8.842221980334216,13.972867989127735-10.072673073284022,4.612048285598576-.915088583123179,9.168016394958613-.724655278468163,13.568166576019394.917378991101941,5.680866545510071,2.119976526722894,9.322575196407342,6.335511634813884,11.14944665764142,11.998176705936203,2.058135015176049,6.379492174361985,2.199918189989148,12.890525930367403.047446723913708,19.284333154613705-2.752867080243959,8.177266342766416-8.5722140441585,12.799592027212384-17.088924521570334,14.014465208349975-1.048440802015648.149566778693043-2.13665589143784.020394043664055-3.206435167171549.020394043664055Z" style="fill:#02bee0; stroke-width:0px;"/></svg>