<?xml version="1.0" encoding="UTF-8"?><svg id="Layer_1" xmlns="http://www.w3.org/2000/svg" width="255.999984741210028" height="249.599990844725653" viewBox="0 0 255.999984741210028 249.599990844725653"><g id="Layer_2"><g id="Surfaces"><g id="Photo_Surface"><g id="Outline_no_shadow"><path d="m45.333332061767578,0h165.333324432372137c25.066665649414062,0,45.333328247070312,20.266666412353516,45.333328247070312,45.333332061767578v158.933330535887762c0,25.066665649414062-20.26666259765625,45.333328247070312-45.333328247070312,45.333328247070312H45.333332061767578c-25.066667556762695,0-45.333332061767578-20.26666259765625-45.333332061767578-45.333328247070312V45.333332061767578C0,20.266666412353516,20.266666412353516,0,45.333332061767578,0Z" style="fill:#00005b; stroke-width:0px;"/></g></g></g></g><path d="m37.71079400587314,179.08401107787995h26.129989624023438c.697402954101562,0,1.309730529785156-.465133666992188,1.496658325195312-1.137710571289062l7.620521545410156-27.472000122070312h29.583473205566406l8.267623901367188,27.504302978515625c.197486877441406.656417846679688.801734924316406,1.10540771484375,1.487335205078125,1.10540771484375h27.133560180664062c.857620239257812,0,1.55255126953125-.694915771484375,1.55255126953125-1.55255126953125,0-.229156494140625-.048446655273438-.446502685546875-.13848876953125-.642135620117188l-34.50628662109375-111.280349731445312c-.201210021972656-.649581909179688-.802978515625-1.092994689941406-1.483612060546875-1.092994689941406h-33.075454711914062c-.683120727539062,0-1.285507202148438.445892333984375-1.484855651855469,1.098579406738281l-34.067234039306641,111.462936401367188c-.142833709716797.470733642578125-.055892944335938.981826782226562.236606597900391,1.377426147460938.293121337890625.395584106445312.755157470703125.62908935546875,1.247627258300781.62908935546875h-.000015258789062Zm60.272979736328125-50.568313598632812h-20.52032470703125l6.063629150390625-21.674797058105469c1.101066589355469-3.905586242675781,2.141891479492188-8.527214050292969,3.148567199707031-12.996681213378906.230400085449219-1.026542663574219.457069396972656-2.033836364746094.681877136230469-3.018768310546875,1.332084655761719,5.354423522949219,2.797065734863281,11.139213562011719,4.265777587890625,16.031600952148438l6.3604736328125,21.658645629882812Z" style="fill:#99f; stroke-width:0px;"/><path d="m219.027013710593565,92.818781657458203v65.39782508690223c0,2.895469793964367,0,5.391569697376326.099850090129621,7.687984655512992.09985009013144,2.196564868007044.199684945277113,4.193444790736976.299535035406734,5.890789678060173.199684945275294,1.697344887323197.299535035406734,2.695784848689073.399369890552407,3.794074900184569.099850090129621.998439961364056-.299535035406734,1.397809851916463-1.198124906641169,1.397809851916463h-18.271454339977936c-.898589871234435.09985009013144-1.697344887323197-.399369890552407-1.996879922729931-1.198124906641169-.199684945275294-.898589871234435-.399369890552407-1.797194977452818-.599070070811649-2.695784848689073-.199684945277113-.698904925957322-.199684945277113-1.497659942046084-.199684945277113-2.196564868005225-3.394689774646395,3.095169974225428-7.588149800367319,5.291734842230653-12.081129626511029,6.589709839003262-3.79407490018275,1.098290051495496-7.887669600790105,1.597510032177524-11.881429446249967,1.597510032177524s-7.887669600790105-.499219980682028-11.581909645827182-1.797194977454637c-3.394689774648214-1.19812490663935-6.589709839003262-3.195004829371101-9.085809742417041-5.890789678058354-2.795634938818694-2.995319884095807-4.792514861548625-6.489859748873641-5.990639768189794-10.383769504203883-1.497659942047903-4.892349716694298-2.196564868005225-9.984399613649657-2.096730012859553-15.176284365750689v-52.917317952345911c-.09985009013144-.599062453320585.299535035406734-1.297974996772609,1.098290051495496-1.397817469409347h20.667704153258455c.599070070813468-.099842472638557,1.29797499677079.299535035404915,1.397809851916463,1.098282434002613v50.421218048933952c0,4.692664771419004,1.098290051495496,8.386889581472133,3.095169974225428,11.082689665145153,1.99687992273175,2.695784848689073,6.190324713466907,4.093609935591303,10.982839575015532,4.093609935591303,2.496099903413779,0,4.892349716696117-.399369890552407,7.288614764962404-1.297974996772609,2.49609990341196-.898589871234435,4.692664771419004-1.996879922729931,6.689544694148935-3.494539864777835v-60.605340695321502c0-.698904925959141.499219980682028-1.198124906641169,1.497659942047903-1.198124906641169h20.368169117851721c.499219980683847-.099842472638557,1.198124906641169.299535035406734,1.198124906641169.898597488727319-.099819620159906.099842472638557-.099819620159906.199684945275294-.099819620159906.299527417913851Z" style="fill:#99f; stroke-width:0px;"/></svg>