<?xml version="1.0" encoding="UTF-8"?>
<svg id="Layer_1" xmlns="http://www.w3.org/2000/svg" version="1.1" xmlns:xlink="http://www.w3.org/1999/xlink" viewBox="0 0 256 249.6">
  <!-- Generator: Adobe Illustrator 29.3.1, SVG Export Plug-In . SVG Version: 2.1.0 Build 151)  -->
  <defs>
    <style>
      .st0 {
        fill: url(#linear-gradient1);
        stroke: #fff;
      }

      .st1 {
        fill: url(#linear-gradient);
      }
    </style>
    <linearGradient id="linear-gradient" x1="-6.5" y1="957.8" x2="288.1" y2="1191.7" gradientTransform="translate(0 -939.8)" gradientUnits="userSpaceOnUse">
      <stop offset="0" stop-color="#9013fe"/>
      <stop offset="1" stop-color="#6610f2"/>
    </linearGradient>
    <linearGradient id="linear-gradient1" x1="74.1" y1="995.2" x2="149.8" y2="1123.2" gradientTransform="translate(0 -939.8)" gradientUnits="userSpaceOnUse">
      <stop offset="0" stop-color="#fff"/>
      <stop offset="1" stop-color="#f1e5fc"/>
    </linearGradient>
  </defs>
  <rect class="st1" width="256" height="249.6" rx="45.3" ry="45.3"/>
  <path class="st0" d="M133.1,206.9c35.8,0,57.4-17.5,57.4-46.4s-15.4-37.7-38.2-40.2v-.9c16.8-2.7,30-18.3,30-35.7,0-24.8-19.6-41-49.4-41h-67.2v164.2h67.5,0ZM91.7,63.5h34.7c18.9,0,29.6,8.4,29.6,23.7s-12.5,25.4-35.1,25.4h-29.3v-49.1ZM91.7,186.1v-54.1h34.5c24.7,0,37.5,9.1,37.5,26.9s-12.5,27.2-36,27.2c0,0-36,0-36,0Z"/>
</svg>