<?xml version="1.0" encoding="UTF-8"?><svg id="Layer_1" xmlns="http://www.w3.org/2000/svg" width="255.999984741209119" height="249.599990844726562" viewBox="0 0 255.999984741209119 249.599990844726562"><g id="Layer_2"><g id="Surfaces"><g id="Photo_Surface"><g id="Outline_no_shadow"><path d="m45.333332061767578,0h165.333324432371228c25.066665649414062,0,45.333328247070312,20.266666412353516,45.333328247070312,45.333332061767578v158.933330535888672c0,25.066665649414062-20.26666259765625,45.333328247070312-45.333328247070312,45.333328247070312H45.333332061767578c-25.066667556762695,0-45.333332061767578-20.26666259765625-45.333332061767578-45.333328247070312V45.333332061767578C0,20.266666412353516,20.266666412353516,0,45.333332061767578,0Z" style="fill:#fff; stroke-width:0px;"/></g></g></g></g><path d="m169.465531188106979,166.084255911222499c1.487208973314409-3.936859973262472.977987008134733-8.34996639198107-1.366707126799156-11.844676346505366-2.397246425654885-2.874196696433501-5.839108656608005-4.677075671332204-9.566845617177023-5.011210226122785l-79.268213947819277-.911132291732429c-.455557456663882,0-.911114913328674-.455566145865305-1.366707126799156-.455566145865305-.377389399897766-.283050739124519-.453889129975323-.818453268446319-.170829701648472-1.195860046747839.048555258027591-.064743240436655.106077772010394-.122265754418549.170829701648472-.170829701648472.455557456663882-.911127947130808.911114913328674-1.366694092996113,1.822264583463948-1.366694092996113l79.723806161289758-.911119257931205c10.305566772585735-1.143690080893066,19.19013628735047-7.763579972810476,23.233777857945825-17.311448373893654l4.555644080255661-11.844672001905565c0-.455566145865305.455557456663882-.911127947130808,0-1.366694092997932-6.281076202114491-27.97722925344533-34.052945953269955-45.565425436920123-62.030193671269444-39.284334028703597-17.600012411376156,3.951330752224749-31.887735964685817,16.754641082807211-37.738418637703035,33.817557656715508-4.76081350626464-3.400180131318848-10.567876387711294-5.013254360776045-16.400311737561424-4.555644080255661-11.024459170153023,1.22925047584431-19.726711858875206,9.931500992264773-20.955955817817085,20.955964507018507-.303340024645877,2.739753026100516-.149402130728959,5.510869725043449.455557456664792,8.200160213384152-18.008265855030913.497817388197291-32.347568508492259,15.241050607563011-32.345066018458056,33.256198310187756-.074761889774891,1.683298183745137.078480868020961,3.368985897905077.455557456663882,5.011210226122785.043306980316629.736123084157953.63057535344069,1.323391457282924,1.366689748396311,1.366689748396311h146.236185403266973c.911114913329584,0,1.822264583463038-.455566145865305,1.822264583463038-1.366689748396311l1.366672369993466-5.011210226122785Z" style="fill:#f48120; stroke-width:0px;"/><path d="m194.521573629515842,115.061043081272146h-2.277822040126921c-.455557456663882,0-.911114913329584.455566145867124-1.366707126799156.911127947132627l-3.188936953458324,10.933544054774757c-1.48720897331259,3.936859973262472-.977987008134733,8.349962047379449,1.366707126799156,11.844676346505366,2.397246425654885,2.874196696433501,5.839108656609824,4.677071326732403,9.566845617177023,5.011210226122785l16.855869194227125.911127947130808c.455557456663882,0,.911114913327765.455566145865305,1.366707126799156.455566145865305.377389399896856.283050739124519.453889129972595.818453268448138.170829701648472,1.195855702148037-.048555258026681.064751929638078-.106077772010394.122274443621791-.170829701648472.170838390849894-.455557456665701.911132291732429-.911114913329584,1.366689748396311-1.822264583464857,1.366689748396311l-17.311461407696697.911132291732429c-10.305566772583916,1.143690080893066-19.190136287348651,7.763575628208855-23.233777857944006,17.311444029292034l-.911114913327765,4.100077934390356c-.455557456665701.455566145867124,0,1.366689748396311.911114913327765,1.366689748396311h60.13452271346614c.660483585030306.094347349975578,1.272377155228241-.364590206076173,1.366707126797337-1.025056412703634.016196671611397-.113307187664759.016196671611397-.22833483722934,0-.341633335692677,1.084620889043435-3.859917093908734,1.696514459239552-7.837242678593611,1.822264583464857-11.844676346507185-.150253672478357-23.839602020889288-19.439029775345261-43.128352056153744-43.278618762433325-43.278618762433325" style="fill:#faad3f; stroke-width:0px;"/></svg>