<?xml version="1.0" encoding="UTF-8"?><svg id="Layer_1" xmlns="http://www.w3.org/2000/svg" width="256" height="249.600000000000364" viewBox="0 0 256 249.600000000000364"><g id="Layer_2"><g id="Surfaces"><g id="Photo_Surface"><g id="Outline_no_shadow"><path d="m45.333339691162109-.22441922067992h165.333324432373047c25.066665649414062,0,45.333328247070312,20.266666412353516,45.333328247070312,45.333332061767578v158.933330535888672c0,25.066665649414062-20.26666259765625,45.333328247070312-45.333328247070312,45.333328247070312H45.333339691162109C20.266672134399414,249.375571624046643.000007629394531,229.108909026390393.000007629394531,204.04224337697633V45.108912841087658C.000007629394531,20.042247191673596,20.266674041748047-.22441922067992,45.333339691162109-.22441922067992Z" style="fill:#5c8dbc; stroke-width:0px;"/></g></g></g></g><polygon points="256 52.104628936058361 130.22393798828125 124.575576201683361 256 197.254592314964611 256 52.104628936058361" style="fill:#1b598e; stroke-width:0px;"/><path d="m130.22393798828125,124.575576201683361L0,199.609328643089611v4.6573486328125c0,25.066650390625,20.26666259765625,45.33331298828125,45.33331298828125,45.33331298828125h165.3333740234375c25.066650390625,0,45.33331298828125-20.26666259765625,45.33331298828125-45.33331298828125v-7.0120849609375l-125.77606201171875-72.67901611328125Z" style="fill:#1a4674; stroke-width:0px;"/><path d="m130.549200605441001,29.644650447029562c35.201244522200795,0,65.934790792593049,19.11751094682495,82.396346166342482,47.533674787416203l-.160632151491882-.273517886110312-41.416195694106136,23.847218425365099c-8.159975741891685-13.816160867908366-23.1192307637466-23.139871460282848-40.278993423547945-23.331881138604331l-.54050961345456-.003026181349014c-26.168299521260451,0-47.383443223851827,21.21402798926465-47.383443223851827,47.38232751052783,0,8.557582347117204,2.281496198431341,16.579270771535448,6.249179117032327,23.507865811132433,8.167434209057319,14.258541201757907,23.521307864153641,23.875592696461354,41.134264106819501,23.875592696461354,17.721700082614916,0,33.163034963863538-9.739260313289378,41.288989091177427-24.150272147128817l-.197450691252016.345871131128661,41.354006138983095,23.957146755484246c-16.280977936086856,28.175567139478517-46.593487621401437,47.234075191838201-81.385586311505904,47.613937370053463l-1.059958227402603.005777255308203c-35.312235072544354,0-66.133227285347857-19.235233986488311-82.553302577349314-47.801621748767502-8.016079290296148-13.945744093064604-12.602623936964847-30.113561187129562-12.602623936964847-47.35429712367204,0-52.551855295764653,42.601824508155005-95.154810800990163,95.15592651431416-95.154810800990163l-.000015283741959.000015283744688Z" style="fill:#fff; stroke-width:0px;"/><path d="m245.314752493521155,129.659497070312682h-9.722000122070312v9.7239990234375h-9.7239990234375v-9.7239990234375h-9.720993041992188v-9.720993041992188h9.720993041992188v-9.722000122070312h9.7239990234375v9.722000122070312h9.722000122070312v9.720993041992188Z" style="fill:#fff; stroke-width:0px;"/><path d="m209.839761648794592,129.659497070312682h-9.720993041992188v9.7239990234375h-9.722000122070312v-9.7239990234375h-9.722000122070312v-9.720993041992188h9.722000122070312v-9.722000122070312h9.722000122070312v9.722000122070312h9.720993041992188v9.720993041992188Z" style="fill:#fff; stroke-width:0px;"/></svg>