<?xml version="1.0" encoding="UTF-8"?><svg id="Layer_1" xmlns="http://www.w3.org/2000/svg" width="256" height="249.600006103515625" viewBox="0 0 256 249.600006103515625"><g id="Layer_2"><g id="Surfaces"><g id="Photo_Surface"><g id="Outline_no_shadow"><path d="m45.299999237060547,0h165.300006866455078c25.099990844726562,0,45.399993896484375,20.299999237060547,45.399993896484375,45.299999237060547v158.899997711181641c0,25.100006103515625-20.300003051757812,45.300003051757812-45.300003051757812,45.300003051757812H45.299999237060547c-25,.100006103515625-45.299999237060547-20.199996948242188-45.299999237060547-45.199996948242188V45.299999237060547C0,20.299999237060547,20.299999237060547,0,45.299999237060547,0Z" style="fill:#a179dc; stroke-width:0px;"/></g></g></g></g><polygon points="256 52.099998474121094 130.199996948242188 124.599998474121094 256 197.300003051757812 256 52.099998474121094" style="fill:#390091; stroke-width:0px;"/><path d="m130.199996948242188,124.599998474121094L0,199.600006103515625v4.699996948242188c0,25.100006103515625,20.299999237060547,45.300003051757812,45.299999237060547,45.300003051757812h165.300006866455078c25.100006103515625,0,45.300003051757812-20.300003051757812,45.300003051757812-45.300003051757812v-7l-125.70001220703125-72.700004577636719Z" style="fill:#280068; stroke-width:0px;"/><path d="m204.100006103515625,97.400001525878906v13.5h13.5v-13.5h6.699996948242188v13.5h13.5v6.699996948242188h-13.5v13.500007629394531h13.5v6.699996948242188h-13.5v13.5h-6.699996948242188v-13.5h-13.5v13.5h-6.699996948242188v-13.5h-13.5v-6.699996948242188h13.5v-13.5h-13.5v-6.699996948242188h13.5v-13.500007629394531h6.699996948242188Zm13.5,20.299995422363281h-13.5v13.5h13.5v-13.5Z" style="fill:#fff; stroke-width:0px;"/><path d="m130.5,29.600000381469727c35.199996948242188,0,65.899993896484375,19.100000381469727,82.399993896484375,47.499998092651367l-.199996948242188-.300003051757812-41.400009155273438,23.799995422363281c-8.199996948242188-13.800003051757812-23.100006103515625-23.099998474121094-40.300003051757812-23.300003051757812h-.5c-26.199996948242188,0-47.400001525878906,21.199996948242188-47.400001525878906,47.400001525878906,0,8.599998474121094,2.300003051757812,16.599998474121094,6.199996948242188,23.499992370605469,8.199996948242188,14.300003051757812,23.5,23.899993896484375,41.099998474121094,23.899993896484375,17.699996948242188,0,33.199996948242188-9.699996948242188,41.300003051757812-24.199996948242188l-.199996948242188.300003051757812,41.400009155273438,24c-16.300003051757812,28.199996948242188-46.600006103515625,47.199996948242188-81.399993896484375,47.600006103515625h-1.100006103515625c-35.300003051757812,0-66.099998474121094-19.199996948242188-82.599998474121094-47.800003051757812-8-13.899993896484375-12.599998474121094-30.100006103515625-12.599998474121094-47.400001525878906.200004577636719-52.399986267089844,42.800003051757812-94.999982833862305,95.300003051757812-94.999982833862305h0Z" style="fill:#fff; stroke-width:0px;"/></svg>