<?xml version="1.0" encoding="UTF-8"?><svg id="Layer_1" xmlns="http://www.w3.org/2000/svg" width="256" height="249.600006103515625" viewBox="0 0 256 249.600006103515625"><g id="Layer_2"><g id="Surfaces"><g id="Photo_Surface"><g id="Outline_no_shadow"><path d="m45.333339691162109.000007629394531h165.333324432373047C235.733329772949219.000007629394531,255.999992370605469,20.266674041748047,255.999992370605469,45.333339691162109v158.933330535888672c0,25.066665649414062-20.26666259765625,45.333328247070312-45.333328247070312,45.333328247070312H45.333339691162109C20.266672134399414,249.599998474121094.000007629394531,229.333335876464844.000007629394531,204.266670227050781V45.333339691162109C.000007629394531,20.266674041748047,20.266674041748047.000007629394531,45.333339691162109.000007629394531Z" style="fill:#fff; stroke-width:0px;"/></g></g></g></g><g id="layer1"><g id="g3013"><polygon id="polygon2989" points="205.821460254905105 58.129118921753616 191.641994374191199 216.975140954747985 127.904741929422926 234.645199595583108 64.342989430136186 217.000033728212657 50.178539745093985 58.129118921753616 205.821460254905105 58.129118921753616" style="fill:#264de4; stroke-width:0px;"/><polygon id="polygon2991" points="179.50280620328158 206.860372971990728 191.620100256761361 71.119169195448194 127.999998363179657 71.119169195448194 127.999998363179657 221.138964731255328 179.50280620328158 206.860372971990728" style="fill:#2965f1; stroke-width:0px;"/><polygon id="polygon2993" points="82.650236289375243 130.042112111661481 84.396606423998492 149.526763585568915 127.999998363179657 149.526763585568915 127.999998363179657 130.042112111661481 82.650236289375243 130.042112111661481" style="fill:#ebebeb; stroke-width:0px;"/><polygon id="polygon2995" points="127.999998363179657 90.604246242810405 127.93263335892243 90.604246242810405 79.141199830450205 90.604246242810405 80.912449643970831 110.089329837455807 127.999998363179657 110.089329837455807 127.999998363179657 90.604246242810405" style="fill:#ebebeb; stroke-width:0px;"/><polygon id="polygon2997" points="127.999998363179657 200.918856854581463 127.999998363179657 180.646423084819617 127.914608686290194 180.669155254592624 106.214179557096031 174.80959803730002 104.826954134634434 159.269514895981047 94.282245658683678 159.269514895981047 85.267211861446413 159.269514895981047 87.997036419166761 189.863545347541731 127.910320215322827 200.943749628046135 127.999998363179657 200.918856854581463" style="fill:#ebebeb; stroke-width:0px;"/><path id="path2999" d="m86.808049659243807,14.954806507931607h23.5995539449641v9.868904376984574h-13.730649567978617v9.868904376983664h13.730649567978617v9.868904376985483h-23.5995539449641V14.954806507931607Z" style="stroke-width:0px;"/><path id="path3001" d="m115.127514393199817,14.954806507931607h23.599553944961372v8.581655979986863h-13.730649567977707v1.716331195997554h13.730649567977707v19.737808753967329h-23.599553944961372v-9.010738778984887h13.730649567976798v-1.716331195997554h-13.730649567976798V14.954806507931607Z" style="stroke-width:0px;"/><path id="path3003" d="m143.446979127154918,14.954806507931607h23.599553944961372v8.581655979986863h-13.730649567980436v1.716331195997554h13.730649567980436v19.737808753967329h-23.599553944961372v-9.010738778984887h13.730649567976798v-1.716331195997554h-13.730649567976798V14.954806507931607Z" style="stroke-width:0px;"/><polygon id="polygon3005" points="151.926078451811918 149.526763585568915 149.664384694391629 174.797158197850877 127.93263335892243 180.662725821779532 127.93263335892243 200.934308444631824 167.87767148209241 189.863545347541731 168.170727910361165 186.571623370697125 172.749466163468242 135.274347867416509 173.224890638053694 130.042112111661481 176.742510586198478 90.604246242810405 127.93263335892243 90.604246242810405 127.93263335892243 110.089329837455807 155.388779782431811 110.089329837455807 153.615814580527513 130.042112111661481 127.93263335892243 130.042112111661481 127.93263335892243 149.526763585568915 151.926078451811918 149.526763585568915" style="fill:#fff; stroke-width:0px;"/></g></g></svg>