<?xml version="1.0" encoding="UTF-8"?><svg id="Layer_1" xmlns="http://www.w3.org/2000/svg" width="255.999984741208209" height="249.599990844728381" viewBox="0 0 255.999984741208209 249.599990844728381"><g id="Layer_2"><g id="Surfaces"><g id="Photo_Surface"><g id="Outline_no_shadow"><path d="m45.333332061767578,0h165.333324432370318c25.066665649414062,0,45.333328247070312,20.266666412353516,45.333328247070312,45.333332061767578v158.933330535890491c0,25.066665649414062-20.26666259765625,45.333328247070312-45.333328247070312,45.333328247070312H45.333332061767578c-25.066667556762695,0-45.333332061767578-20.26666259765625-45.333332061767578-45.333328247070312V45.333332061767578C0,20.266666412353516,20.266666412353516,0,45.333332061767578,0Z" style="fill:#fff; stroke-width:0px;"/></g></g></g></g><path d="m231.489340123017428,114.476005945280122c-4.99224853515625-3.3594970703125-18.10711669921875-4.79425048828125-27.64306640625-2.2259521484375-.51312255859375-9.49884033203125-5.41192626953125-17.50341796875-14.37249755859375-24.48541259765625l-3.31646728515625-2.2259521484375-2.211181640625,3.3387451171875c-4.34423828125,6.5953369140625-6.1748046875,15.38275146484375-5.52764892578125,23.37261962890625.51226806640625,4.92156982421875,2.22314453125,10.454833984375,5.52764892578125,14.46868896484375-12.41107177734375,7.19940185546875-23.85101318359375,5.56512451171875-74.5135498046875,5.56512451171875l-78.21685791015625-.00006103515625c-.22833251953125,11.44000244140625,1.61077880859375,33.4454345703125,15.60369873046875,51.3592529296875,1.54571533203125,1.97900390625,3.24066162109375,3.8941650390625,5.08001708984375,5.73590087890625,11.37847900390625,11.39324951171875,28.56787109375,19.74737548828125,54.2725830078125,19.7708740234375,39.214599609375.0355224609375,72.8138427734375-21.1617431640625,93.2518310546875-72.41400146484375,6.72540283203125.110107421875,24.47900390625,1.2049560546875,33.16668701171875-15.58184814453125.21148681640625-.2821044921875,2.21124267578125-4.45196533203125,2.21124267578125-4.45196533203125l-3.31243896484375-2.22601318359375Zm-149.22686767578125-10.4605712890625h-21.99517822265625v21.99517822265625h21.99517822265625v-21.99517822265625Zm28.41632080078125,0h-21.99517822265625v21.99517822265625h21.99517822265625v-21.99517822265625Zm28.4163818359375,0h-21.99517822265625v21.99517822265625h21.99517822265625v-21.99517822265625Zm28.41632080078125,0h-21.99517822265625v21.99517822265625h21.99517822265625v-21.99517822265625Zm-113.66534423828125,0h-21.99517822265625v21.99517822265625h21.99517822265625v-21.99517822265625Zm28.41632080078125-27.78265380859375h-21.99517822265625v21.99517822265625h21.99517822265625v-21.99517822265625Zm28.41632080078125,0h-21.99517822265625v21.99517822265625h21.99517822265625v-21.99517822265625Zm28.4163818359375,0h-21.99517822265625v21.99517822265625h21.99517822265625v-21.99517822265625Zm0-27.78271484375h-21.99517822265625v21.99517822265625h21.99517822265625v-21.99517822265625Z" style="fill:#1d63ed; stroke-width:0px;"/></svg>