<?xml version="1.0" encoding="UTF-8"?><svg id="Layer_1" xmlns="http://www.w3.org/2000/svg" width="256" height="249.600000000000364" viewBox="0 0 256 249.600000000000364"><g id="Layer_2"><g id="Surfaces"><g id="Photo_Surface"><g id="Outline_no_shadow"><path d="m45.33333333333394,0h165.333333333332121c25.066666666667516,0,45.33333333333394,20.266666666666424,45.33333333333394,45.33333333333394v158.933333333334303c0,25.066666666665697-20.266666666666424,45.333333333332121-45.33333333333394,45.333333333332121H45.33333333333394c-25.066666666667516,0-45.33333333333394-20.266666666666424-45.33333333333394-45.333333333332121V45.33333333333394C0,20.266666666666424,20.266666666666424,0,45.33333333333394,0Z" style="fill:#512bd4; stroke-width:0px;"/></g></g></g></g><path d="m26.82169964458808,165.412617127883095c-2.176350550545976,0-4.026266285562087-.724957512611581-5.549747205050153-2.175552320682982-1.523486069356295-1.48769447221639-2.285229104034443-3.254182311740806-2.285229104034443-5.299442919094872,0-2.083060653827488.761743034678148-3.867779033476836,2.285229104034443-5.355473505693226,1.523480919488065-1.487715071696584,3.373396654504177-2.231562307804779,5.549747205050153-2.231562307804779,2.212662284568069,0,4.080731311660202.743847236108195,5.604217381016497,2.231562307804779,1.559730855064117,1.48769447221639,2.339627181818287,3.272412851865738,2.339627181818287,5.355473505693226,0,2.045260607354066-.779896326754169,3.811748446878482-2.339627181818287,5.299442919094872-1.523486069356295,1.450594808071401-3.391555096448428,2.175552320682982-5.604217381016497,2.175552320682982Z" style="fill:#fff; stroke-width:0px;"/><path d="m113.825098443472598,164.185464883367786h-14.146734342060881l-37.270330838606242-58.798909570215983c-.942982412831043-1.487715071696584-1.723290729190921-3.031450430255973-2.339565383375884-4.63052629282447h-.326697458905983c.290246678392577,1.711126736033293.435370017588866,5.374373528932665.435370017588866,10.989730078957109v52.439705784083344h-12.514565414277968v-79.998082011251427h15.071486214765173l36.019550990107746,57.404345348743846c1.523475769616198,2.380743744633946,2.502908962958827,4.016939870827628,2.93828928028779,4.909309360395127h.217355417109502c-.362478756305791-2.11952173408099-.544063175753763-5.708517699993536-.544063175753763-10.766987897733998v-51.546666811404975h12.459904693121644v79.998082011251427Z" style="fill:#fff; stroke-width:0px;"/><path d="m174.765787486305271,164.185464883367786h-43.799645133622107v-79.998082011251427h42.058803647158129v11.269192929377823h-29.108857915549379v22.649066866775684h26.823963553069916v11.213162342774922h-26.823963553069916v23.653497529547167h30.849699402013357v11.213162342775831Z" style="fill:#fff; stroke-width:0px;"/><path d="m237.013276664498335,95.456575801494182h-22.416869524062349v68.728889081873604h-12.949945731606931v-68.728889081873604h-22.36219850316229v-11.269192929377823h57.72901375883157v11.269192929377823Z" style="fill:#fff; stroke-width:0px;"/></svg>