<?xml version="1.0" encoding="UTF-8"?><svg id="Layer_1" xmlns="http://www.w3.org/2000/svg" width="255.999984741211847" height="249.599990844726562" xmlns:xlink="http://www.w3.org/1999/xlink" viewBox="0 0 255.999984741211847 249.599990844726562"><defs><linearGradient id="linear-gradient" x1="2.724462790913094" y1="256.825450530745002" x2="2.724462790913094" y2="260.006637330347417" gradientTransform="translate(-1188.873698863749041 11317.974742057607727) scale(487.26506233215332 -43.179002404212952)" gradientUnits="userSpaceOnUse"><stop offset=".303299999237061" stop-color="#473788"/><stop offset=".871999969482422" stop-color="#2c2255"/></linearGradient><linearGradient id="linear-gradient-2" x1="2.724447761589545" y1="258.754172110220679" x2="2.724447761589545" y2="261.935358909830654" gradientTransform="translate(-1188.84556638051049 11401.257660330966246) scale(487.257766723632812 -43.17900538444519)" xlink:href="#linear-gradient"/><linearGradient id="linear-gradient-3" x1="2.662128394516913" y1="256.428608184885888" x2="2.662128394516913" y2="257.401346189993205" gradientTransform="translate(-1041.348335049601246 36437.055740474199411) scale(443.258523941040039 -141.20323657989502)" gradientUnits="userSpaceOnUse"><stop offset=".303299999237061" stop-color="#473788"/><stop offset=".863099899291992" stop-color="#2c2255"/></linearGradient></defs><g id="Layer_2"><g id="Surfaces"><g id="Photo_Surface"><g id="Outline_no_shadow"><path d="m45.333332061767578,0h165.333324432373956c25.066665649414062,0,45.333328247070312,20.266666412353516,45.333328247070312,45.333332061767578v158.933330535888672c0,25.066665649414062-20.26666259765625,45.333328247070312-45.333328247070312,45.333328247070312H45.333332061767578c-25.066667556762695,0-45.333332061767578-20.26666259765625-45.333332061767578-45.333328247070312V45.333332061767578C0,20.266666412353516,20.266666412353516,0,45.333332061767578,0Z" style="fill:#fff; stroke-width:0px;"/></g></g></g></g><path d="m226.326601526764534,151.115565717396748c-4.167351107413197,14.18656901783288-11.895822493564992,26.905039652650885-23.204033966520001,38.138638287400681l-.497402726718065.497499894665452c-14.120519105059429,14.02953346758477-30.564287413049897,22.441362741277771-49.315065730639617,25.271500691871552-4.73818851096803.714451630959957-9.616274575322677,1.089410596981907-14.651068248102092,1.089410596981907-25.186982795945369,0-46.725193750904509-8.944722593483675-64.637014894435197-26.858411183518911-11.235463044755306-11.237327454762635-18.909827066262551-23.952069269567801-23.045475612333576-38.138638287400681h175.350061178748547Zm3.520066820630745-21.211763087063446c-.167894068454189,3.379598405546858-.51710352821101,6.682130482200591-1.023142056325014,9.921199742693716l-.174465050951767,1.0773496254169H48.670873988954554c-.538922287326386-3.225125659935657-.920699710462031-6.512220178819916-1.126296461058701-9.874850631416848l-.061981004943846-1.123698736693768h182.364071824443272Zm-1.201335927285982-21.211763087064355c.542282172782507,3.226820026031419.925901232185424,6.514072442830184,1.133196903627322,9.875366836139619l.062539720645873,1.123188604968163H47.482596522952008c.16621033010324-3.377910112450081.512228430062351-6.680278218185776,1.014935919450181-9.920689610967202l.173341546552365-1.077865830140581h179.974458431154744Z" style="fill:#2c2255; stroke-width:0px;"/><path d="m226.330342492766249,98.476967487305046c-4.163634433392872-14.225739846939177-11.893964156550282-27.000179219908205-23.207774932521716-38.315854405882419-14.19402665785492-14.194028176105348-30.757141498197598-22.709698862291589-49.666971600954639-25.574993770695983-4.782946497098237-.725650616550411-9.70954365957914-1.106197498715119-14.796565104505135-1.106197498715119-25.186982795945369,0-46.7270581609082,8.896218327476163-64.637014894435197,26.681191269411102-11.239191864766326,11.315675185974214-18.917287742783628,24.090114558943242-23.051071878850053,38.315854405882419" style="fill:#2c2255; stroke-width:0px;"/><path d="m42.059803641856888,124.799995422363281c0-48.172765404867278,36.179941970537584-88.199215231809831,83.24651101537529-95.239334253994457-1.167758328195305-.04290480286636-2.341109886407139-.089540459956879-3.520060747633579-.089540459956879-52.817678758581678,0-95.638536818799366,42.680951397333956-95.638536818799366,95.328874713951336,0,52.649796836118185,42.818993650212178,95.328874713952246,95.638536818799366,95.328874713952246,1.18267968123746,0,2.35603731244646-.044770132122721,3.527524460652785-.087669781243676-47.074032757856912-7.040121495267158-83.253974728394496-47.066575117834873-83.253974728394496-95.24120493270857Z" style="fill:#f7941e; stroke-width:0px;"/><path d="m200.719898742166151,119.688729815245097c-.305921138840858-3.7700260534466-.940172774573512-7.446781124822337-1.887803189169063-10.998552879061208h-120.338652019158872c-.947636487592717,3.549906205546904-1.583746839895866,7.226660897362308-1.889676732394946,10.998552879061208h124.11613194072288Z" style="fill:url(#linear-gradient); stroke-width:0px;"/><path d="m200.719898742166151,129.903804148581912h-124.114266510642665c.305929916220521,3.770026812569995.938309360919447,7.446783022634918,1.887811302314731,10.998553922858264h120.340510356166305c.947642560589884-3.551770900223346,1.58002371332077-7.228527110288269,1.885944852161629-10.998553922858264Z" style="fill:url(#linear-gradient-2); stroke-width:0px;"/><path d="m138.662768784292894,187.082846523855551c24.991116504408637,0,46.533056279378798-14.723804530307461,56.453393656533081-35.967280806458803h-112.906789590440894c9.920336618031797,21.243476276151341,31.462279429499176,35.967280806458803,56.453395933907814,35.967280806458803Z" style="fill:url(#linear-gradient-3); stroke-width:0px;"/><path d="m228.624817837048795,140.900493661432847c-.613724906677817,3.477155025519096-1.41772894787573,6.887154852851381-2.413870460602993,10.215072055963901H50.974674419760959c-.998002886232825-3.329787686114287-1.693805862388217-6.739787513448391-2.305666359061433-10.215072055963901h179.95580977634927Zm1.061426227908669-21.211763087061627c.100726724276683,1.75909816881267.166023585454241,3.525653977652837.166023585454241,5.307137212525959,0,1.647172838508595-.048511098131712,3.283153143985146-.134310396369983,4.907934843436124H47.450884852114541c-.085809925984904-1.624781699450978-.134310396367255-3.260762004927528-.134310396367255-4.907934843436124,0-1.781483234873122.065289269929053-3.549903453719708.166022067204722-5.307137212525959h182.203647542005456Zm-4.0722236861493-21.211763087066174c1.012915129778776,3.327923276110596,1.824376811000548,6.73978751345021,2.454899626720362,10.215072055963901H48.670873988954554c.62864777797131-3.477148952519201,1.283412478513128-6.889013189859725,2.298204164291747-10.215072055963901h174.644942225561863Z" style="fill:#fff; stroke-width:0px;"/></svg>