<?xml version="1.0" encoding="UTF-8"?><svg id="Layer_1" xmlns="http://www.w3.org/2000/svg" width="255.999984741211847" height="249.599990844726562" viewBox="0 0 255.999984741211847 249.599990844726562"><g id="Layer_2"><g id="Surfaces"><g id="Photo_Surface"><g id="Outline_no_shadow"><path d="m45.333332061767578,0h165.333324432373956c25.066665649414062,0,45.333328247070312,20.266666412353516,45.333328247070312,45.333332061767578v158.933330535888672c0,25.066665649414062-20.26666259765625,45.333328247070312-45.333328247070312,45.333328247070312H45.333332061767578c-25.066667556762695,0-45.333332061767578-20.26666259765625-45.333332061767578-45.333328247070312V45.333332061767578C0,20.266666412353516,20.266666412353516,0,45.333332061767578,0Z" style="fill:#fff; stroke-width:0px;"/></g></g></g></g><path id="path0_fill" d="m94.349825905670514,225.750494817169965c18.574890861723361,0,33.650166464935864-15.075270468605595,33.650166464935864-33.650166464934955v-33.650166464936774h-33.650166464935864c-18.574892145375088,0-33.650166464935864,15.075270468607414-33.650166464935864,33.650166464936774s15.075274319560776,33.650166464934955,33.650166464935864,33.650166464934955Z" style="fill:#0acf83; stroke-width:0px;"/><path id="path1_fill" d="m60.699659440734649,124.799995422363281c0-18.574890861722452,15.075274319560776-33.650166464935864,33.650166464935864-33.650166464935864h33.650166464935864v67.300332929870819h-33.650166464935864c-18.574892145375088,0-33.650166464935864-15.075270468603776-33.650166464935864-33.650166464934955Z" style="fill:#a259ff; stroke-width:0px;"/><path id="path1_fill-2" d="m60.699659440734649,57.499662492492462c0-18.574892145375998,15.075274319560776-33.650166464936774,33.650166464935864-33.650166464936774h33.650166464935864v67.300332929871729h-33.650166464935864c-18.574892145375088,0-33.650166464935864-15.075275603212503-33.650166464935864-33.650166464934955Z" style="fill:#f24e1e; stroke-width:0px;"/><path id="path2_fill" d="m127.999992370606378,23.849496027555688h33.650166464936774c18.57489599632936,0,33.650166464934955,15.075274319560776,33.650166464934955,33.650166464936774,0,18.574890861722452-15.075270468605595,33.650166464934955-33.650166464934955,33.650166464934955h-33.650166464936774V23.849496027555688Z" style="fill:#ff7262; stroke-width:0px;"/><path id="path3_fill" d="m195.300325300478107,124.799995422363281c0,18.574895996331179-15.075270468605595,33.650166464934955-33.650166464934955,33.650166464934955-18.574895996331179,0-33.650166464936774-15.075270468603776-33.650166464936774-33.650166464934955s15.075275603212503-33.650166464935864,33.650166464936774-33.650166464935864c18.57489599632936,0,33.650166464934955,15.075275603213413,33.650166464934955,33.650166464935864Z" style="fill:#1abcfe; stroke-width:0px;"/></svg>