<?xml version="1.0" encoding="UTF-8"?><svg id="Layer_1" xmlns="http://www.w3.org/2000/svg" width="255.999984741210938" height="249.599990844726562" xmlns:xlink="http://www.w3.org/1999/xlink" viewBox="0 0 255.999984741210938 249.599990844726562"><defs><clipPath id="clippath"><rect x="27.036584386972208" y="23.83658857665705" width="201.92681596726743" height="201.926813691411553" style="fill:none; stroke-width:0px;"/></clipPath></defs><g id="Layer_2"><g id="Surfaces"><g id="Photo_Surface"><g id="Outline_no_shadow"><path d="m45.333332061767578,0h165.333324432373047c25.066665649414062,0,45.333328247070312,20.266666412353516,45.333328247070312,45.333332061767578v158.933330535888672c0,25.066665649414062-20.26666259765625,45.333328247070312-45.333328247070312,45.333328247070312H45.333332061767578c-25.066667556762695,0-45.333332061767578-20.26666259765625-45.333332061767578-45.333328247070312V45.333332061767578C0,20.266666412353516,20.266666412353516,0,45.333332061767578,0Z" style="fill:#fff; stroke-width:0px;"/></g></g></g></g><g style="clip-path:url(#clippath);"><path d="m225.159425021214702,115.80869603082283L136.993486972905885,27.64934807645659c-5.07719531476323-5.080448774147044-13.311591571738063-5.083087261135006-18.392039494485289-.005893518184166-.001961624401702.001963982123016-.00393163181343.003928488185011-.005893256215131.005893518184166l-18.301243110329779,18.310035840219825,23.219370805355538,23.219374996861916c5.568775036583247-1.891236455850049,11.728351104455214-.456555504939388,15.888327734313862,3.700684072067816,4.18405263533532,4.188353119599014,5.608376377065724,10.398541611933979,3.667717884211015,15.991614803763696l22.386501969715027,22.379904540638563c5.594787517429722-1.943198544964616,11.808056766036316-.515798238468051,15.993811152451599,3.67431531328657,6.042289371285733,6.041149281887556,6.043211502412305,15.836713540125857.002062220524749,21.879002911409771l-.002062220524749.00206222052293c-6.048995779492543,6.042683372766987-15.849648524959775,6.042683372766987-21.898644304454137,0-4.412665708214263-4.419891863060911-5.736938222456956-11.058582116487742-3.357865058871539-16.833277417168574l-20.876780502436304-20.870191456368957v54.932307012974888c7.660595970497525,3.784183045792815,10.803042814644868,13.06202097320238,7.018859768852053,20.722616943701723-.747588472238931,1.513384842763116-1.737806410514168,2.894234293271438-2.931404560777082,4.087790528485129-6.041149281889375,6.042289371282095-15.836713540125857,6.043211502412305-21.879002911409771.00206222052293l-.002062220524749-.00206222052293c-6.042892948023109-6.04054570514927-6.044804274362832-15.836109963387571-.004258569213562-21.879002911409771.001416728734512-.001425111744538.00284184047905-.002841840478141.004258569213562-.004258569213562,1.447771021436893-1.450713458038081,3.168626985197079-2.600191825289585,5.063170538595841-3.38204166047035v-55.437743850758125c-7.910443208375-3.258291662968986-11.681758333414109-12.312336748400412-8.423466670444213-20.222775765269944.009539865679471-.023174831871984.019146795440065-.046328706217537.028804023262637-.06945743153301l-22.894135156185257-22.898525757810603-60.459157567357579,60.443773695649725c-5.072807594800906,5.082761633579139-5.072807463815479,13.312983151441586,0,18.395744785022544l88.170338080820329,88.170322362675506c5.082501760260129,5.071335590591843,13.311038293061756,5.071335590591843,18.393540053323704,0l87.757190850898041-87.757190850898041c5.07281100039836-5.082761633580958,5.07281100039836-13.312983151443404,0-18.395744785024362" style="fill:#f03c2e; stroke-width:0px;"/></g></svg>