<?xml version="1.0" encoding="UTF-8"?><svg id="Layer_1" xmlns="http://www.w3.org/2000/svg" width="255.999984741211847" height="249.599990844726562" viewBox="0 0 255.999984741211847 249.599990844726562"><g id="Layer_2"><g id="Surfaces"><g id="Photo_Surface"><g id="Outline_no_shadow"><path d="m45.333332061767578,0h165.333324432373956c25.066665649414062,0,45.333328247070312,20.266666412353516,45.333328247070312,45.333332061767578v158.933330535888672c0,25.066665649414062-20.26666259765625,45.333328247070312-45.333328247070312,45.333328247070312H45.333332061767578c-25.066667556762695,0-45.333332061767578-20.26666259765625-45.333332061767578-45.333328247070312V45.333332061767578C0,20.266666412353516,20.266666412353516,0,45.333332061767578,0Z" style="fill:#fff; stroke-width:0px;"/></g></g></g></g><path d="m128.084943663173362,23.836588576658869c-56.823225918644312,0-102.759279916752348,46.274699183934899-102.759279916752348,103.522810270806985,0,45.76147179331565,29.432812140590613,84.497602571391326,70.263921352349826,98.207529152241477,5.104944786348824,1.030659261214169,6.974863184082096-2.227491767267566,6.974863184082096-4.968218948972208,0-2.399971732071208-.168275484827973-10.626357757158985-.168275484827973-19.19768766422203-28.58514404412017,6.171358174990019-34.537752915031888-12.340614109991293-34.537752915031888-12.340614109991293-4.59381562380895-11.997772468004769-11.400403323063983-15.081341291695935-11.400403323063983-15.081341291695935-9.355902720538325-6.341735899806736.681500869492993-6.341735899806736.681500869492993-6.341735899806736,10.378151015847834.685699331606884,15.823843228012265,10.626357757160804,15.823843228012265,10.626357757160804,9.185529007630976,15.767056670934835,23.987119928426182,11.312057088765869,29.941835051234193,8.569227667074301.849770336458278-6.684593589427095,3.573671574443324-11.312057088765869,6.465840273439426-13.882406545653794-22.798704406140132-2.399971732073027-46.785824334567224-11.312057088765869-46.785824334567224-51.076752911882977,0-11.312057088765869,4.08058823319061-20.56700013507907,10.546424494721578-27.764821115124505-1.020148061274995-2.570349456887925-4.59381562380986-13.198805442127195,1.022250301262829-27.424069677400439,0,0,8.676506096987396-2.742829421691567,28.240184114511976,10.626353745251436,8.375909850176868-2.266066266281996,17.013845460060111-3.418831970759129,25.690873105136234-3.42853276520691,8.676506096986486,0,17.521279654985847,1.201036986029976,25.688770865148399,3.42853276520691,19.565788281328423-13.369179155035454,28.242294378316728-10.626353745251436,28.242294378316728-10.626353745251436,5.616061913162412,14.225264235273244,2.04029612254817,24.853720220512514,1.020148061274085,27.424069677400439,6.636209974438316,7.197820980045435,10.548526734708503,16.452756002542628,10.548526734708503,27.764821115124505,0,39.764695823117108-23.987119928426182,48.504301215006308-46.956194035565204,51.076752911882977,3.744041275442214,3.25604878849299,6.974863184083006,9.425320771129918,6.974863184083006,19.195585424233286,0,13.882406545653794-.168275484827973,25.02410195723678-.168275484827973,28.450528470546487,0,2.742829421693386,1.872020637720198,6.00098045017512,6.974863184081187,4.972423428947877,40.831117235575221-13.714131060825821,70.263921352350735-52.448159598912753,70.263921352350735-98.20963941604532.168259437194138-57.248119110689004-45.936062021924954-103.522818294623903-102.588918239569466-103.522818294623903Z" style="fill:#24292f; fill-rule:evenodd; stroke-width:0px;"/></svg>