<?xml version="1.0" encoding="UTF-8"?><svg id="Layer_1" xmlns="http://www.w3.org/2000/svg" width="256" height="249.600006103515625" viewBox="0 0 256 249.600006103515625"><g id="Layer_2"><g id="Surfaces"><g id="Photo_Surface"><g id="Outline_no_shadow"><path d="m45.333339691162109.000007629394531h165.333324432373047C235.733329772949219.000007629394531,255.999992370605469,20.266674041748047,255.999992370605469,45.333339691162109v158.933330535888672c0,25.066665649414062-20.26666259765625,45.333328247070312-45.333328247070312,45.333328247070312H45.333339691162109C20.266672134399414,249.599998474121094.000007629394531,229.333335876464844.000007629394531,204.266670227050781V45.333339691162109C.000007629394531,20.266674041748047,20.266674041748047.000007629394531,45.333339691162109.000007629394531Z" style="fill:#fff; stroke-width:0px;"/></g></g></g></g><path d="m65.461868044062612,14.724468104596781h9.889595562402064v9.803602003180458h9.115628925609599v-9.803602003180458h9.889598842908526v29.668796528726489h-9.889598842908526v-9.889598842908526h-9.029633726135216v9.889598842908526h-9.975594042383818m41.966300323010728-19.779197685817053h-8.728647247464323v-9.889598842909436h27.389887657070176v9.889598842909436h-8.771641566697326v19.779197685817053h-9.889598842908526m23.004066873722877-29.668796528726489h10.362582281541108l6.363736615321613,10.448575840760896,6.363749737347462-10.448575840760896h10.362582281542927v29.668796528726489h-9.889598842912164v-14.705403824897985l-6.922721814436954,10.663567119956497-6.92272181444423-10.663567119956497v14.705403824897985h-9.717608443959762m38.354449456961447-29.668796528726489h9.889598842912164v19.86519452554603h14.017434027828131v9.803602003180458h-23.907032870740295" style="stroke-width:0px;"/><path d="m65.117880685151249,217.246253105035066l-14.189424426784171-159.265537002265773h155.997670214625032l-14.189424426782352,159.179548363805225-63.938405119994059,17.715273532343417" style="fill:#e44d26; stroke-width:0px;"/><path d="m128.927293005934189,221.331087409716929V71.052183253339535h63.766408160034189l-12.168501153555553,135.87448845039944" style="fill:#f16529; stroke-width:0px;"/><path d="m79.909281349774574,90.530394460488424h49.018011656159615v19.521212087392996h-27.604878936265777l1.80592543302555,19.994188965013564h25.798953503240227v19.478204646133236h-43.686230556560076m.859965116774219,9.80359708242031h19.607207286869198l1.375942874636166,15.60836162065425,21.843115278280493,5.847765418471681v20.381170643155201l-40.074373129498781-11.179546518073039" style="fill:#ebebeb; stroke-width:0px;"/><path d="m177.773314263142311,90.530394460488424h-48.932016456683414v19.521212087392996h47.126084462643121m-1.762931113791637,19.994188965013564h-45.363153348851483v19.521205526380072h24.079016708677955l-2.278902310639751,25.368970944853572-21.800114398038204,5.847765418475319v20.295182004689195l39.988371369008746-11.093544757583004" style="fill:#fff; stroke-width:0px;"/></svg>