<?xml version="1.0" encoding="UTF-8"?><svg id="Layer_1" xmlns="http://www.w3.org/2000/svg" width="255.999984741212756" height="249.599990844727472" viewBox="0 0 255.999984741212756 249.599990844727472"><g id="Layer_2"><g id="Surfaces"><g id="Photo_Surface"><g id="Outline_no_shadow"><path d="m45.333332061767578,0h165.333324432374866c25.066665649414062,0,45.333328247070312,20.266666412353516,45.333328247070312,45.333332061767578v158.933330535889581c0,25.066665649414062-20.26666259765625,45.333328247070312-45.333328247070312,45.333328247070312H45.333332061767578c-25.066667556762695,0-45.333332061767578-20.26666259765625-45.333332061767578-45.333328247070312V45.333332061767578C0,20.266666412353516,20.266666412353516,0,45.333332061767578,0Z" style="fill:#300; stroke-width:0px;"/></g></g></g></g><path d="m53.638700791882002,183.400097970144088h26.129985679768652c.697404747223118,0,1.309729280264946-.465138652692985,1.49665511141211-1.137706819041341l7.620521119462865-27.472006483240875h29.583473576178221l8.267624920323215,27.504300671568672c.197484457714381.656421072188095.80173544367608,1.105412630713545,1.487337840084365,1.105412630713545h27.133557135384763c.857624857635528,0,1.552546894366969-.694922036735079,1.552546894366969-1.552546894366969,0-.229157968427899-.048441282495332-.446508848042868-.138491655645339-.642131272888946l-34.506283374774284-111.28035271691806c-.201208523447349-.649585326847955-.80297679891919-1.09299315577482-1.483613774355035-1.09299315577482h-33.075457995266333c-.683119685923884,0-1.28550863901728.445891723914428-1.484855129598145,1.098581623370592l-34.067235224996693,111.462929066713514c-.142834316873632.470729489286896-.05589169041923.981826713985356.236608154251371,1.377421045031952.293120855434609.395584855057677.755158785139429.629092304832739,1.2476267234033.629092304832739Zm60.272976018819463-50.568321015644869h-20.520322357400801l6.063627112742324-21.674796948227595c1.101067887357203-3.905587877168728,2.14189214140788-8.52721030621251,3.148564912260554-12.996681433929552.230399323665551-1.026543930747721.457069843605495-2.033837379220131.681878330678956-3.018772219313178,1.332083150648032,5.35442475270429,2.797067120349311,11.139215997280189,4.265779893781655,16.031600747408447l6.360472107937312,21.658649854061878Z" style="fill:#ff9a00; stroke-width:0px;"/><path d="m168.396132485091584,99.426561467082138c-.857624857635528,0-1.552546894370607.69492203673326-1.552546894370607,1.552546894368788v80.868442714326193c0,.85762485763189.694922036735079,1.552546894366969,1.552546894370607,1.552546894366969h25.136979365466686c.857624857635528,0,1.552546894370607-.694922036735079,1.552546894370607-1.552546894366969v-80.868442714326193c0-.857624857635528-.694922036735079-1.552546894368788-1.552546894370607-1.552546894368788h-25.136979365466686Z" style="fill:#ff9a00; stroke-width:0px;"/><path d="m180.799744606249078,92.607773422297214c8.75760962987988,0,15.113111578844837-5.938802209771893,15.113111578844837-14.156121445733334-.190657003873639-8.391206099050578-6.337497559929034-14.251759101981406-14.947916571461974-14.251759101981406-4.395572586727212,0-8.29867775340972,1.516527455807591-10.99017282206114,4.271367176878812-2.525684121646918,2.583437937469171-3.871426917976351,6.139392424594007-3.793183633631998,10.015168823920249-.080110055208934,3.752815898221343,1.268740867228189,7.244805055304823,3.800015825469018,9.836937217478408,2.697701844874246,2.76291089915685,6.539942700626852,4.284407329437272,10.818145622841257,4.284407329437272Z" style="fill:#ff9a00; stroke-width:0px;"/></svg>