<?xml version="1.0" encoding="UTF-8"?><svg id="Layer_1" xmlns="http://www.w3.org/2000/svg" width="255.999984741210028" height="249.599990844728381" viewBox="0 0 255.999984741210028 249.599990844728381"><g id="Layer_2"><g id="Surfaces"><g id="Photo_Surface"><g id="Outline_no_shadow"><path d="m45.333332061767578,0h165.333324432372137c25.066665649414062,0,45.333328247070312,20.266666412353516,45.333328247070312,45.333332061767578v158.933330535890491c0,25.066665649414062-20.26666259765625,45.333328247070312-45.333328247070312,45.333328247070312H45.333332061767578c-25.066667556762695,0-45.333332061767578-20.26666259765625-45.333332061767578-45.333328247070312V45.333332061767578C0,20.266666412353516,20.266666412353516,0,45.333332061767578,0Z" style="fill:#fff; stroke-width:0px;"/></g></g></g></g><path d="m147.168077485060167,24.619123884938745c4.58690826372731,5.22219277932345,6.100635483924634,12.689321806565204,4.782312558389094,19.424520990982273-1.41553142227167,7.564788000068802-5.612584645210518,14.250986880280834-10.541702895885464,20.010084387275128-3.953016573248533,4.636482967780466-8.492279813960522,8.736061207895546-13.225982508814013,12.542808944781427-5.515120892720915,4.441262632297367-10.932534007529284,9.224307266946198-14.397743767482098,15.471260392316253-2.928305032284698,5.075679917543312-3.611527401400963,11.322877068332673-1.610470157589589,16.837753935633373,3.269794204133177,9.46813746596672,10.88343609315416,16.496069543449266,15.031868222223238,25.427497502083497-4.587629078827376-4.050919571494887-9.077794405163331-8.248010369185067-13.275080423187319-12.689321806565204-4.392457548426137-4.685336856737194-8.540889677495215-9.663504216701767-11.273779153958458-15.520114281271162-1.854739602364134-4.099627045201487-2.684279612927639-8.882427654427374-1.268980985741109-13.226031313897693,1.415298627188349-4.441311437383774,4.587629078830105-8.004180170160907,7.759959530470041-11.322877068332673,8.833768985807183-8.833768985807183,19.717693129799045-15.324747530536115,28.355802534368195-24.304834157790538,4.783288660066319-4.929362276094253,8.736305233314852-10.834826229616738,10.102273077067366-17.618684082655818,1.12289621335367-4.978216165050981.586235511102132-10.102749971547382-.438476029859885-15.032063442558865h0Z" style="fill:#e83133; stroke:#e83133; stroke-miterlimit:10; stroke-width:.09375px;"/><path d="m139.944534631421448,80.208260829713254c9.468381491386026-6.979273408862355,20.546745089524848-11.42053604116154,31.771914379945883-14.641525161421669-8.882134823925298,5.66124331383071-18.155100759491688,10.834582204199251-25.818073475098572,18.106539701038855-2.781510453205556,2.68427961292582-5.417180202597592,5.759097506992475-6.637307299382883,9.516991354921629-.927480891783489,2.781938585752869-.536660702249719,5.856610064567576.586246667460728,8.492231008875024,2.04942308192949,4.685141636404296,5.514388816465726,8.492035788540306,8.150058565854124,12.786785559055716,2.244838637749126,3.660381290354053,2.635669749390217,8.345718147093066.927491813894449,12.298978745759086-2.587059885856434,5.807756175614486-7.66297283273525,10.053896082594292-12.933347225922262,13.421398064636378-.683466394533752.390343060804298-1.268736960320894,1.122419318873654-2.099009047140498,1.220127096783472,3.514551699747244-3.172330451639937,6.247441176210486-7.662495777976801,6.149256312719444-12.494150276161236-.097230692330413-3.611527401400963-2.098043910722481-6.783857853039081-4.441078377221856-9.370624908393438-4.831887792598536-5.758951091740528-8.882378849340967-13.079713672450453-8.052594813360884-20.839673202917766.830028061400299-7.759959530470951,6.39303755254241-14.007156681260312,12.396442498252327-18.497077982176052h0Z" style="fill:#e83133; stroke:#e83133; stroke-miterlimit:10; stroke-width:.09375px;"/><path d="m173.522822775618806,136.626791369797502c2.049423081924033-2.488912862190773,5.318985206067737-3.123525367769616,8.296864258136338-3.513868428573915,5.173143670032005-.683222369116265,10.687544777141738.634368480161356,14.59195158548755,4.197286018024897,3.221916498245264,2.879451143329788,5.027314206425217,7.369421249330117,4.343847794625617,11.713220129135152-.732076276566659,5.026826028588403-4.099822369105823,9.224112046611481-7.906045645515405,12.396442498253236-6.881321605531411,5.5148768673007-15.373601419491024,8.736061207897365-23.865881233448818,10.883924143992772.488050838712297-.537587998844174,1.024711540963835-1.02563883755829,1.659568071961985-1.415542652606746,6.441880630352898-3.465453785373029,12.835163459729301-7.51617813653138,17.569830193706366-13.177616670696807,2.879695168747276-3.514014843824043,5.124533806498221-8.101692727736008,4.197041992603772-12.738175695518294-.976101677428233-5.36855922585346-6.197855210997659-9.27296593556639-11.517804573315516-9.565796438793768-2.538438089217379-.244025419358877-4.929118250674946.732076258069355-7.36937244424189,1.220127096783472h0Z" style="fill:#1073b9; stroke:#1073b9; stroke-miterlimit:10; stroke-width:.09375px;"/><path d="m75.424116143262836,141.068054002096687c8.980086627254423-3.855552820758021,18.741103401534019-6.344660903283511,28.550974064768525-6.198099236416965-5.710048397701939,1.659324046542679-11.566658462269515,3.074622673730119-16.935217688123885,5.612584645210518-1.2689809857402.683222369116265-2.733133501881639,1.317590849275803-3.465209759952813,2.635425723970911-.390587086223604,1.024955566383142.683222369116265,1.708177935499407,1.464152516141439,2.049715912429747,3.318648093088086,1.366639958569067,6.979029383443049,1.561811488971216,10.54194692130659,1.903544686238092,12.493906250741929.829540010563505,25.036910415859893.34148917184757,37.482450828485526-.439392170093925,12.298490694924112-.780734926689547,24.499761662773381-2.440254193570581,36.652422767087046-4.392457548427046-2.684279612927639,1.26893218065743-5.417169089390882,2.53791316639763-7.906033146497066,4.148432129069988-1.269701578910826.878589119851313-2.831085305211673,1.122614539208371-4.2466279578166,1.46415251614053-14.934160444312511,3.318843313423713-30.258907974849535,4.343798879806855-45.48619175289241,4.587824299163913-5.905463953525214.048658668622011-11.76207401809279-.048853888956728-17.618684082660366-.439392170095743-6.539832433683841-.439245754841977-13.128518756322592-.927296593556093-19.522033548560103-2.635474529053681-1.854495576944828-.536855922584436-3.806698931801293-1.122419318875473-5.270851447942732-2.440254193570581-.732076258071174-.585514591204628-.732076258071174-1.756983019371546-.097707777910728-2.440254193570581,1.610714183007985-1.659324046542679,3.855552820757111-2.440254193568762,5.856610064567576-3.416355870995176h0Z" style="fill:#1073b9; stroke:#1073b9; stroke-miterlimit:10; stroke-width:.09375px;"/><path d="m86.942164741996748,161.907922425347351c2.537961971480399-2.001057243809555,5.563730756256518-3.123476562685028,8.589743566450124-4.197286018021259-.976101677427323,1.171273207832201-2.342790441077341,2.293936552123341-2.440254193568762,3.904406709711111-.048853888954909,1.024955566383142.780930147025174,1.805885713411044,1.610470157588679,2.29393655212516,1.610714183007076.829540010559867,3.416355870996995,1.122419318875473,5.22224158440622,1.366444738228893,9.370429688057811.976101677430051,18.838811179443837,1.513006405099077,28.306948645410557.878442704603003,8.638120289687322-.439245754841977,17.228585047275374-1.854544382029417,25.769474724770589-3.367550787124856,2.342058364822151,2.196228774211704,5.124533806498221,3.709235179310781,8.052838838781099,5.027070054004071-10.298642317047779,3.025768784777028-20.888966337630336,4.783044634650651-31.528854337427219,5.612389424875801-10.053418756592691.683417589449164-20.253876506049892.63480772591538-30.258918699686546-.976101677428233-3.953016573247623-.732076258071174-8.003984949825281-1.561421048298143-11.615512351226243-3.416160650660458-1.464152516141439-.780930147027902-3.123476562685028-1.805885713411044-3.562673512444235-3.51406364891227-.292879308311967-1.46415251614053.780686121607687-2.781938585752869,1.854495576945737-3.611527401400963h0Z" style="fill:#1073b9; stroke:#1073b9; stroke-miterlimit:10; stroke-width:.09375px;"/><path d="m92.603603276163994,183.186792578029781c2.245082663168432-1.805446467657021,5.026826028585674-2.732938281546012,7.759959530468223-3.513624403152789-.878393899518414.82934479022515-2.440254193570581,1.854056331188985-1.757031824454316,3.269598983795731,1.317834874695109,1.708177935497588,3.75808906826569,1.903544686236273,5.710292423121246,2.342985661411149,8.248010369182339,1.024711540967473,16.593728516275405,1.708177935501226,24.84198291087796,1.073370209584027,6.246475922665923-.389903815046637,12.396686523670724-1.512811184758903,18.497322007597177-2.586132589258341,3.513575598068201,2.049423081925852,7.173956888424073,3.806259686045451,10.931569339618363,5.36855922585346-5.75842566958454,2.586132589263798-11.957245850557229,4.245651856139375-18.155112193255263,5.417169089390882-10.444483168816987,1.854056331187167-21.230211484061329,2.098081750546044-31.723304516412099.439440975174875-4.636482967783195-.830223281733197-9.370673713475298-1.903593491317224-13.567959731502015-4.197969289196408-1.61047015758777-.926564517299994-3.318648093086267-2.000813218390249-4.001870462202533-3.806259686047269-.536904727668116-1.415542652606746.34148917184848-2.928305032284698,1.464152516143258-3.807138177555316h0Z" style="fill:#1073b9; stroke:#1073b9; stroke-miterlimit:10; stroke-width:.09375px;"/><path d="m65.516781727537818,196.998972949222662c4.489921300916649-1.512762379679771,9.126404268698934-2.732889476463242,13.860595014392857-2.879695168749095,1.903349465899737-.048609863535603,3.855552820756202.048658668622011,5.514876867298881,1.024760346048424-5.661194508746121.3421724430209-11.322633042911548,1.756787799036829-16.39831296045395,4.343798879806855-1.12266334429296.634856530999969-2.391644330034069,1.366932789067505-2.830841279791457,2.68427961292582,0,1.512811184762541,1.708177935498497,2.000862023474838,2.830841279791457,2.488912862188954,7.076737161353776,2.635620944307448,14.64152516141985,3.464965734532598,22.059751494622105,4.24657915273383,22.108849408994502,1.854056331192623,44.363539244400272,1.366005492478507,66.472621843012348-.634856530999969,8.34547412167376-.927443008806222,16.740534208562167-1.854934822697032,24.841982910878869-4.148432129068169,2.586095871392899-.878833145270619,5.514400977655896-1.756787799033191,7.22257895630537-4.051163596912374,1.025675438297185-1.36600549247305.342209043763432-3.074183427974276-.682502497198584-4.245700661222145,1.658604199285037.927491813890811,4.001626436780498,2.09900904713686,3.660381290352234,4.343847684885986-.634856530999969,2.342107169904921-3.026500861033128,3.562234266693849-4.978704215889593,4.685092831321526-6.246465074535081,3.172330451641756-13.128750959604076,4.783288660068138-19.961462874209246,6.19790401607861-19.863290344515917,3.90440670971293-40.215107929059741,4.783239854987187-60.420363846735199,4.197969289201865-15.227283778044693-.537587998842355-30.454323530668262-2.001740514986523-45.486435778311716-4.587873104248501-2.684279612927639-.63480772591538-5.71004839770103-1.171517233247869-7.662251752557495-3.270477475307416-1.268980985741109-1.46415251614053-.146561666865637-3.513624403152789,1.073565429918744-4.586945807652228,3.074866699148515-2.831085305211673,7.028127297817264-4.392457548427046,10.883680118574375-5.808000201031973h0Z" style="fill:#1073b9; stroke:#1073b9; stroke-miterlimit:10; stroke-width:.09375px;"/><path d="m187.138672449421392,213.689969997651133c4.930082197326556-1.70817793549395,10.200458007144334-3.51362440315097,13.860839389966713-7.4180311128639-.633880445333489,4.245700661225783-4.294261828159506,7.17400569351048-7.906045651678141,9.077550379743116-6.930895440375025,3.611771426822088-14.690135024953634,5.271339498785892-22.401728717306469,6.637344991258942-16.301093233383654,2.587011080773664-32.846200976344335,3.220940315179178-49.390842488024646,2.928305032284698-11.274023179377764-.341293951511034-22.64551011124513-.780734926689547-33.724361760221655-3.123720588106153-2.635425723971821-.732076258067536-5.466022978343972-1.220127096783472-7.759959530468223-2.781548145077977,9.858724552190324,1.659568071958347,19.863766745826979,2.343034466495737,29.868808939465453,2.732938281546012,16.447166849408859.488050838712297,32.943431613194662-.145878395693217,49.293134710112099-2.196228774215342,9.468381491386026-1.317395628941085,18.985372846309474-2.928305032284698,28.160155108154868-5.856610064569395h0Z" style="fill:#1073b9; stroke:#1073b9; stroke-miterlimit:10; stroke-width:.09375px;"/></svg>