<?xml version="1.0" encoding="UTF-8"?><svg id="Layer_1" xmlns="http://www.w3.org/2000/svg" width="256" height="249.600000000000364" viewBox="0 0 256 249.600000000000364"><g id="Layer_2"><g id="Surfaces"><g id="Photo_Surface"><g id="Outline_no_shadow"><path d="m45.333339691162109-.22441922067992h165.333324432373047c25.066665649414062,0,45.333328247070312,20.266666412353516,45.333328247070312,45.333332061767578v158.933330535888672c0,25.066665649414062-20.26666259765625,45.333328247070312-45.333328247070312,45.333328247070312H45.333339691162109C20.266672134399414,249.375571624046643.000007629394531,229.108909026390393.000007629394531,204.04224337697633V45.108912841087658C.000007629394531,20.042247191673596,20.266674041748047-.22441922067992,45.333339691162109-.22441922067992Z" style="fill:#f7df1e; stroke-width:0px;"/></g></g></g></g><path d="m172.735122330184822,200.405412511208851c5.156572420633893,8.419543650794367,11.865401785715221,14.608258928572468,23.730791170633893,14.608258928572468,9.967745535715949,0,16.33523065476038-4.981845238095048,16.33523065476038-11.86540178571704,0-8.24888392856883-6.542224702378007-11.170535714281868-17.513653273806995-15.969518849204178l-6.013963293651614-2.580319940478148c-17.359238591267058-7.395560515869875-28.891431051586551-16.660317460316946-28.891431051586551-36.246341765871875,0-18.041902281746843,13.74680059523962-31.776512896824897,35.230481150792912-31.776512896824897,15.29499007936829,0,26.290798611109494,5.323177083332666,34.214608134920127,19.260949900792184l-18.732688492062152,12.027938988096139c-4.124441964286234-7.395560515872603-8.573970734127215-10.309077380953568-15.481907242061425-10.309077380953568-7.04609375000291,0-11.511867559525854,4.469841269842618-11.511867559525854,10.309077380953568,0,7.216765873015902,4.469841269841709,10.13841765872985,14.791108630950475,14.608258928570649l6.013963293651614,2.576252480157564c20.439372519842436,8.764955357144572,31.979675099206361,17.700570436509224,31.979675099206361,37.790476190479239,0,21.658420138888687-17.013839285715221,33.52382192460027-39.862859623015538,33.52382192460027-22.341083829367562,0-36.774603174606455-10.646354166663514-43.836954365080601-24.600372023809541l19.549466765874968-11.357490079362833Zm-84.979811507935665,2.084573412697864c3.779048859124487,6.704761904762563,7.216759672618537,12.373338293649795,15.481907242062334,12.373338293649795,7.903497023809905,0,12.889397321428078-3.092311507936756,12.889397321428078-15.116195436507041v-81.798090277777192h24.05587797618864v82.123177083331939c0,24.909213789682326-14.604191468251884,36.246341765870966-35.921267361108221,36.246341765870966-19.260949900794003,0-30.415240575397547-9.967757936505222-36.087872023809723-21.973338293648339l19.581956845238892-11.855233134920127Z" style="stroke-width:0px;"/></svg>