<?xml version="1.0" encoding="UTF-8"?><svg id="Layer_1" xmlns="http://www.w3.org/2000/svg" width="255.999984741211847" height="249.599990844725653" xmlns:xlink="http://www.w3.org/1999/xlink" viewBox="0 0 255.999984741211847 249.599990844725653"><defs><linearGradient id="linear-gradient" x1="60.585958899192519" y1="138.445074493690299" x2="162.932942131573753" y2="88.670096661400038" gradientTransform="translate(.823991613387223 181.460871635981903) scale(.71110999584198 -.71110999584198)" gradientUnits="userSpaceOnUse"><stop offset=".21" stop-color="#fe2857"/><stop offset="1" stop-color="#293896"/></linearGradient><linearGradient id="linear-gradient-2" x1="29.46122461061077" y1="120.78495018743979" x2="163.331007513125314" y2="220.069492544692537" gradientTransform="translate(.823991613387223 181.460871635981903) scale(.71110999584198 -.71110999584198)" gradientUnits="userSpaceOnUse"><stop offset="0" stop-color="#fe2857"/><stop offset=".01" stop-color="#fe2857"/><stop offset=".86" stop-color="#ff318c"/></linearGradient><linearGradient id="linear-gradient-3" x1="145.419564541653926" y1="219.342211173657233" x2="321.204051313062905" y2="59.727462717874971" gradientTransform="translate(.823991613387223 181.460871635981903) scale(.71110999584198 -.71110999584198)" gradientUnits="userSpaceOnUse"><stop offset=".02" stop-color="#ff318c"/><stop offset=".21" stop-color="#fe2857"/><stop offset=".86" stop-color="#fdb60d"/></linearGradient><linearGradient id="linear-gradient-4" x1="311.354004347057526" y1="80.098846670468447" x2="106.39461110650754" y2="-60.977871780103726" gradientTransform="translate(.823991613387223 181.460871635981903) scale(.71110999584198 -.71110999584198)" gradientUnits="userSpaceOnUse"><stop offset=".01" stop-color="#fdb60d"/><stop offset=".86" stop-color="#fcf84a"/></linearGradient></defs><g id="Layer_2"><g id="Surfaces"><g id="Photo_Surface"><g id="Outline_no_shadow"><path d="m45.333332061767578,0h165.333324432373956c25.066665649414062,0,45.333328247070312,20.266666412353516,45.333328247070312,45.333332061767578v158.933330535887762c0,25.066665649414062-20.26666259765625,45.333328247070312-45.333328247070312,45.333328247070312H45.333332061767578c-25.066667556762695,0-45.333332061767578-20.26666259765625-45.333332061767578-45.333328247070312V45.333332061767578C0,20.266666412353516,20.266666412353516,0,45.333332061767578,0Z" style="fill:#fff; stroke-width:0px;"/></g></g></g></g><path d="m114.964274073578963,115.688268071022321l-60.036216375658114-50.816206963490004c-9.231761815214668-7.715024248349437-22.969845895392609-6.485468994221264-30.684872090792851,2.746292820993403-3.618698465593297,4.330117995438741-5.415869864584238,9.895538941128507-5.013056055478046,15.524270214426906.627976689398565,8.722588369131699,6.414045302879458,16.22293460968649,14.691582474025381,19.044336890571685h.214370373651946l.56553279972195.175577318932483,75.732282734942601,23.064305153406167c.543071613251414.200079015407937,1.12493628122138.302166821323226,1.706800949193166.310328861344715,2.992493593087602-.0184424721092,5.403434046449547-2.459297425204568,5.384983786134399-5.451791018293079-.011518756862642-1.869364175687224-.985823343377888-3.600760279829956-2.577740463988448-4.580789197849299l.016331868248017-.016324080042978Z" style="fill:url(#linear-gradient); stroke-width:0px;"/><path d="m126.999692742017942,31.799669646252369c.048559465202743-8.735088439964784-6.993263927818589-15.855640861675056-15.728344579578334-15.904202273930423-3.103202943186261-.017250876571779-6.142916430023433.878751085541808-8.740610278109671,2.57643204535907L29.215750778948859,62.987634541194893c-6.795684926576541,4.425648131795242-10.567049755726657,12.262662946818637-9.785540264839256,20.334647940700052,1.161731661070917,11.974865365798905,11.811046291068124,20.740639337906032,23.785911656867029,19.578911570939454,4.419986105940552-.428803052953299,8.603354827426301-2.198182238379559,11.98959675768856-5.071080138177422l65.724204215275677-53.560159428543557.518577704981908-.430785151411328c3.516694382892638-3.013151809840565,5.543909920365877-7.410540435703297,5.551199681301114-12.041540198454641l-.000007788205949.002040510004917Z" style="fill:url(#linear-gradient-2); stroke-width:0px;"/><path d="m233.617765762372983,127.723678951254442L122.381520154757709,20.593155597089208c-4.103348797631952-4.115288117624914-10.12987048708419-5.654825657926267-15.704232293407586-4.011806222812083-5.573528468268705,1.645422096704351-9.799596029846725,6.209162911341991-11.01256240492603,11.892503138951724-1.208449215524524,5.687061043087851.793501381272108,11.579310164804156,5.216369123480035,15.353069867337581l.198038505403019.173536808927565,118.183925164968969,99.562203597582084c3.18227659999684,2.67024877636868,7.623501144045804,3.254660187743866,11.388226527473307,1.498559893763741,3.763323506322195-1.761832413687443,6.166981986956671-5.542430161200173,6.165720297565713-9.697749658322209-.006729010096024-2.870966424676226-1.158199709592736-5.620701632778946-3.199239312942154-7.639794071263168Z" style="fill:url(#linear-gradient-3); stroke-width:0px;"/><path d="m236.825182691744885,135.40429879903877c.042414570571054-5.892478873798609-4.700011057242591-10.703674361714548-10.592489931039381-10.746088932284692-2.278829112827225-.016401962103373-4.503062900699661.697262518158823-6.346920701320414,2.036491290971753l-134.596603840534044,65.760948971783364c-10.749811694811797,5.397631832884144-15.088605751875548,18.48770601045544-9.690981707197352,29.237517705267237,5.397631832885054,10.749811694809978,18.48771379865957,15.088605751874638,29.237525493471367,9.690989495402391,1.020839118125878-.512588574469191,1.999769899081002-1.104679157086139,2.927734659139787-1.770804427147596l124.457847010259684-85.4300323932639c2.886978976473983-1.989138997716509,4.608406176776043-5.273129569735829,4.60183293080263-8.779021710728557h.002056086417724Z" style="fill:url(#linear-gradient-4); stroke-width:0px;"/><path d="m62.345183184122106,59.95160499807389h129.737759863095562v129.73775986309829H62.345183184122106V59.95160499807389Z" style="stroke-width:0px;"/><path d="m76.458083343476574,165.362015262703608h48.654699196933507v8.113168863854298h-48.654699196933507v-8.113168863854298Zm-2.034370712509372-71.960304566738159l3.612610580158616-3.42103353728362c.699409908933376,1.103850332779075,1.876248601009138,1.806311090171221,3.183844569941357,1.888405594102551,1.377533479771046,0,2.292857618134803-.973093055924437,2.292857618134803-2.861498650026988v-12.793147197328835h5.583122278377232v12.838759121796102c.165650631077369,2.092777640204986-.55859527233406,4.158422449449972-1.994837284589266,5.689553968863038-1.48412757283586,1.444976950996534-3.49143505549273,2.225286544883602-5.561835940279707,2.162088741093612-2.810631842095972.105677678510801-5.485495127737522-1.211175237453062-7.115761821743035-3.503128041215859Zm17.181195293989731-17.187273790536892h16.284118245452191v4.725590257942713h-10.825674747384255v3.101738465827111h9.71877356614732v4.32418908237014h-9.621471220664716v3.217287901132295h10.810466905832982v4.752955092587399h-16.43920110867839l.072988359294868-20.121760799859658Zm24.217878659708731,4.904998707540472h-6.057511813247402v-4.904998707540472h17.746797077610609v4.904998707540472h-6.069668806338996v15.335350775898405h-5.619616458024211v-15.335350775898405Zm-39.13967126694115,23.326891707899449h9.548482861369848c2.003781026644901-.163910603440854,3.989639768625239.482347261263385,5.513184767539315,1.794142496894892.87882995871496.881869206988085,1.353207893399485,2.055657050605987,1.328882307029744,3.293315508700289.025369602953106,2.018339257878324-1.232415174813468,3.830543241649139-3.132142548744014,4.51272687697201,2.371912873792098.440934603494497,4.071792273477513,2.54220357856866,4.014011755732099,4.953661480466508,0,3.658222504625883-2.828055318836959,5.820311245719495-7.675273508631108,5.820311245719495h-9.59713403411024l-.000011600185644-20.374157608753194Zm10.807427657561675,6.249088856121489c0-1.116018926058132-.912273289906807-1.721154137598205-2.554372171846808-1.721154137598205h-2.788521890915035v3.539633821046664h2.70641578679988c1.687710806409086,0,2.676011703882068-.580821225355066,2.676011703882068-1.745491324152681l-.039533427920105-.072988359295778Zm-1.946186111847965,5.750373734880668h-3.396707950913878v3.740328608742857h3.503139641399684c1.733322730875443,0,2.685129448702355-.662915729285487,2.685129448702355-1.851923014639397-.048651172740392-1.152513105705111-.866661365438631-1.885366345830334-2.745949214720895-1.885366345830334l-.045611924467266-.003039248273126Zm10.202280845835958-11.999462591002157h8.979830229290201c2.402328556893735-.188537794601871,4.774241430684924.583860473628192,6.592709513948648,2.165139589550563,1.225489864817973,1.258944796190917,1.879287849284083,2.967941940696619,1.794142496893983,4.713421664666384.082106104116065,2.757189793258476-1.589376044527853,5.264430416499636-4.166055370685172,6.249088856120579l4.841139693249715,7.246507498415667h-6.498446416741899l-4.087000115026967-6.142657165634773h-1.876248601010957v6.142657165634773h-5.616565609566351l.036494179648798-20.374157608753194Zm8.64837816473937,9.730942159423648c1.888405594102551,0,3.028750106531334-.927481131456261,3.028750106531334-2.423614894989441,0-1.614722447112399-1.185956436896049-2.432732639810638-3.040918699808572-2.432732639810638h-3.004424520161592v4.904998707541381l3.01659311343883-.048651172741302Z" style="fill:#fff; stroke-width:0px;"/><path d="m120.919362335080223,104.294283705914495h5.403713828780383l8.660535157833692,20.41976953322137h-6.036225475148058l-1.447470990609872-3.658222504626792h-7.851654310139565l-1.450521839066823,3.764654195112598h-5.853766177094258l8.575389805444502-20.526201223707176Zm4.926285045638906,12.40086376657564l-2.265481183306292-5.738216741787255-2.292857618132984,5.738216741787255h4.558338801439277Zm10.016793899691038-12.306600669366162h5.616577209750176v20.252518076715205h-5.616577209750176v-20.252518076715205Zm7.696559846730452,0h5.272956551922107l7.295170271339884,10.810466905832982v-10.813506154106108h5.558808292191316v20.252518076716115h-4.904998707541381l-7.64183017743926-11.099357894375316v11.105436390921568h-5.583122278378141l.003016047905476-20.25555732498924Zm19.051353798269702,17.248093556556341l3.11390705910344-3.740328608742857c1.822644149595362,1.526329043133956,4.109620474315307,2.38838513542396,6.486289423646667,2.444901233086966,1.544796536461945,0,2.341497190691371-.53215845242994,2.341497190691371-1.398819817867661,0-.894026200082408-.653786384284103-1.319752962025632-3.436229778650159-1.973550946491741-4.333318427376071-.997418642294178-7.635751680896647-2.162088741092703-7.635751680896647-6.331194960236644,0-3.764654195112598,2.980110533973857-6.486277823462842,7.851654310141384-6.486277823462842,3.006953360327316-.113507802877393,5.956857014516572.842138575935678,8.326032244824091,2.697298041980503l-2.706415786798971,3.846760299227753c-1.637458808239899-1.233888398212912-3.618723877259981-1.92689500544202-5.668267630766422-1.982680291495853-1.365364886492898,0-2.031331464237155.535197700703065-2.031331464237155,1.295427375654981,0,.927481131457171.690280563929264,1.341050900306982,3.52747682795416,1.970511698217706,4.646523402101593,1.009587235572326,7.520190645407638,2.530046585476157,7.520190645407638,6.309908622140028,0,4.132612039496053-3.265939073875415,6.483238575189716-8.170937781414978,6.483238575189716-3.448920380220443.154746457884357-6.835014162545122-.959520840352525-9.518067178267302-3.132142548743104l-.000046400737119-.003050848456951Z" style="fill:#fff; stroke-width:0px;"/></svg>