<?xml version="1.0" encoding="UTF-8"?><svg id="Layer_1" xmlns="http://www.w3.org/2000/svg" width="255.999984741209119" height="249.599990844727472" xmlns:xlink="http://www.w3.org/1999/xlink" viewBox="0 0 255.999984741209119 249.599990844727472"><defs><linearGradient id="linear-gradient" x1="173.286140927311862" y1="151.059627660207298" x2="134.762702675907121" y2="110.157297273000381" gradientTransform="translate(0 229.653472429623434) scale(1 -1)" gradientUnits="userSpaceOnUse"><stop offset=".176000003814697" stop-color="#0052cc"/><stop offset="1" stop-color="#2684ff"/></linearGradient><linearGradient id="linear-gradient-2" x1="129.772678499874019" y1="105.647083760056375" x2="85.155296418425252" y2="60.95123312032031" xlink:href="#linear-gradient"/></defs><g id="Layer_2"><g id="Surfaces"><g id="Photo_Surface"><g id="Outline_no_shadow"><path d="m45.333332061767578,0h165.333324432371228c25.066665649414062,0,45.333328247070312,20.266666412353516,45.333328247070312,45.333332061767578v158.933330535889581c0,25.066665649414062-20.26666259765625,45.333328247070312-45.333328247070312,45.333328247070312H45.333332061767578c-25.066667556762695,0-45.333332061767578-20.26666259765625-45.333332061767578-45.333328247070312V45.333332061767578C0,20.266666412353516,20.266666412353516,0,45.333332061767578,0Z" style="fill:#fff; stroke-width:0px;"/></g></g></g></g><g id="Icon"><path id="Vector" d="m214.822729922707367,34.662609967748722h-93.412520688885706c0,22.551114847533427,18.898346149337158,40.906695825919087,42.116477207662683,40.906695825919087h17.278421421859093v15.995439658726355c0,22.550888610091533,18.899100274142256,40.906997475842218,42.117238514611017,40.906997475842218V42.529288042924236c0-4.457761020343241-3.509452664990022-7.866678075175514-8.099616455247087-7.866678075175514Z" style="fill:#2684ff; stroke-width:0px;"/><path id="Vector_2" d="m168.656817958757529,79.764157359419187h-93.413044985180022c0,22.551118438604135,18.898568795707433,40.906473179548811,42.117008686098416,40.906473179548811h17.278421421857274v16.257968459842232c0,22.550888610090624,18.899093092002659,40.907004657983634,42.117231332469601,40.907004657983634v-90.205062689982697c0-4.195311222775672-3.510213971938356-7.866383607391981-8.099616455245268-7.866383607391981Z" style="fill:url(#linear-gradient); stroke-width:0px;"/><path id="Vector_3" d="m122.490913176950926,125.128994859155682H29.077638363254664c0,22.550895792232041,18.898568795708343,40.906250533178536,42.11685786113685,40.906250533178536h17.278719480711516v15.995877769324579c0,22.550888610094262,18.898421561815667,40.906257715319953,42.116559802282609,40.906257715319953v-89.942239421081467c0-4.457603013241169-3.77907023930311-7.866146596741601-8.098862330434713-7.866146596741601Z" style="fill:url(#linear-gradient-2); stroke-width:0px;"/></g></svg>