<?xml version="1.0" encoding="UTF-8"?><svg id="Layer_1" xmlns="http://www.w3.org/2000/svg" width="255.999984741210938" height="249.599990844727472" viewBox="0 0 255.999984741210938 249.599990844727472"><g id="Layer_2"><g id="Surfaces"><g id="Photo_Surface"><g id="Outline_no_shadow"><path d="m45.333332061767578,0h165.333324432373047c25.066665649414062,0,45.333328247070312,20.266666412353516,45.333328247070312,45.333332061767578v158.933330535889581c0,25.066665649414062-20.26666259765625,45.333328247070312-45.333328247070312,45.333328247070312H45.333332061767578c-25.066667556762695,0-45.333332061767578-20.26666259765625-45.333332061767578-45.333328247070312V45.333332061767578C0,20.266666412353516,20.266666412353516,0,45.333332061767578,0Z" style="fill:#fff; stroke-width:0px;"/></g></g></g></g><path d="m64.780379892637939,51.197115903538361c-12.824316355985502,18.428847553886044-11.228252794080618,42.408155162664116-1.430350081045617,61.993487049587202l.716918412350424,1.391975938575342.458759646013277.882631893209691.286069350799153.507600673538036.511087417193266.914025894280712c.303513050208494.535507930957465.615749613645676,1.06752911825788.93495966438968,1.603037049215345l.533764559128031.879145149554461c.354097449562687.568651957946713.715175040524628,1.133817172238196,1.084972817667222,1.697232360612361l.462246389668508.713431668693374c.511087417193266.762272696221771,1.032641719439198,1.52105864879195,1.571643048142505,2.269371062211576l.045350956825132.057564540755266.2651389077364.35759084730671c.465736460368134.641913499232032.945426549444164,1.276846857068449,1.432093452875051,1.90655009942202l.538998001655273.685524411277584c.434339132250898.54597481601013.875651751810437,1.086712862448621,1.323944512769231,1.629207588895952l.505857301710421.603539356761758c.601795984935961.708194899125374,1.217545598581637,1.416389798250748,1.843755443189366,2.10715097909997l.036630770644479.038380796562706.071518169461342.078491656771803c.612262869990445.668084038916277,1.238472714598174,1.322207795030408,1.875156098350999,1.976331551148178l.600052613108346.605282728589373c.491903673004344.495383762565325.992524205143127.982063974177436,1.496638135027752,1.466987505780708l.612262869990445.582605586656427c.6750575262231.634933357836417,1.355345167930864,1.259406484707142,2.051329810172319,1.86643258512413l.031400655163452.027907257415791.35759084730671.303519704302744c.612262869990445.532021187300415,1.234985970942944,1.055325515466393,1.8629458414689,1.573386419968301l.77099620944864.615742959555064c.512830789020882.409918618486699,1.030898347615221.816350493318168,1.552452649861152,1.214052200833976l.832047493857317.629703242353571c.575632099345967.423865593103983,1.156487660082348.840771007082367,1.742586644482799,1.250689625569066l.633189986006983.45004278687702.176180365913751.125589312468946c.554698329236999.383754732898524,1.125093659009508.751805811167287,1.692002245128606,1.119856889439689l.732615412885934.488410275258502c.872165008155207.549468213754153,1.756540273192513,1.09543637567549,2.649639051454869,1.62222744749306l.732615412887753.41340536214193c.657610499769362.378524617415678,1.318714397286385.751805811167287,1.988535153937846,1.114626773956843l1.100673145247129.568645303854282,1.423376593738794.739602208377619.327933563970873.158739993548807.582605586654608.280842562366161c.744825669768034.355847475479095,1.496638135027752.706451527294121,2.255417433503681,1.044851976323116l.476200018376403.212811136556411c.868678264499977.380267989243293,1.74607338813621.744832323856826,2.630448653173517,1.09543637567549l.641913499233851.251178624937893c.818093865147603.317466678916389,1.648391333086693.626216498698341,2.482182198769806.91926266385417l.312236563435363.108142286011571c.914025894280712.32095342257162,1.83852532770652.615742959555064,2.768254876615174.907045752883278l.668077384823846.198850853757904c.945426549444164.286072677845368,1.882129585659641.624473126870726,2.857213418439642.805876954174892,62.016174172658793,11.308494476768828,80.029863011437556-37.26586370034147,80.029863011437556-37.26586370034147-15.130311534750945,19.710934507574166-41.984279588421487,24.909030503594295-67.428818022974156,19.121342125426054-.964616947723698-.218041252035619-1.899576612111559-.519804276329523-2.839766391982266-.7954167232092l-.708194899123555-.216297880211641c-.917519292026554-.280842562366161-1.829801814479652-.575632099345967-2.735110849625926-.889612034610764l-.375031219669836-.134319479784608c-.811113723748349-.286072677845368-1.611760562440395-.586092330311658-2.410664029306645-.894842150093609l-.676800898052534-.2651389077364c-.873908379982822-.34537393633218-1.744330016310414-.706451527294121-2.602541395755907-1.081489401058207l-.519810930420135-.232001534837764c-.737852182459392-.333170333542512-1.46872422351953-.669827410740254-2.196109520922619-1.020431462558918l-.634933357836417-.305263076126721c-.570395329772509-.277342510526069-1.133817172236377-.572145355690736-1.698975732437248-.86344814901895l-1.132067146319969-.59482249762732c-.689011154932814-.366307706444786-1.364068681157732-.750062439339672-2.035632809636809-1.140790659545019l-.687267783107018-.382011361070909c-.894842150089971-.528534443648823-1.777474043299662-1.072759233738907-2.651382423280666-1.625714191151928l-.715175040524628-.476200018376403c-.633189986006983-.408175246659084-1.264636600188169-.825067352456244-1.885622983405483-1.254176369224297l-.608769472244603-.427358990848006c-.600052613108346-.422128875368799-1.194868456645054-.852974609875673-1.782704158780689-1.287313742122933l-.790179953639381-.598302587193757c-.540744700529103-.41340536214193-1.077996003312364-.830304122027883-1.608273818786984-1.257663112879527l-.716918412350424-.575632099342329c-.676800898052534-.554698329240637-1.34487828287638-1.116370145785368-2.004232154475176-1.690258873303719l-.219784623865053-.183153853222393c-.713431668697012-.626216498698341-1.414653080510107-1.269873369759807-2.107150979098151-1.915273612648889l-.593072471709092-.572138701601943c-.512830789020882-.486666903429068-1.018688090733121-.978570576433412-1.514078507390877-1.484427878143833l-.593072471707274-.593072471709092c-.631446614181186-.645400242889082-1.250682971480273-1.299523999005032-1.857709071897261-1.964114640175467l-.09245193957031-.099425426878952c-.64191349923567-.701221411814913-1.269873369761626-1.418139824165337-1.883879611577868-2.143781749744448l-.49364704483196-.58609233030802c-.458759646011458-.551211585583587-.912282522453097-1.112883402129228-1.355345167930864-1.676298590502483l-.497133788483552-.619236357299087c-.535507930955646-.692497898588044-1.0553188613776-1.383252425348473-1.566406278570867-2.084473837163387-14.125583726818149-19.269615233923105-19.201583808115174-45.846227468886354-7.910536357800083-67.671279788776701m29.794869973908135-2.836254695489515c-9.272855013041408,13.344125622884349-8.77049110907501,31.211294706132321-1.535012277499845,45.322924804242575,1.21230882900818,2.365309745436207,2.576377510167731,4.662594719156914,4.100922902611273,6.846493983199252,1.388489194920112,1.993771923511304,2.93047495972678,4.362568412601831,4.774230402916146,5.962118718160127.668077384823846.736108810631777,1.367555424811144,1.454770594809816,2.080987093508156,2.159478750279959l.547718187837745.542488072354899c.692497898588044.671564128479076,1.397206054056369,1.332668025996099,2.124591351461277,1.974581525229951l.087215169996853.075004913116572.020933770108968.020933770108968c.805883608265503.70645152729594,1.63792444803039,1.38499579717427,2.482182198767987,2.054823207918162l.563421842465686.439569247731924c.847744494391009.648893640634924,1.711185989319347,1.287313742122933,2.597304626182449,1.896089868459967l.075004913116572.057564540751628,1.186144943418185.779713068584897.56167181654564.371544476016425c.633189986008801.406431874833288,1.273360113415038.800646838693865,1.925740497705192,1.179164802018931l.272112395045042.16047671128581c.561671816547459.322703448489847,1.130323774492354.640170127406236,1.700725758357294.950656664925191l.605282728589373.313979935262978,1.189631687073415.617492985471472.179660455476551.081985054515826c.818093865145784.401195105259831,1.641417845774413.790179953639381,2.483932224684395,1.156487660082348l.547724841930176.226764765266125c.673314154395484.284322651927141,1.351858424277452.563421842463868,2.03563280963499.825067352456244l.872165008157026.32095342257162c.620986383215495.230251508919537,1.241959458253405.44131261955954,1.869919328779361.65063701246072l.844257750737597.270369023219246c.891355406434741.275605792792703,1.77398064555382.62621649870016,2.701973476723651.781463094503124,47.881866932613775,7.93147012791087,58.935669424427033-28.934948493088996,58.935669424427033-28.934948493088996-9.963609539801837,14.352348492085184-29.261138685233163,21.198842475282618-49.852955060097884,15.854216742593962-.914032548371324-.24071839397584-1.817591557599371-.502363903966398-2.712433707689343-.783206466330739l-.814607121490553-.263395535910604c-.636676729664032-.204087623329542-1.269866715672833-.423872247196414-1.896083214371174-.652380384288335l-.856461353527266-.319210050745824c-.687261129016406-.2651389077364-1.367548770722351-.538994674610876-2.042606296945451-.825067352456244l-.549468213757791-.231994880747152c-.846001122561574-.368051078270582-1.67804196232828-.757035926648314-2.497879199301678-1.161724429653987l-1.252432997400319-.636683383754644-.722155181923881-.371544476014606c-.533764559128031-.289559421500599-1.064042374600831-.589585728055681-1.58559002275797-.896585521917586l-.378524617415678-.214554508385845c-.648893640634924-.378517963323247-1.287313742122933-.767502811702798-1.918760356304119-1.172191314708471l-.579118843001197-.38549810472432-1.241959458253405-.823323980628629c-.882625239115441-.608769472244603-1.742586644482799-1.245452855999247-2.588587767048011-1.892596470714125l-.582605586652789-.460503017840892c-9.012952874876646-7.115119634589973-16.157729792801547-16.841504178162722-19.553937885850246-27.869162746658731-3.560178202080351-11.437570532893005-2.792675390377553-24.275840517587312,3.375280977032162-34.696469658621027m25.898074619173713-.903542373998789c-5.466734955596621,8.044849183496808-6.003986258379882,18.038116006634482-2.210063149632333,26.923736197214566,3.999747449812276,9.431591679544908,12.196349831367115,16.829293921280623,21.76400103548076,20.3388877240086l1.189631687073415.409918618487609.523304328165977.167456852685973c.563415188375075.177923737739548,1.123343633091281.383754732896705,1.705949219747708.491903673002525,26.438806011519773,5.109144108288092,33.609746815036488-13.565655282099215,35.518046940374916-16.316463132259742-6.281328768905951,9.044350202993883-16.838017434507492,11.216042537199428-29.791416500705964,8.071013069086803-1.022174834386533-.247695208328878-2.147275147490291-.617492985471472-3.132812557141733-.968103691378928-1.26463660018635-.45178283165842-2.510096110276208-.964613620679302-3.722404939282569-1.545475835507204-2.299028345547413-1.105906587774371-4.491644468726008-2.445551428124418-6.525533906537021-3.980560378577138-11.591067102777743-8.79491162283739-18.789928471891471-25.570134401110408-11.226502768160572-39.233471738261869" style="fill:#0868ac; stroke-width:0px;"/><path d="m132.113265886477166,183.546409192172177h-7.371535029098595c-.408175246660903,0-.81460046740176.327940218063304-.901815637398613.727385297406727l-2.616495024465621,12.105654571805644-2.616495024463802,12.105654571809282c-.085471798171056.399445079343423-.491903673004344.727385297406727-.900072265572817.727385297406727h-5.217293048393913c-5.161471879468081,0-4.564912664103758-3.570638433044223-3.507850430900362-8.461741289294878l.031400655163452-.14826645440553.115129081505074-.617486331379041.020933770108968-.115129081506893.235481624400563-1.255919741051912.25292865085612-1.344884936966992.268625651391631-1.36930545073119,1.189631687071596-5.812108891928801,1.191375058901031-5.812108891928801c.081985054514007-.401201759352261-.186640596877623-.730872041061957-.594815843536708-.730872041061957h-7.565162421466084c-.408175246660903,0-.812857095575964.327940218063304-.896585521917586.729128669234342l-1.627457562977725,7.716922273615637-1.625714191150109,7.718665645443252-.003486743653411.010460230962053-.150009826233145.718668438268651c-1.873412726523384,8.552449857037573-1.378022309865628,16.710684750214568,8.805378507891874,16.967093490631669l.29653290880924.005230115482846h15.983292798715411c.408175246660903,0,.814600467403579-.327940218063304.900072265572817-.727385297406727l3.446792492401073-16.203084076671075,3.446792492402892-16.204827448498691c.085478452263487-.401201759352261-.179660455476551-.727385297406727-.58957907396325-.729128669234342Zm-78.941400123072526-.085465144078626h-8.093690211022476c-.409918618486699,0-.818090538101387.327940218063304-.908795778799686.725641925579112l-.767504475224996,3.387491233912442-.767504475226815,3.387491233912442c-.088960205346666.399445079343423.170943596340294.725641925579112.580862214826993.725641925579112h8.156488194303165c.409918618486699,0,.816347166275591-.327940218063304.903562336272444-.727385297406727l.741338926112803-3.385747862084827.741338926114622-3.385747862084827c.085471798169237-.399445079343423-.176177038867536-.727385297406727-.586095657356054-.727385297406727Zm-2.347869373072172,10.542728382803034h-8.15823156613078c-.408173583136886,0-.818090538101387.327940218063304-.908795778797867.725641925575474l-1.14602410207408,5.076006735391275-1.144280730246464,5.074250055378798-.319211714268022,1.454770594809816-1.10067148172493,5.180662277747615-1.098928109897315,5.182405649578868c-.085471798171056.399445079339785-.261648837038592,1.044851976319478-.392474919079177,1.432093452873232,0,0-1.524543728921344,4.535255380767921-4.086964283333145,4.482927609587932l-.320956749617835-.006973487306823-2.217043291031587-.040124168390321h-.001744203587805c-.408173583136886-.005230115482846-.818090538103206.313979935261159-.914029221326928.709938270949351l-.846000290803204,3.55669145842694-.844256087215399,3.554948086599325c-.095937851461713.397701707515807.162222578397632.725641925579112.568651957946713.732615412885934,1.4530272229822.017447026453738,4.707947339504244.054071143007604,6.677295422206953.054071143007604,6.399946257590273,0,9.775225571098417-3.546217919280025,11.936451020250388-13.750559161238925l2.531023226294565-11.711426299763843,2.374033258663985-10.984041002364393c.085471798169237-.395958335684554-.179667109567163-.723898553747858-.587842356228066-.723898553747858Zm150.21646902597422-2.745571080587979l-.338400449028995-1.397212708146981-.333170333542512-1.430350081049255-.169200224514498-.722155181923881c-.662840615252207-2.576370856073481-2.607778165325726-4.060805388307926-6.832540354487719-4.060805388307926l-6.576118305889395-.006973487310461-6.056314029556233-.008716859134438h-6.815093328037619c-.408175246659084,0-.812863749662938.327940218059666-.898328893745202.727385297403089l-.301763024290267,1.423376593738794-.355847475479095,1.68152870598351-.099425426877133.472719928813603-3.068281183168438,14.373275608100812-2.913027933274861,13.644146938870108c-.087221824087464.401201759352261-.115129081506893.893098778262356-.066288053982134,1.09194963202026.048841027528397.200594225585519.835527583421936.364564334617171,1.24370283008102.364564334617171h6.147022597302566c.409918618486699,0,.927979522988608-.073261541288957,1.151264198691933-.163970109031652.223284675699688-.090708567742695.552954957409383-.894842150089971.634933357832779-1.294287229433394l1.091949632023898-5.405677017097332,1.093693003847875-5.407420388921309.001743371823977-.008716859138076.146523082577914-.720411810096266,1.325694538685639-6.209810599444609,1.170441288792063-5.484168673865497c.087221824087464-.399445079343423.490153647086117-.725641925579112.898328893745202-.727385297406727l19.342870121123269-.008716859134438c.409918618486699.00348674365523.668084038916277-.322696794399235.575632099345967-.722168490105105Zm24.900313644458947-12.62895889997526l-1.489651339536067.005230115482846h-6.190633509348118c-.409918618486699,0-.934966318480292.277342510526069-1.163467801481602.615742959551426l-13.691244594567252,20.056308443909074c-.230258163010149.338400449025357-.49364039073771.289559421500599-.584348958480405-.108142286015209l-1.008227859769249-4.418382927433413c-.090708567742695-.399445079343423-.500627186233032-.725641925579112-.910545804719732-.725641925579112h-8.800141738320235c-.409918618486699,0-.652380384286516.32095342257162-.540738046434853.713425014604582l3.943932934977056,13.816833907036198c.111642337851663.394214963860577.120359196986101,1.039621860843909.019190398281353,1.437323568356078l-1.7181661307186,6.686017271913443c-.102912170536001.397701707515807.148266454401892.720411810096266.558185072892229.720411810096266h8.698972939611849c.408175246659084,0,.82681072428386-.32444016622685.927979522988608-.720411810096266l1.719909502546216-6.686017271913443c.101168798708386-.399445079339785.385498104726139-.989037461487897.633189986008801-1.316964371366339l22.226247425151087-29.498370335553773c.247691881282663-.327940218063304.113385709679278-.59482249762732-.294789536983444-.591322445790865l-2.335652462097642.013960282798507Zm-69.923210478624242,17.302007196001796v-.006973487306823c-.050584399356012.443055991385336-.460503017842711.769252837621025-.870421636329411.769252837621025h-11.158484650535684c-.387241476553754,0-.582605586656427-.261652164084808-.525047699993593-.58609233030802l.010460230962053-.026163885591814-.006973487306823.00348674365523.005230115479208-.03663742473509.050584399352374-.190133994623466c1.065785746432084-2.832792904675443,3.23573803585532-4.692252002489113,7.315720514267014-4.692252002489113,4.594569947439595-.001743371827615,5.491155469357182,2.241470458884578,5.178932214104861,4.76551354377807Zm-3.274105524236802-12.880137524909514c-14.322691208748438,0-17.717155929971341,8.693742824129004-19.621969311658177,17.469464048688678-1.903070009859221,8.944921449066896-1.740843272655184,17.305493939657026,13.082475122322649,17.305493939657026h1.796657787490403l.446542735040566-.001743371827615h.104655542359978l1.779210761036666-.005230115482846h.031394001071021c3.91428230573365-.015703654626122,7.840768214260606-.045354283869528,9.429844980673806-.057557886662835.406431874831469-.006973487306823.804133582347276-.333170333542512.887868662783148-.732615412885934l.600052613106527-2.932218331556214.116872453334508-.570401983863121.71518169461342-3.499120263582881c.081978400423395-.399445079343423-.18490387914062-.729128669230704-.59482249762732-.729128669230704h-13.324936888126103c-5.301021474733716,0-6.874407894705655-1.407672939112672-6.293545679876843-5.548713356020016h21.300011273986456l-.001743371827615.001743371827615.013960282802145-.001743371827615c.338400449025357-.005230115482846.652380384286516-.238975022148225.776226324927848-.549468213757791l.050584399356012-.184903879136982-.001743371827615.001743371827615c3.162476494566363-11.929467551806738,2.255417433501862-19.963856504338764-11.292777513961482-19.96559987616638Zm-67.69745698254701,12.83479654922121l-.202344251501927.713425014604582v.001743371827615l-1.608273818786984,5.700466554077138-1.608273818786984,5.698723182253161c-.109892311933436.395958335688192-.537251302783261.716925066441036-.94716992126996.716925066441036h-8.512332342737864c-6.457509134819702,0-8.030895554788003-5.051586221627076-6.457509134819702-12.499869535669859,1.571643048142505-7.619240218562481,4.653871205930045-12.355089824915922,11.01021154204318-12.834783241039986,8.686762682731569-.655867127941747,10.42411255764091,5.452774672798114,8.32569174586024,12.503369587506313Zm5.84001614934823,12.393470621482265s4.01370107852199-9.747311659590196,4.924240229147472-15.374529980563238c1.243709484171632-7.533761766302632-2.529279854466949-18.463731625655782-17.101412970418096-18.463731625655782-14.488404689607705,0-20.781947042440152,10.432842724956572-23.182147513738528,21.77621794645529-2.40019714425398,11.425366930099699.74482899681243,21.44304761290914,15.151251958950525,21.361069212485745l11.366052363431663-.041867540217936,10.621226693661811-.038380796562706c.408175246660903-.00348674365523.82681072428386-.327940218063304.931472920736269-.722155181923881l1.85073558458862-7.057555093837436c.102912170532363-.397701707512169-.146523082577914-.722155181920243-.556441701066433-.725641925575474l-1.77398064555382-.010460230962053-1.77398064555382-.010460230965691c-.347123962252226-.001743371827615-.54597481601013-.22850148300131-.504113929884625-.52679107181757l.047097655698963-.165713480859267Zm71.726855061602691-6.525547214718245c0,.270369023219246-.218041252039257.490153647086117-.488410275258502.490153647086117-.268625651391631,0-.488410275254864-.219784623866872-.488410275254864-.490153647086117,0-.268625651391631.218041252039257-.486666903430887.488410275254864-.486666903430887.270369023219246,0,.488410275258502.218041252039257.488410275258502.486666903430887Z" style="fill:#131b28; stroke-width:0px;"/></svg>