<?xml version="1.0" encoding="utf-8"?>
<!-- Generator: Adobe Illustrator 27.8.1, SVG Export Plug-In . SVG Version: 6.00 Build 0)  -->
<svg version="1.1" id="Layer_1" xmlns="http://www.w3.org/2000/svg" xmlns:xlink="http://www.w3.org/1999/xlink" x="0px" y="0px"
	 viewBox="0 0 256 249.6" style="enable-background:new 0 0 256 249.6;" xml:space="preserve">
<style type="text/css">
	.st0{fill:#FFFFFF;}
	.st1{fill:url(#SVGID_1_);}
	.st2{fill:#FCFCFC;fill-opacity:0.941;}
	.st3{fill:#232629;}
	.st4{fill:url(#SVGID_00000010276725119172261650000010565261362575964334_);}
	.st5{fill:url(#SVGID_00000056412634082816725450000014130467501037794739_);}
	.st6{fill:url(#SVGID_00000082354123230990171430000008814882160392088469_);}
	.st7{opacity:0.2;fill:url(#SVGID_00000131344237374168029690000007655375850932828814_);enable-background:new    ;}
	.st8{fill:url(#SVGID_00000133502024508130467770000009654439245797234862_);}
	.st9{fill:#EFF0F1;fill-opacity:0.125;}
</style>
<g id="Layer_2_00000116228940563582276040000004111082736954537919_">
	<g id="Surfaces">
		<g id="Photo_Surface">
			<g id="Outline_no_shadow">
				<path class="st0" d="M45.3,0h165.3C235.7,0,256,20.3,256,45.3v158.9c0,25.1-20.3,45.3-45.3,45.3H45.3
					C20.3,249.6,0,229.3,0,204.3V45.3C0,20.3,20.3,0,45.3,0z"/>
			</g>
		</g>
	</g>
</g>
<g>
	
		<linearGradient id="SVGID_1_" gradientUnits="userSpaceOnUse" x1="133.0919" y1="35.9777" x2="133.0919" y2="235.4412" gradientTransform="matrix(1 0 0 -1 0 248.5368)">
		<stop  offset="0" style="stop-color:#1D1E1E"/>
		<stop  offset="1" style="stop-color:#44484C"/>
	</linearGradient>
	<path class="st1" d="M98.8,80.5c2.9-11.4,0.1-23.5,0.5-35.2c0.9-25.6,15.1-31.4,29.7-32.2c16.7-0.9,36.5,9,37.7,33.2
		c0.6,11.6-1.5,23.5,1.5,34.7c6.9,26.1,36.8,44.9,37.2,71.9c0.4,25.6-11.4,55.9-33.2,69.4c-11.2,7-26.5-1.4-39.7-0.5
		c-14.7,1-31.1,14.1-43.7,6.5c-23-13.7-29.4-48.7-27.7-75.4C62.8,125.8,92.1,106.9,98.8,80.5z"/>
	<ellipse class="st2" cx="139.7" cy="59.2" rx="11.8" ry="15.3"/>
	<ellipse class="st2" cx="111.7" cy="59.8" rx="8.4" ry="12.4"/>
	<ellipse class="st3" cx="138.3" cy="61.7" rx="4.8" ry="8"/>
	<ellipse class="st3" cx="111.8" cy="61.7" rx="3.7" ry="6"/>
	
		<linearGradient id="SVGID_00000066483560946627290540000002085439370628721815_" gradientUnits="userSpaceOnUse" x1="132.4265" y1="36.3995" x2="129.6341" y2="142.5018" gradientTransform="matrix(1 0 0 -1 0 248.5368)">
		<stop  offset="0" style="stop-color:#FCFCFC"/>
		<stop  offset="1" style="stop-color:#EFF0F1"/>
	</linearGradient>
	<path style="fill:url(#SVGID_00000066483560946627290540000002085439370628721815_);" d="M138.2,75c-1.4-0.1-2.9-0.1-4.3,0
		c-9.8,0.6-20.3,4.4-25.6,9.1c-8.5,7.5-3.5,14.7-7.1,25.2c-3.7,10.5-12.9,24.2-15.6,37.3c-1.1,5.3-2.5,10.6-3.5,15.9l26.3,32.1
		c5.2,6.3-8.3,4-20.8-4.1c8.9,12.5,26.5,24.9,43.9,23.7c18.5-1.2,40.4-20.6,47.4-36.5c-6.8-1.1-13.4-11.4-8-19
		c1.9-2.6,6-2.9,9.4-2.3c-2.1-8.1-6.3-15.4-8.4-21.5c-3.6-10.7-7.9-13.6-11.7-23.1c-3.9-9.5,0.2-27-10.7-33.8
		C146.3,76.2,142.4,75.2,138.2,75z"/>
	
		<linearGradient id="SVGID_00000148640952839393119460000010576327677210707876_" gradientUnits="userSpaceOnUse" x1="73.4863" y1="12.043" x2="73.4863" y2="83.855" gradientTransform="matrix(1 0 0 -1 0 248.5368)">
		<stop  offset="0" style="stop-color:#F39C1F"/>
		<stop  offset="1" style="stop-color:#FDBC4B"/>
	</linearGradient>
	<path style="fill:url(#SVGID_00000148640952839393119460000010576327677210707876_);" d="M56.5,175.6c3.9-3.1,5.7-9.4,10.6-10.6
		c3.8-0.9,8.1,1.3,11.1,3.8c6.9,5.6,7.9,16.1,13.3,23.1c3.6,4.7,9.7,7.4,12.6,12.6c3,5.4,6.8,12.6,4,18.1
		c-3.8,7.4-14.6,9.7-22.9,10.1c-5.1,0.2-9.5-3.7-14.3-5c-7.1-2-15.3-0.8-21.6-4.5c-5-3-10.9-7.5-11.3-13.3c-0.2-2.3,3.2-3.6,3.8-5.8
		c1.5-5.9-4.2-12.7-1.5-18.1C43.1,180.1,51.5,179.6,56.5,175.6z"/>
	
		<linearGradient id="SVGID_00000134249150362938310630000002833560097385313664_" gradientUnits="userSpaceOnUse" x1="186.2725" y1="15.8305" x2="185.2114" y2="70.8803" gradientTransform="matrix(1 0 0 -1 0 248.5368)">
		<stop  offset="0" style="stop-color:#F39C1F"/>
		<stop  offset="1" style="stop-color:#FDBC4B"/>
	</linearGradient>
	<path style="fill:url(#SVGID_00000134249150362938310630000002833560097385313664_);" d="M169,166.8c-1.6,1.4-3,3.2-3.9,5
		c-4.3,7.8-1.4,17.9-3.8,26.4c-1.6,5.7-6.3,10.5-7,16.3c-0.8,6.1-1.7,14.2,3,18.3c6.3,5.5,17.1,3.6,25,0.9c4.8-1.7,7.4-6.9,11.4-10
		c5.9-4.5,13.9-6.4,18.4-12.2c3.6-4.6,7.4-11,5.6-16.6c-0.7-2.2-4.3-2.1-5.6-4c-3.6-4.9-0.8-13.3-5.3-17.4c-3.4-3-8.3-2.6-13-2.8
		c-2.3,4.9-9.8,8.3-14.9,6.8C174.4,176.6,170,171.6,169,166.8z"/>
	
		<linearGradient id="SVGID_00000132794479652387655780000011803794193753403057_" gradientUnits="userSpaceOnUse" x1="117.136" y1="180.7625" x2="145.0598" y2="152.8387" gradientTransform="matrix(1 0 0 -1 0 248.5368)">
		<stop  offset="0" style="stop-color:#000000"/>
		<stop  offset="1" style="stop-color:#000000;stop-opacity:0"/>
	</linearGradient>
	<path style="opacity:0.2;fill:url(#SVGID_00000132794479652387655780000011803794193753403057_);enable-background:new    ;" d="
		M149.6,72.2l26.6,26.6l-37.2,19l-35.9-35.9"/>
	
		<linearGradient id="SVGID_00000013191195670876105750000009938449598986225848_" gradientUnits="userSpaceOnUse" x1="127.8477" y1="155.8022" x2="125.7016" y2="186.5024" gradientTransform="matrix(1 0 0 -1 0 248.5368)">
		<stop  offset="0" style="stop-color:#F39C1F"/>
		<stop  offset="1" style="stop-color:#FDBC4B"/>
	</linearGradient>
	<path style="fill:url(#SVGID_00000013191195670876105750000009938449598986225848_);" d="M123.5,62.2c5.3-0.3,10.1,3.1,14.8,5.4
		c4.6,2.2,12.4,2.9,13.1,7.9c0.7,5.7-7.3,9.1-12.1,12.4c-4.2,3-8.9,6.5-14.1,6.4c-5.2-0.1-9.8-3.8-14.1-6.8c-3.5-2.5-9-4.8-9.2-9.1
		c-0.2-4.6,5.5-7.5,9.2-10.3C114.9,65.5,119,62.4,123.5,62.2z"/>
	<path class="st9" d="M70,164.9c-1-0.1-2-0.1-2.9,0.1c-4.9,1.1-6.7,7.5-10.6,10.6c-5,4-13.5,4.5-16.3,10.3c-1.2,2.4-0.7,5.1,0.1,7.9
		c2.9-5.6,11.3-6.2,16.3-10.2c3.9-3.1,5.7-9.4,10.6-10.6c3.8-0.9,8.1,1.3,11.1,3.8c6.9,5.6,7.9,16.1,13.3,23.1
		c3.6,4.7,9.7,7.4,12.6,12.6c1.6,2.8,3.3,6.2,4.3,9.5c2.2-5.4-1.4-12.2-4.3-17.4c-2.9-5.2-9-7.9-12.6-12.6
		c-5.4-7.1-6.5-17.5-13.3-23.1C75.9,166.9,72.9,165.2,70,164.9z M41.1,205.1c-1.1,1.6-3.3,2.8-3.2,4.7c0.1,1.8,0.8,3.4,1.8,4.9
		c0.8-0.8,1.7-1.6,2-2.7C42.3,209.8,41.7,207.4,41.1,205.1z M169,166.8c-1.6,1.4-3,3.2-3.9,5c-4.3,7.8-1.4,17.9-3.8,26.4
		c-1.6,5.7-6.3,10.4-7,16.3c-0.4,3.4-0.8,7.4-0.3,11c0.1-1,0.2-2.1,0.3-3c0.7-5.9,5.4-10.6,7-16.3c2.4-8.6-0.5-18.7,3.8-26.4
		c1-1.8,2.3-3.6,3.9-5c1,4.8,5.3,9.7,9.7,10.9c5.1,1.4,12.6-1.9,14.9-6.8c4.8,0.1,9.7-0.2,13,2.8c4.5,4,1.8,12.4,5.3,17.4
		c1.2,1.7,4,1.9,5.2,3.4c0.8-2.5,1.2-5,0.5-7.4c-0.7-2.2-4.3-2.1-5.6-4c-3.6-4.9-0.8-13.3-5.3-17.4c-3.4-3-8.3-2.6-13-2.8
		c-2.3,4.9-9.8,8.3-14.9,6.8C174.4,176.6,170,171.6,169,166.8z"/>
</g>
</svg>
