<?xml version="1.0" encoding="UTF-8"?><svg id="Layer_1" xmlns="http://www.w3.org/2000/svg" width="255.999984741209119" height="249.599990844726562" viewBox="0 0 255.999984741209119 249.599990844726562"><g id="Layer_2"><g id="Surfaces"><g id="Photo_Surface"><g id="Outline_no_shadow"><path d="m45.333332061767578,0h165.333324432371228c25.066665649414062,0,45.333328247070312,20.266666412353516,45.333328247070312,45.333332061767578v158.933330535888672c0,25.066665649414062-20.26666259765625,45.333328247070312-45.333328247070312,45.333328247070312H45.333332061767578c-25.066667556762695,0-45.333332061767578-20.26666259765625-45.333332061767578-45.333328247070312V45.333332061767578C0,20.266666412353516,20.266666412353516,0,45.333332061767578,0Z" style="fill:#00005b; stroke-width:0px;"/></g></g></g></g><path d="m37.218551983167345,69.225454281184284c.106665039063046-.639998372394984.639998372395894-1.066666666665697,1.280000813801962-1.066666666665697h29.973331705729834c.85333251953125-.106665039063955,1.599999999999454.426668294270712,1.813330078124636,1.173331705727833.74666341145803,2.986665852864462,1.7066650390625,6.506665039063591,2.773331705729106,10.773331705730016,1.066666666666606,4.160001627604288,2.239998372396258,8.74666341145894,3.520003255208394,13.866666666666788,1.279996744791788,5.013330078125364,2.560001627603924,10.239998372395348,3.839998372395712,15.466666666667152s2.560001627603924,10.346663411457484,3.839998372395712,15.360001627603197c1.279996744791788,5.013330078123545,2.346663411458394,9.599999999998545,3.199999999999818,13.760001627604652.853336588542334,4.160001627602469,1.600000000000364,7.680004882811772,2.133333333334122,10.346671549479652h.213330078124272c.426668294270712-2.453336588543607,1.173331705729652-5.653336588542516,2.239998372396258-9.600000000002183,1.066666666666606-4.053336588540333,2.346663411458394-8.533333333332848,3.733333333333576-13.439998372396076,1.386669921874272-5.013330078123545,2.879996744791242-10.133333333331393,4.37333170572856-15.360001627603197s2.879996744791242-10.453336588541788,4.37333170572947-15.679996744791424c1.386669921875182-5.120003255207848,2.773331705729106-9.920003255207121,3.946663411458758-14.2933349609375,1.279996744791788-4.37333170572856,2.239998372395348-8.106665039062136,2.986669921876455-11.093334960936772.106665039060317-.746667480469114.746663411457121-1.280000813801962,1.493334960936409-1.173331705729652h29.226660156249636c.74666341145894-.106665039062136,1.386669921874272.426668294270712,1.493326822917879,1.066666666667516v.106665039062136l3.946663411457848,109.759993489582484c.106673177084303.426660156250364,0,.853336588541424-.213330078124272,1.066666666667516-.320003255208576.320003255208576-.640006510417152.426660156248545-1.066666666667516.426660156248545h-21.226668294269984c-.320003255208576,0-.533333333334667-.106673177082484-.853336588541424-.213330078124272-.213330078126091-.213330078124272-.320003255208576-.640006510417152-.320003255208576-.959993489583212,0-5.866666666666788,0-11.946663411459667-.106665039063955-18.346663411457484-.106665039062136-6.400000000001455-.106665039062136-12.800000000001091-.213330078124272-19.306673177085031-.106665039063955-6.506665039061772-.106665039063955-12.693334960937136,0-18.66666666666606.106665039062136-5.973331705728924.213330078124272-11.413330078125.213330078124272-16.533333333332848,0-5.013330078125364,0-9.386669921874272.106665039063955-13.120003255207848.106665039060317-3.733333333333576.106665039060317-6.506665039063591.106665039060317-8.320003255208576h-.213330078124272c-.639998372394984,2.879996744792152-1.493334960938228,6.613330078125728-2.560001627603924,11.200000000000728s-2.346663411459303,9.813330078124636-3.839998372395712,15.679996744789605c-1.493334960936409,5.760001627604652-3.093334960938591,11.733333333333576-4.693334960937136,17.92000325520894-1.7066650390625,6.186669921875364-3.306665039062864,12.266666666666424-4.906665039063228,18.346663411457484-1.599999999998545,6.079996744792879-3.093334960937682,11.733333333333576-4.586669921875909,16.959993489585031s-2.66666666666606,9.920003255207121-3.62666829427053,13.866666666664969c-.213330078125182.853336588541424-.96000162760447,1.386669921876091-1.813330078124636,1.386669921876091h-18.666634114583758c-.96000162760356.106673177082484-1.813330078124636-.426660156250364-1.92000325520803-1.386669921876091-.96000162760447-4.053336588540333-2.133333333333212-8.640006510415333-3.306665039062864-13.866666666664969-1.279996744791788-5.226660156251455-2.560001627603924-10.773339843750364-3.839998372395712-16.533333333332848-1.280000813801962-5.759993489584303-2.66666666666697-11.626668294273259-4.160001627604288-17.600000000002183s-2.880000813801416-11.839998372393893-4.160001627604288-17.386669921874272c-1.280000813801962-5.653336588540697-2.453332519530704-10.879996744790333-3.51999918619731-15.786669921873909-1.066666666666606-4.906665039063228-2.026668294271076-9.279996744791788-2.880000813802326-13.013330078125364h-.319999186197492v13.546663411458212c0,5.226668294271803-.106665039063046,11.093334960936772-.213334147136266,17.386669921874272-.213334147135356,6.399999999999636-.319999186197492,13.013330078125364-.533333333332848,19.946663411459667s-.319999186198402,14.07999674479106-.533333333333758,21.440006510416424c-.213334147135356,7.359993489582848-.533333333332848,14.720003255206393-.85333251953125,21.866666666664969,0,.959993489585031-.426668294270712,1.386669921876091-1.280000813801962,1.386669921876091h-18.879994710286155c-.319999186198402,0-.746667480469114-.106673177082484-1.066666666666606-.213330078126091-.319999186198402-.213330078124272-.319999186198402-.640006510415333-.213334147135356-1.279996744789969l5.759999593098655-109.86665852864644Zm173.759997558594478,74.026668294271076h-33.813330078124636c.426660156250364,3.199999999998909,1.493326822917879,6.293326822915333,3.306673177083212,9.066666666667516,1.92000325520894,2.879996744790333,4.586669921875,5.120003255207848,7.786669921873909,6.399999999997817,3.520003255209303,1.600000000002183,8,2.453336588543607,13.653336588542516,2.453336588543607,3.733333333333576,0,7.466666666667152-.320003255208576,11.093326822918243-.959993489585031,3.413330078125-.640006510417152,6.82666015625-1.599999999998545,10.026660156248909-2.986669921874636.533333333332848-.426660156250364.853336588541424-.213330078124272.853336588541424.853336588543243v16.320003255206757c0,.426660156250364-.106673177082484.853336588543243-.213330078126091,1.279996744791788-.213330078124272.320003255208576-.426660156248545.533333333332848-.746663411457121.74666341145894-3.520003255209303,1.706673177082848-7.253336588542879,2.879996744790333-11.200000000000728,3.733333333331757-5.013330078123545.959993489585031-10.026660156248909,1.386669921876091-15.146663411458576,1.279996744793607-8.106673177082484,0-14.933333333332484-1.279996744793607-20.479996744790697-3.733333333333576-5.226660156249636-2.240006510417516-9.813330078124636-5.759993489584303-13.440006510416424-10.133333333335031-3.413330078125-4.159993489582121-5.866666666666788-8.853336588541424-7.359993489582848-13.973339843749272-1.493326822917879-5.013330078123545-2.240006510417516-10.240006510415697-2.240006510417516-15.573331705727469,0-5.760001627604652.853336588541424-11.413330078125,2.66666666666606-16.960001627605379,1.706673177082848-5.333333333332121,4.373339843750728-10.239998372395348,8-14.613330078123909,3.520003255209303-4.266666666666424,7.893326822917516-7.679996744791424,12.906673177083576-10.133333333333212,5.546663411460031-2.560001627605743,11.733333333333576-3.839998372395712,17.813330078126455-3.733333333333576,5.653336588540697-.106665039062136,11.306673177081393.96000162760356,16.533333333332848,3.306665039062864,4.373339843750728,2.026668294269257,8.320003255208576,5.013330078123545,11.200000000000728,8.853336588541424,2.773339843748545,3.626668294269621,5.013330078123545,7.679996744789605,6.399999999997817,12.160001627604288,1.386669921876091,4.266666666666424,2.026660156250728,8.639998372394984,2.026660156250728,13.013330078123545,0,2.560001627603924-.106673177084303,4.799999999999272-.213330078124272,6.826668294270348-.213330078124272,2.026668294271076-.320003255208576,3.520003255209303-.426660156250364,4.480004882812864-.106673177082484.74666341145894-.74666341145894,1.386669921876091-1.49332682291606,1.386669921876091-.640006510417152,0-1.813330078126455.106673177082484-3.520003255209303.213330078124272-1.706673177082848.213330078124272-3.733333333333576.320003255208576-6.186669921873545.320003255208576-2.453352864584303-.000016276040697-5.120019531252183.106656901041788-7.786686197918243.106656901041788Zm-33.813330078124636-16.746671549479288h22.399999999999636c2.773339843750364,0,4.800000000001091,0,6.07999674479106-.106665039063955.853336588541424,0,1.706673177084667-.106665039060317,2.453336588543607-.213330078124272v-1.066666666665697c0-1.386669921874272-.213330078126091-2.666666666667879-.640006510417152-3.946663411457848-1.92000325520894-5.973331705728924-7.573339843751455-10.026668294271076-13.866666666666788-9.813330078124636-5.866666666666788-.320003255208576-11.413330078125,2.773331705728197-14.186669921875364,8.106665039062136-1.173323567709303,2.239990234375-1.919986979166424,4.586661783852833-2.239990234375,7.039990234374272Z" style="fill:#99f; stroke-width:0px;"/></svg>