<?xml version="1.0" encoding="UTF-8"?><svg id="Layer_1" xmlns="http://www.w3.org/2000/svg" width="255.999984741210028" height="249.599990844728381" xmlns:xlink="http://www.w3.org/1999/xlink" viewBox="0 0 255.999984741210028 249.599990844728381"><defs><linearGradient id="linear-gradient" x1="-1011.185181541330167" y1="401.437915189306295" x2="-844.57497419901938" y2="499.885302951573124" gradientTransform="translate(501.968339797991916 314.060777850084037) scale(.381305861164091 -.381305861164091)" gradientUnits="userSpaceOnUse"><stop offset="0" stop-color="#909ca9"/><stop offset="1" stop-color="#ededee"/></linearGradient><linearGradient id="linear-gradient-2" x1="-1010.620662612444903" y1="743.340814027320448" x2="-876.561628526950699" y2="743.340814027320448" gradientTransform="translate(501.968339797991916 314.060777850084037) scale(.381305861164091 -.381305861164091)" gradientUnits="userSpaceOnUse"><stop offset="0" stop-color="#939fab"/><stop offset="1" stop-color="#dcdee1"/></linearGradient><radialGradient id="radial-gradient" cx="-456.300719472250421" cy="510.671098951050226" fx="-456.300719472250421" fy="510.671098951050226" r="177.988813565788433" gradientTransform="translate(54.164989248840982 -324.962809606668657) rotate(-171.400967175636737) scale(.370529754080482 -.740023350309247)" gradientUnits="userSpaceOnUse"><stop offset="0" stop-color="#ee352c"/><stop offset="1" stop-color="#a91d22"/></radialGradient></defs><g id="Layer_2"><g id="Surfaces"><g id="Photo_Surface"><g id="Outline_no_shadow"><path d="m45.333332061767578,0h165.333324432372137c25.066665649414062,0,45.333328247070312,20.266666412353516,45.333328247070312,45.333332061767578v158.933330535890491c0,25.066665649414062-20.26666259765625,45.333328247070312-45.333328247070312,45.333328247070312H45.333332061767578c-25.066667556762695,0-45.333332061767578-20.26666259765625-45.333332061767578-45.333328247070312V45.333332061767578C0,20.266666412353516,20.266666412353516,0,45.333332061767578,0Z" style="fill:#fff; stroke-width:0px;"/></g></g></g></g><g id="g3545"><g id="layer1-5"><path id="path2830" d="m31.78500668014658,176.556919039587228c-5.808505355811576-.081537791076698-9.579506432346534,1.820198928347963-11.341864752563197,5.701028302464692-2.597545463664574,5.719972613136633-.281141631854553,10.042785519246536,7.979719856238262,14.867387533868168,4.640331645168772,2.71010288402249,6.698493284492542,5.044695269436488,6.698493284492542,7.601371069955349,0,5.275755399121408-6.384476219878707,7.148991679525352-12.967044766383879,3.809284371025569-1.337673227937557-.678669853245083-2.484459013363448-1.237132345078862-2.553854307438087-1.238232391486235-.233793451115162,1.494190518140385-.12898254078118,5.081912106717937-.12898254078118,5.081912106717937,0,0,2.013630753011967.84004078333237,5.047516762512714,1.444604456733941,7.530447467122031,1.500597658679908,14.368369534628982-2.031936868825142,15.013567746756053-7.75615011888658.600213871571214-5.325064349606691-1.355047243358058-8.152888993990928-8.702022084603414-12.571498307992442-4.918987675977405-2.95836908311685-7.087691383454512-5.107456695852306-6.810278153167928-7.652964086260909.76344900244294-7.005263478484267,9.412542899903201-6.02000817186854,14.179480649713696-3.379342568427091l.017197672104885-4.712162156487466s-2.65258977062058-1.142184064567118-6.431929366880468-1.195238211224932Zm28.943682150963468.025779713560041c-.348907849571333.003107001302851-.70846347659608.014913606271875-1.06625567044739.034395344202494-7.1366392500031.388585096006864-11.95338978835025,3.535616336914245-14.789998009403462,9.673690558480303-2.406683213056567,5.553798426972207-2.139321551867397,12.8196637394758.042994180258574,18.384311479127064,2.519668895753057,5.456843191572261,6.617341769252562,8.338956385832716,13.422783077142412,9.44152198507436,1.432436767825493.232067805794941,2.413191121197997,1.039972118844162,5.193696975395142,4.299418025995692l3.430935584739927,4.024255272324808h6.242754973738556l-4.153237813108717-4.179034321266954c-2.283998647900262-2.29590602047756-4.153237813105989-4.304322049672919-4.153237813105989-4.462779116372985,0-.158457066696428.874646060062332-.548293360527168,1.943336947748321-.868482441248489,3.509702266544082-1.051535202088417,6.397466844265182-3.752728549923631,8.444057003044691-7.893731495718384,1.637213345914461-3.312684794422239,1.889938511755645-4.334199646036723,2.106714832735634-8.478452347251732.646130312517016-12.352773813225213-5.848392534764571-20.071379600089131-16.6645442687377-19.975096148751618v-.000016794594558Zm63.835777086899725.042994180254027c-5.80849695850975-.081537791076698-9.588105268395338,1.820190531045228-11.350463588611092,5.701028302464692-2.597537066367295,5.719964215841173-.272542795804839,10.042785519250174,7.988318692286157,14.867387533871806,4.640331645169681,2.71010288402249,6.689894448441919,5.036096433381317,6.689894448441919,7.59277223389654,0,5.275755399128684-6.375868986527166,7.157590515580523-12.958445930334165,3.81788320708074-1.337673227935738-.678669853241445-2.493057849412253-1.237132345075224-2.56245314348871-1.238232391486235-.23379764976562,1.494190518140385-.120383704727828,5.081912106721575-.120383704727828,5.081912106721575,0,0,2.005023519657698.831441947280837,5.038917926459362,1.43600562067877,7.530447467122031,1.500597658683546,14.368369534629892-2.031936868825142,15.013567746756053-7.756150118882942.600205474270297-5.325064349613967-1.355055640660794-8.152888993998204-8.702022084602504-12.57149830799608-4.918987675977405-2.95836908311685-7.087691383453603-5.098857859800773-6.810278153168838-7.644365250209376.763449002444759-7.005263478487905,9.412534502603194-6.020008171864902,14.179480649714606-3.379342568427091l.017197672104885-4.712162156483828s-2.643990934569047-1.142184064574394-6.423330530829844-1.19523821122857Zm-41.496009421158305.386947622340813v36.338681155666563h19.17541279321631v-4.299418025992054h-14.635218960468592v-32.039263129674509h-4.540193832747718Zm-22.675122271768487,3.430935584739927c7.586037598630355,0,11.906398492895278,4.639936972023861,12.451114603265523,13.371190060828667.452009909186017,7.245157568653667-1.979294189908614,12.719626694673934-6.646900268178797,14.979172402549011-3.020425136267477,1.462163212767337-7.433945685962499,1.764533221132297-10.31860326237711.705104556262086-2.960560778634317-1.087299306331261-5.838340965667157-4.16977209844481-7.154231595247438-7.661562922316079-1.438079753986131-3.816027403594489-1.230951931662275-10.86752642045758.412744130495412-14.03330043682945,2.630420896423857-5.066200756860781,6.137133723871557-7.360603660494235,11.25587639204241-7.360603660494235Zm153.540816544149493,6.354539842413942c-.886318308217596.014031889691978-1.818855360215821.121181448306743-2.777424044792497.326755769972806-6.04830707567271,1.586980692340148-9.464362643337154,7.372981281921966-9.235149919823016,13.336794716622535.003761990767089,5.003968360397266.974002923505395,7.476948263520171,3.379342568425272,10.086434688968438,4.924798608151832,4.060699557940097,9.401332503293816,4.366260540617077,15.443509549357259,2.209900865356758,1.042306568473577-.447357804521744,2.149709012996027-.945871965712286,2.149709012996027-.945871965712286l-.008582041453337-4.050051780486683-2.141110176944494,1.126447522812668c-4.875791960494098,2.114196827773412-8.554649455003528,2.118806945931283-11.496643801496248-.386947622337175-1.886571194123462-1.924300266764476-2.693316679651616-4.181108454569767-3.095580978710132-6.810278153174295h18.246730102302536v-3.482528601049125c0-7.057671032976941-4.26055531774-11.508828285004711-10.464783475263175-11.410655440973642h-.000016794598196Zm-66.640979402843186.060208646966203c-.886318308216687.01403188968834-1.81025652416065.121181448303105-2.768825208737326.326755769972806-6.048307075671801,1.586980692340148-9.472961479388687,7.364382445866795-9.243748755877277,13.328195880571002.003761990770727,5.003968360397266.982601759556928,7.485547099571704,3.387941404479534,10.095033525019971,4.924798608151832,4.060699557940097,9.392733667238645,4.366260540613439,15.434910713301178,2.209900865360396,1.042306568474487-.447357804525382,2.149709012996027-.954470801771095,2.149709012996027-.954470801771095v-4.041452944427874l-2.149709012996027,1.126447522805393c-4.875791960495917,2.114196827780688-8.55464945499989,2.118806945934921-11.496643801497157-.386947622333537-1.886571194121643-1.924300266760838-2.693316679652526-4.189707290624938-3.095580978711951-6.81887698922219h18.255328938354069v-3.473929764997592c0-7.057671032980579-4.269154153791533-11.508828285008349-10.47338231131107-11.41065544097728Zm93.237179311615364.18917439314464c-2.627952089984319,0-4.632958815036545,1.054373489761929-5.967625809280435,3.138575158965978l-1.057656834389491,1.659575358036818-.008531657647836-2.141110176944494-.008531657642379-2.149709012996027h-4.540185435444073v25.744915139628574h4.540185435444073v-8.22048726569119c0-7.521554725546594.096031532310008-8.412961798065226,1.135046358862382-10.473382311312889,1.428985477183232-2.833761536068778,3.932422390425927-4.232432757253264,6.337342170305419-3.542720453417132l1.607982341720344.464337146808248v-4.479993583077885h-2.038058501131673.000033589203667Zm-66.640979402840458.060191852360731c-2.627935295382485,0-4.624359978986831,1.054373489765567-5.958993384025234,3.138575158969616l-1.066255670443752,1.65957535803318-.008582041451518-2.149709012996027-.00858204144879-2.141110176937218h-4.540185435446801v25.736316303577041h4.540185435446801v-8.220487265698466c0-7.521554725539318.096031532312736-8.412961798065226,1.135046358860563-10.473382311309251,1.42898547718687-2.833761536072416,3.932455979629594-4.232432757256902,6.337342170307238-3.542720453417132l1.616581177775515.46433714680461v-4.471394747026352h-2.046556569574022Zm3.534121617365599.460684320943983c3.039386241536704,8.569781391099241,6.321588833940041,17.314806053269422,9.647894050320247,25.774364473647438,1.440422600913735.015190717200312,2.884724754812851.009959198785509,4.325214534143015.008582041449699l5.081912106717937-12.74345823443582,5.167900467238724-13.031410077259352h-4.479993583081523s-1.977026918682895,5.166674461317598-4.041452944427874,10.95909058873076l-3.749092518664838,9.771729045693064-3.602912305777863-9.840519734105328-3.663104158142232-10.898378103720461h-4.686365648325591Zm36.244093959086968,3.125030312730814c1.355861781539716.005113956205605,2.694022052926812.437062713703199,3.826482043132273,1.307023079902137,2.29592281508485,1.763752272152487,2.682836848221996,6.105173596904933,2.682836848221996,6.105173596904933h-13.629155142392847s.687403046111285-4.413319014474837,3.181569339234557-6.156766613217769c1.201586570650761-.839923221123172,2.582405130267944-1.260544019794906,3.938266911804021-1.255430063589301Zm-66.640979402840458.060191852364369c1.355861781541535.005113956205605,2.694022052927721.437062713706837,3.826482043132273,1.307023079898499,2.295922815082122,1.763752272159763,2.682836848218358,6.096574760857038,2.682836848218358,6.096574760857038h-13.620556306337676s.687403046110376-4.404720178426942,3.181569339232738-6.148167777166236c1.201586570654399-.839923221123172,2.573806294216411-1.260544019798544,3.929668075754307-1.255430063589301Z" style="stroke-width:0px;"/></g><g id="g3073"><path id="path28" d="m33.889419048892705,173.112063150656468h-1.503204204384929v-8.625217960699956c0-.680099815959693.040797171810482-1.511973689914157.122558326302169-2.48979515659812h-.03514943249138c-.142980742332838.572101695259335-.271425109193842.986579037155025-.385285440336702,1.243443940755242l-4.378284801327936,9.871557261481939h-.735564428927319l-4.389937731826649-9.798601337708533c-.125560921889701-.274368129474169-.253933798380785-.71511818277213-.385285440336702-1.316399864528648h-.034982621625204c.046778532866483.513717892139539.07296783883703,1.348510956242535.07296783883703,2.507310297540243v8.607702819757833h-1.453589886796181v-12.84587840866152h1.990673215243987l3.940453938182145,8.95795797822575c.297709735657008.674261435655353.493283561044336,1.187991242855787.583766540818033,1.541165591475874h.061386398708237c.256817243352998-.703453337209794.461184384392254-1.228836074911669.618749162442327-1.576183958288311l4.022191262547494-8.922927696352417h1.88848964472345" style="fill:#231f1f; stroke-width:0px;"/><path id="path30" d="m38.530430964254265,163.941016206110362v9.171046944546106h-1.468173922515234v-9.171046944546106h1.468173922515234Zm.251026523286782-3.28663874868289c0,.268541664219811-.096369020331622.493283561045246-.283101869815255.680099815966969-.186828169981709.183873234640487-.417408447116941.277287319626339-.685973941464908.277287319626339-.262703283910923,0-.487469010857239-.090566385202692-.677156795684823-.268529749162553-.186828169980799-.178058684447024-.280194594723071-.408638961580436-.280194594723071-.688857386430755,0-.271448939318361.093366424742271-.496190836140158.280194594723071-.677168710746628.189687784827584-.183897064765915.414501172020209-.274368129474169.677156795684823-.274368129474169.268517834099839,0,.499145771483199.090387659274711.685973941464908.274368129474169.186780509731761.180977874606469.283101869815255.405719771428267.283101869815255.677168710746628" style="fill:#231f1f; stroke-width:0px;"/><path id="path32" d="m47.683915107621033,172.691747428445524c-.703417592028018.429073292678368-1.544049036445358.645057619032741-2.516032122822253.645057619032741-1.313516419557345,0-2.373051380485776-.434911672986345-3.181559818126516-1.307642294057587-.788109851736408-.849377099824778-1.182117117356938-1.941035067531629-1.182117117356938-3.277869263154571,0-1.506123394541646.431992482835085-2.720375433735171,1.295977448499798-3.645651477614592.861077690572529-.925264128814888,2.02274856177246-1.389355788305693,3.479245723665372-1.389355788305693.799738952110602,0,1.506111479479841.154740908386884,2.122024857199904.467010849646613v1.5032042043822c-.680111731026045-.475780335174932-1.409790119397258-.715118182775768-2.186223210506796-.715118182775768-.931090594067427,0-1.689984714119419.323994362126541-2.282544570593018.974902276531793-.615865717471024.668411140282842-.922368768785418,1.558656902288931-.922368768785418,2.670749201086437,0,1.06828061633496.28019459472398,1.911831250909017.846445994607166,2.533559178817086.563344124790092.621716012847173,1.31933096974808.931114424191037,2.270867809968877.931114424191037.799786612357821,0,1.552866182221806-.262691368850938,2.256283774249823-.78808602161007" style="fill:#231f1f; stroke-width:0px;"/><path id="path34" d="m54.68916125769374,165.426717184622248c-.256888733725646-.198493015548593-.630449753191897-.294814375629358-1.120873699390359-.294814375629358-.595419471318564,0-1.097472517895767.268541664223449-1.503156544138619.805613077609451-.461160554269554.601269766688347-.688881216556183,1.436062830798619-.688881216556183,2.498528896943753v4.676006452049478h-1.471128857857366v-9.173966134705552h1.471128857857366v1.891420749943791h.035125602365042c.213088966323994-.668423055347375.545805153730726-1.185048222574551.995336607621539-1.54991124688604.41740844711785-.332751932590327.884431211820811-.502041131509031,1.403975569210161-.502041131509031.388192715430705,0,.68297134587101.043787852337118.878569001381948.125549006825167" style="fill:#231f1f; stroke-width:0px;"/><path id="path36" d="m62.873664910274783,168.544054819314624c0-1.176302567160747-.265658219253964-2.072398624546622-.796879337265636-2.688264342017646-.513682146950487-.589616836194182-1.231731434943867-.887338486914814-2.159962414164511-.887338486914814-.91359928325619,0-1.643277671625583.30064084087644-2.192037760696621.896084142321342-.58083543560042.639219238721125-.869799515853629,1.544060951509891-.869799515853629,2.71452513836266,0,1.10040362311338.277287319629067,1.958538293405581.831861958889021,2.574427841002034.557481914353048.618808737748623,1.298884723591982.928195234035229,2.229975317661228.928195234035229.969075811279254,0,1.704616410083872-.31231760150331,2.212484006848172-.939871994658461.496190836139249-.610051167284837.744310084333847-1.474024217892293.744310084333847-2.597781362252135m1.506111479479841-.052581167990866c0,1.462347457261785-.41445351177299,2.635718919216743-1.237593645380002,3.520138215968473-.823092473359793.881488191542303-1.935196687219104,1.32515743499971-3.330402770898218,1.32515743499971-1.38062204795915,0-2.472280015665092-.443669243457407-3.280788453305831-1.32515743499971-.78810985173368-.855227395193651-1.182117117356938-1.981891814648407-1.182117117356938-3.377109813387506,0-1.596618289378966.449483793646323-2.828373554446443,1.345591766089456-3.701104175517685.828954683794109-.811439542860171,1.941058897654329-1.217159314288438,3.330402770897308-1.217159314288438,1.368992947583138,0,2.437297394042616.423234912366752,3.202006064283523,1.272623927252425.767615945333091.84645790966897,1.152901385670702,2.013990991305036,1.152901385670702,3.502623075033625" style="fill:#231f1f; stroke-width:0px;"/><path id="path38" d="m71.6623098594564,170.657298275924404c0,.753055739744013-.280194594722161,1.37770285780789-.843538719513163,1.870986418853136-.612958442377931.53999060354181-1.453637547044309.808520352700725-2.516079783066743.808520352700725-.87275445119576,0-1.628741296154658-.186792424792657-2.27377508506288-.557505744473019v-1.576172043227416c.715094352651249.586697646038374,1.509018754573844.87858091644739,2.381773205771424.87858091644739,1.164625806542972,0,1.745461242143392-.42615410252256,1.745461242143392-1.281381497716211,0-.359012728938978-.128396706614694-.653827104564698-.385285440337611-.887326571857557-.256888733722917-.233523297411011-.755986844957988-.510798701980093-1.503204204386748-.840631444414612-.770618540924261-.335683037814306-1.316376034405039-.680099815966969-1.640418056777889-1.039112544898671-.388192715431614-.423234912366752-.580835435599511-.977821466687601-.580835435599511-1.657897452532779,0-.76475633048176.300640840875531-1.398137188891269.904877457972361-1.903097510563384.60128168175379-.504960321668477,1.377667112617928-.755974929896183,2.329203952840544-.755974929896183.72681877352079,0,1.38066970820546.142956912208319,1.961505143807699.429073292678368v1.476931492983567c-.604188956848702-.434911672989983-1.295977448500707-.653815189503803-2.078225089799162-.653815189503803-.490328625704933,0-.881476276478679.119746371703513-1.1733476318268.359012728938978-.294826290687524.239337847600837-.440761968361585.545828983849788-.440761968361585.922356853719975,0,.405719771431905.122534496178559.72387575324683.367794129526374.948629565129522.221858451852313.21014594603912.680111731026045.464103574548062,1.38062204795915.761813310207799.782247641299364.329820827373624,1.345591766089456.665503865184291,1.692939649460641,1.0128398334964.446576518550501.443669243457407.671294585250507,1.004094178089872.671294585250507,1.684170163927774" style="fill:#231f1f; stroke-width:0px;"/><path id="path40" d="m80.637782978618816,168.544054819314624c0-1.176302567160747-.265562898757707-2.072398624546622-.796831677017508-2.688264342017646-.513729807200434-.589616836194182-1.234686370285999-.887338486914814-2.15996241416542-.887338486914814-.913551623008061,0-1.643325331871893.30064084087644-2.194992696036934.896084142321342-.577928160507327.639219238721125-.866939901007754,1.544060951509891-.866939901007754,2.71452513836266,0,1.10040362311338.277334979877196,1.958538293405581.831909619136241,2.574427841002034.557481914353957.618808737748623,1.298884723592892.928195234035229,2.229975317662138.928195234035229.969075811279254,0,1.704616410084782-.31231760150331,2.212484006848172-.939871994658461.496190836139249-.610051167284837.744262424085719-1.474024217892293.744262424085719-2.597781362252135m1.506111479479841-.052581167990866c0,1.462347457261785-.414453511772081,2.635718919216743-1.237545985130964,3.520138215968473-.823140133607012.881488191542303-1.935196687220923,1.32515743499971-3.333357706240349,1.32515743499971-1.377667112617019,0-2.469372740572908-.443669243457407-3.277881178213647-1.32515743499971-.788109851735499-.855227395193651-1.182117117355119-1.981891814648407-1.182117117355119-3.377109813387506,0-1.596618289378966.449483793644504-2.828373554446443,1.345591766088546-3.701104175517685.828907023547799-.811439542860171,1.938103962314017-1.217159314288438,3.330402770898218-1.217159314288438,1.3689452873341,0,2.434342458699575.423234912366752,3.201958404036304,1.272623927252425.767663605579401.84645790966897,1.152949045917012,2.013990991305036,1.152949045917012,3.502623075033625" style="fill:#231f1f; stroke-width:0px;"/><path id="path42" d="m88.617919490159693,160.823690486471605c-.286056805159205-.160543543519452-.612958442377931-.242257037756644-.977797636563082-.242257037756644-1.024552339305046,0-1.538282146503661.647976809184911-1.538282146503661,1.943942342622904v1.415652329833392h2.14828565354037v1.246339300785621h-2.14828565354037v7.924695728699589h-1.471128857856456v-7.924695728699589h-1.558633072164412v-1.246339300785621h1.558633072164412v-1.485700978511886c0-1.009908728279697.315272536842713-1.800937770171004.939907739842965-2.37593482545708.539990603542719-.493283561052522,1.199656088416305-.74140280924621,1.981903729716578-.74140280924621.452391068738507,0,.808508437640739.052581167994504,1.065397171363657.160543543519452" style="fill:#231f1f; stroke-width:0px;"/><path id="path44" d="m94.414787726534996,173.021568255826423c-.347347883373004.19846918541225-.805601162546736.294802460564824-1.380622047960969.294802460564824-1.599525564468422,0-2.399264516581752-.89900333247715-2.399264516581752-2.702860292803962v-5.429074106850749h-1.576219703469178v-1.246351215846516h1.576219703469178v-2.238756718252262c.464067829362648-.148938273261592.9544441153148-.306479221188056,1.468173922515234-.472849229954591v2.711617863264109h2.311712642027487v1.246351215853792h-2.311712642027487v5.178047583554871c0,.6158657174783.104947864871974,1.050777390468284.315224876594584,1.310561484220671.20717909564064.259772178691492.557481914353048.391123820649227,1.047858200306109.391123820649227.361931919090239,0,.680111731027864-.099169059867563.948629565126794-.297721650720632" style="fill:#231f1f; stroke-width:0px;"/></g><g id="layer1-2"><path id="path3639" d="m185.292082335970008,90.788539043256606l-32.379877555983512,10.559437440910187-28.149945656093223,12.433715168333947-7.886290299570646,2.084229864938607c-1.999338836542847,1.900448012363995-4.12117401962405,3.830717456388811-6.380741060336732,5.796930909453295-2.483825102895935,2.161374339670147-4.819689164033662,4.120091368744397-6.595807789924947,5.535765652279224-1.977790350862051,1.576429272005043-4.918551988631407,4.494315243446181-6.42167646323287,6.365359951363644-2.236263913958283,2.783637263002674-3.985013872397758,5.751952365531906-4.736903704920223,8.034792666763678-1.352721868453045,4.107054758911545-.693648815390588,8.26685328180065,1.915241129908281,12.105963149104355,3.332610322048822,4.90409486617682,9.966908217201308,9.886722986826499,17.682692203869919,13.278660710155236,3.935771924001529,1.730195562422523,10.577345979688289,3.960650494447691,15.557513869556715,5.218272683414398,8.299459739519989,2.095817962579531,24.339716434188631,4.372894081230697,33.173609978162858,4.711293411815859,1.791600533398196.068602732653744,4.17664307719042.06215162675835,4.286259611595597-.010244117240291.193876638677466-.12805146550636,1.569112045403017-2.732043348916704,3.164760237068549-5.991524337667215,5.429210406551647-11.090526227490045,9.357179777698548-21.487543637549607,11.470969744797912-30.367341578605192,1.279879997633543-5.376668239630817,2.277688376385413-12.546266059938716,2.924075747827374-21.047166061136522.181041625892249-2.381279398681727.246672668559768-10.32324781943862.107533364791379-13.022617511618591-.226408430815354-4.392575927469807-.613317987141272-7.972797837719554-1.234147331382701-11.486328454102477-.091077071496329-.514968488379964-.124586982705296-.967822682801852-.076823412746307-1.008829017991957.090031753416042-.077278872771785.395861959075773-.175396908232869,4.373304741910033-1.33145151205099l-.793739888744312-1.858911551562414-.000007466553143-.000007466556781Zm-7.399806729017655,4.342579856738666c.294264507692787,0,1.076782160131188,7.504002542496892,1.280238392404499,12.264709633544044.043231369401838,1.011584177811528.034495496825912,1.659188598165201-.025595359989893,1.659188598165201-.193264380935943,0-4.146739513371358-2.321532003526954-6.949162635692119-4.08141459957551-2.447343501702562-1.53690131525218-7.091594691438331-4.623143230966889-7.82997005442121-5.202906507549415-.232971535083379-.182938131565606-.208361760722255-.191875601194624,1.792354655730378-.88080741873091,3.404108212473147-1.172189835127938,11.474882221060398-3.758792105523753,11.732127535406107-3.758792105523753l.000007466562238.000022399670343Zm-16.494641533432514,5.412858645069718c.209212948305321-.000492792811201.778896371922201.31393142082743,2.125206333905226,1.157338851753593,5.050387132281685,3.163826917356346,11.889440440754697,6.970203395450881,14.820079292847367,8.249881796025875.908695011936288.396772879121272,1.012442831954104.243021521822811-1.080515439009105,1.664310656784437-4.461305591612472,3.029540876119427-10.007643889670362,6.008309159504279-16.817256560921123,9.033385034084858-1.186831754885134.527228576222114-2.192218689759102.957615898358199-2.232739698698424.957615898358199-.040543408609665,0,.091935725641633-.602013618705314.291890142329066-1.341695629298556,1.64962393768019-6.102223522946588,2.580494626155087-12.261581145838136,2.606560379279472-17.201336291855114.012917144917083-2.443012898200323.013581668556071-2.455952442795024.245806547864049-2.514393190340343.010886241208937-.002740226698734.027021472516026-.005092192399388.040969002403472-.005114592066093v.000007466553143Zm-3.395193142514472,1.295604568267663c.146172801176363.146829858264027.040326878436645,5.621324937606914-.13825824995638,7.113023712196082-.428453483676094,3.57864646656526-1.128644870297649,6.888407255237325-2.248113341113822,10.651612096406097-.2675043647032.899212483591327-.518253773801007,1.674360643519321-.558177458117825,1.720638368489745-.097244448205856.112730088989338-3.444860684705418-3.149005800205487-4.557676452563101-4.439884037419688-1.901358932399489-2.205606227815224-3.405519391889356-4.396592935539957-4.501318874620665-6.554831320958328-.556930542974442-1.09695679917786-1.445032788623394-3.263348665670492-1.362176397214171-3.323514188066838.376083047579414-.27311174956958,13.273844780405852-5.259338751062387,13.365720773585963-5.16705209720385v.000007466556781Zm-15.992769387344197,6.303902714482319c.030105160868516.003016489332367.053482953199818.01118490351837.066564362388817.025610293099817.048278762445079.053191757451714.218755209116352.450815824155143.378950205757064.885922010789727.779747559506177,2.117904040424037,2.533164116541229,5.264206946714694,4.055804306477512,7.27689225524955,1.662369351766756,2.197393014288537,3.829746803873604,4.538741262094845,5.643306483631022,6.09395057695474.582316839339001.499363382679803,1.12559851473452.96544085088135,1.203437379333081,1.034431844544088.155289468196315.137653458776185.207495640021079.114312999232425-3.784402398627208,1.628471179557891-4.626458382604142,1.754835203008042-9.665025953954682,3.512089570731405-15.449950638533664,5.38213375990199-2.204538510053681.712638138404145-4.070356627539695,1.314801088259628-4.142871836458653,1.341695629298556-.220356785755939.081699074953576-.152776971512139-.053998145691367.491613095728098-1.060042137645723,2.874430605308589-4.487580408356735,7.2288225564198-13.266072093785624,9.663256379768427-19.475037526404776.422263707292586-1.076901625056053.824106379129262-2.155460825933915.896181061140851-2.396615708310492.105875788971389-.354273232380365.210213467044923-.47476854143315.54281874881508-.624756753624752.183983449648622-.082968389775488.344947501738716-.121689958292336.435292850579572-.112670356527815v.0000149331172Zm-4.90077224797642,2.022780094617701c.065123316740937.057283431100586-1.175818582199099,2.678015336996395-2.396615708315039,5.059518732412471-2.367850794558763,4.619156089120224-4.978431915190413,9.164796450579161-8.444482690802033,14.712538461495569-.59803021013613.957227637351025-1.149144304617039,1.832338072508719-1.223903214141501,1.940842089812577-.123097404434702.178689660202508-.173556401745373.119808385739816-.55306286605537-.635000870861404-.829743630236408-1.650303394435468-1.52491749004821-3.732472489440624-1.884514378104541-5.668909310174058-.355878542291975-1.916486178412015-.295343425291321-5.23438551504114.133147391174134-7.292258431116352.318336689897478-1.528882232214528.304292094761877-1.495088591813328,1.02419519385785-1.864026143619412,3.112531665569804-1.595200198202292,13.243870284299192-6.341870160660619,13.345236272386501-6.25270452794939Zm42.212124537422824,1.715531242984071v1.039553903159685c-.005234056983682,5.459995024182717-.588051155691574,12.935124387835458-1.433870284779914,18.389400028778255-.148420235062076.957138038658741-.276942093702019,1.746786253746905-.286775550266611,1.756492778829852-.009758790987689.009661725736805-.699698593811263-.192517725165089-1.531159532334641-.450651559882317-3.674001875651811-1.140576429586872-7.657201374517172-2.844519574937294-11.25077349003277-4.813704717989822-2.379748754343382-1.304064178204499-5.821712414638569-3.416502698348268-5.725222088766714-3.512985557665161.026222550837701-.026237483953082,1.03997203039853-.563441381334997,2.253227933179915-1.19318579553692,4.805304840516328-2.494233484401775,9.395572817679749-5.183314259995313,13.386186608396201-7.850443355790048,1.497276293237519-1.000683003481754,3.737602014613003-2.6204481766963,4.235046491947287-3.057211939156332l.353339912657248-.307263784747192Zm-60.693702954967193,7.235930719407406c.099764411448632-.004793530075403.074430380984268.184528508367293-.081934271529462,1.085652430741902-.108713080918278.626698058642432-.231597688453803,1.810520790750161-.276512766630731,2.627063546877253-.196840862106001,3.578960061986436.383553338613638,6.219433546584696,2.161030878013662,9.832261914560149.494189058155825,1.004476014821194.880773819216301,1.841805667743756.860322917525082,1.858919018119195-.177965404098359.1489727603348-16.363215183818284,4.885204475052888-21.451722826717742,6.278299887933827-1.508365998144654.412960376332194-2.826691301661413.776731070169262-2.934306798590114.809120997711943-.17656915779753.053146958105572-.192301194988431.014709118782775-.12803279911077-.399430973682684.55734307028888-3.59066762454313,3.296362050787138-8.303394615451907,7.123258496239941-12.259595041472494,2.544244488250115-2.630214434248046,4.581408906386059-4.188216241711416,8.045047983842778-6.165644464521392,2.485822407094929-1.419168632559376,6.346525559425572-3.549004232279913,6.631658466985755-3.656373332800285.019155453923304-.007212694792543.036955727611712-.009542260810122.051194453250901-.010244117236653l-.0000037332793-.000029866230761Zm38.176819665266521,6.836484812607523c.015366175862255-.018397598303636.615005429192024.302604652710215,1.33145151205008.716938875673804,5.227859743565205,3.023403365639751,12.523037598757583,5.859202001127414,18.742739941428226,7.282014313865147l.563306983298389.128021599273779-.773259120820512.430163325405374c-3.24903527445349,1.80288996872514-13.948985865758914,6.254884762814982-24.877674453904547,10.354592428890101-1.595364462469661.598489403440908-3.152074555438958,1.185286177431408-3.456642912839925,1.305841218947535-.304568357397329.120569974636965-.553062866052642.20322476898582-.553062866052642.179227252367127,0-.023997516631425.450778491361234-.891566728454563,1.003706959377269-1.925475913953051,3.067971248887261-5.736496590978277,6.130447111264402-12.707498908108391,7.701933522032959-17.544439553836128.160217396315602-.493121340392463.302096926780905-.908485948322777.317500435430702-.926898479747251v.000014933113562Zm-3.891935763420406,1.275123800345682c.016784821834335.016784821829788-.174344123586707.53066319278696-.425048733337462,1.136858083831612-2.132844622490666,5.157465037047587-4.927285994568592,10.783889633590661-8.490543885596708,17.104032111186825-.906798506272025,1.608416005432446-1.671172423360076,2.92158938409375-1.700165067123635,2.9189462226459-.029022509997048-.002643161442393-.766539218836442-.43903359601245-1.638707830240492-.972982074210449-5.190101360998597-3.177408585910598-9.782194911531406-7.088540869315693-12.797306664789176-10.892289119088673l-.430159592121527-.537696690196753,2.237854290759969-.614512636377185c7.982299032468291-2.186730769813948,14.751644557741201-4.52522679255344,21.482462644997213-7.42540208900391.95309116435601-.410660676547195,1.744852415291462-.73370876439003,1.761614837451816-.716938875673804v-.000014933113562Zm24.176079354424473,8.439360632180978c.011476099269203.002449030947901.015366175859526.01042331462304.015366175859526.0204733013652,0,.544058197399863-1.234714789770806,5.578922356104158-2.263464583858877,9.222856403681362-.862947412575522,3.056674347004446-1.587367779118722,5.447510939615313-2.929190339891647,9.683752080807608-.592620689039904,1.870955109217903-1.101391934491403,3.398000568227872-1.1317434917637,3.390086017008798-.030336624162373-.007899618105512-.172462551036006-.03521228637328-.31748550231714-.061449770326362-7.271262470703732-1.315906138799619-13.783952539695747-3.15094710521771-19.884720083881803-5.602337481224822-1.706802836967654-.685833196062958-4.171483685779094-1.777593271050137-4.301610854340652-1.905002612586031-.044082556988542-.043171636938496,1.429793544245513-.737501775724013,3.272308534978947-1.54141111613535,11.142388937658325-4.861505620738171,22.687098406848236-10.397764065832234,26.634137366501818-12.77169637168663.474731208643789-.285521168560081.826189548748516-.451816342887469.906402778713527-.435285384017334v.000014933113562Zm-55.808285683016948,1.910124671207086c.059747395158411.056596507783979-3.057043941609663,4.518238094498884-7.410047112980465,10.610650560554859-1.512970997641787,2.117515779413225-3.290284272774443,4.613347107184381-3.948274674962704,5.546009769515877-.657994135471199.932662662335133-1.653327350326435,2.408890729266204-2.217373522839807,3.282537719107495l-1.029306052642823,1.587494710600367-1.095900281264221-.921776421133472c-1.285879376790035-1.07966425142331-3.536662012303168-3.371972147899214-4.557646586327792-4.644721582877537-2.1010538862065-2.619059396958619-3.524715519897654-5.375324259228364-4.086547858035374-7.906771067491718-.25937514994348-1.168665619863532-.267011571888361-1.764183333312758-.020478901281422-1.838430783636795.356304136083963-.107309368057031,6.892691192751045-1.646092255861731,13.022626844810475-3.067456056396622,3.404992999566275-.789528750172394,7.341582511642628-1.713709402894892,8.751724075877064-2.053512446345849,1.410175163742679-.3397881103283,2.577444537310839-.607075944853932,2.591224069647069-.594039335015623v.000014933119019Zm3.134031618626977,1.198307854159793l.788614096842139.880799952163215c3.525764571260879,3.927633376051745,7.111474401459418,6.858541024221267,11.486335920659258,9.386732413298887.772422866349189.44636575572622,1.361131079128427.834447561619527,1.31097074412628.865448709422708-.182094410535683.112550891604769-15.128403328796594,5.42672404282348-22.04064383639161,7.835077179925065-3.898259937838702,1.358226588163234-7.100461228771564,2.465711233782713-7.118145770815318,2.463187537259728-.017688275323053-.002598362099889-.238496787821532-.147001589086358-.486483570550263-.322615027489519l-.450644093322808-.322615027500433.706676092032467-1.019065668680923c2.293439079971904-3.322110475201043,5.174977848263552-6.975482251775247,11.481225061875193-14.564028627741209l4.322095355544661-5.202906507547596v-.000014933109924Zm19.531354038273093,13.9597601085934c.017300014317698-.02157835190701,1.110060608044478.365846396900452,2.432470118655147.860326650810748,3.187585504124399,1.191886614487885,5.689300479402846,1.969259808622155,9.074354036484692,2.816534916473756,4.157670553934622,1.04064402059339,10.166076778685238,2.081288041186781,13.724190211421046,2.381249532452784.546230965710492.046038795117056.825054631965031.108384552373536.737419643592148.163876009613887-.165182657221521.104606474149477-3.767886372873363,1.307931855117204-6.416565604449715,2.140557576653009-4.20445600482617,1.32167032138932-17.053543247646303,5.117518953049512-27.530325894205816,8.132096847428329-1.943492717815388.559215309651336-3.605208745778327,1.031699084409411-3.692224009859274,1.049798020407252-.23466271041616.04880142148977-1.05492007902285-.166489304832794-1.05492007902285-.276531433031778,0-.052310703633339.587461297633126-.79577079244882,1.300726626888718-1.648944480921273,3.52147130054891-4.212198825218366,7.019770139107095-8.916757401946597,9.93980647918761-13.365720773581415.798660350300452-1.216839850509132,1.467790856662759-2.231649581270176,1.485068471308296-2.253227933182643v-.000014933122657Zm-4.327206214325997.122899540658182c.031508873727034.031523806841506-1.704376205699191,2.811054463083565-4.757369539728643,7.619995517226926-1.28908626334669,2.030485582219626-2.750836674783386,4.341848134083193-3.251820300496547,5.136334678600178-.500968692595052.794486544516985-1.235061984703862,2.001828933553043-1.628467446279501,2.688513317198158l-.716935142389957,1.249513507242227-.363580296618238-.097304180664651c-.877316802972928-.237526135309963-7.065771601438428-2.423704379851188-8.700529622628892-3.072578115023134-2.026098979536982-.804208002711675-4.13759298012701-1.775398103061889-5.694515869994575-2.616819429629686-1.945587087266176-1.051485462458004-4.413142560810229-2.611772036598268-4.219676582811189-2.67314714134227.055700520854771-.017665875651801,3.40368261868116-.933976776503187,7.435646206244201-2.033024211857992,10.725993944762195-2.923709886497818,16.65895806995286-4.603356852905563,20.550430906792826-5.817419143930238.727130727003896-.226848957719994,1.332892557697051-.397982461476204,1.346825154466387-.384079730933081l-.000007466555871.000014933113562Zm30.46462335959859,7.143748597354715c.02309406313725-.005017526809752.033808573516581-.005107125502036.035854410340107,0,.101455586780503.253683766299218-3.869341959651138,11.251729209430778-5.320691456137865,14.738148754600843-.325056591877001.780912342517695-.445335370759494.970114916040984-.614512636379914.962737956977435-.410810007701002-.017934671728653-6.168362291546146-.822934129560963-9.653012262527227-1.351939746535209-6.100162753006771-.926062225276837-16.317975310379552-2.710360465191116-18.896371833804551-3.297903894954288l-.599161393635768-.133143657898472,3.656388265912028-.824472240456089c7.837093150519649-1.765751310456835,11.600902782859521-2.712794563027273,15.419225753369574-3.881699112744172,4.815593757102761-1.474212096329211,9.583991402632819-3.312224752733528,14.400160084686831-5.551131828142388.761424626774897-.353959636951913,1.41044022654205-.625458610047644,1.572128534733565-.660596230847659h-.000007466556781Z" style="fill:url(#linear-gradient); stroke-width:0px;"/><path id="path3667" d="m151.921825626202008,15.327269096133023c-.541512101205626-.063223077795556-9.231637075602521,3.067698719525652-14.814957234228132,5.336050165440611-7.56534031445517,3.073601033429441-13.439322366659326,6.018568209856312-17.063063108786992,8.562256439554403-1.34880379227252.946793122884628-3.044888385585182,2.649620017855341-3.292781836342328,3.303022220306957-.092768246830019.244514833364519-.136290811987237.530297331453767-.138265716514979.824475973740846l3.287659777723093,3.103306733459249,7.799233969421039,2.488790363802764,18.578867665097277,3.318388396166483,21.236652363852954,3.651251274171955.215081662700868-1.823064607773631c-.064249729486619-.010132118874026-.125042442727135-.020600232846846-.189478836157832-.030724885167729l-2.796046681993175-.440399976079789-.568429041913987-.998592367322999c-2.886302432139928-5.092942778204815-6.07590390686164-11.395258849153834-7.927259301975027-15.659917709166621-1.433795619201192-3.302813156682532-2.810628869290667-7.107558191919452-3.574435327988795-9.862983066443121-.453630716427142-1.63647906274673-.500856694229697-1.742440717134741-.752785819451674-1.771855221411897l.00000746655769-.000003733277481Zm-.409675090920246,1.259757624482518c.021600751585538-.003890076590324.032479526234965-.00403567446665.035846943783326,0,.017150683162981.020525567268123.115836177014899.703611070071929.215081662700868,1.515808289583219.417977903142855,3.420545839371698,1.183382205203088,6.73791505040208,2.381249532451875,10.308505101151241.902647100158902,2.690603953375103.915586644750874,2.532574258479144-.158753950994651,2.232739698696605-2.497197707833038-.696928500881768-13.685774771769502-2.617487686553432-21.779471112667125-3.738303871043172-1.304135110503921-.180597365715585-2.389582210907975-.341195556466118-2.406856092274211-.358469437836902-.102762234388138-.102762234389957,5.836992725081473-3.214789907309751,8.470081784063041-4.439876570850174,3.377101673074321-1.571243747644985,12.573280065897052-5.399990032779897,13.242821232936876-5.520403209700817Zm-23.582054952523322,10.95375008924384l.947379247671961.322622494055395c5.196313537050628,1.768805132571288,18.221118750082496,4.256815241087679,25.420478269603336,4.854673720396022.81219721951129.067449149482854,1.495103524932347.139807560688496,1.515808289588676.15875021771717.02069729809682.018935190466436-.669264904400734.387600212921825-1.531166998891422.819357648397272-3.473032007113034,1.739741556504669-7.295543716525572,3.860251425587194-9.939795279350619,5.515281151076124-.776536939672042.486031843805904-1.488704684934419.878037325799596-1.582380118533365.870563301486982-.093675433600765-.007462824474715-.605769297250845-.089740557656114-1.141980142451757-.17923471892027l-.978104132836052-.158746484432413-2.458065478638673-2.386371591070201c-4.31515519011009-4.176486279475284-7.684215380480055-7.407527149738598-8.987297706338722-8.628832001788396l-1.264875949823363-1.188063736917684Zm-.962745423534216.768144528759876l3.441291670095779,4.296492528999806c1.894415033687437,2.363184195961367,3.79301133971785,4.708452386594217,4.214558257471253,5.213146891506767.421539451192984.50469450491255.747656294273838.932401332815061.727175526350038.947379247674689-.097647642323864.071428824765462-4.987582181718608-.880620754780466-7.579030248099116-1.474839287184295-2.660364394464523-.610025235175272-3.760699811033192-.902023642587665-5.407740319727964-1.428751959439978l-1.341695629290371-.430159592120617.005114592062455-.332862878014566c.017053617912097-1.650434059196414,2.097322473967324-4.084804416797851,5.627940307771496-6.575319555438909l.312378376809647-.215081662707234.000007466556781-.000003733275662Zm29.307299440961287,5.853266087709926c.103217694409977.007974283678777.212221971080908.217769623495769.517215922272044.885929477346508.834671558354785,1.828522661495299,3.432809660484963,6.784278640783668,4.060926365096748,7.742902524434612.206853516055162.315708461568647.534799665785613.336838820023331-2.913831630584355-.220203721315556-8.287976173692186-1.338709006193312-10.969209597082227-1.786829402995863-10.969112531831342-1.838430783642252.000059732462432-.03144914126824.248554241118654-.194242500003384.55306286605537-.363587763176838,2.566599362171473-1.427295980671261,5.156225588460075-3.223790842677772,7.461249032789055-5.16705583048315.551136494152161-.464632689279824,1.080731969182125-.907298765643645,1.177819619674665-.988344516797952.039923684316818-.033326980539641.078256991832859-.053863747642026.112662889970125-.051209386365372h.00000746655769Z" style="fill:url(#linear-gradient-2); stroke-width:0px;"/><path id="path2851" d="m116.89795783691352,32.198075809275906s-.537775089050228.852621163199728-.030728618443391,2.120080542008509c.313748490159014.784287226619199,1.255889947566175,1.726395084515389,2.294193202306815,2.724356527704003,0,0,10.875885091696546,10.609041517356673,12.20838565511076,12.146935884786217,6.025926502525181,6.954784953684793,8.643141659720641,13.801670681248652,8.884886400165669,23.254302933290091.155117737367618,6.065898719472898-1.014802264203354,11.398327604398219-3.856096286192951,17.595645206918562-5.092603049830359,11.10784864148809-15.822920131527098,23.357274231302654-32.395239998566467,36.978515544395123l2.432466385376756-.803998939096346c1.563523326923132-1.171323714435857,3.686818222045076-2.42233053322343,8.695400097450147-5.161930038590071,11.534696815241659-6.309271169502608,24.4877148087362-12.1127278504282,40.399307780166964-18.092365428146877,22.892719940874485-8.603161976223419,60.549721588490684-18.69724620503257,81.976442646567193-21.979194066065247l2.232739698692967-.343110728534157-.343103261964643-.537696690196753c-1.959209821890909-3.045280379867108-3.296515115225702-4.923089789101141-4.905886840046151-6.913308225350193-4.69966051483425-5.811811759054763-10.389162591300192-10.553859922267293-17.360075309734384-14.456495262958924-9.57929493780648-5.362907373679263-22.00404277027701-9.530948976333093-37.710790729684959-12.653903956534123-2.969360420614976-.590395654826352-9.472149834018637-1.705130328027735-14.76375904769975-2.529759366205326-11.209065298414316-1.746801186867742-18.438694243074679-2.926390380725934-26.424192695541024-4.316984496756049-2.863051571289361-.496757554023134-7.137842550174355-1.214629749418236-9.975645956414155-1.828175466565881-1.478673364590577-.319695603408036-4.288831840742205-.984189377402799-6.472900782712713-1.736015744181714-1.803121432011721-.709938977777711-4.342236395087639-1.39621643402279-4.885402338836684-3.466887030082944v-.0000111998379Zm6.303917647593153,6.119545936940995c.015242977657181-.013775799057839.423753285569546.112595690947273.921772687850535.281660958205975.917826612076169.311568255292514,2.128980678852713.67631333492136,3.538580917648687,1.070275055040838.987485862655376.275993840876254,2.073246558486062.565569350303122,3.226210007394002.860319184246691,1.471546535213747.376217445624206,2.688315453420728.699452197404753,2.703868293224332.716938875670166.162905357107775.183177061413517,2.634343440687189,8.070759075475507,3.477146080438615,11.09714159766736.321681707773678,1.155106350977803.565860546045769,2.117508312860082.542826215370951,2.140565043211609-.023049263791108.02304926378747-.29721379800867-.402253332516921-.604275985698223-.942257189059092-2.859191360931618-5.028151723283372-7.387139713788201-10.141429671535661-12.623194004491779-14.256772309550797-.652648080113977-.512963717630555-1.18293421173712-.948469365106575-1.18293421173712-.967871215432751Zm12.049627970838628,3.328625046842717c.125953362774453-.008683606663908.668869176842236.082199334330653,1.316100269305934.225325779945706,4.169549847321832.92206761687703,11.614596449782766,2.359417317569751,16.402451944825771,3.164760237064911.79768969779343.134181509421978,1.454351052700076.278681801657513,1.454351052700076.322629960612176,0,.043933225832006-.298012719689723.232419009807927-.66059623084584.414789682979972-.803326948898757.40409010572148-4.053870468017521,2.349792924629583-5.141449270662633,3.077707640199151-2.71501213067404,1.81715109403558-5.156053857631377,3.762196855868751-6.933788993277631,5.530643593667264-.714415179148091.710674433708846-1.312247525500425,1.290482509644789-1.33145151205008,1.290482509644789-.019203986544198,0-.144112031233817-.414155025577202-.27653143302814-.92177642113711-.888774235848359-3.406781240142664-2.726391164693268-8.437419327163298-4.373304741905486-11.977949016381899-.265025467526357-.569728222970298-.481368978489627-1.072190227114334-.481368978489627-1.116369849349212,0-.005577518644714.007533756775956-.009004668652778.025595359988074-.010154518555282l-.000007466560419-.000089598690465Zm21.195690828008992,4.030208946496714c.139535031330524.046509188254277.403253851251065.869517983393962.870563301486072,2.719223269245049.894814681074422,3.541925935522158,1.311426204151758,7.519644980993689,1.172690094499558,11.199560370394465-.038609570154222,1.024075728933894-.103367025568332,1.975068790561636-.143387775136944,2.114954750109973l-.076808479629108.25605066510434-1.264887149659444-.409675090924793c-2.60746383276819-.833461975995306-6.867717423701833-2.087843678897116-10.518468438507625-3.098180941558894-2.074000680820063-.573976694333396-3.774143348270627-1.086399086516394-3.774143348270627-1.136850617274831,0-.151615921784469,3.026307856610401-3.17716218950045,4.327206214325088-4.327228613998159,2.484922686884602-2.196773289993871,9.17021717150692-7.39685743870541,9.407228114336249-7.31785379109715h.000007466556781Zm1.684791424705509.240677022680757c.07546449923484-.070215509131231,10.128714123678037,1.670582565302539,14.697172285636952,2.545125542070309,3.405258062364737.651860358273552,8.331916866081883,1.683641574809371,8.62883946833972,1.807690965362781.143335509232202.059896726312218-.366510920535802.337742273504773-2.002306793250682,1.075400846944831-6.470294954056953,2.917818772422834-11.263698101513,5.521989853214109-16.028631264244723,8.710770006589883-1.255105959002321.839935481568318-2.298109411846781,1.526044940266729-2.319792295569641,1.526044940266729-.021705283394112,0-.040311945319445-.701072440442658-.040969002402562-1.556777291991239-.003277818854258-4.646677821005142-.930967753724872-9.336728876010966-2.632178138936069-13.299156411196236-.183094929277104-.426422579967038-.320479591976436-.792037513572723-.302149192687466-.809113531162438l.000014933114471.000014933115381Zm25.994029370142925,5.141449270662633c.077838864597652.077853797716671-.251906725552544,2.060299547341856-.537696690193116,3.231339532576385-.889528358189636,3.644703103023858-3.24666090908795,9.054298862354699-6.155400347288378,14.138979894407385-.512571723342262.895994397193135-.971018369522426,1.643053366848108-1.02419519385694,1.659196064716525-.053191757448076.016224830000283-.71554262936661-.332134888627479-1.46972469512184-.773259120813236-2.844325444437345-1.663653599704048-6.06491313384322-3.237484509605565-9.601806609438427-4.695934702516752-.986235214232693-.406681001264587-1.826208028592191-.768801585840265-1.869163135359486-.809113531166076-.161300047188888-.151332192581322,7.698312241520398-5.35499282246019,11.865293592974922-7.855565414396551,3.332892184602315-2.000044426256864,8.699174442393996-4.98916135869149,8.792693078283264-4.895642722807679Zm1.858919018117376.291905075449904c.226333765234813,0,4.684794598344524,1.21552573633744,6.990109238424338,1.905002612586031,5.742342905699843,1.717397882426667,12.3664190832842,4.137234585352417,16.663632135101579,6.088821051775085l1.78722513055618.8091135311588-1.259757624486156.291905075440809c-10.514421564199438,2.4154911663245-19.526407443756398,5.202869174761872-28.206280834350764,8.726128715894447-.721247079492969.292756263032061-1.348870991294461.532582098134299-1.392901282377352.532582098134299-.044045224201909,0,.186141284837504-.557602533170211.506971805027206-1.239269390001937,2.609121408589999-5.543642870714393,4.294301094301773-11.360681220194238,4.731774179741478-16.30004810520586.039819152512791-.449591308683011.120988101869443-.814228123221255.179242185477051-.814228123221255l-.000014933113562-.000007466560419Zm-44.316857569966487,10.185594360655159c.071201094751814-.070334974054276,3.464639596196321.724748895087032,5.31556193095912,1.244406381736553,2.782017019972045.781054207112902,8.701922135648601,2.761961845839323,8.705647947969737,2.913824164026664,0,.02954516903992-.652420350104876.598257940151598-1.44924392719895,1.264887149660353-3.200547448388534,2.677649475674116-6.287774949725645,5.477369704080047-9.985886340375146,9.048743743387604-1.096329608334599,1.058750423153469-2.027932019469517,1.920368788447377-2.073985747704683,1.920368788447377-.046046261676565,0-.066512096484985-.154565212094894-.040969002403472-.343110728530519.556930542972623-4.111146432562236.437286421498357-9.39011476396081-.337981203353593-14.763736648028498-.09827483317622-.681159130906963-.157828097832862-1.26100453962863-.133143657893015-1.285367917580515v-.000014933119019Zm71.457974208059568.066579295506017c.050892057659439.05089952421622-1.574398368296897,2.591209136533507-2.586087077914272,4.040438130616167-1.476168334467729,2.114573955665037-3.615829924183345,4.890617729426594-8.490566285268869,11.020318184917414-2.560581316620301,3.219788767726641-5.448780254429948,6.863454019221535-6.421695129627551,8.096257370203602-.972907408635365,1.232803350989343-1.789360566066534,2.242983815947809-1.812820490536978,2.242983815947809-.023437524792826,0-.337242014134972-.441482626958532-.696450641191404-.978111599399199-2.747969516603916-4.10521798569971-6.008772086079261-7.711296585457603-9.898826276945329-10.94862429735258-.725951010879726-.604126654534412-1.544942797947442-1.26665672384479-1.817950015714814-1.469709762001003-.272992284648353-.20305303816167-.495577837891688-.390911631280687-.496727687786915-.419919208161446-.00262076177205-.066922757163411,4.151951170691973-1.848757033012589,7.322975849720024-3.139157410521875,5.520459208879402-2.246455765303836,13.065639817394185-4.936447460939235,18.712015056264136-6.667501677497057,2.977513901681959-.91283895149536,6.140915225232675-1.822198487068817,6.186132699001973-1.77696608019869v-.000007466553143Zm1.874270260866979.491613095728098c.089165632711229-.018181068138801.681756455520372.268601948690048,1.392901282371895.675962406705366,5.946724991134033,3.406482577838688,11.773999991299206,7.781019301781271,16.356375816918444,12.280083275956713,1.303451920462976,1.279753066155536,4.492359005314938,4.596875880784864,4.445006096031648,4.624225881838356-.01214062291001.007048430521536-1.113502691170652.094257825099703-2.447821361398383.194600894779796-10.305029418517734.77501376188593-23.479904975874888,2.967195118859308-36.16427248805303,6.017142097323813-.8614914338159.207129778691524-1.606205904332455.378950205758883-1.654066539545965.378950205758883-.047875568328891,0,.89504614436737-.946505660416733,2.094473982182535-2.099596040809047,7.449026277748999-7.161324874312413,10.847340441398046-11.683161849650787,14.845682119394041-19.761820543226349.595502780337483-1.2031909829293,1.100421281989838-2.241199308631622,1.121491907968448-2.304433586265077.001224515477588-.003942342496885.004300737266021-.003942342496885.010244117243928-.005092192388474l-.000014933113562-.000022399673981Zm-54.466597520284267,5.58185671330466c.34025850346643.076360486164049,3.517099630985285,1.554574657455305,5.914708391477689,2.755077679590613,2.192606950766276,1.097852786117073,5.513507843612388,2.86594112914463,5.679160893972949,3.021372461931605.020794363348614.019525048533978-1.149050972644545.63039400472735-2.601453253771979,1.357046872037245-4.59810039624972,2.300468844096031-8.536657346294305,4.472953421707643-12.648789364477125,6.984994646365521-1.172630362034397.716341551045844-2.155490692160129,1.305856152064734-2.186663570789278,1.305856152064734-.102583037000841,0-.062159093313312-.088687773022684.594031868457023-1.290482509648427,2.18982192472231-4.010646565169736,3.956252691924419-8.799136717621877,4.972466135544892-13.478391130112868.090703743610902-.417656841165808.199842418321168-.672692054411527.27653143302723-.655481638788842l.0000074665586.000007466560419Zm-3.200614647410475.57354363398008c.066317965982307.066317965982307-.758049742671574,3.094260998739628-1.280238392406318,4.711285945259078-1.001549124186567,3.101421427629248-2.694986822774808,7.00015922516468-4.322099088820323,9.934673220730474-.382130959361348.689178213937339-.968442407101065,1.697984832258953-1.300726626887808,2.242983815940534l-.604275985698223.988340783516833-1.372420514455371-1.326321986869516c-1.594774604408485-1.546055315058766-2.893813789240994-2.506142644029751-4.552531994267156-3.359353665289746-.651957423523527-.335345508470709-1.182135290056976-.645715381238915-1.182949144851591-.691336049127131-.003106088029199-.201694124643836,4.172252741227567-3.998797138014197,7.394677203840729-6.723821922640127,2.306628754245139-1.950593414241666,7.161601136952413-5.835413548120414,7.220564543546061-5.776450141520399Zm19.449434699858102,7.998953189538952l1.1931932620937.773259120809598c2.737232606557882,1.777182610376258,5.978353329786842,4.167929604294841,8.449597282864488,6.227094234855031,1.384852333114395,1.153963967644813,4.076285074401312,3.563997080249464,4.62934794046123,4.147986428522927l.297019667499626.312385843368247-1.98181855877192.553062866054461c-11.2089010341424,3.109925836917682-19.868734183724882,5.878458253582721-29.973017730425454,9.591562492201774-1.121372443047221.412086789074237-2.08963565276008.752793286010274-2.155931219070226.752793286010274-.139393166734408,0-.277927679328968.128133597643682,2.242983815937805-2.191778162856281,6.462888128764462-5.947568712159409,12.172086984585803-12.500503527451656,16.438306355167697-18.875883599317604l.860319184243053-1.290482509648427Zm-5.110724385502181,1.280238392400861c.058552745920679.058552745920679-3.312374083885516,4.779724413649092-5.315561930954573,7.445890323489948-2.396563442410297,3.189728406203358-6.664963047855053,8.521925827846644-9.601806609439336,11.993307725688283-1.22703170184468,1.450341511192164-2.278233435104994,2.653808756756916-2.335158471429168,2.67314714134227-.062450289068693.021212490581092-.101268922838244-.334083660205579-.102418772732563-.89618106114176-.005726849798521-2.961953595318846-.75507058612493-6.12755755341459-2.079115272882518-8.80806672070139-.559237709316221-1.132169085558417-.652943009147748-1.406191755180771-.537711623308496-1.510678764407203.460806078430323-.417776306085216,7.590763943612728-4.48319753895521,12.085482381181464-6.892819990873249,3.087391765605389-1.655156656977852,7.827558356265399-4.063323130139906,7.886290299565189-4.004591186836478v-.000007466560419Zm-30.910160327415724,7.573904456203309c.061240706710123,0,.633179030770407.287350475216954,1.270001741723718.640130396042878,1.560480704638394.864448190681287,2.962409055340686,1.815590583462836,4.199192081611727,2.847259801637847.047718770614665.039804219393773-.592717754295336.562963521633719-1.423626167539624,1.162453443814229-2.31928456964215,1.673337725109377-5.850996254155689,4.338794311965103-7.896526950254156,5.965936444241379-2.158133853606159,1.71669602599286-2.229708276248857,1.769327791609612-1.986933150835284,1.398015874436169,1.616211091723926-2.471811411465751,2.428811505355952-3.871283264668818,3.277415660482802-5.658657726376987.754383662811961-1.588905890012029,1.506206296313394-3.47506291082027,2.043275795655973-5.115853910678197.223108212288935-.681651923714526.455975215561921-1.239269389994661.517208455713444-1.239269389994661l-.0000074665586-.000014933122657Zm8.23451562016453,6.462656665475151c.111415974827651-.013775799061477.269975795317805.193712374406459.932013071811525,1.182949144851591,1.39526071462933,2.084812256449368,2.463732595978399,4.8650821019055,2.739726436846468,7.128389888055608l.056327711706217.486483570553901-3.3439874894284,1.295612034818987c-6.002627109050991,2.329409221958485-11.528006779493808,4.625465330424049-15.260479268929885,6.33463506620501-1.044250367989662.478173291765415-2.887862942712673,1.359003110166668-4.091658716819438,1.961345257404901-1.203780840991385.602327214121033-2.186644904395507,1.075721908926425-2.186644904395507,1.049783087286414,0-.025908955407431.755966573054138-.594293197982552,1.679676832642144-1.264864749988192,7.325391281151497-5.318010961898835,13.641322620174833-11.140238569027133,18.399632946179736-16.960644336057157.508898176933144-.622494386620019.971115434776948-1.162341445446145,1.029324719036595-1.198307854156155.015410975207487-.009519861134322.030172359889548-.013432337404083.046083594466836-.015410975205668l-.00001493311629.000029866230761Zm-3.799753641372263.942257189048178c.096893519991681.09689351999441-2.702841641534178,3.263109735822582-4.588386404607263,5.187547798248488-4.719305028291274,4.816661474862485-9.397902383699147,8.592947725208433-15.193899973427506,12.26983915872006-.725178222152863.460029556421432-1.387824023103349.875991488976069-1.474839287184295.926883546626414-.159101145929526.093063175867428.051437116378111-.146210133956629,2.596323728595962-2.918946222642262,1.603708340762751-1.747293979673486,2.831184302790462-3.197792288574419,4.224806107990844-5.00830561276598.917774346172337-1.192304741731277,1.093070455871384-1.35957056856023,2.437580977437392-2.33002894625497,3.62168370546442-2.614131468841151,11.902096256151708-8.223300850409942,11.998422317751647-8.126982255369512l-.000007466556781-.000007466562238Z" style="fill:url(#radial-gradient); stroke-width:0px;"/></g></g></svg>