<?xml version="1.0" encoding="UTF-8"?><svg id="Layer_1" xmlns="http://www.w3.org/2000/svg" width="255.999984741209119" height="249.599990844727472" viewBox="0 0 255.999984741209119 249.599990844727472"><g id="Layer_2"><g id="Surfaces"><g id="Photo_Surface"><g id="Outline_no_shadow"><path d="m45.333332061767578,0h165.333324432371228c25.066665649414062,0,45.333328247070312,20.266666412352606,45.333328247070312,45.333332061766669v158.933330535890491c0,25.066665649414062-20.26666259765625,45.333328247070312-45.333328247070312,45.333328247070312H45.333332061767578c-25.066667556762695,0-45.333332061767578-20.26666259765625-45.333332061767578-45.333328247070312V45.333332061766669C0,20.266666412352606,20.266666412353516,0,45.333332061767578,0Z" style="fill:#fff; stroke-width:0px;"/></g></g></g></g><path d="m81.817853118782295,200.859208006661902h-8.089923743530562c-.286076405873246-13.655168938263159-1.073967275969153-26.492743292224986-2.362104235097831-38.522109459432613h-.071912686116775l-12.3170079665706,38.522109459432613h-6.159286680030164l-12.243534359515252-38.522109459432613h-.070347292626138c-.908260684435845,11.549443358238932-1.480416477883409,24.390142535779887-1.718034264683411,38.522109459432613h-7.373944814125025c.475234828174507-17.18503882729965,1.669573409334589-33.296104415225273,3.578326271831429-48.334759175564614h10.026817908442354l11.669814663428042,35.51594568987457h.071909704414793l11.741724367843744-35.51594568987457h9.593792797606511c2.101038344655535,17.614928678598517,3.342273133097478,33.727556678310066,3.723710328728885,48.334759175564614m35.08448149997912-35.661321547093394c-3.293808550621179,17.87443215725034-7.639704648763654,30.862081530603973-13.03298316884775,38.969209694025267-4.202070725908015,6.240570855177793-8.805901927510604,9.363987069751602-13.819311627155912,9.363987069751602-1.336595578200104,0-2.985846452896112-.403328850887192-4.939934601738969-1.203713051892919v-4.309942736783341c.955158382568698.137563798269184,2.076021865819712.21573209494818,3.36415882494839.21573209494818,2.341780955034665,0,4.223956417760746-.644071461267231,5.659037609298139-1.935327280569254,1.716470362041946-1.572644989808396,2.574705543062919-3.340710721307914,2.574705543062919-5.296361281942154,0-1.341288776970032-.669081976695452-4.083261832505741-2.004115143106901-8.235305564148803l-8.877814613627379-27.569853281984251h7.947666746487812l6.371890969699962,20.619541963173106c1.431956367958264,4.681999498281584,2.029125658537851,7.95079157006694,1.789945459948285,9.812649716132,3.48453013013841-9.306153979943701,5.918541087949961-19.453338721019463,7.305163660415019-30.43375409109467h7.661590340616385v.003136750385238Z" style="fill:#5d87a1; stroke-width:0px;"/><path d="m201.336526178680288,147.105129614105863c-7.96121796557054-.202348757498839-14.125125553850012.599083144996257-19.298598846329696,2.787744673087218-1.493736455793623.596421997797734-3.86877985819774.596421997797734-4.076471224187117,2.484211379793123.806754196883048.798791069391882.899955291090009,2.087476992292068,1.600222971883341,3.189801354979863,1.192843995597286,1.988973917794283,3.272357860398188,4.664889466293971,5.170791831185852,6.060102533485406,2.08483615919431,1.597561824690274,4.177635445881606,3.179156766193046,6.37163958247038,4.571708686187776,3.86877985819774,2.393691746887271,8.254106670074179,3.786223352781235,12.024363139666093,6.171931658072936,2.196644969682893,1.387229625601321,4.380004517484849,3.181817913393388,6.579290320263681,4.675534055082608,1.081035185106884.796129922198816,1.773299110209337,2.087476992293887,3.176475304893756,2.585395915592017v-.303533293292276c-.702949142090802-.894632996698419-.902636752389299-2.188661528089142-1.592259844392174-3.184479060588274l-2.987432283389353-2.880945767294179c-2.886268061685769-3.876763299789673-6.472803804166688-7.260929970670986-10.341583662364428-10.040711516268857-3.184479060586455-2.193983822486189-10.149859179558916-5.176114125579261-11.441226563756572-8.845186059375919l-.202369071594148-.202348757495201c2.188681842193546-.205030218792672,4.784702032469795-.998478679694017,6.864215897274335-1.608206413477092,3.384166670886771-.891971849499896,6.470122342871036-.689623092002876,9.942167813565902-1.581594941504591,1.59758213879104-.39939553469776,3.181838227490516-.899955291091828,4.784702032471614-1.39255191999473v-.897294143895124c-1.799910582180019-1.791927140593543-3.083314838890146-4.172313151490016-4.976426515277126-5.865737217580318-5.064264686889146-4.374661908988855-10.645116955660342-8.653481890669354-16.412330784642108-12.234695338756865-3.088637133283555-1.994296212187692-7.061222046273542-3.277680154793416-10.349546789857413-4.973745053983293-1.184860554005354-.599083144992619-3.18181791338975-.894632996694781-3.879424446988196-1.890450529192094-1.783943698996154-2.188661528090961-2.787744673085399-5.06960729538514-4.08177320447794-7.660325505370565-2.875623472899861-5.466341682886195-5.668690440381397-11.531766510763191-8.150240672976906-17.312286075732118-1.794608601891923-3.876763299791492-2.886268061687588-7.748194148132825-5.074929589781277-11.334729890613744-10.251043715355991-16.907568246642768-21.38341469142506-27.147967373210122-38.493352009661976-37.199323478269434-3.6770553753895-2.092809443740407-8.051737598476393-2.984781293240303-12.724610506362296-4.081783361532871l-7.463299042268773-.39406308325124c-1.592239530293227-.697606533596627-3.187140207785887-2.590718209987244-4.577030980583004-3.485361363733318-5.676694196074095-3.57854722236516-20.291755231627576-11.334729890611925-24.466729530315206-1.094330764048209-2.689241598586705,6.472803804170326,3.977947835585837,12.836439630949826,6.267773585375835,16.119442080138469,1.690762918893597,2.279191318049925,3.882085594183991,4.872580832281528,5.064285000989003,7.460627738024414.70026768079515,1.690752761844124.897294143896033,3.485351206682026,1.597561824689365,5.271966209927996,1.592239530294137,4.377333213235033,3.080633377592676,9.247242741272203,5.173452978380737,13.33168724999814,1.091679773899159,2.08216485495177,2.281862622298831,4.270826383042731,3.6770553753895,6.155954617841417.798791069394611,1.102324362687796,2.18866152809187,1.589578383092885,2.492194821385965,3.386837975132948-1.387229625601321,1.980980319152877-1.496377288889562,4.971094063836063-2.292507211087468,7.45796659082589-3.578552300889896,11.238877806261371-2.180678086499938,25.161664759663836,2.891590356083725,33.421073410030658,1.586917235898909,2.486872526988009,5.373140588678325,7.961197651467955,10.437425589669147,5.863076070383613,4.483829886376043-1.789265993393201,3.490673501076344-7.457976747873545,4.779379738077296-12.429060654660134.295549851702162-1.200827437189218.101184535797984-1.988973917792464.697606533595717-2.777100084298581v.194375472954562c1.387229625600412,2.782432535745102,2.787744673086308,5.463670378638199,4.073789762889646,8.254096513022887,3.085955671986994,4.869919685086643,8.459116574765176,9.944849274867011,12.934963019550196,13.318371356961507,2.383026843993321,1.79993089628806,4.27081622598962,4.877903126676756,7.255607676278487,5.977566342167847v-.298231312995995h-.197026463100883c-.604405439390575-.891971849501715-1.48839384729763-1.291367384199475-2.281862622297922-1.983651623399055-1.794608601890104-1.791927140593543-3.780901058384188-3.980608982783451-5.173452978379828-5.966901439282083-4.169652004293312-5.57284851307486-7.860033429770738-11.742119023951091-11.135032123265773-18.108415997927295-1.602884119082773-3.088626976234082-2.984791450289777-6.464820362578394-4.276158834486523-9.548114887367774-.601744292191142-1.190182848400582-.601744292191142-2.984781293236665-1.600222971885159-3.583874595282396-1.496377288889562,2.186000380892438-3.677055375388591,4.079122214334348-4.76873514928775,6.757709067082033-1.893111676389708,4.284142276075727-2.090158453592267,9.553437181757545-2.793087281583212,15.033104914733485l-.391412093104918.191704168704746c-3.168512177404409-.796129922198816-4.270816225991439-4.073789762891465-5.474325124477218-6.856212141583455-2.97946915589273-7.066564654771355-3.480028912288617-18.409288144024686-.89463299669751-26.562189964199206.692284239201399-2.084826002148475,3.687720278280722-8.65082074347265,2.492194821385965-10.637123357020755-.599083144996257-1.90376642222509-2.590718209987244-2.987452597484662-3.682397983885494-4.486501190620402-1.283383942604814-1.885128234795047-2.689241598586705-4.270826383040912-3.583874595283305-6.363635826781319-2.385708305294429-5.567516061630158-3.586535742481828-11.736786572506389-6.155944460789215-17.3016414869453-1.200827437189218-2.593379357178492-3.285663596385348-5.277288504323224-4.97376536808224-7.665657956813448-1.895772823587322-2.683909147141094-3.98060898278527-4.574359676336826-5.479647418871537-7.756177589722938-.49523746199975-1.09433076404639-1.190182848399672-2.883606914490883-.394073240302532-4.073789762889646.194365315904179-.798780912344228.599083144995348-1.096991911243094,1.39255191999473-1.296689678592884,1.288706237000042-1.089008469652981,4.97108390678477.295549851702162,6.262451290981517.894632996698419,3.687720278279812,1.491065151543808,6.771014803068283,2.883606914490883,9.848987033463345,4.971094063832425,1.39255191999564.998478679694017,2.886268061687588,2.888929208884292,4.672872907885903,3.386837975132948h2.092819600788062c3.176495618994522.692274082153745,6.757709067081123.191704168708384,9.747822811764308,1.091669616849686,5.269294905684546,1.69342406609212,10.04337266346829,4.177635445885244,14.324833478247456,6.858883445825995,13.028143799655481,8.262079954616638,23.771784143917102,20.001527674321551,31.024730672998885,34.022827859276731,1.190182848397853,2.284523769496445,1.696085213288825,4.377333213235033,2.7824223786929,6.760370214278737,2.095480747983856,4.877903126678575,4.686198957971101,9.851658337711342,6.765692508671236,14.625715781394319,2.090158453593176,4.672883064935377,4.081773204482488,9.444279361423469,7.066564654771355,13.326364955604731,1.488393847299449,2.087476992292068,7.468621336667638,3.181817913391569,10.149859179560735,4.276158834485614,1.983631309298289.891971849498077,5.072268442580025,1.685440624500188,6.861534435973226,2.779761231495286,3.384166670890409,2.084815845095363,6.755047919888966,4.478507591982634,9.93684551917795,6.771014803069193,1.584256088699476,1.192843995597286,6.563323437077997,3.67973683668788,6.858893602880926,5.67135158757992M99.875129501546326,60.666172948815984c-1.373233210189028-.014270655772634-2.742261401524956.154062140030874-4.071128615692942.500569913445361v.199697767346152h.191704168706565c.801452216592224,1.589578383100161,2.193983822486189,2.691902745786138,3.187140207785887,4.079122214336167.801452216590405,1.594900677491751,1.496377288888652,3.176495618996341,2.281862622297922,4.76873514928775l.191704168705655-.197036620149447c1.403196508784276-.993156385300608,2.100803042379994-2.585395915592017,2.100803042379994-4.973755211030948-.604405439390575-.702928827990036-.697606533595717-1.389880615748552-1.200827437187399-2.08748714934336-.585777409010007-.995817532497313-1.877144793207663-1.491065151549265-2.681237842894916-2.289846063891673" style="fill:#5d87a1; stroke-width:0px;"/><path d="m224.588227664722581,200.859208006661902h-22.980071859674354v-48.334759175564614h7.730372239751887v42.384951961623301h15.249699619922467v5.949807213941313Zm-28.995548075978149,1.167765653937749l-8.885626672572471-4.384974283077099c.787884906694671-.647196284842721,1.541384827220099-1.347538424122831,2.219841274651117-2.158871434461616,3.776862146572967-4.436557725724924,5.66060598448712-10.997601899747679,5.66060598448712-19.687831684243065,0-15.990700246138658-6.27496776814769-23.989950435277933-18.829590539817218-23.989950435277933-6.156164838157565,0-10.958529678218838,2.029119695132977-14.393032814093203,6.088933424000061-3.773737322994748,4.439682549304052-5.65748116091163,10.97729054649426-5.65748116091163,19.620612196898946,0,8.496371454592008,1.669574154760085,14.729130250825619,5.01028487606618,18.68264034400454,3.056196727226961,3.581453331689772,7.663152752405949,5.374529578617512,13.82400482592675,5.374529578617512,2.298009571330113,0,4.40685997492983-.281389170502734,6.328113622590536-.848854746882353l11.568204226514354,6.734567297055037,3.154676377158466-5.430800256634029Zm-28.784503216400481-10.839714821415328c-1.957212972421075-3.14842673000021-2.935819458632068-8.204045401564144-2.935819458632068-15.174668073628709,0-12.17005478905412,3.697131438106226-18.262124963443057,11.099218300069879-18.262124963443057,3.869092149347125,0,6.704869546258124,1.456966883388304,8.518257146446558,4.364651003012114,1.954088148842857,3.153113965370721,2.937381870418903,8.163398841437811,2.937381870418903,15.037104275361344,0,12.270108777585847-3.700256261683535,18.405950335674788-11.097655888279405,18.405950335674788-3.870654561138508.001562411789564-6.706431958049507-1.450717236233686-8.521393896829977-4.370900650166732m-14.469614845365868-3.725290630731251c0,4.098897877207492-1.503863090674713,7.461494290366318-4.508476375248392,10.095601298427937-3.007738108153717,2.623170125540128-7.040966982991449,3.937874048482627-12.09502324276491,3.937874048482627-4.727333293772972,0-9.310841215311484-1.510124664633622-13.747398941038227-4.514726022400282l2.07759024101415-4.150481319855317c3.817508706698391,1.911879176928778,7.273897534424577,2.862350324128784,10.37699046893249,2.862350324128784,2.912371354990682,0,5.188495234466245-.645633873056795,6.839308520951818-1.925952809833689,1.649250874696008-1.285006172147405,2.632544596273874-3.08745688981071,2.632544596273874-5.36670559286722,0-2.871724794860711-2.002546767916101-5.326059032735429-5.676230102379122-7.381763581895939-3.387606928592504-1.860295734279134-10.162820785774784-5.749711163691245-10.162820785774784-5.749711163691245-3.672120922674367-2.676315979979336-5.510530965098951-5.549615113439359-5.510530965098951-10.28319805436513,0-3.917550768423098,1.370986527767855-7.080051131330038,4.114533921901057-9.48592675013424,2.746672217709602-2.415250089534311,6.290603812846712-3.618975068235159,10.634931535796568-3.618975068235159,4.486590683394752,0,8.56515335372751,1.202150640101536,12.23884861499937,3.581453331687953l-1.863420557854624,4.152043731641243c-3.142177082846501-1.335027203007485-6.24370760556576-2.002546767915192-9.303029156367302-2.002546767915192-2.477782341517013,0-4.391223930233537.595600915386967-5.721575824681167,1.791513835138176-1.341288776970941,1.191213757585501-2.168257832002382,2.715400128319743-2.168257832002382,4.585070333332624,0,2.857663088760091,2.044755739831089,5.343257489223106,5.818493062824928,7.439608598511768,3.432940724084801,1.863420557854624,10.37699046893249,5.820055474612673,10.37699046893249,5.820055474612673,3.765913337241727,2.671628744610643,5.646532351583119,5.518343024043133,5.646532351583119,10.214404228423518" style="fill:#f8981d; stroke-width:0px;"/></svg>