<?xml version="1.0" encoding="UTF-8"?><svg id="Layer_1" xmlns="http://www.w3.org/2000/svg" width="255.999984741208209" height="249.599990844728381" viewBox="0 0 255.999984741208209 249.599990844728381"><g id="Layer_2"><g id="Surfaces"><g id="Photo_Surface"><g id="Outline_no_shadow"><path d="m45.333332061767578,0h165.333324432370318c25.066665649414062,0,45.333328247070312,20.266666412353516,45.333328247070312,45.333332061767578v158.933330535890491c0,25.066665649414062-20.26666259765625,45.333328247070312-45.333328247070312,45.333328247070312H45.333332061767578c-25.066667556762695,0-45.333332061767578-20.26666259765625-45.333332061767578-45.333328247070312V45.333332061767578C0,20.266666412353516,20.266666412353516,0,45.333332061767578,0Z" style="fill:#fff; stroke-width:0px;"/></g></g></g></g><path d="m162.795578367751659,24.917437063089892c-.210357614437271,1.209100090261927-.05263285053752.893681595982343-.105054673137602,1.524524791242584-.05263285053752.420547647863714-.05263285053752.946258586183831-.105054673136692,1.366806234047544-.105054673136692.420560061273136-.210382441252477.84110770913685-.368007897885946,1.261683287168125-.105054673137602.420547647863714-.262841504077187.841104605784494-.420541441159912,1.26165225364457-.210382441253387.420578681387269-.367995484479252.788549339049496-.578266205058753,1.209109400318994-.157699937082725.210366924493428-.262841504076277.420547647863714-.420553854567515.63084319526024-.105054673137602.157706143785617-.210357614437271.315415390927228-.315412287573963.473124638065201-.262841504077187.368001691182144-.52570783496958.735975452196726-.788536925637345,1.051390843120316-.315437114390988.31542780433665-.578278618467266.683398461998877-.946286516354121.946267896244535v.052635953888966c-.315412287573963.262850814131525-.630836988555529.578266205058753-.998807646217756.841104605784494-1.103974040029243.841104605780856-2.365623190324186,1.471944697688741-3.522168013849296,2.260494036734599-.367970657662227.262841504078096-.735978555549082.473137051474623-1.051378429713623.788549339049496-.367983071070739.262841504074458-.683407772053215.525683008152555-.998807646218665.841107709133212-.368007897886855.315418494279584-.630849401963133.63084319526024-.946274102945608.9988324730366-.262841504076277.315424700980657-.578253791649331.683401565347594-.788524512229742,1.051403256529738-.262866330893303.367970657662227-.525695421561977.735966142139659-.735990968957594,1.103943006506597-.210357614437271.420547647863714-.367983071070739.788549339045858-.578266205057844,1.209096986909572-.157699937083635.420547647863714-.315424700982476.788549339049496-.420553854568425,1.209096986909572-.157712350491238.473137051474623-.26285391748479.893690906043048-.367995484478342,1.314263380721968-.05263285053752.210363821141073-.05263285053752.473112224655779-.105054673137602.683395358642883-.052719744394381.210363821141073-.052719744394381.420547647863714-.105054673136692.63084319526024,0,.420547647863714-.05263285053843.893684699338337-.05263285053843,1.314232347198413,0,.315424700984295,0,.63084319526024.05263285053843.946267896240897,0,.420547647867352.05263285053843.841095295731066.157699937082725,1.314232347202051.05263285053752.420547647863714.157687523675122.84110770913685.262866330893303,1.261686390520481.157712350490328.420547647860076.26285391748479.841107709133212.420541441159003,1.261655356996926.105079499953717.262872537598014.262841504077187.525707834971399.368007897886855.735972348844371l-12.091031936140098-4.678694217258453c-2.050235729565429-.578266205058753-4.047851022000941-1.103943006510235-6.09808675156637-1.57708005798122-1.103949213212218-.262841504078096-2.207910839832039-.525695421561977-3.31187246645186-.788549339045858-3.154191149482358-.630830781850818-6.360909635532153-1.103949213214946-9.567671568510377-1.419361500786181-.105048466432891,0-.157699937082725-.052645263946033-.262841504076277-.052645263946033-3.15419735618616-.315412287574873-6.255786688650005-.473124638065201-9.40996542472385-.473124638065201-2.313077233642616,0-4.626160673988124.1050484664338-6.886654710725452.262841504078096-3.206749519570621.210363821141073-6.413511452548846.630843195256602-9.620236145302442,1.156519996708084-.788549339046767.105060879839584-1.577098678093535.262872537598014-2.365654223843194.420578681383631-1.629650841477996.315393667460739-3.206730899458307.683395358646521-4.731252587350355,1.051390843123954-.788549339045858.210363821141073-1.577098678092625.420560061273136-2.365654223843194.630824575146107-.788524512229742.315412287574873-1.524496861075022.683420185461728-2.260494036737327.998832473032962-.578259998354042.262841504078096-1.156519996708994.525689214860904-1.734786201766838.788549339045858-.105060879841403.052645263949671-.210363821141073.052645263949671-.262841504077187.105060879843222-.52570783496958.262841504078096-.998838679738583.473106017951068-1.47194469769056.735972348844371-.157712350490328.052645263946033-.262866330893303.105054673138511-.368001691183053.157706143789255-.578259998354042.262841504074458-1.156519996708994.578253791649331-1.629657048180889.841107709133212-.367995484479252.157706143789255-.73597234884619.367995484481071-1.051390843123045.525707834971399-.157712350491238.105048466430162-.368001691183053.210357614436361-.473130844769003.262841504074458-.473127741416647.262841504078096-.94625858618474.525676801451482-1.366812440753165.788549339049496-.473130844769003.262841504074458-.893684699336518.525676801447844-1.26168018381577.788518305522302-.367970657662227.262872537598014-.735969245492015.473137051474623-1.051390843122135.735972348848009-.052666987409793.052645263946033-.105057776489048.052645263946033-.157709247138882.105060879839584-.315418494277765.210363821141073-.683392255292347.473124638065201-.998810749570112.735990968958504,0,0-.052660780705992.052632850536611-.105057776489048.105060879839584-.262841504076277.210363821141073-.525710938321026.420547647863714-.788549339046767.630812161740323-.105057776488138.052645263946033-.210360717787808.157706143785617-.315418494277765.210363821141073-.262841504076277.210363821141073-.525683008153464.473137051470985-.788527615582097.683420185461728-.052660780705082.105060879839584-.157709247137973.157706143785617-.210360717788717.210363821137435-.315418494277765.315418494279584-.630840091906975.578253791652969-.946261689537096.893684699338337-.052660780705992,0-.052660780705992.052645263946033-.105057776489048.1050484664338-.315418494277765.26284771077917-.630840091907885.578266205058753-.94625858618474.89369090603941-.052660780705992.052645263946033-.052660780705992.1050484664338-.105057776489048.1050484664338-.262841504077187.262841504074458-.525683008153464.525707834967761-.788549339046767.841107709133212-.105054673136692.105060879843222-.262841504077187.210363821141073-.367973761014582.315418494279584-.262841504077187.315424700980657-.578263101706398.63084319526024-.893681595984162.946267896240897-.052660780705992.105054673134873-.157709247138882.157706143785617-.210363821141073.262841504074458-.420553854566606.420578681383631-.788552442398213.841126329250983-1.209103193613373,1.261686390520481-.052660780706901.052645263946033-.105057776489048.1050484664338-.157709247139792.157706143789255-.841129432598791.893678492629988-1.734811028582953,1.787363191968325-2.681047891303933,2.575906324309472-.94625858618565.841101502432139-1.945075542459563,1.629650841477996-2.94391111884579,2.313052406825591-1.0513939464754.735997175659577-2.050207799396958,1.3668093373999-3.154178736072936,1.99765253266014-1.0513939464754.57824758494462-2.155361779799932,1.10396162662073-3.311887983212728,1.577098678091716-1.103970936675978.473124638065201-2.260494036737327.893690906043048-3.417020240150123,1.261655357000564-2.207940321675778.473124638065201-4.468435910089283,1.3668093373999-6.413511452548846,1.524521687890228-.420552302891338,0-.89368314766034.105067086544295-1.314235450551678.157699937084544-.473127741416647.105060879839584-.893681595984162.210370027842146-1.314232347199322.315437114390079-.420552302892247.157693730376195-.841129432599701.315412287574873-1.261681735491038.473112224655779-.420552302892247.157712350490328-.841104605783585.367995484477433-1.261656908675832.578278618464537-.367997811992609.262835297373385-.788549339045858.473124638065201-1.156548702714645.735966142143297-.36797531268985.262841504074458-.735973124683369.578253791649331-1.0513939464754.893684699334699-.367972985176493.262866330893303-.735970797169102.630849401964952-1.051391618961134.946249276130402-.315420821792031.368014104591566-.630840091906975.683426392162801-.893682371822251,1.051390843123954-.262842279914366.420553854568425-.578262325868309.788555545750569-.788550890722036,1.209115607020067-.262841504077187.367995484477433-.525683783991553.788543132344785-.73597234884619,1.209078366799076-.210362657383484.473155671585118-.420551527052339.893697112744121-.578262325867399,1.366834164215106-.157710022976971.420553854568425-.315420045953942.893672285928915-.473130068930914,1.366809337403538-.105057000650959.420541441159003-.210362269464895.841101502428501-.262841504077187,1.26163673688643,0,.052713537690579-.052650694811746.105073293249006-.052650694811746.157718557195039-.105058164407637.473155671585118-.105058164407637,1.104005073546432-.15771079881506,1.419429774530727-.052650694810836.3679768643633-.10505661273146.683376738532388-.10505661273146,1.051384636419243,0,.210357614436361,0,.473099811246357.052650694812655.683382945233461.052650694810836.368007897890493.10505622481196.683420185461728.210362657382575.998857299851807.105057000650959.315375047350244.210362657384394.630799748330901.367973761015492.946224449311558v.052632850540249c.157710022976062.315449527795863.367998587829788.630849401961314.578262325868309.946274102945608.210362269463985.315424700980657.420576353869365.630836988555529.683418633783731.946274102945608.262841504077187.262841504074458.578262325869218.578241378239909.893682371823161.84109529572379.315420821791122.315424700984295.630841643583153.578266205062391.998814628758737.84110770913685,1.261680959653859,1.103974040030153,1.577100229769712,1.47198193791337,3.20675805378869,2.313077233640797.26283917656292.157712350493966.52570783496958.262853917487519.841127880924432.420566267977847.052659229029814,0,.105057776488138.052632850536611.157709247137973.052632850536611,0,.105054673138511,0,.157712350493966.052659229029814.262878744302725.052651470650744.420553854564787.157708471301703.84109529572379.262842279915276,1.261661563701637.10505622481287.473124638065201.262866330893303.893703319448832.420577129707453,1.261673977111059.157709247139792.315424700984295.262841504077187.630836988555529.420552302892247.946274102945608.052651470649835.105067086544295.105059328165225.210357614436361.157709247138882.262841504078096.210362269463985.420541441159003.420552302892247.78856175245528.63081526509086,1.156519996708084.262866330893303.367983071071649.52570783496958.735966142139659.788549339046767,1.103974040026515.262843055752455.315399874169088.578264653382575.683395358646521.89368314766034.998807646217756.315420045953942.315424700984295.630841643583153.578278618468175.998840231413851.893678492633626,0,0,.052659229030724.05271974439529.10505622481287.05271974439529.31542159763012.262866330893303.630840091907885.525720248377183.946261689538005.735966142139659.367973761014582.262853917483881.73597234884528.473124638065201,1.15652310006044.683420185461728.367998587830698.210357614436361.788550890722945.420553854568425,1.209103193613373.578266205058753.315420045954852.157712350490328.683393806969434.262853917483881,1.0513939464754.367995484477433.052659229030724.05271974439529.105057776489048.05271974439529.210362269465804.105079499953717.210362269463985.05271974439529.473104466275799.105042259729089.683392255291437.157687523675122-.157709247137973,2.838760241793352-.210362269463985,5.519795719690592.210363821141073,6.466082236045622.473106017952887,1.051378429714532,2.78617859656697-2.155364883150469,5.099252726856321-5.835232834080671-.315418494277765,3.62730958083921-.52570783496958,7.885418910012959,0,9.147117713942862.578259998354952,1.314207520383206,3.732438734428797-2.78621428511542,6.466063615934218-7.307202358591894,37.271866214413421-8.621385052156256,71.284474192800189,17.137715431177639,74.859188163329236,53.515903152958344-.683407772052306-5.677520483590342-7.675173016251392-8.831693012958567-10.881897709005898-8.043131260506925-1.577104884796427,3.890138671511522-4.258152776101269,8.884251383049559-8.568851508884109,11.98586554233043.367983071071649-3.469609643758304.210345201028758-7.044323614289169-.525689214857266-10.513933258047473-1.156551030228002,4.836412774457131-3.41705127367004,9.357425674748811-6.518671639653803,13.247564346256695-4.994112711538946.367970657662227-9.988244043191116-2.050235729562701-12.616733564405877-5.677520483590342-.210363821141982-.157724763899751-.262841504077187-.473137051470985-.420553854568425-.683407772052306-.157712350491238-.368020311296277-.315418494277765-.735966142143297-.420553854566606-1.103974040026515-.157706143787436-.367970657662227-.262841504077187-.735966142143297-.315418494277765-1.103949213214946-.052657677354546-.368007897886855-.052657677354546-.735990968954866-.052657677354546-1.156532410117507v-.788536925636436c.052657677354546-.368020311296277.157712350490328-.736003382367926.262841504076277-1.103998866845359.105054673137602-.367970657662227.210363821141073-.735966142139659.367995484479252-1.10396162662073.210363821141073-.367970657662227.367970657662227-.735966142139659.630843195259331-1.103936799801886.893684699335608-2.523372781037324.893684699335608-4.573571270379034-.73597234884528-5.782662050583895-.315418494277765-.210357614439999-.630843195259331-.368007897890493-.998838679738583-.525720248380821-.210363821140163-.052632850536611-.473130844768093-.157712350490328-.683395358643793-.210357614436361-.157712350491238-.052632850536611-.262841504077187-.105079499953717-.420553854568425-.157712350490328-.368001691182144-.105054673138511-.735997175661396-.210370027845784-1.103974040027424-.262841504078096-.367995484478342-.105054673134873-.73597234884528-.157712350490328-1.103967833324532-.157712350490328-.367976864366938-.05271974439529-.788549339045858-.105054673134873-1.156526203412795-.105054673134873-.262841504076277,0-.52570783496958.052632850536611-.788549339045858.052632850536611-.420553854568425,0-.788549339046767.05271974439529-1.156526203413705.157712350490328-.367995484478342.05271974439529-.735972348844371.105054673138511-1.103967833323622.210345201030577-.367976864366938.105067086544295-.73597234884528.210370027842146-1.103974040028334.368020311292639-.367970657662227.157699937084544-.683395358644702.315412287574873-1.051390843123954.473124638065201-.315393667460739.157712350490328-.630818368442306.367970657662227-.998813852920648.525683008152555-12.248734976575179,7.990585303825355-4.94154192804217,26.705374586279504,3.417020240149213,32.120053565795388-3.154178736072936.578266205055115-6.360909635531243,1.261698803926265-7.254594334867761,1.945069335753942-.052657677353636.052632850536611-.105054673136692.105067086544295-.105054673136692.105067086544295,2.260494036737327,1.366790717289405,4.626123433764405,2.523335540812695,7.096881984376523,3.522143187030451,3.364468076765661,1.103974040030153,6.93919446070322,2.102794099657331,8.516293138794936,2.523347954225756v.052632850536611c4.363281929688128.89369090603941,8.779140849575924,1.209115607020067,13.247558139553803.946274102945608,23.288366759535165-1.629657048182708,42.371151526466747-19.345651097824884,45.84076117022596-42.686570020745421.105054673136692.473137051474623.210357614436361.893678492633626.315424700981566,1.366815544104611.157712350490328.946224449311558.367970657662227,1.945056922348158.473099811248176,2.943876981971698v.05271974439529c.105054673136692.473124638065201.157712350490328.946249276130402.210357614436361,1.366803130698827v.210370027842146c.05271974439529.473124638065201.105067086545205.946261689539824.105067086545205,1.366803130698827.05263285053843.578266205058753.105054673137602,1.156519996708084.105054673137602,1.734823441991466v.841107709133212c0,.262866330893303.05263285053752.578253791652969.05263285053752.841120122546272,0,.315424700980657-.05263285053752.630824575146107-.05263285053752.946249276126764v.735966142143297c0,.368007897886855-.05271974439529.683407772052306-.05271974439529,1.051403256529738,0,.210345201030577,0,.420553854568425-.05263285053752.683407772052306,0,.368007897886855-.05263285053752.735966142143297-.05263285053752,1.156519996711722-.05271974439529.157712350490328-.05271974439529.315424700980657-.05271974439529.473137051470985-.05263285053752.420553854568425-.105054673136692.788549339045858-.157712350490328,1.209115607023705,0,.157712350490328,0,.315412287571235-.05263285053843.473137051470985-.052719744394381.525670594746771-.157699937081816.998820059627178-.210332787619336,1.524503067779733v.105352594931901c-.105054673137602.473124638065201-.210382441253387.998807646217756-.315449527798592,1.471932284282957v.157712350490328c-.105042259728179.473112224655779-.210357614437271.946261689536186-.31539987416545,1.419361500786181,0,.05271974439529-.05263285053752.157712350490328-.05263285053752.210345201026939-.105079499953717.473149464884045-.210382441253387.946274102949246-.367970657662227,1.419423567829654v.157687523675122c-.157712350491238.525670594743133-.315424700982476.998807646217756-.420578681384541,1.471944697688741-.05263285053752.052632850536611-.05263285053752.105054673134873-.05263285053752.105054673134873-.157712350491238.525707834971399-.315412287573963,1.051390843123954-.473099811248176,1.577086264685931-.210357614436361.525707834971399-.367995484479252.9988324730366-.578266205058753,1.524527894594939-.210357614437271.525695421561977-.368007897886855,1.051403256533376-.578278618466356,1.524515481189155-.210370027844874.525720248377183-.420566267976028.998844886442384-.630836988555529,1.524527894594939h-.05271974439529c-.210382441252477.473124638065201-.420578681383631.9988324730366-.683445012276934,1.471981937917008-.05263285053752.157687523675122-.105042259728179.262841504074458-.157687523675122.367958244252804-.05263285053752.05271974439529-.05263285053752.105054673138511-.105054673135783.157724763899751-3.417014033446321,6.886598850389419-8.46372235529816,12.932114818457194-14.772067414036428,17.663386025920772-.420553854568425.262841504078096-.841120122544453.578266205058753-1.261661563703456.893666079224204-.105067086545205.105067086544295-.262866330892393.157724763899751-.367995484478342.262841504078096-.367995484479252.262841504074458-.735978555549991.525683008152555-1.156519996708994.788549339045858l.157699937081816.315424700980657h.05263285053843c.735966142141478-.105042259729089,1.47194469769056-.210357614436361,2.207923253239642-.315424700980657h.05263285053843c1.366815544104611-.210357614439999,2.733631088210132-.473124638065201,4.100446632314743-.735966142143297.367970657662227-.052707330985868.788549339045858-.157699937080906,1.156519996708994-.262866330889665.262841504076277-.052707330989506.473124638064292-.105042259732727.735966142140569-.157699937084544.367995484479252-.052707330985868.735978555549082-.157699937084544,1.103986453436846-.210357614436361.31539987416545-.105067086544295.630836988555529-.157724763899751.946249276128583-.262841504078096,5.256954215616133-1.261698803926265,10.356233320964748-2.996497419102525,15.245179638693116-5.046695908444235-8.358543548079069,11.407599337271677-19.55589699158736,20.607300248120737-32.645736573945214,26.652803802782728,6.045528381478107-.420566267977847,12.091019522732495-1.419373914195603,17.926252356814075-3.101589332465664,21.185578866585274-6.255811515464302,39.006677242997284-20.502183507938753,49.678310438127482-39.690097428458103-2.155352469742866,12.143602719635965-6.991765244199087,23.708926820807392-14.141218012073296,33.802293810877018,5.099254278532499-3.364480490170536,9.777942289089879-7.254643988497264,14.036088858487346-11.670490494980186,11.77559482174911-12.301290243311087,19.503351034905791-27.914452953071304,22.131815729306254-44.684210139996139,1.78738181207882,8.306010004806012,2.313077233644435,16.874898753914749,1.524527894598577,25.338583868990099,37.955286399872421-52.937649361305375,3.154172529368225-107.820355644962547-11.407611750681099-122.277010771424102-.05271974439529-.105054673138511-.105054673138511-.157706143789255-.105054673138511-.262841504078096q-.05271974439529.052632850540249-.05271974439529.105060879843222,0-.052645263946033-.052632850536611-.105060879843222c0,.63084319526024-.052632850536611,1.261655357000564-.105054673134873,1.892498552260804-.157712350490328,1.209103193614283-.315412287574873,2.365635603731789-.525707834971399,3.52218042725508-.262829090668674,1.156526203412795-.578266205058753,2.313033786711458-.89369090603941,3.469584816943097-.367970657662227,1.103943006506597-.788512098821229,2.260475416624104-1.261661563701637,3.364455663355329-.47312463806702,1.05137842971817-.9988324730366,2.155346263039974-1.577086264686841,3.206755726278061-.578266205059663.998832473032962-1.209103193613373,2.050210902747494-1.892498552258076,2.996460178874258-.683407772052306.998844886446022-1.419386327602297,1.945081749167002-2.155377296559891,2.838747828391206-.78856175245437.946274102945608-1.629644634773285,1.787394225488242-2.470777170725341,2.628508141326165-.525683008152555.473130844769912-.998807646217756.893684699338337-1.524527894595849,1.314219933792629-.420541441159003.368007897886855-.788524512228832.683432598867512-1.209103193613373,1.051390843123954-.946249276129493.735984762253793-1.892498552258076,1.419392534306098-2.943876981973517,2.050241936267412-.998832473033872.630824575146107-2.050198489340801,1.261661563701637-3.101601745872358,1.787369398673036-1.103974040028334.525695421561977-2.207935666648154.998807646217756-3.311897293267975,1.471957111098163-1.103974040028334.420541441162641-2.260494036737327.788536925640074-3.417063687078553,1.10396162662073-1.156519996708994.31539987416545-2.365610776914764.578266205058753-3.522143187031361.788536925640074-1.209090780206679.210357614436361-2.418193973820053.315412287571235-3.574726383937559.420566267974209-.841120122543543.052632850536611-1.682227831678574.105067086544295-2.523347954221208.105067086544295-1.209115607022795,0-2.418181560412449-.105067086544295-3.574726383937559-.210357614436361-1.20909078020577-.105054673138511-2.418206387227656-.262878744299087-3.574738797345162-.525720248377183-1.209103193614283-.210357614436361-2.365648017139392-.525707834967761-3.522180427255989-.893666079224204h-.05263285053843c1.156532410117507-.105054673134873,2.313077233642616-.210382441251568,3.469622057167726-.420566267974209,1.209078366798167-.210357614439999,2.365610776915673-.473112224659417,3.522155600440783-.78856175245528,1.156519996708084-.315412287574873,2.313052406824681-.683407772052306,3.417014033445412-1.103949213211308,1.156519996708994-.420553854568425,2.260506450144931-.94623686272098,3.311897293268885-1.471957111098163,1.103949213211308-.525707834971399,2.10278168624518-1.103949213214946,3.154172529369134-1.734798615179898.998807646217756-.683401565347594,1.997640119251628-1.366796923990478,2.94388939538112-2.102794099653693.946261689537096-.735966142139659,1.839927768761299-1.524496861075022,2.681072718120959-2.365616983617656.893678492632716-.788567959156353,1.682215418270971-1.682240245088906,2.470764757316829-2.575931151128316.788524512229742-.946224449311558,1.524515481187336-1.892486138847744,2.207923253239642-2.838747828387568.105067086546114-.157718557191401.210370027845784-.367970657662227.315437114390988-.525689214853628.525670594744042-.841120122546272,1.051353602897507-1.682234038384195,1.524478240962708-2.52336036763154.578278618466356-1.051390843123954,1.103986453436846-2.102794099653693,1.577098678092625-3.206730899459217.473137051473714-1.103967833325441.893703319447923-2.207948080056667,1.261686390518662-3.36446187006004.367970657663136-1.103980246731226.630824575147926-2.260494036738237.893678492632716-3.417014033446321.210370027844874-1.209109400318994.420541441159912-2.365660430546995.525695421561977-3.52218042725508.105054673136692-1.20909698691321.210357614436361-2.418206387232203.210357614436361-3.57472638393665,0-.841126329250983-.05271974439529-1.682234038384195-.105042259728179-2.523335540816333-.105067086545205-1.209096986909572-.26285391748479-2.365648017137573-.420553854568425-3.522174220550369-.210370027844874-1.209109400318994-.473124638064292-2.365629397027078-.78856175245437-3.52218042725508-.367970657662227-1.103949213214946-.735966142140569-2.260487830037164-1.156519996708994-3.364430836543761-.420578681383631-1.103974040026515-.946249276128583-2.207941873351956-1.471981937915189-3.259338923176983-.578266205057844-1.051390843123954-1.156519996708084-2.102781686247909-1.787344571856011-3.101595539170376-.683407772052306-.998813852922467-1.366827957513124-1.945069335753942-2.102794099654602-2.891340335347195-.788524512230651-.893681595985981-1.5770738512756-1.787363191971963-2.418206387227656-2.681044787954306-.420541441159912-.420550751216069-.893678492632716-.893684699334699-1.366803130697008-1.314229243846057-2.365623190322367-1.839949492226879-4.836412774455312-3.574757417460205-7.307165118364537-5.151837475437787-.367983071070739-.210357614439999-.683407772052306-.367992381128715-1.051403256531557-.525710938323755-1.734811028582953-1.103946109858953-3.364468076764751-1.682234038380557-4.994112711538037-2.207913943184394l-.000099307265373-.000294818441034Z" style="fill:#e0234e; fill-rule:evenodd; stroke-width:0px;"/></svg>