<?xml version="1.0" encoding="UTF-8"?><svg id="Layer_1" xmlns="http://www.w3.org/2000/svg" width="255.999984741210938" height="249.599990844726562" xmlns:xlink="http://www.w3.org/1999/xlink" viewBox="0 0 255.999984741210938 249.599990844726562"><defs><linearGradient id="linear-gradient" x1=".948747125841692" y1="69.724106312670301" x2="1.263196025907232" y2="70.176437843967534" gradientTransform="translate(-.942223864723928 -10808.480256746406667) scale(135.833602905273438 157.646224975585938)" gradientUnits="userSpaceOnUse"><stop offset="0" stop-color="#fff"/><stop offset="1" stop-color="#fff" stop-opacity="0"/></linearGradient><linearGradient id="linear-gradient-2" x1="1.084911996366827" y1="69.175644575231672" x2="1.084381813979261" y2="70.012467095858455" gradientTransform="translate(154.291853459682898 -7019.721484832756687) scale(17.066667556762695 102.400001525878906)" xlink:href="#linear-gradient"/></defs><g id="Layer_2"><g id="Surfaces"><g id="Photo_Surface"><g id="Outline_no_shadow"><path d="m45.333332061767578,0h165.333324432373047c25.066665649414062,0,45.333328247070312,20.266666412353516,45.333328247070312,45.333332061767578v158.933330535888672c0,25.066665649414062-20.26666259765625,45.333328247070312-45.333328247070312,45.333328247070312H45.333332061767578c-25.066667556762695,0-45.333332061767578-20.26666259765625-45.333332061767578-45.333328247070312V45.333332061767578C0,20.266666412353516,20.266666412353516,0,45.333332061767578,0Z" style="stroke-width:0px;"/></g></g></g></g><path d="m219.002212524414062,231.668350219726562L88.759307861328125,63.901565551757812h-24.539451599121094v116.636154174804688h19.631561279296875v-91.705169677734375l119.740318298339844,154.70684814453125c5.403152465820312-3.615615844726562,10.550247192382812-7.584518432617188,15.410491943359375-11.871063232421875l-.000015258789062.000015258789062Z" style="fill:url(#linear-gradient); stroke-width:0px;"/><rect x="163.077789306640625" y="63.901565551757812" width="19.447463989257812" height="116.684799194335938" style="fill:url(#linear-gradient-2); stroke-width:0px;"/></svg>