<?xml version="1.0" encoding="UTF-8"?><svg id="Layer_1" xmlns="http://www.w3.org/2000/svg" width="255.999984741210028" height="249.599990844727472" viewBox="0 0 255.999984741210028 249.599990844727472"><g id="Layer_2"><g id="Surfaces"><g id="Photo_Surface"><g id="Outline_no_shadow"><path d="m45.333332061767578,0h165.333324432372137c25.066665649414062,0,45.333328247070312,20.266666412352606,45.333328247070312,45.333332061766669v158.933330535890491c0,25.066665649414062-20.26666259765625,45.333328247070312-45.333328247070312,45.333328247070312H45.333332061767578c-25.066667556762695,0-45.333332061767578-20.26666259765625-45.333332061767578-45.333328247070312V45.333332061766669C0,20.266666412352606,20.266666412353516,0,45.333332061767578,0Z" style="fill:#fff; stroke-width:0px;"/></g></g></g></g><rect x="18.30986637694059" y="128.271520642215364" width="219.342556239223995" height="2.009408423109562" style="fill:#8e8b8c; stroke-width:0px;"/><rect x="18.30986637694059" y="128.271520642215364" width="219.342556239223995" height="2.009408423109562" style="fill:#737a80; stroke-width:0px;"/><path d="m112.958263631462614,104.089698234408388h14.555059752445231l-7.687682120503268-12.397962764007389-14.122402583923758,22.399713719523788-6.434157840315493.009283281249736,17.173507687809433-26.898166763616246c.737036268870725-1.078548494218921,1.991123172165317-1.751445729005354,3.364486173933074-1.751445729005354,1.354796439267375,0,2.590316780062494.636045421342715,3.31835107923871,1.7053106343119l17.237646721892816,26.9443018583097-6.434157840314583-.009283281249736-3.032538541387112-5.005376462606364h-14.730598161518174l-3.207514327356876-4.996374492910036" style="fill:#d2d3d9; stroke-width:0px;"/><path d="m179.716870898028901,109.08494748110661v-23.358423492161819h-5.466446097980224v25.653925764676387c0,.700465766982234.303816477244254,1.382646283016584.811302518861339,1.880286420282573.524927357910201.534773262261297,1.234957717690122.829869081360812,1.991123172167136.829869081360812h24.851625215509557l3.235645482654945-5.005657774157953h-25.423250291212753" style="fill:#d2d3d9; stroke-width:0px;"/><path d="m89.49125387984077,104.90718960743925c5.309474251404026,0,9.576970510480351-4.295346102822805,9.576970510480351-9.586535103282586,0-5.300472281707698-4.267496259076324-9.596099696082092-9.576970510480351-9.596099696082092h-23.865909533781632v28.3730832360161h5.447879535482571v-23.358423492161819h18.048949240757793c2.53517971567544,0,4.590441921924139,2.046541548106688,4.590441921924139,4.581439952227811,0,2.516331841625288-2.055262206248699,4.599725203173875-4.590441921924139,4.599725203173875l-15.375364241005627-.009283281247917,16.278936949255694,14.18654161800805h7.918357593965993l-10.941894165656777-9.190448436651423h2.489044620981986" style="fill:#d2d3d9; stroke-width:0px;"/><path d="m32.062625580217173,114.095106240115456c-7.835089374276322,0-14.18654161800805-6.34216896248472-14.18654161800805-14.177258336760133,0-7.83537068583064,6.351452243731728-14.186541618009869,14.18654161800805-14.186541618009869h16.491045860221675c7.844653967077647,0,14.158973085813159,6.35117093217923,14.158973085813159,14.186541618009869,0,7.835089374275412-6.314319118735511,14.18654161800805-14.158973085813159,14.18654161800805l-16.491045860221675-.009283281247917m16.113525756089075-4.996374492911855c5.08780074763672,0,9.189885813545516-4.111087035604214,9.189885813545516-9.180883843848278,0-5.079361401049027-4.102085065908796-9.181165155403505-9.189885813545516-9.181165155403505h-15.744444998545987c-5.079361401047208,0-9.171881874154678,4.101803754354478-9.171881874154678,9.181165155403505,0,5.069796808244064,4.09252047310747,9.180883843848278,9.171881874154678,9.180883843848278h15.744444998545987" style="fill:#d2d3d9; stroke-width:0px;"/><path d="m151.757878268032982,114.094824928560229c-7.844653967078557,0-14.214672773309758-6.341887650929493-14.214672773309758-14.177258336758314,0-7.835089374277231,6.370018806231201-14.186541618009869,14.214672773309758-14.186541618009869h19.588286058798985l-3.226643512960436,5.005376462606364h-16.002689004204512c-5.08780074763763,0-9.189885813545516,4.102085065907886-9.189885813545516,9.181165155403505,0,5.070078119797472,4.102085065907886,9.181165155401686,9.189885813545516,9.181165155401686h19.652987715990093l-3.198512357659638,4.996093181356628h-16.813428899964492" style="fill:#d2d3d9; stroke-width:0px;"/><path d="m218.452909123619065,109.098731747203601c-4.194355255294795,0-7.743381807998958-2.820710941974539-8.82193030221606-6.682837253170874h23.29372183497253l3.217078920159111-4.996374492910036h-26.51080075513164c1.069546524522593-3.871409592446071,4.627575046921265-6.682837253170874,8.82193030221606-6.682837253170874h16.002126381099515l3.198512357659638-5.005376462606364h-19.560154903498187c-7.826087404580903,0-14.18654161800805,6.35117093217923-14.18654161800805,14.186541618009869,0,7.835089374275412,6.360454213427147,14.177258336760133,14.18654161800805,14.177258336760133h16.822430869659001l3.208076950460963-4.996374492911855h-19.670991655380931" style="fill:#d2d3d9; stroke-width:0px;"/><path d="m112.958263631462614,104.089698234408388h14.555059752445231l-7.687682120503268-12.397962764007389-14.122402583923758,22.399713719523788-6.434157840315493.009283281249736,17.173507687809433-26.898166763616246c.737036268870725-1.078548494218921,1.991123172165317-1.751445729005354,3.364486173933074-1.751445729005354,1.354796439267375,0,2.590316780062494.636045421342715,3.31835107923871,1.7053106343119l17.237646721892816,26.9443018583097-6.434157840314583-.009283281249736-3.032538541387112-5.005376462606364h-14.730598161518174l-3.207514327356876-4.996374492910036" style="fill:#e43334; stroke-width:0px;"/><path d="m179.716870898028901,109.08494748110661v-23.358423492161819h-5.466446097980224v25.653925764676387c0,.700465766982234.303816477244254,1.382646283016584.811302518861339,1.880286420282573.524927357910201.534773262261297,1.234957717690122.829869081360812,1.991123172167136.829869081360812h24.851625215509557l3.235645482654945-5.005657774157953h-25.423250291212753" style="fill:#e43334; stroke-width:0px;"/><path d="m89.49125387984077,104.90718960743925c5.309474251404026,0,9.576970510480351-4.295346102822805,9.576970510480351-9.586535103282586,0-5.300472281707698-4.267496259076324-9.596099696082092-9.576970510480351-9.596099696082092h-23.865909533781632v28.3730832360161h5.447879535482571v-23.358423492161819h18.048949240757793c2.53517971567544,0,4.590441921924139,2.046541548106688,4.590441921924139,4.581439952227811,0,2.516331841625288-2.055262206248699,4.599725203173875-4.590441921924139,4.599725203173875l-15.375364241005627-.009283281247917,16.278936949255694,14.18654161800805h7.918357593965993l-10.941894165656777-9.190448436651423h2.489044620981986" style="fill:#e43334; stroke-width:0px;"/><path d="m32.062625580217173,114.095106240115456c-7.835089374276322,0-14.18654161800805-6.34216896248472-14.18654161800805-14.177258336760133,0-7.83537068583064,6.351452243731728-14.186541618009869,14.18654161800805-14.186541618009869h16.491045860221675c7.844653967077647,0,14.158973085813159,6.35117093217923,14.158973085813159,14.186541618009869,0,7.835089374275412-6.314319118735511,14.18654161800805-14.158973085813159,14.18654161800805l-16.491045860221675-.009283281247917m16.113525756089075-4.996374492911855c5.08780074763672,0,9.189885813545516-4.111087035604214,9.189885813545516-9.180883843848278,0-5.079361401049027-4.102085065908796-9.181165155403505-9.189885813545516-9.181165155403505h-15.744444998545987c-5.079361401047208,0-9.171881874154678,4.101803754354478-9.171881874154678,9.181165155403505,0,5.069796808244064,4.09252047310747,9.180883843848278,9.171881874154678,9.180883843848278h15.744444998545987" style="fill:#e43334; stroke-width:0px;"/><path d="m151.757878268032982,114.094824928560229c-7.844653967078557,0-14.214672773309758-6.341887650929493-14.214672773309758-14.177258336758314,0-7.835089374277231,6.370018806231201-14.186541618009869,14.214672773309758-14.186541618009869h19.588286058798985l-3.226643512960436,5.005376462606364h-16.002689004204512c-5.08780074763763,0-9.189885813545516,4.102085065907886-9.189885813545516,9.181165155403505,0,5.070078119797472,4.102085065907886,9.181165155401686,9.189885813545516,9.181165155401686h19.652987715990093l-3.198512357659638,4.996093181356628h-16.813428899964492" style="fill:#e43334; stroke-width:0px;"/><path d="m218.452909123619065,109.098731747203601c-4.194355255294795,0-7.743381807998958-2.820710941974539-8.82193030221606-6.682837253170874h23.29372183497253l3.217078920159111-4.996374492910036h-26.51080075513164c1.069546524522593-3.871409592446071,4.627575046921265-6.682837253170874,8.82193030221606-6.682837253170874h16.002126381099515l3.198512357659638-5.005376462606364h-19.560154903498187c-7.826087404580903,0-14.18654161800805,6.35117093217923-14.18654161800805,14.186541618009869,0,7.835089374275412,6.360454213427147,14.177258336760133,14.18654161800805,14.177258336760133h16.822430869659001l3.208076950460963-4.996374492911855h-19.670991655380931" style="fill:#e43334; stroke-width:0px;"/><path d="m18.265981774672582,144.305997851909524h6.627700188782001c6.047073143381567-.045853783141865,9.807645983943985,2.968399507301001,9.807645983943985,9.715938417662983,0,6.756822191611718-3.760572840562418,9.780358763302502-9.807645983943985,9.706655136415065h-6.627700188782001v-19.422593554078048m4.175788692796232,16.205233322367349h2.156534365331026c4.950520709771808.046135094693454,5.669553039249877-3.392054706126146,5.669553039249877-6.489294904704366s-.719032329478068-6.535711310949409-5.669553039249877-6.480292935008038h-2.156534365331026v12.969587839712403Z" style="fill:#272325; stroke-width:0px;"/><path d="m47.702985304153117,163.73421763704664l7.03335144821358-19.42231224252464h4.949958086664992l6.747538910361982,19.42231224252464h-4.193792632188888l-1.401494157067646-4.111368347157622h-7.696684090199597l-1.447629251759281,4.111368347157622h-3.991248314025142Zm12.085144317066806-7.33773054856465l-2.655018437255421-8.286875728401355h-.064701657192018l-2.847998162615113,8.286875728401355h5.567718257062552Z" style="fill:#272325; stroke-width:0px;"/><polygon points="76.575115235199519 144.305997851909524 92.328562203443653 144.305997851909524 92.328562203443653 147.541643334564469 86.539733065719702 147.541643334564469 86.539733065719702 163.728591405987572 82.372946342618889 163.728591405987572 82.372946342618889 147.541643334564469 76.575115235199519 147.541643334564469 76.575115235199519 144.305997851909524" style="fill:#272325; stroke-width:0px;"/><path d="m102.952574314203957,163.73421763704664l7.024349478519071-19.42231224252464h4.958960056360411l6.747538910361072,19.42231224252464h-4.193792632187069l-1.401494157069465-4.111368347157622h-7.706248683000013l-1.447066628654284,4.111368347157622h-3.982246344329724Zm12.085144317066806-7.33773054856465l-2.66402040695084-8.286875728401355h-.05569968749478l-2.857562755418257,8.286875728401355h5.577282849863877Z" style="fill:#272325; stroke-width:0px;"/><path d="m135.271896015767197,163.728591405987572v-19.422593554078048h7.291595453872105c3.465758333013582-.211827599414391,7.023786855412254,1.244522310489629,7.023786855412254,5.033226306353754,0,2.13853042593837-1.483637130545503,3.604163617090308-3.419623238320128,4.258494289379087v.046135094691635c2.451911495985769.507204730067315,4.27706085187674,2.212515364379215,4.27706085187674,5.060794838549555,0,3.853124341500006-4.839683957886336,5.254337187014244-7.817085434883666,5.023943025104018h-7.355734487957307m7.43000073795065-11.61479140044321c1.750883105897628,0,2.719157471340623-.728315610729624,2.719157471340623-2.295220960962979,0-1.54862009928911-.968274365442994-2.276935710016915-2.719157471340623-2.276935710016915h-3.254212045153508v4.572156670979894h3.254212045153508Zm0,8.39743116873251c1.962992016864519,0,3.308786486436475-.350232883491117,3.308786486436475-2.581033498814577,0-2.239802585019788-1.345794469571956-2.590035468510905-3.308786486436475-2.590035468510905h-3.254212045153508v5.171068967325482h3.254212045153508Z" style="fill:#272325; stroke-width:0px;"/><path d="m163.152684034028425,163.73421763704664l7.024349478516342-19.42231224252464h4.949958086664992l6.75654088005831,19.42231224252464h-4.193792632187979l-1.401494157067646-4.111368347157622h-7.696684090198687l-1.456631221457428,4.111368347157622h-3.982246344327905Zm12.085144317064078-7.33773054856465l-2.673584999753075-8.286875728401355h-.046135094693454l-2.847998162615113,8.286875728401355h5.567718257061642Z" style="fill:#272325; stroke-width:0px;"/><path d="m205.858590895616544,149.851492496282845c-.165973816274345-1.963273328417927-1.207951808602957-2.931266382303875-3.226643512960436-2.931266382303875-1.539336818041193,0-3.09724019857822.802019237613422-3.09724019857822,2.498046590677404,0,2.10195992404806,1.880286420280754,2.350639336904351,3.549026552700525,2.747007315087103,2.96839950730282.746600861673869,7.319163986066997,1.585471912732828,7.319163986066997,5.494014630176025,0,4.821117395387773-4.194355255294795,6.489576216255955-8.360579355285154,6.489576216255955-4.452599260952411,0-7.595974554224085-1.723877196809553-7.45756927014736-6.627981500334499h4.249492319682759c-.156971846576198,2.147813707188106,1.068983901415777,3.604444928643716,3.253649422047602,3.604444928643716,1.668740132423409,0,3.871972215554706-.506923418513907,3.871972215554706-2.572031529118249,0-2.29522096096116-2.765292566033168-2.451911495985769-4.434032698456576-2.894414568861976-2.719157471339713-.663613953536696-6.434157840314583-1.908136264028144-6.434157840314583-5.355609346097481,0-4.424749417205021,4.083518503412051-6.397306026870865,8.074766817437194-6.397306026870865,3.761135463668325,0,6.701966438773525,2.037258266858771,6.701966438773525,5.945519672746741h-4.009814876520977" style="fill:#272325; stroke-width:0px;"/><polygon points="224.565246547296738 144.305997851909524 237.589971451398924 144.305997851909524 237.589971451398924 147.541643334564469 228.731470647290735 147.541643334564469 228.731470647290735 152.086231473350381 237.027910968497054 152.086231473350381 237.027910968497054 155.312312363202182 228.731470647290735 155.312312363202182 228.731470647290735 160.511512485830281 237.884785958948669 160.511512485830281 237.884785958948669 163.728591405987572 224.565246547296738 163.728591405987572 224.565246547296738 144.305997851909524" style="fill:#272325; stroke-width:0px;"/><path d="m18.265981774672582,144.305997851909524h6.627700188782001c6.047073143381567-.045853783141865,9.807645983943985,2.968399507301001,9.807645983943985,9.715938417662983,0,6.756822191611718-3.760572840562418,9.780358763302502-9.807645983943985,9.706655136415065h-6.627700188782001v-19.422593554078048m4.175788692796232,16.205233322367349h2.156534365331026c4.950520709771808.046135094693454,5.669553039249877-3.392054706126146,5.669553039249877-6.489294904704366s-.719032329478068-6.535711310949409-5.669553039249877-6.480292935008038h-2.156534365331026v12.969587839712403Z" style="fill:#272325; stroke-width:0px;"/><path d="m47.702985304153117,163.73421763704664l7.03335144821358-19.42231224252464h4.949958086664992l6.747538910361982,19.42231224252464h-4.193792632188888l-1.401494157067646-4.111368347157622h-7.696684090199597l-1.447629251759281,4.111368347157622h-3.991248314025142Zm12.085144317066806-7.33773054856465l-2.655018437255421-8.286875728401355h-.064701657192018l-2.847998162615113,8.286875728401355h5.567718257062552Z" style="fill:#272325; stroke-width:0px;"/><polygon points="76.575115235199519 144.305997851909524 92.328562203443653 144.305997851909524 92.328562203443653 147.541643334564469 86.539733065719702 147.541643334564469 86.539733065719702 163.728591405987572 82.372946342618889 163.728591405987572 82.372946342618889 147.541643334564469 76.575115235199519 147.541643334564469 76.575115235199519 144.305997851909524" style="fill:#272325; stroke-width:0px;"/><path d="m102.952574314203957,163.73421763704664l7.024349478519071-19.42231224252464h4.958960056360411l6.747538910361072,19.42231224252464h-4.193792632187069l-1.401494157069465-4.111368347157622h-7.706248683000013l-1.447066628654284,4.111368347157622h-3.982246344329724Zm12.085144317066806-7.33773054856465l-2.66402040695084-8.286875728401355h-.05569968749478l-2.857562755418257,8.286875728401355h5.577282849863877Z" style="fill:#272325; stroke-width:0px;"/><path d="m135.271896015767197,163.728591405987572v-19.422593554078048h7.291595453872105c3.465758333013582-.211827599414391,7.023786855412254,1.244522310489629,7.023786855412254,5.033226306353754,0,2.13853042593837-1.483637130545503,3.604163617090308-3.419623238320128,4.258494289379087v.046135094691635c2.451911495985769.507204730067315,4.27706085187674,2.212515364379215,4.27706085187674,5.060794838549555,0,3.853124341500006-4.839683957886336,5.254337187014244-7.817085434883666,5.023943025104018h-7.355734487957307m7.43000073795065-11.61479140044321c1.750883105897628,0,2.719157471340623-.728315610729624,2.719157471340623-2.295220960962979,0-1.54862009928911-.968274365442994-2.276935710016915-2.719157471340623-2.276935710016915h-3.254212045153508v4.572156670979894h3.254212045153508Zm0,8.39743116873251c1.962992016864519,0,3.308786486436475-.350232883491117,3.308786486436475-2.581033498814577,0-2.239802585019788-1.345794469571956-2.590035468510905-3.308786486436475-2.590035468510905h-3.254212045153508v5.171068967325482h3.254212045153508Z" style="fill:#272325; stroke-width:0px;"/><path d="m163.152684034028425,163.73421763704664l7.024349478516342-19.42231224252464h4.949958086664992l6.75654088005831,19.42231224252464h-4.193792632187979l-1.401494157067646-4.111368347157622h-7.696684090198687l-1.456631221457428,4.111368347157622h-3.982246344327905Zm12.085144317064078-7.33773054856465l-2.673584999753075-8.286875728401355h-.046135094693454l-2.847998162615113,8.286875728401355h5.567718257061642Z" style="fill:#272325; stroke-width:0px;"/><path d="m205.858590895616544,149.851492496282845c-.165973816274345-1.963273328417927-1.207951808602957-2.931266382303875-3.226643512960436-2.931266382303875-1.539336818041193,0-3.09724019857822.802019237613422-3.09724019857822,2.498046590677404,0,2.10195992404806,1.880286420280754,2.350639336904351,3.549026552700525,2.747007315087103,2.96839950730282.746600861673869,7.319163986066997,1.585471912732828,7.319163986066997,5.494014630176025,0,4.821117395387773-4.194355255294795,6.489576216255955-8.360579355285154,6.489576216255955-4.452599260952411,0-7.595974554224085-1.723877196809553-7.45756927014736-6.627981500334499h4.249492319682759c-.156971846576198,2.147813707188106,1.068983901415777,3.604444928643716,3.253649422047602,3.604444928643716,1.668740132423409,0,3.871972215554706-.506923418513907,3.871972215554706-2.572031529118249,0-2.29522096096116-2.765292566033168-2.451911495985769-4.434032698456576-2.894414568861976-2.719157471339713-.663613953536696-6.434157840314583-1.908136264028144-6.434157840314583-5.355609346097481,0-4.424749417205021,4.083518503412051-6.397306026870865,8.074766817437194-6.397306026870865,3.761135463668325,0,6.701966438773525,2.037258266858771,6.701966438773525,5.945519672746741h-4.009814876520977" style="fill:#272325; stroke-width:0px;"/><polygon points="224.565246547296738 144.305997851909524 237.589971451398924 144.305997851909524 237.589971451398924 147.541643334564469 228.731470647290735 147.541643334564469 228.731470647290735 152.086231473350381 237.027910968497054 152.086231473350381 237.027910968497054 155.312312363202182 228.731470647290735 155.312312363202182 228.731470647290735 160.511512485830281 237.884785958948669 160.511512485830281 237.884785958948669 163.728591405987572 224.565246547296738 163.728591405987572 224.565246547296738 144.305997851909524" style="fill:#272325; stroke-width:0px;"/></svg>