<?xml version="1.0" encoding="UTF-8"?><svg id="Layer_1" xmlns="http://www.w3.org/2000/svg" width="255.999984741210938" height="249.599990844727472" viewBox="0 0 255.999984741210938 249.599990844727472"><g id="Layer_2"><g id="Surfaces"><g id="Photo_Surface"><g id="Outline_no_shadow"><path d="m45.333332061767578,0h165.333324432373047c25.066665649414062,0,45.333328247070312,20.266666412353516,45.333328247070312,45.333332061767578v158.933330535889581c0,25.066665649414062-20.26666259765625,45.333328247070312-45.333328247070312,45.333328247070312H45.333332061767578c-25.066667556762695,0-45.333332061767578-20.26666259765625-45.333332061767578-45.333328247070312V45.333332061767578C0,20.266666412353516,20.266666412353516,0,45.333332061767578,0Z" style="fill:#001e36; stroke-width:0px;"/></g></g></g></g><g id="Outlined_Mnemonics_Logos"><g id="Ps"><path d="m50.982217512329044,178.773341369630543v-109.760005696615735c0-.746667480468204.319999186197492-1.173331705728742,1.066666666666606-1.173331705728742,1.81333414713481,0,3.51999918619731,0,5.973331705728924-.106665039063046,2.560001627603924-.106665039062136,5.226668294270894-.106665039062136,8.106665039062136-.213334147135356,2.879996744792152-.106665039062136,5.973331705729834-.106665039062136,9.279996744791788-.213334147135356,3.306665039062864-.106665039062136,6.506665039062682-.106665039062136,9.7066650390625-.106665039062136,8.74666341145803,0,16,1.066666666666606,21.973331705728924,3.306665039062864,5.33333333333394,1.81333414713481,10.239998372396258,4.800004069010356,14.2933349609375,8.746667480468204,3.413330078126819,3.413330078125,6.079996744792879,7.573331705729288,7.786669921877547,12.160001627604288,1.599991861978197,4.479996744790697,2.453328450519621,9.066666666665697,2.453328450519621,13.866666666666788,0,9.173331705727833-2.133333333333212,16.74666341145894-6.399999999999636,22.719995117187864-4.266666666668243,5.973331705728924-10.239998372397167,10.453336588539969-17.173331705730561,13.013330078125364-7.25333658854197,2.66666666666606-15.25333658854197,3.626660156249272-24,3.626660156249272-2.560001627603924,0-4.266666666666424,0-5.33333333333303-.106673177084303s-2.560001627604834-.106673177082484-4.586669921875-.106673177082484v34.239990234375c.106665039062136.74666341145894-.426668294270712,1.386669921874272-1.173331705729652,1.49332682291606h-20.693322753905704c-.85333251953125.000032552083212-1.280000813801962-.426627604165333-1.280000813801962-1.386621093748545Zm23.25333658854106-90.346671549479652v35.839998372395712c1.493334960937318.106665039062136,2.879996744792152.213330078124272,4.160001627604288.213330078124272h5.653328450521258c4.160001627603378,0,8.320003255207666-.639998372394984,12.266666666666424-1.920003255207121,3.413330078125-.960001627605379,6.399999999999636-2.986669921876455,8.74666341145803-5.653336588542516,2.239998372396258-2.66666666666606,3.306665039062864-6.2933349609375,3.306665039062864-10.986669921874636.106665039062136-3.306665039062864-.74666341145894-6.613330078125728-2.453336588541788-9.493334960938228-1.813330078124636-2.773331705728197-4.37333170572947-4.906665039063228-7.466666666667152-6.07999674479106-3.946663411457848-1.600000000000364-8.213330078124272-2.239998372397167-12.586669921875-2.133333333333212-2.773331705729106,0-5.226668294269984,0-7.25333658854106.106665039062136-2.133317057291606-.106656901041788-3.626652018228924.000016276042516-4.373315429687864.106681315104652h0Z" style="fill:#31a8ff; stroke-width:0px;"/><path d="m198.182217512328862,117.760003153484831c-3.199999999998909-1.7066650390625-6.613330078123909-2.879996744792152-10.240006510415697-3.62666829427144-3.946663411457848-.853336588543243-7.893326822915697-1.386669921876091-11.946663411457848-1.386669921876091-2.133333333335031-.106665039062136-4.373339843750728.213330078126091-6.400000000001455.74666341145894-1.386669921874272.320003255208576-2.559993489583576,1.066666666667516-3.306673177081393,2.133333333333212-.533333333334667.853336588541424-.853336588543243,1.92000325520894-.853336588543243,2.879996744792152,0,.96000162760356.426660156250364,1.920003255207121,1.066666666667516,2.773331705728197.959993489583212,1.173331705729652,2.240006510415697,2.133333333335031,3.626660156249272,2.879996744792152,2.453336588541788,1.279996744791788,5.013330078125364,2.453336588541788,7.573339843751455,3.520003255209303,5.759993489582484,1.920003255207121,11.306673177081393,4.586669921875,16.426660156248545,7.786669921873909,3.520003255209303,2.239998372397167,6.400000000001455,5.226668294271803,8.426660156250364,8.853328450521076,1.706673177082848,3.413330078125,2.559993489583576,7.146663411458576,2.453336588541788,10.986669921874636.106673177084303,5.013330078125364-1.386669921874272,10.026660156250728-4.15999348958394,14.186669921875364-2.986669921874636,4.266666666666424-7.146663411456757,7.573339843749636-11.946663411457848,9.49332682291606-5.226660156249636,2.240006510417516-11.626660156251091,3.413330078125-19.306673177083212,3.413330078125-4.906673177083576,0-9.706673177082848-.426660156248545-14.50667317708394-1.386669921874272-3.733333333331757-.640006510417152-7.466666666665333-1.813330078124636-10.879996744790333-3.413330078125-.74666341145894-.426660156250364-1.279996744793607-1.17333984375-1.17333984375-2.026660156250728v-18.559993489581757c0-.320003255208576.106673177082484-.74666341145894.426660156248545-.959993489585031.320003255208576-.213330078124272.640006510417152-.106673177082484.959993489585031.106673177084303,4.159993489582121,2.453336588541788,8.533333333332848,4.15999348958394,13.226660156247817,5.226660156249636,4.053336588542152,1.066666666667516,8.320003255208576,1.600000000000364,12.586669921875,1.600000000000364,4.053336588542152,0,6.933333333334303-.533333333332848,8.853336588541424-1.49332682291606,1.706673177084667-.74666341145894,2.879996744792152-2.559993489583576,2.879996744792152-4.479996744792516,0-1.49332682291606-.853336588541424-2.879996744792152-2.559993489583576-4.266666666666424-1.706673177082848-1.386669921874272-5.226660156247817-2.986669921874636-10.453336588539969-5.013330078125364-5.440006510416424-1.92000325520894-10.453336588543607-4.479996744790697-15.146663411458576-7.679996744791424-3.306673177085031-2.346663411459303-6.079996744792879-5.439998372396076-8.106673177084303-9.066666666665697-1.706673177082848-3.413330078125-2.559993489583576-7.146663411458576-2.453336588539969-10.879996744792152,0-4.586669921875,1.279996744789969-8.960001627605379,3.626660156249272-12.906665039063228,2.66666666666606-4.266666666666424,6.613330078125728-7.679996744791424,11.200000000000728-9.813330078124636,5.013330078123545-2.560001627603924,11.306673177081393-3.733333333333576,18.879996744790333-3.733333333333576,4.373339843748909,0,8.853336588541424.320003255208576,13.226660156249636.96000162760356,3.200000000000728.426668294272531,6.293326822917152,1.279996744793607,9.17333984375,2.453336588543607.426660156250364.106665039060317.853336588541424.533333333332848,1.066666666667516.960001627601741.106673177082484.426668294272531.213330078124272.853336588543243.213330078124272,1.279996744793607v17.386661783853924c0,.426668294270712-.213330078124272.853336588541424-.533333333332848,1.066666666665697-.959944661457484.213305664063228-1.493277994792152.213305664063228-1.919938151042516-.000024414061045Z" style="fill:#31a8ff; stroke-width:0px;"/></g></g></svg>