<?xml version="1.0" encoding="UTF-8"?><svg id="Layer_1" xmlns="http://www.w3.org/2000/svg" width="255.999984741208209" height="249.599990844728381" viewBox="0 0 255.999984741208209 249.599990844728381"><g id="Layer_2"><g id="Surfaces"><g id="Photo_Surface"><g id="Outline_no_shadow"><path d="m45.333332061767578,0h165.333324432370318c25.066665649414062,0,45.333328247070312,20.266666412353516,45.333328247070312,45.333332061767578v158.933330535890491c0,25.066665649414062-20.26666259765625,45.333328247070312-45.333328247070312,45.333328247070312H45.333332061767578c-25.066667556762695,0-45.333332061767578-20.26666259765625-45.333332061767578-45.333328247070312V45.333332061767578C0,20.266666412353516,20.266666412353516,0,45.333332061767578,0Z" style="fill:#777bb3; stroke-width:0px;"/></g></g></g></g><path id="a" d="m74.265785230718393,95.627848339974662h-30.763355105063056c-.70743152698833-.040126593914465-1.356154237466399.392363306373227-1.591208022676255,1.06080534845205l-14.320872204080842,74.786777065755814c0,1.591208022677165,1.591208022675346,1.591208022677165,1.591208022675346,1.591208022677165h15.912080226757098c1.591208022675346,0,1.591208022675346-1.06080534845205,1.591208022675346-1.06080534845205l3.712818719576717-18.564093597882675h14.320872204080842c22.276912317459391,0,33.415368476189542-14.851274878305048,36.067381847315119-28.11134173393657,2.652013371126486-13.260066855631521.530402674226025-29.702549756613735-26.520133711260314-29.702549756613735Zm6.895234764927409,28.641744408163504c-2.121610696900461,10.07765081027901-9.01684546182878,14.320872204081752-18.564093597882675,14.320872204081752h-9.547248136053895l5.834429416477178-28.11134173393657h9.547248136053895c14.320872204080842,0,13.790469529856637,5.304026742251153,12.729664181405496,13.790469529854818Z" style="stroke:#fff; stroke-width:6px;"/><path d="m137.914106137744966,153.441739830524966c-2.121610696900461,0-1.591208022675346-2.121610696900461-1.591208022675346-2.121610696900461l6.364832090703203-32.354563127739311c0-4.243221393800923,3.182416045350692-8.486442787601845-9.547248136054804-7.956040113378549h-9.547248136053895l-7.956040113378549,41.371408589568091s0,1.591208022677165-2.121610696900461,1.591208022677165h-15.381677552531983c-1.591208022675346,0-1.591208022675346-1.591208022677165-1.591208022675346-1.591208022677165l14.851274878305958-74.786777065755814s0-1.06080534845205,2.121610696901371-1.06080534845205h15.912080226756188c1.591208022675346,0,1.06080534845114,1.591208022677165,1.06080534845114,1.591208022677165l-3.712818719576717,18.033690923657559h13.790469529855727c19.09449627210779,0,23.868120340135647,9.01684546182878,22.276912317460301,19.624898946332905l-6.895234764928318,36.597784521540234s0,1.591208022677165-2.652013371126486,1.591208022677165l-15.381677552531983-.530402674226934Z" style="stroke:#fff; stroke-width:6px;"/><path id="a-2" d="m201.032024370545514,95.627848339974662h-30.763355105061237c-.70743152698833-.040126593914465-1.356154237466399.392363306373227-1.591208022675346,1.06080534845205l-14.320872204081752,74.786777065755814c0,1.591208022677165,1.591208022676255,1.591208022677165,1.591208022676255,1.591208022677165h15.912080226756188c1.591208022675346,0,1.591208022675346-1.06080534845205,1.591208022675346-1.06080534845205l3.712818719577626-18.564093597882675h14.320872204079933c22.276912317459391,0,33.415368476188632-14.851274878305048,36.067381847316028-28.11134173393657,2.652013371125577-13.260066855631521.530402674225115-29.702549756613735-26.520133711263043-29.702549756613735Zm6.895234764930137,28.641744408163504c-2.12161069690228,10.07765081027901-9.01684546182878,14.320872204081752-18.564093597883584,14.320872204081752h-9.547248136053895l5.834429416477178-28.11134173393657h9.547248136053895c14.320872204081752,0,13.790469529856637,5.304026742251153,12.729664181406406,13.790469529854818Z" style="stroke:#fff; stroke-width:6px;"/></svg>