<?xml version="1.0" encoding="UTF-8"?><svg id="Layer_1" xmlns="http://www.w3.org/2000/svg" width="255.999984741209119" height="249.599990844728381" viewBox="0 0 255.999984741209119 249.599990844728381"><g id="Layer_2"><g id="Surfaces"><g id="Photo_Surface"><g id="Outline_no_shadow"><path d="m45.333332061767578,0h165.333324432371228c25.066665649414062,0,45.333328247070312,20.266666412353516,45.333328247070312,45.333332061767578v158.933330535890491c0,25.066665649414062-20.26666259765625,45.333328247070312-45.333328247070312,45.333328247070312H45.333332061767578c-25.066667556762695,0-45.333332061767578-20.26666259765625-45.333332061767578-45.333328247070312V45.333332061767578C0,20.266666412353516,20.266666412353516,0,45.333332061767578,0Z" style="fill:#fff; stroke-width:0px;"/></g></g></g></g><path d="m176.18701835435877,170.651391023635369c1.279793587704262-10.655434911917837.897066740747505-12.218708696400427,8.832951865808354-10.493432985738764l2.014858402273603.178192849181869c6.103282752073937.277424050003901,14.087771544857787-.982115434588195,18.7755999316405-3.160984179061415,10.096539081150695-4.683780656032468,16.082375844020135-12.508291388014186,6.127584585934528-10.452940228871739-22.710117816764068,4.683780656032468-24.271383185225204-3.003045432989893-24.271383185225204-3.003045432989893,23.981815942965113-35.580881948624665,34.007473387908249-80.74598694998167,25.354753686011463-91.80236349723782-23.599089096007447-30.155968744233178-64.450997096038918-15.896075946318888-65.135434377509227-15.525503878632662l-.218701055404381.04252434691989c-4.487357569114465-.933515629201793-9.507269820400325-1.488357935706517-15.148864077157668-1.57948208801281-10.276763520387249-.16807352230353-18.074948553133254,2.695246021825369-23.989911404467421,7.180572000886968,0,0-72.876920281028106-30.024344110383026-69.487107995008046,37.757734552398688.720893894602341,14.419866996375276,20.668949164604783,109.109853802772705,44.460405892101335,80.509067243860045,8.69525177349351-10.456987959623802,17.098912439349078-19.300059152308677,17.098912439349078-19.300059152308677,4.17348076831513,2.772193460654307,9.169098910416324,4.185631685244516,14.40974380715943,3.677363387581863l.404997090765391-.344242506111186c-.12554917538364,1.298008376084908-.070873911533454,2.567667187558982.164025791553286,4.070209561417869-6.12960845131056,6.850506208249499-4.327379508312333,8.053331114264438-16.582540955505465,10.574433948826481-12.396916994935964,2.555523995304611-5.113071855982525,7.103628424396447-.360448878470379,8.292286272780984,5.767135707465059,1.443803929900241,19.101612200016461,3.487011896790136,28.114788505058641-9.130630018928059l-.358417288417513,1.439756199155454c2.405672986056743,1.923722662952059,2.241647194504367,13.82453000183159,2.581849694541233,22.32740641916098.340194775359123,8.502876417323932.911241523054741,16.436737677007841,2.644620419894636,21.118494467662458,1.733378896839895,4.677693610550705,3.778610729103093,16.728344234003089,19.883249092257756,13.277777363326095,13.457994077882176-2.887623309161427,23.74690851520154-7.038818384311526,24.684483462169737-45.65311919591295" style="stroke-width:0px;"/><path d="m146.257849989371607,224.708170885405707c-7.123867078152216,0-11.761067931834987-2.753970947596827-14.579833470162157-5.414797739851565-4.252450141350891-4.01148656681471-5.939256960519742-9.181242102669785-6.945674228969438-12.269336229499459l-.435370520754987-1.289912914580782c-2.029025459904005-5.477568465206787-2.71549433142809-13.362826057165876-3.122515287569513-23.516064267545516-.060746859977371-1.522781027615565-.105295072274203-3.096189588331981-.151874874622081-4.762742304392305-.034421160739839-1.217007412995372-.07694550765973-2.743851620716669-.137700092314844-4.34559429669207-2.531222161442201,1.212959682245128-5.240644896742197,2.069533666126517-8.09383932048695,2.559571726054855-5.021943841337816.858597849255602-10.420535208829278.57914993387385-16.049970823978583-.828208969913248-3.970978360594017-.992234761464715-8.097887051237194-3.049609785983193-10.448884773442842-6.228824202778924-6.854546214325637,6.004051551248267-13.393199487153652,5.187985773589389-16.955140750907049,4.001351790582703-6.283507191307763-2.095859365364959-11.906871210329882-7.982464927410547-17.194088184744032-18.002050776225587-3.764432084458349-7.134001854385133-7.407370448962865-16.432689946257597-10.82755616497252-27.632845906631701-5.953435605164486-19.506609290780034-9.736094065020552-40.052033145377209-10.072239178459313-46.795208828963951-1.057039008042011-21.114442874577435,4.625048005582357-36.212675556296745,16.888316501293957-44.873506169049506,19.348662820032587-13.66657484082134,48.660212359653997-5.631463342862844,59.346020701560519-1.982453382233871,7.178542342001492-4.327377577141306,15.624727354779679-6.435379169173757,25.170473791347831-6.281481394762523,5.127238913612928.083023862880509,10.007442656561579.534593996902913,14.541364578669345,1.340535619761795,4.728321143649737-1.486334070330486,14.071565172497685-3.620660396018138,24.765468975905605-3.489036727753046,19.703024653022112.234897771917531,36.030427251685978,7.913612950082097,47.214384564374996,22.205904974527584,7.980441062034515,10.197786422675563,4.03578840067712,31.609903588028828.971996107709856,43.46817113063662-4.307125405202896,16.675692835524387-11.858275267282806,34.416525934100719-21.132661525296498,49.859004984269632,2.519078969187831.018222513057481,6.16605347742734-.285519511509847,11.354054700370398-1.354707505312035,10.234239173470996-2.114074153745605,13.225125964849212,3.373613638339521,14.037144011756027,5.829914157495296,3.25414378376081,9.855567781938589-10.890326890323195,17.30141484707201-15.302755092476218,19.34867054471033-5.653737449010805,2.626390182158502-14.869416161775007,4.224100576737328-22.418526709127036,3.87783420525011l-.330075448481693-.022277968486378-1.982445657555218-.174145118431625-.196423086918003,1.652385658429921-.188327625414786,1.617964497687353c-.50624443228844,19.56938774081209-3.302732002128323,31.962257004999628-9.055700651962979,40.153288211577092-6.028353385111586,8.583877380417107-14.409736082481686,10.991581956526716-21.790788556882035,12.57308597874362-2.512991923707887.540665593029189-4.801226645237875.775573020791853-6.876816458136091.775573020791853l-.000015449353668-.000061797414673Zm-14.988886016355536-71.226573937330613c4.5987165128372,3.679387252957895,5.001697462903394,10.602783513440954,5.360122475998651,23.542389966782139.044555936972756,1.613901317581622.087072559215812,3.142769390680769.143771688442939,4.570366948224546.174145118431625,4.321307912183329.581173799249882,14.442148827200072,2.164701686844637,18.718900802412463.224772651529747.603436318382592.425243469197994,1.219031278371403.635849063100977,1.86702353372857,1.765783916881446,5.410734559744014,2.652715881396944,8.122188885097785,10.288914437318454,6.486009599027966,6.413104097443465-1.372937743044531,9.707740638068572-2.606151528403643,12.287566467233773-6.279451735879775,3.750253439814514-5.341892238266155,5.848136670552776-16.080351978644103,6.232887382885565-31.927820394903392l7.800208898121127.190351490791727-7.747557499646064-.929464036113131.226796516906688-1.933857439185886c.743160276073468-6.374635205951563,1.277754272975471-10.983486495022589,5.54033919055837-14.029048550255538,3.418169575310458-2.44414960222457,7.316242434318156-2.207218309085874,10.420527484153354-1.648337927676039-3.410058664454482-2.573754233040745-4.353705207550775-5.599062185161529-4.604803558318963-6.838347566643279l-.650016120731379-3.20351625065814,1.826530776860636-2.713470466054787c10.529878011855544-15.62472735477786,19.215010458468896-34.827594620992386,23.827909478291986-52.685873708773215,4.738440470526257-18.350348737763852,3.292612675248165-28.096565992000251,1.848808745344286-29.939295416543246-19.127937899253993-24.443506369450915-52.303154586496021-14.353040815594795-55.765864649425566-13.2048795864157l-.587245395376158.31589680383513-2.936211527530759.54876877921015-1.50455078988216-.311847141918406c-4.145123479023823-.86061592112128-8.749927037342786-1.336484992252736-13.688853774894596-1.417484024172154-7.757692275877162-.129598837304002-14.014873767947392,1.703005466852119-19.146168136987399,5.597038319785497l-3.559909673701441,2.699295683743912-4.132980286770362-1.7030054668503c-8.824848679628303-3.608509479085114-34.752665254032763-10.864005053424989-48.433415842747308-1.174486928415718-7.593666484324785,5.378341126717714-11.052328816503177,15.918350052468668-10.282835116516253,31.326407941896832.25312221614513,5.086746156744994,3.711784548323521,24.342257096757749,9.410070209629339,43.020657417624534,7.87918985817214,25.810370585202691,15.039505824779553,34.382089324009939,18.0283764754613,35.380411130956418.520419214594767.176168983807656,1.875126719906802-.876812637636249,3.22173876371653-2.492753269951208,8.760054088898869-10.535957332656835,17.090809253169027-19.318289390041173,17.441131080084233-19.688857595392619l4.517723274426316-4.752622977510327,5.461362092845775,3.628759719858863c2.201154437636433,1.464058033012407,4.629097667503629,2.292274727602489,7.12387480282905,2.448197332976633l13.026679012555178-11.109027945729395-1.887277636838007,19.257542530065621c-.04252434691989.433346655378045-.062770725354312,1.020592050756022.107326662327068,2.114074153745605l.566991292265811,3.651037688345241-2.456300519156684,2.749923216842944-.283495646132906.317916806872745,7.156272098193767,3.304755867506174s3.001013842937027-3.752277305191456,3.001006118260193-3.752277305191456Z" style="stroke-width:0px;"/><path d="m211.944084736142031,146.722241928498988c-22.712141682137371,4.683780656030649-24.273407050599417-3.005069298365925-24.273407050599417-3.005069298365925,23.979792077589082-35.580881948621027,34.003425657156185-80.748010815359521,25.352714371283582-91.802363497236001-23.601112961387116-30.155968744233178-64.453020961417678-15.894050149774557-65.135434377512865-15.52348001325845l-.220724920779503.038474684999528c-4.487357569113556-.929464036111312-9.507269820399415-1.484308273786155-15.15088794253279-1.575432426090629-10.276763520387249-.168073522305349-18.072924687756313,2.693220225281038-23.987887539091389,7.178546204340819,0,0-72.878951871080972-30.022320245005176-69.489139585060911,37.759756486604601.720893894602341,14.419863134036859,20.668949164604783,109.109842215757453,44.460413616778169,80.509071106198462,8.6952517734926-10.456987959621983,17.096888573974866-19.300059152306858,17.096888573974866-19.300059152306858,4.173480768314221,2.772193460652488,9.169098910415414,4.185631685244516,14.407712217104745,3.677363387580044l.407020956142333-.344242506111186c-.125549175384549,1.298008376084908-.068850046159241,2.567667187557163.162001926176345,4.070209561417869-6.127584585934528,6.850506208251318-4.329403373687455,8.053331114262619-16.580517090129433,10.574433948826481-12.398940860311086,2.555523995304611-5.115095721357648,7.103628424396447-.358417288417513,8.292286272779165,5.765111842089027,1.443803929903879,19.101612200015552,3.487011896791955,28.112764639682609-9.130630018924421l-.360448878470379,1.439756199151816c2.401625255306499,1.923722662953878,4.08843207447444,12.512339118766249,3.804936428341534,22.11072922913263-.283495646131996,9.598390110366381-.471823271547692,16.187678640970262,1.421533686094335,21.335171657696264,1.893349232964283,5.145469151346333,3.778603004427168,16.728344233999451,19.885280682310622,13.277777363322457,13.458009527235845-2.885599443783576,20.432033320819755-10.359780624174164,21.404013979175033-22.825555389945293.688485012222372-8.86332529579704,2.245702649932355-7.553173727455942,2.344918401401628-15.478924076285693l1.25142857373794-3.752277305189637c1.439756199151816-12.016214013354329.22882038228181-15.892024353230227,8.521106655060976-14.087771544855059l2.014858402275422.176168983805837c6.103282752072118.279447915381752,14.089795410231091-.982115434588195,18.777623797015622-3.160984179061415,10.096539081152514-4.685804521406681,16.084399709396166-12.508291388014186,6.131647766038441-10.452955678225408Z" style="fill:#336791; stroke-width:0px;"/><path d="m147.071891901654453,219.896824913290402c-13.427620647893491.002023865376032-17.680078513921217-10.631133078053608-19.421560596941163-14.978766689477197-2.545396943748528-6.37057202584765-3.096189588332891-31.099611424990144-2.52919829606617-51.379762146510984.040500481544768-1.437732333777603,1.229158329927486-2.573754233038926,2.674993849883322-2.52919829606617,1.435708468400662.040492756868844,2.567674912233997,1.237261516105718,2.52919829606617,2.674993849883322-.654071576159367,23.390522816836892.275400184630598,44.585955067486793,2.158622366039708,49.300109153507947,2.942298573011612,7.354726775163726,7.403314993534877,13.78806952636296,20.020956909250344,11.086749977241197,11.977745121862426-2.569691052933194,16.463063376248101-7.111723885898755,18.459691540787389-18.690551237799809,1.534939669224514-8.88762712965945,4.564295352097361-34.169475314083684,4.936902872175779-39.159014135380858.107326662326159-1.433684603023721,1.350659774560881-2.510968058330036,2.788392108337575-2.401617530629665,1.433684603024631.107326662327978,2.508944192954914,1.356731370689886,2.401617530628755,2.788392108337575-.388798443083942,5.19204895369694-3.406010933703328,30.427317335774205-4.999673597529181,39.657163106168809-2.359100908386608,13.678718998662589-8.456312064332451,19.88325681693459-22.497503806840541,22.894397711426791-2.383402742247199.508268297660834-4.55215215984299.737088679945373-6.522439175791988.737104129299041Zm-72.799974773368376-51.930547066416693c-1.28180972840255.002023865374213-2.44414960222548-.232868113034783-3.450559145998341-.569015157643662-8.721577472729223-2.909885828292317-17.028038527815625-17.113094946333149-24.690555058297832-42.218758697596058-5.831938022871327-19.111739251573454-9.527520061171344-39.057774518538281-9.851516188849928-45.539724799800751-.961865193814447-19.217038186181526,3.989204735990825-32.814763946433231,14.711461966349816-40.412482023846678,21.213666350723543-15.031409397692187,56.901874961672547-.71684230151368,58.410481206982695-.101249272693167,1.33041339612646.544719117287968,1.968278599925725,2.063452414153289,1.423557551469457,3.393861947941332-.542697183082055,1.328385668412011-2.063454345322498,1.968278599926634-3.391836151397001,1.423559482640485v.002025796542512c-.344242506110277-.141747823065089-34.566369218669934-13.850847976393197-53.443212629494155-.463720085366731-9.169098910415414,6.502204384372817-13.379028567184832,18.579169120044753-12.514362984139552,35.900830345548457.27337245691615,5.459338227468834,3.725959330628939,24.929502492133906,9.632818995783964,44.280189177545253,6.840375294356818,22.410431247624729,14.626413272509126,36.554901921706914,21.359461904540694,38.798565256911388,1.055013211496771.354377282341375,4.270680379085206,1.425589141521414,8.871428481975272-4.102606856784405,8.650703561197588-10.408384291897164,16.598739603187823-18.714845346983566,16.677716700901328-18.797870175447315.9942663515194-1.038814563813503,2.642596554519514-1.07121185917822,3.679387252956985-.078977097713505,1.036790698438381.9942663515194,1.073235724555161,2.642596554518605.078977097714414,3.679387252957895-.078977097714414.081000963087718-7.905511695072164,8.263928983489677-16.434721536312281,18.524493856193658-4.03982840675144,4.855901909088061-7.913614881250396,6.281475601255806-11.068527464185536,6.281491050611294Zm113.236758631078374-21.928488649198698c-.500172836161255,0-1.006417268448786-.143771688442939-1.451914840759855-.445497572311069-1.192705579134781-.80189099535346-1.508613969986072-2.419847768363979-.704691384580656-3.612561072175595,24.241009755235609-35.97170425708282,32.749957768687636-79.433803791591345,25.462064898983044-88.744650525075485-9.173146641165658-11.720571312629545-22.126935601490914-17.844104305473593-38.498878687772049-18.194424201217771-12.123540675680488-.263247336530185-21.760415126894259,2.832944182970095-23.333823687609765,3.373613638335883l-.394870039211128.159974198462805c-1.583527887593846.498145108449535-2.798511435215005-.370570136517927-3.256167649133204-1.385084797639138-.542689458404311-1.20081262765234-.097191886094151-2.620320517202344,1.028695236936073-3.302737795635039l.700643653829502-.287547239222476-.034421160739839.010125120385055.036445026114961-.012148985761087c2.674993849884231-.978063841497715,12.457663854914244-3.914282128120249,24.577156799846307-3.774558170429373,18.117472900050416.190347628451491,33.082057082545361,7.17854523875576,43.275803499143876,20.203204248276961,4.823489164369676,6.164033474387907,4.833623940601683,20.365203277697219.030373429990505,38.96057104542524-4.896394665953267,18.957840511573522-14.110049513343256,39.335190843865348-25.275776588298868,55.903557017065395-.502196701536377.747215731500546-1.32433407532244,1.148165091515693-2.160638506738906,1.148165091515693Zm1.237261516107537,16.651391001661977c-4.139051882897547,0-7.848812565844128-.581173799251701-10.070213381914073-1.913603336075539-2.284171541425167-1.366866146920074-2.719549786856987-3.227818084522369-2.776248916083205-4.213981249860808-.623690421492938-10.942978288798258,5.414797739850655-12.848486163373309,8.494780955822534-13.71720333950725-.429291199950057-.647992255355348-1.040838429189535-1.411406634539162-1.670600446809658-2.199122847583567-1.796157346870132-2.243678784558142-4.254474006726014-5.317590404403745-6.149862554420906-9.914290776539929-.295654287740945-.71684230151368-1.227142189229198-2.387450473001081-2.304425644534604-4.31927632213592-5.838017343675347-10.467107286500323-17.983820538488544-32.249792657203216-10.181587774993204-43.405392680604564,3.612553347498761-5.161667799029601,10.801230465734989-7.192720986648055,21.395918517672726-6.058734539778015-3.116443691443237-9.495118903467301-17.959534153979803-39.199518479263133-53.173895628006903-39.776636823084118-10.592656461884872-.178198642692223-19.279812773874255,3.079990940650532-25.806315129771065,9.669267884237343-14.61426235557883,14.760061771734399-14.08371608942889,41.465463645292402-14.077644493301705,41.730744503045571.038476616167827,1.437732333775784-1.097537558415752,2.632469502963431-2.533246026817324,2.668922253755227-1.437732333776694.044548212295922-2.632469502963431-1.09551369304063-2.668922253757046-2.533246026816414-.032397295364717-1.184610117630655-.579142209196107-29.208278332724149,15.582203007859789-45.529597748243759,7.56329305433519-7.638216627789006,17.518084312421706-11.408724170712958,29.58897358962804-11.212302049380014,22.533948832955502.370571102102986,37.034820654758732,11.823845416280164,45.233947322842141,21.369591852848316,8.934206932005509,10.400284968058259,13.316261704168937,21.873809523009186,13.676695133286557,25.7010200575005.269328588503413,2.847115102938915-1.773879378384663,3.418161850633624-2.186979655331925,3.501186679097373l-.937559497614529.022277968486378c-10.398264965020644-1.66453271302089-17.068539009360393-.510292163040504-19.826557687707464,3.43233663294086-5.935209229769498,8.480606173516207,5.554506248187863,29.084753022714722,10.461035690374047,37.885307593158359,1.25346788846673,2.243678784556323,2.15660622534142,3.865683288318905,2.569691052933194,4.868045101340613,1.611877452207409,3.908207635238796,3.713808413697734,6.53460554207777,5.402639098242616,8.644631965069493,1.484312136124572,1.856904206850231,2.772201185331141,3.464733928303758,3.233889680648645,5.356067020571572.212629459274467.374623660776706,3.246032872899377,4.857925774464093,21.237964322245716,1.144109636086796,4.509620088247175-.929464036113131,7.21296350274315-.133652361562781,8.039164056634036,2.365180229189718,1.62605995919148,4.918672634443283-7.496474598228815,10.653411046539986-12.546760279505179,13.000353313318556-4.531898056731734,2.103954826867266-11.754996335707801,3.434360498316892-18.006083057621254,3.434345048963223Zm-7.656437209678188-6.556875785885495c.569015157642752.577126068497819,3.424241171438553,1.569360829964353,9.339196298096795,1.316238613821042,5.256843544423646-.226796516908507,10.803254331110111-1.370913877672137,14.132312032475056-2.913949008399868,4.256497872100226-1.976374061428942,7.095517513536834-4.185631685244516,8.567686457410673-5.69423020587783l-.818089643036728.149843284569215c-11.503897984939613,2.375291831391223-19.640253927669619,2.059398889892691-24.18228676063427-.941607228365683-.326027717727811-.212629459278105-.615594959988812-.435362796077243-.880860368387403-.654063851481624-.49206192530437.194399221541971-.947694273846537.321964537622989-1.271682676847377.413100276944533-2.57780196379008.722921622318609-5.242661037441394,1.47012962914232-4.886275339076747,8.324668118790214Zm-74.31061260873048,14.537316847918191c-2.857242154494088,0-5.864335318235135-.386774577706092-8.936223072705616-1.158284418394032-3.181238282171762-.79581167455035-8.547432354297598-3.191357609050101-8.464407525833849-7.125890943529157.091120289966966-4.416475932901449,6.512327573590483-5.740810008226617,8.932175341953553-6.238958979010931,8.731704524285306-1.798181212247073,9.300719681927148-2.51907896918965,12.030388795661565-5.983812897493408.795819399226275-1.01046499919903,1.786030295315868-2.267980618418733,3.134666204500718-3.776579139052046,2.004731350720249-2.241647194503457,4.195751012125584-3.379685234463977,6.512327573591392-3.379685234463977,1.611885176884243,0,2.936219252206683.548768779208331,3.808984159092688.9092176576778,2.786368242961544,1.154236687641969,5.111040265930569,3.94466038603241,6.066830001279413,7.285876729007214.862637855331741,3.013164759866413.451569168438255,5.91293126128221-1.158284418394032,8.164705507340841-5.281145378286965,7.397243397406783-12.862660945679636,11.303427167271366-21.926457059145832,11.303411717917697Zm-11.779298169570211-8.059418159746201c.785692347671102.605475633112292,2.357077043010577,1.415454365291225,4.104630722157708,1.8548803414742,2.660819067576995.664198627713631,5.240644896742197,1.002369537698542,7.674667447412503,1.002369537698542,7.415465910465173,0,13.366881512592954-3.071887754471391,17.692229430853331-9.124542973444477.901114471498659-1.26358721534416.63179360767208-2.865345340675049.390822308459974-3.709760682944761-.50624443228935-1.765783916884175-1.761728461454368-3.371589772963489-3.055689106788122-3.910231500616646-.702667519205534-.291591107636123-1.283833593779491-.514339893792567-1.818427590680585-.514339893792567-.287543376884969,0-1.160316008447808,0-2.632469502964341,1.646314062301826-1.243333112234723,1.389128666052784-2.136352122230164,2.523126699941713-2.928116066027542,3.525480788282948-3.397915472200111,4.315220866705204-4.955117660556425,5.779294349074917-15.067863114069041,7.862995072830017-2.466419846035024.510292163038685-3.732030926755215,1.024632056829432-4.35977680367705,1.366866146920074l-.000007724676834-.000030898709156Zm20.010829857694262-12.00405537174629c-1.26358721534416,0-2.371251825315994-.921368574609005-2.569698777610029-2.207218309087693-.066826180781391-.43131506532518-.10935052770219-.866693310759729-.129596906135703-1.304079972213003-6.629773562794981-.125541450706805-13.024655147180965-2.96861654757231-17.878533190892085-8.035108601206957-6.137703912812867-6.405000911263414-8.932175341953553-15.278460983290643-7.66454039585733-24.344280962131961,1.376985473798413-9.845440730385235.862637855329922-18.536644773124863.585221530001036-23.206242922175079-.076945507660639-1.298008376084908-.131620771511734-2.235575598377181-.127573040759671-2.885591719106742.004047730751154-.822137373786973.020246378433512-3.007093163741956,7.320297889746143-6.706726795131544,2.59602447684756-1.316234751482625,7.802240488173084-3.612561072175595,13.488375232549515-4.201830332927784,9.424244991935666-.971988383033022,15.634854406334853,3.223762629091652,17.493782478559297,11.817767061062113,5.017896110587571,23.206242922171441.396893904587159,33.470855525629304-2.976719733751452,40.965298533807072-.629769742296958,1.393184121479862-1.22308673380121,2.713470466051149-1.696933870724934,3.989208598328332l-.419171873072628,1.127910988407166c-1.781982564564714,4.77894867674695-3.32298610523776,8.907881232767977-2.849146692991781,11.993936044867951.216669465350606,1.421541410771169-.757342783056629,2.747899351468732-2.176852603774933,2.968624272247325,0,0-.398917769962281.028349564614473-.398910045285447.028334115260805Zm-22.564322262944188-61.263671768387212l.103271206896352,1.858928072224444c.287543376885878,4.849822588284951.822137373786063,13.877173675633458-.627745876920926,24.236962024486274-1.044886159940688,7.476220495118469,1.239285381483569,14.776264281754266,6.267308543626314,20.022980774623647,3.973009950646883,4.147155069076689,9.205551661208119,6.435382065930753,14.581865060215023,6.435382065930753h.111374393076403c.603444043058516-2.537293757568477,1.60175812532907-5.214319197504665,2.677017715260263-8.099910916613226l.417148007696596-1.119815526903039c.536617862277126-1.441787789204682,1.164363739198052-2.836995776060576,1.828554642234849-4.313204726006006,3.248064462954972-7.217018958170229,7.289916735081533-16.199821833226451,2.634493368339463-37.731408853162065-.923392439985037-4.262577192905155-3.158968038361309-6.731028628992135-6.834299835891215-7.545070541274981-7.549118272028863-1.66858430611137-18.797870175449134,4.009454976761845-21.158987224533121,6.255157626694199Zm20.302420965329475,3.507250550548633l-.664190903037706-.046572077673773c-1.46810576376447-.204526273097144-2.952417899889042-1.129934853779559-3.966930629841954-2.476546897589287-.356393423041482-.471823271547692-.939591087667395-1.391160256103831-.824168963838019-2.20924989913874.166049656927498-1.200808765315742,1.628083824565692-1.917651066827602,3.914279231366891-1.917651066827602.512316028414716,0,1.042862294565566.038476616167827,1.579480156842692.111374393078222,1.247388567661801.174145118431625,2.407696851432775.534593996901094,3.264263110636421,1.012488864575062,1.484312136124572.830240559967933,1.593654939149019,1.753632999951151,1.526836483043553,2.233551733004788-.184272169985888,1.322310209945499-2.294298592978521,3.292612675248165-4.829568485171876,3.292604950571331Zm62.788484386055643-2.312521106037821c-2.278099945297981,0-4.240306949096521-1.771855513008632-4.402308875273775-2.920020604524325-.186303760039664-1.379009339174445,2.083700723754191-2.427950954543121,4.424571394405575-2.751947082222614.514339893791657-.072897776908576,1.024632056831251-.10935052770219,1.516709431489289-.10935052770219,2.018906133026576,0,3.355383400603387.593316991504253,3.489035762167987,1.547082861477975.087072559215812.619642690742694-.386774577707911,1.573408560716416-1.20486422074373,2.431998685297003-.538641727652248.566991292263992-1.67262431218478,1.549106726852187-3.215659442910692,1.761728461453458,0,0-.607499498488323.040500481543859-.607484049134655.040508206220693Zm8.004742895895106,48.652109173473946c-.498148970786133,0-1.000345672323419-.141747823065089-1.445827795279911-.43941825150614-1.194729444510813-.801890995351641-1.514685566113258-2.415800037611916-.714810711458995-3.610537206799563,5.540339190557461-8.276087625095897,4.525826460605458-16.718217182444278,3.545734891393295-24.878874959034874-.419171873072628-3.478908710612814-.850486938399627-7.073247269729109-.737088679946282-10.5258302811053.113398258453344-3.549782622145358.562943561514658-6.477906412848824,1.000345672323419-9.312870598856534.516363759166779-3.35539112528204,1.004393403073664-6.528526221272841.801898720028476-10.290938302694485-.078977097712595-1.43368460302554,1.02260819145522-2.658795202201873,2.458316659854972-2.739796165291409,1.439756199153635-.076949369999056,2.660826792254738,1.024639781508085,2.739788440613665,2.460348249909657.230844247656933,4.301053809072982-.321964537623899,7.889313047387986-.856558534526812,11.362150161872705-.413100276944533,2.679041580635385-.840367611519468,5.449218900592314-.943646543094474,8.687156311987565-.099231200824761,3.055689106789941.291591107635213,6.301729704367972.704691384580656,9.736090202683044,1.044886159941598,8.681076991188093,2.225448546821099,18.520446125443414-4.388126368289704,28.396260285817334-.502196701537287.749239596876578-1.326357940699381,1.156260553018001-2.164717136198306,1.156260553018001Z" style="fill:#fff; stroke-width:0px;"/></svg>