<?xml version="1.0" encoding="UTF-8"?><svg id="Layer_1" xmlns="http://www.w3.org/2000/svg" width="255.999984741210028" height="249.599990844725653" viewBox="0 0 255.999984741210028 249.599990844725653"><g id="Layer_2"><g id="Surfaces"><g id="Photo_Surface"><g id="Outline_no_shadow"><path d="m45.333332061767578,0h165.333324432372137c25.066665649414062,0,45.333328247070312,20.266666412353516,45.333328247070312,45.333332061767578v158.933330535887762c0,25.066665649414062-20.26666259765625,45.333328247070312-45.333328247070312,45.333328247070312H45.333332061767578c-25.066667556762695,0-45.333332061767578-20.26666259765625-45.333332061767578-45.333328247070312V45.333332061767578C0,20.266666412353516,20.266666412353516,0,45.333332061767578,0Z" style="fill:#00005b; stroke-width:0px;"/></g></g></g></g><g id="vlpe"><g id="vlpf"><path d="m59.29333343505823,177.886575480063584v-109.866666666668607c0-.746667480468204.319999186197492-1.173331705728742,1.066666666666606-1.173331705728742,1.81333414713572,0,3.51999918619822,0,5.973331705728924-.106665039063046,2.560001627603924-.106665039062136,5.226668294270894-.106665039062136,8.106665039063046-.213334147135356,2.879996744791242-.10666910807231,5.973331705728924-.106665039062136,9.279996744790878-.213334147135356,3.306665039062864-.10666910807231,6.506665039062682-.106665039062136,9.7066650390625-.106665039062136,8.74666341145894,0,15.999999999999091,1.066666666666606,21.973331705730743,3.306665039061954,5.33333333333394,1.813330078125546,10.239998372395348,4.800000000000182,14.2933349609375,8.74666341145894,3.413330078125,3.413330078125,6.080004882811409,7.573331705729288,7.78666178385356,12.160001627604288,1.600000000000364,4.479996744790697,2.453336588541788,9.066666666665697,2.453336588541788,13.866666666667697,0,9.173331705727833-2.133333333333212,16.74666341145894-6.399999999999636,22.720003255208212s-10.239998372395348,10.453336588541788-17.173331705731471,13.013330078123545c-7.253336588540151,2.666666666667879-15.253336588540151,3.626660156251091-23.999999999999091,3.626660156251091-2.560001627603924,0-4.266666666666424,0-5.33333333333303-.106673177082484s-2.560001627603924-.106673177084303-4.586669921875-.106673177084303v34.240006510415697c.106665039062136.746663411460759-.426668294270712,1.38666992187791-1.173331705728742,1.493326822917879h-20.693334960938046c-.85333251953125,0-1.280000813801962-.426660156248545-1.280000813801962-1.386669921874272l.000012207031432.106689453125Zm23.25333658854197-90.346663411460213v35.839998372396622c1.493334960937318.106665039062136,2.879996744791242.213330078126091,4.160001627603378.213330078126091h5.653336588541606c4.160001627604288,0,8.320003255208576-.639998372396803,12.266666666667334-1.92000325520894,3.413330078125-.96000162760356,6.399999999999636-2.986669921874636,8.74666341145803-5.653336588542516,2.239998372395348-2.66666666666606,3.306665039061045-6.2933349609375,3.306665039061045-10.986669921874636.106665039063955-3.306665039063773-.746663411457121-6.613330078124818-2.453336588539969-9.493334960937318-1.813330078125546-2.773331705730016-4.37333170572947-4.906665039063228-7.466666666666242-6.079996744792879-3.946663411457848-1.599999999998545-8.213330078125182-2.239998372395348-12.586669921875909-2.133333333333212-2.773331705729106,0-5.226668294270894,0-7.25333658854106.106665039062136-2.133333333333212-.106665039062136-3.62666829427144,0-4.37333170572947.106665039063955l.000008138021258.000016276040697Z" style="fill:#99f; stroke-width:0px;"/><path d="m155.293333435059139,93.833238891520523h18.66666666666606c1.066666666667516,0,1.92000325520894.746663411457121,2.240006510417516,1.7066650390625.320003255206757.853336588541424.533333333332848,1.7066650390625.640006510415333,2.66666666666606.213330078126091,1.066666666667516.426660156252183,2.239998372397167.533333333334667,3.306665039062864.106673177082484,1.173331705729652.213330078124272,2.453336588542697.213330078124272,3.839998372396622,3.200000000000728-3.733333333334485,7.040006510416788-6.826668294271258,11.413330078125-9.173331705728742,4.906673177083576-2.773331705730016,10.559993489583576-4.160001627606107,16.213330078126091-4.160001627606107.746663411457121-.106665039062136,1.386669921874272.426668294272531,1.49332682291606,1.173331705729652v21.226668294272713c0,.853336588541424-.533333333334667,1.173331705729652-1.706673177084667,1.173331705729652-3.840006510414241-.106665039063955-7.786669921873909.213330078124272-11.520003255207484,1.066666666665697-3.093326822916424.639998372396803-6.07999674479106,1.599999999998545-8.959993489583212,2.879996744792152-2.026660156250728.96000162760356-3.946663411457848,2.239998372395348-5.440006510416424,3.946663411457848v54.399999999999636c0,1.066666666667516-.426660156250364,1.49332682291606-1.386669921874272,1.49332682291606h-21.013330078125364c-.853336588541424.106673177084303-1.600000000000364-.426660156248545-1.706673177082848-1.279996744789969v-59.519995117188955c0-2.560001627603924,0-5.226668294269984-.106673177084303-8s-.106673177084303-5.546663411458212-.213330078124272-8.320003255209485c0-2.453336588539969-.213330078124272-4.799999999999272-.426660156250364-7.25333658854106-.106673177082484-.533333333332848.213330078126091-1.066666666667516.74666341145894-1.173331705727833,0-.106665039063955.213330078124272-.106665039063955.320003255208576,0l.000016276040697.000016276040697Z" style="fill:#99f; stroke-width:0px;"/></g></g></svg>