<?xml version="1.0" encoding="UTF-8"?><svg id="Layer_1" xmlns="http://www.w3.org/2000/svg" width="255.999984741210938" height="249.599990844726562" xmlns:xlink="http://www.w3.org/1999/xlink" viewBox="0 0 255.999984741210938 249.599990844726562"><defs><linearGradient id="linear-gradient" x1="67.085896056800266" y1="175.111029259882343" x2="253.419562403028408" y2="14.795959453661112" gradientTransform="translate(-9.399748802185059 133.678950350447053) scale(.562541007995605 -.567972004413605)" gradientUnits="userSpaceOnUse"><stop offset="0" stop-color="#5a9fd4"/><stop offset="1" stop-color="#306998"/></linearGradient><linearGradient id="linear-gradient-2" x1="325.457372510509231" y1="-82.233419428393063" x2="258.917731315880189" y2="11.90871245412464" gradientTransform="translate(-9.399748802185059 133.678950350447053) scale(.562541007995605 -.567972004413605)" gradientUnits="userSpaceOnUse"><stop offset="0" stop-color="#ffd43b"/><stop offset="1" stop-color="#ffe873"/></linearGradient></defs><g id="Layer_2"><g id="Surfaces"><g id="Photo_Surface"><g id="Outline_no_shadow"><path d="m45.333332061767578,0h165.333324432373047c25.066665649414062,0,45.333328247070312,20.266666412353516,45.333328247070312,45.333332061767578v158.933330535888672c0,25.066665649414062-20.26666259765625,45.333328247070312-45.333328247070312,45.333328247070312H45.333332061767578c-25.066667556762695,0-45.333332061767578-20.26666259765625-45.333332061767578-45.333328247070312V45.333332061767578C0,20.266666412353516,20.266666412353516,0,45.333332061767578,0Z" style="fill:#fff; stroke-width:0px;"/></g></g></g></g><path id="path1948" d="m126.86866897361142,28.75239660535135c-7.834503917729307.036403005954526-15.316278885966312.704573598936804-21.899474605916112,1.869467344407894-19.393259068425323,3.426151650616703-22.914321786978689,10.597383264083874-22.914328307162577,23.822353672971985v17.466166332033936h45.828656614326974v5.822055444011312h-63.027752922782383c-13.319084384249436,0-24.981655545077956,8.005541401609662-28.629558675826047,23.234808423348113-4.207809317618739,17.456281732095704-4.394448788356385,28.349280388180887,0,46.576443552091405,3.257665188981264,13.567591442113553,11.037409335880511,23.234808423345385,24.356490460038913,23.234808423345385h15.756939045717445v-20.938034257360414c0-15.126489351016062,13.087800394152509-28.469310467504329,28.629553785687676-28.469316987688217h45.775243261630749c12.742214306952519,0,22.914341347533991-10.491518285926759,22.914328307162577-23.288221776045248v-43.638709153736272c0-12.419823776664998-10.477532489840087-21.749534809531724-22.914328307162577-23.822353672971985-7.872679598885952-1.310508214358379-16.041258217803261-1.905871165385179-23.875768655714637-1.869467344407894Zm-24.783795651572291,14.047711759403683c4.733784463542179,0,8.599549784274132,3.928908418982246,8.599549784274132,8.759788212320018,0,4.813761048524611-3.865765320731953,8.706376489667491-8.599549784274132,8.706376489667491-4.750756504199671,0-8.599549784272313-3.892618701235733-8.599549784272313-8.706376489667491,0-4.830876533246737,3.848793280072641-8.759788212320018,8.599549784272313-8.759788212320018Z" style="fill:url(#linear-gradient); stroke-width:0px;"/><path id="path1950" d="m179.373994675106587,77.732439398776478v20.350487377691024c0,15.77745806682924-13.376237062848304,29.056863867359425-28.62955704578053,29.056863867359425h-45.775243261630749c-12.538601980531894,0-22.914321786978689,10.731350238107552-22.914328307162577,23.288221776043429v43.638709153741729c0,12.419817256479291,10.799903459574125,19.72503214443168,22.914328307162577,23.288221776043429,14.506778400440453,4.265556963064228,28.418016174820877,5.036451435245908,45.775243261630749,0,11.537544990012975-3.340499244890452,22.914341347533991-10.063266037572248,22.914328307162577-23.288221776043429v-17.466166332038483h-45.77524326162893v-5.822055444012221h68.689584609162921c13.319081124158402,0,18.28232392609425-9.290350308145207,22.914302226425207-23.234808423345385,4.784694065330768-14.355607919203976,4.581107819649333-28.160847051641213,0-46.576443552091405-3.291584819606214-13.259225829021489-9.57828166253239-23.234808423348113-22.914302226425207-23.234808423348113h-17.199112608916039Zm-25.745236000124351,110.512226730819748c4.750763024383559.000013040369595,8.599549784274132,3.892628481515203,8.599549784274132,8.70637648967022,0,4.83087001306194-3.848786759890572,8.759789842366445-8.599549784274132,8.759789842366445-4.73378446354036,0-8.599549784274132-3.928919829304505-8.599549784274132-8.759789842366445,0-4.813748008155017,3.865752280364177-8.70637648967022,8.599549784274132-8.70637648967022Z" style="fill:url(#linear-gradient-2); stroke-width:0px;"/></svg>