<?xml version="1.0" encoding="UTF-8"?>
<svg id="Layer_1" xmlns="http://www.w3.org/2000/svg" version="1.1" viewBox="0 0 277 57.4">
  <!-- Generator: Adobe Illustrator 29.3.1, SVG Export Plug-In . SVG Version: 2.1.0 Build 151)  -->
  <defs>
    <style>
      .st0 {
        fill: #70a5fd;
      }
    </style>
  </defs>
  <path class="st0" d="M18.9,3.5c0-.8.5-1.6,1.1-2.2l.8.5c-.3.5-.5,1.1-.5,1.7v.9h-1.4v-.9ZM21,3.5c0-.8.5-1.6,1.1-2.2l.8.5c-.3.5-.5,1.1-.5,1.7v.9h-1.4v-.9Z"/>
  <path class="st0" d="M22.4,10.4l3-8.7h2.4l3,8.7h-2l-.6-2h-3.1l-.6,2h-2ZM27.7,6.9l-1.1-3.3h0l-1.1,3.3h2.2Z"/>
  <path class="st0" d="M33.6,10.4h-1.8V3.8h1.7v1.2h0c.3-.8,1.1-1.3,2-1.2,1.2,0,2.2.9,2.3,2.1,0,.1,0,.2,0,.3v4.2h-1.8v-3.8c0-.6-.3-1.2-1-1.3,0,0-.1,0-.2,0-.7,0-1.2.5-1.2,1.2,0,0,0,.1,0,.2v3.8Z"/>
  <path class="st0" d="M39,12.6l.4-1.4c.6.2,1.1.2,1.3-.4v-.3c.1,0-2.2-6.7-2.2-6.7h1.9l1.4,4.8h0l1.4-4.8h1.9l-2.5,7.2c-.3,1.1-1.3,1.8-2.4,1.7-.4,0-.8,0-1.1-.2Z"/>
  <path class="st0" d="M52.4,5.2h-1.3v5.2h-1.8v-5.2h-.9v-1.4h.9v-.5c0-1.1.7-2,1.8-2.1.1,0,.2,0,.3,0,.4,0,.9,0,1.3.2l-.3,1.4c-.2,0-.4,0-.6,0-.5,0-.7.3-.7.7v.4h1.3v1.4Z"/>
  <path class="st0" d="M53,7.1c0-1.8,1.3-3.3,3.1-3.4,1.8,0,3.3,1.3,3.4,3.1,0,.1,0,.2,0,.3,0,1.8-1.3,3.3-3.1,3.4s-3.3-1.3-3.4-3.1c0-.1,0-.2,0-.3ZM57.6,7.1c0-1.1-.5-2-1.4-2s-1.4.8-1.4,2,.5,2,1.4,2,1.4-.8,1.4-2Z"/>
  <path class="st0" d="M60.3,7.1c0-1.8,1.3-3.3,3.1-3.4,1.8,0,3.3,1.3,3.4,3.1,0,.1,0,.2,0,.3,0,1.8-1.3,3.3-3.1,3.4-1.8,0-3.3-1.3-3.4-3.1,0-.1,0-.2,0-.3ZM64.9,7.1c0-1.1-.5-2-1.4-2s-1.4.8-1.4,2,.5,2,1.4,2,1.4-.8,1.4-2Z"/>
  <path class="st0" d="M69.8,10.4h-1.8V1.6h1.8v8.7Z"/>
  <path class="st0" d="M73.8,7.1c-.2-1.7,1.1-3.2,2.8-3.4.1,0,.3,0,.4,0,1.5-.2,2.8.9,2.9,2.4,0,0,0,0,0,.1h-1.7c0-.6-.6-1.1-1.2-1.1-.8,0-1.4.7-1.4,1.9s.5,2,1.4,2c.6,0,1.1-.5,1.2-1.1h1.7c0,1.5-1.3,2.6-2.8,2.5,0,0-.1,0-.2,0-1.7,0-3.2-1.2-3.2-2.9,0-.1,0-.3,0-.4Z"/>
  <path class="st0" d="M80.8,8.5c0-1.5,1.2-1.9,2.5-2,1.1-.1,1.6-.2,1.6-.6h0c0-.6-.4-.9-1-.9-.5,0-1,.3-1.2.8h-1.7c.3-1.4,1.5-2.2,2.8-2.1,1.5,0,2.8.7,2.8,2.2v4.4h-1.7v-.9h0c-.4.7-1.1,1.1-1.9,1-1,.1-2-.6-2.2-1.6,0-.1,0-.2,0-.3ZM84.8,8v-.7c-.4.2-.8.3-1.3.3-.6,0-1.1.3-1.1.9s.4.8,1,.8c.7,0,1.3-.5,1.4-1.1,0,0,0,0,0,0Z"/>
  <path class="st0" d="M89.8,10.4h-1.8V3.8h1.7v1.2h0c.3-.8,1.1-1.3,2-1.2,1.2,0,2.2.9,2.3,2.1,0,.1,0,.2,0,.3v4.2h-1.8v-3.8c0-.6-.3-1.2-1-1.3,0,0-.1,0-.2,0-.7,0-1.2.5-1.2,1.2,0,0,0,.1,0,.2v3.8Z"/>
  <path class="st0" d="M97.8,3.8h1.8l1,4.4h0l1.1-4.4h1.8l1.1,4.4h0l1-4.4h1.8l-1.8,6.5h-1.9l-1.1-4.1h0l-1.1,4.1h-1.9l-1.8-6.5Z"/>
  <path class="st0" d="M108.5,3.8h1.8v1.1h0c.2-.7.8-1.2,1.6-1.2.2,0,.4,0,.6,0v1.6c-.3,0-.5,0-.8,0-.7,0-1.3.5-1.4,1.3,0,0,0,0,0,.1v3.7h-1.8V3.8Z"/>
  <path class="st0" d="M113.3,2.1c0-.5.5-1,1-.9.5,0,.9.4.9.9,0,.5-.5,1-1,.9-.5,0-.9-.4-.9-.9ZM113.4,3.8h1.8v6.5h-1.8V3.8Z"/>
  <path class="st0" d="M120.1,5.2h-1.2v3.2c0,.5.3.6.6.6.2,0,.3,0,.5,0l.3,1.3c-.3.1-.6.2-1,.2-1.3,0-2.2-.6-2.2-1.9v-3.4h-.9v-1.4h.9v-1.6h1.8v1.6h1.2v1.4Z"/>
  <path class="st0" d="M121,7.1c-.2-1.7,1.1-3.2,2.8-3.4.1,0,.3,0,.4,0,1.7,0,3.1,1.1,3.1,3.3v.5h-4.5c0,.8.5,1.5,1.3,1.6,0,0,.1,0,.2,0,.5,0,1-.3,1.3-.8h1.7c-.4,1.4-1.6,2.3-3,2.1-1.7.1-3.1-1.2-3.3-2.9,0-.2,0-.3,0-.5ZM125.5,6.4c0-.7-.5-1.3-1.2-1.3,0,0,0,0-.1,0-.8,0-1.4.6-1.4,1.3h2.7Z"/>
  <path class="st0" d="M130.9,7.1c-.2-1.7,1.1-3.2,2.8-3.4.1,0,.3,0,.4,0,1.5-.2,2.8.9,2.9,2.4,0,0,0,0,0,.1h-1.7c0-.6-.6-1.1-1.2-1.1-.8,0-1.4.7-1.4,1.9s.5,2,1.4,2c.6,0,1.1-.5,1.2-1.1h1.7c0,1.5-1.3,2.6-2.8,2.5,0,0-.1,0-.2,0-1.7,0-3.2-1.2-3.2-2.9,0-.1,0-.3,0-.4Z"/>
  <path class="st0" d="M138,7.1c0-1.8,1.3-3.3,3.1-3.4,1.8,0,3.3,1.3,3.4,3.1,0,.1,0,.2,0,.3,0,1.8-1.3,3.3-3.1,3.4-1.8,0-3.3-1.3-3.4-3.1,0-.1,0-.2,0-.3ZM142.6,7.1c0-1.1-.5-2-1.4-2s-1.4.8-1.4,2,.5,2,1.4,2,1.4-.8,1.4-2Z"/>
  <path class="st0" d="M145.4,7.1c0-2.2,1.2-3.4,2.6-3.4.8,0,1.5.4,1.9,1.2h0V1.6h1.8v8.7h-1.8v-1h0c-.3.7-1.1,1.2-1.9,1.2-1.5,0-2.7-1.2-2.7-3.4ZM150,7.1c0-1.2-.5-1.9-1.4-1.9s-1.4.8-1.4,1.9.5,1.9,1.4,1.9,1.4-.8,1.4-1.9h0Z"/>
  <path class="st0" d="M153,7.1c-.2-1.7,1.1-3.2,2.8-3.4.1,0,.3,0,.4,0,1.7,0,3.1,1.1,3.1,3.3v.5h-4.5c0,.8.5,1.5,1.3,1.6,0,0,.1,0,.2,0,.5,0,1-.3,1.3-.8h1.7c-.4,1.4-1.6,2.3-3,2.1-1.7.1-3.1-1.2-3.3-2.9,0-.2,0-.3,0-.5ZM157.5,6.4c0-.7-.5-1.3-1.2-1.3,0,0,0,0-.1,0-.8,0-1.4.6-1.4,1.3h2.7Z"/>
  <path class="st0" d="M166.7,5.2h-1.2v3.2c0,.5.3.6.6.6.2,0,.3,0,.5,0l.3,1.3c-.3.1-.6.2-1,.2-1.3,0-2.2-.6-2.2-1.9v-3.4h-.9v-1.4h.9v-1.6h1.8v1.6h1.2v1.4Z"/>
  <path class="st0" d="M169.8,10.4h-1.8V1.6h1.8v3.3h0c.3-.8,1.1-1.3,2-1.2,1.2,0,2.2.9,2.3,2.1,0,.1,0,.2,0,.3v4.2h-1.8v-3.8c0-.6-.3-1.2-.9-1.3,0,0-.1,0-.2,0-.7,0-1.2.5-1.3,1.2,0,0,0,.1,0,.2v3.8Z"/>
  <path class="st0" d="M175.2,8.5c0-1.5,1.2-1.9,2.5-2,1.1-.1,1.6-.2,1.6-.6h0c0-.6-.4-.9-1-.9-.5,0-1,.3-1.2.8h-1.7c.3-1.4,1.5-2.2,2.8-2.1,1.5,0,2.8.7,2.8,2.2v4.4h-1.7v-.9h0c-.4.7-1.1,1.1-1.9,1-1,.1-2-.6-2.2-1.6,0-.1,0-.2,0-.3ZM179.2,8v-.7c-.4.2-.8.3-1.3.3-.6,0-1.1.3-1.1.9s.4.8,1,.8c.7,0,1.3-.5,1.4-1.1,0,0,0,0,0,0h0Z"/>
  <path class="st0" d="M185.9,5.2h-1.2v3.2c0,.5.3.6.6.6.2,0,.3,0,.5,0l.3,1.3c-.3.1-.6.2-1,.2-1.3,0-2.2-.6-2.2-1.9v-3.4h-.9v-1.4h.9v-1.6h1.8v1.6h1.2v1.4Z"/>
  <path class="st0" d="M189.6,8.5c0-1.5,1.2-1.9,2.5-2,1.1-.1,1.6-.2,1.6-.6h0c0-.6-.4-.9-1-.9-.5,0-1,.3-1.2.8h-1.7c.3-1.4,1.5-2.2,2.8-2.1,1.5,0,2.8.7,2.8,2.2v4.4h-1.7v-.9h0c-.4.7-1.1,1.1-1.9,1-1,.1-2-.6-2.2-1.6,0-.1,0-.2,0-.3ZM193.6,8v-.7c-.4.2-.8.3-1.3.3-.6,0-1.1.3-1.1.9s.4.8,1,.8c.7,0,1.3-.5,1.4-1.1,0,0,0,0,0,0Z"/>
  <path class="st0" d="M199.4,7.1c-.2-1.7,1.1-3.2,2.8-3.4.1,0,.3,0,.4,0,1.5-.2,2.8.9,2.9,2.4,0,0,0,0,0,.1h-1.7c0-.6-.6-1.1-1.2-1.1-.8,0-1.4.7-1.4,1.9s.5,2,1.4,2c.6,0,1.1-.5,1.2-1.1h1.7c0,1.5-1.3,2.6-2.8,2.5,0,0-.1,0-.2,0-1.7,0-3.2-1.2-3.2-2.9,0-.1,0-.3,0-.4Z"/>
  <path class="st0" d="M206.4,7.1c0-1.8,1.3-3.3,3.1-3.4,1.8,0,3.3,1.3,3.4,3.1,0,.1,0,.2,0,.3,0,1.8-1.3,3.3-3.1,3.4-1.8,0-3.3-1.3-3.4-3.1,0-.1,0-.2,0-.3ZM211,7.1c0-1.1-.5-2-1.4-2s-1.4.8-1.4,2,.5,2,1.4,2,1.4-.8,1.4-2Z"/>
  <path class="st0" d="M214,3.8h1.7v1.2h0c.3-.8,1-1.3,1.8-1.2.8,0,1.5.5,1.8,1.2h0c.5-1.1,1.7-1.5,2.8-1.1.8.4,1.3,1.2,1.2,2v4.4h-1.8v-4c0-.5-.3-1-.8-1.1,0,0-.1,0-.2,0-.6,0-1,.4-1.1,1,0,0,0,.1,0,.2v4h-1.8v-4.1c0-.5-.3-1-.9-1,0,0,0,0-.1,0-.6,0-1.1.5-1.1,1.1,0,0,0,0,0,0v3.9h-1.8V3.8Z"/>
  <path class="st0" d="M225,3.8h1.8v1.1h0c.3-.7,1.1-1.2,1.9-1.2,1.4,0,2.6,1.1,2.6,3.4s-1.2,3.4-2.7,3.4c-.8,0-1.5-.4-1.9-1.2h0v3.5h-1.8V3.8ZM228.1,9c.9,0,1.4-.8,1.4-1.9s-.5-1.9-1.4-1.9-1.4.7-1.4,1.9.5,1.9,1.4,1.9Z"/>
  <path class="st0" d="M236.8,3.8h1.8v6.5h-1.7v-1.2h0c-.3.8-1.1,1.3-2,1.3-1.2,0-2.2-1-2.2-2.2,0,0,0-.2,0-.3V3.8h1.8v3.8c0,.6.4,1.2,1,1.2,0,0,.1,0,.2,0,.7,0,1.2-.5,1.3-1.2,0,0,0,0,0-.1v-3.8Z"/>
  <path class="st0" d="M243.5,5.2h-1.2v3.2c0,.5.3.6.6.6.2,0,.3,0,.5,0l.3,1.3c-.3.1-.6.2-1,.2-1.3,0-2.2-.6-2.2-1.9v-3.4h-.9v-1.4h.9v-1.6h1.8v1.6h1.2v1.4Z"/>
  <path class="st0" d="M244.4,7.1c-.2-1.7,1.1-3.2,2.8-3.4.1,0,.3,0,.4,0,1.7,0,3.1,1.1,3.1,3.3v.5h-4.5c0,.8.5,1.5,1.3,1.6,0,0,.1,0,.2,0,.5,0,1-.3,1.3-.8h1.7c-.4,1.4-1.6,2.3-3,2.1-1.7.1-3.1-1.2-3.3-2.9,0-.2,0-.3,0-.5ZM248.9,6.4c0-.7-.5-1.3-1.2-1.3,0,0,0,0-.1,0-.8,0-1.4.6-1.4,1.3h2.7Z"/>
  <path class="st0" d="M251.8,3.8h1.8v1.1h0c.2-.7.8-1.2,1.6-1.2.2,0,.4,0,.6,0v1.6c-.3,0-.5,0-.8,0-.7,0-1.3.5-1.4,1.3,0,0,0,0,0,.1v3.7h-1.8V3.8Z"/>
  <path class="st0" d="M.5,21.5c-.2-1.7,1.1-3.2,2.8-3.4.1,0,.3,0,.4,0,1.5-.2,2.8.9,2.9,2.4,0,0,0,0,0,.1h-1.7c0-.6-.6-1.1-1.2-1.1-.8,0-1.4.7-1.4,1.9s.5,2,1.4,2c.6,0,1.1-.5,1.2-1.1h1.7c0,1.5-1.3,2.6-2.8,2.5,0,0-.1,0-.2,0-1.7,0-3.2-1.2-3.2-2.9,0-.1,0-.3,0-.4Z"/>
  <path class="st0" d="M7.5,22.9c0-1.5,1.2-1.9,2.5-2,1.1-.1,1.6-.2,1.6-.6h0c0-.6-.4-.9-1-.9-.5,0-1,.3-1.2.8h-1.7c.3-1.4,1.5-2.2,2.8-2.1,1.5,0,2.8.7,2.8,2.2v4.4h-1.7v-.9h0c-.4.7-1.1,1.1-1.9,1-1,.1-2-.6-2.2-1.6,0-.1,0-.2,0-.3ZM11.5,22.4v-.7c-.4.2-.8.3-1.3.3-.6,0-1.1.3-1.1.9s.4.8,1,.8c.7,0,1.3-.5,1.4-1.1,0,0,0,0,0,0Z"/>
  <path class="st0" d="M16.5,24.8h-1.8v-6.5h1.7v1.2h0c.3-.8,1.1-1.3,2-1.2,1.2,0,2.2.9,2.3,2.1,0,.1,0,.2,0,.3v4.2h-1.8v-3.8c0-.6-.3-1.2-1-1.3,0,0-.1,0-.2,0-.7,0-1.2.5-1.2,1.2,0,0,0,.1,0,.2v3.8Z"/>
  <path class="st0" d="M29.2,18.2h1.8v6.5h-1.7v-1.2h0c-.3.8-1.1,1.3-2,1.3-1.2,0-2.2-1-2.2-2.2,0,0,0-.2,0-.3v-4.2h1.8v3.8c0,.6.4,1.2,1,1.2,0,0,.1,0,.2,0,.7,0,1.2-.5,1.3-1.2,0,0,0,0,0-.1v-3.8Z"/>
  <path class="st0" d="M34.3,24.8h-1.8v-6.5h1.7v1.2h0c.3-.8,1.1-1.3,2-1.2,1.2,0,2.2.9,2.3,2.1,0,.1,0,.2,0,.3v4.2h-1.8v-3.8c0-.6-.3-1.2-1-1.3,0,0-.1,0-.2,0-.7,0-1.2.5-1.2,1.2,0,0,0,.1,0,.2v3.8Z"/>
  <path class="st0" d="M39.7,21.5c0-2.2,1.2-3.4,2.6-3.4.8,0,1.5.4,1.9,1.2h0v-3.3h1.8v8.7h-1.8v-1h0c-.3.7-1.1,1.2-1.9,1.2-1.5,0-2.7-1.2-2.7-3.4ZM44.3,21.5c0-1.2-.5-1.9-1.4-1.9s-1.4.8-1.4,1.9.5,1.9,1.4,1.9c.9,0,1.4-.8,1.4-1.9h0Z"/>
  <path class="st0" d="M47.3,21.5c-.2-1.7,1.1-3.2,2.8-3.4.1,0,.3,0,.4,0,1.7,0,3.1,1.1,3.1,3.3v.5h-4.5c0,.8.5,1.5,1.3,1.6,0,0,.1,0,.2,0,.5,0,1-.3,1.3-.8h1.7c-.4,1.4-1.6,2.3-3,2.1-1.7.1-3.1-1.2-3.3-2.9,0-.2,0-.3,0-.5ZM51.8,20.8c0-.7-.5-1.3-1.2-1.3,0,0,0,0-.1,0-.8,0-1.4.6-1.4,1.3h2.7Z"/>
  <path class="st0" d="M54.7,18.2h1.8v1.1h0c.2-.7.8-1.2,1.6-1.2.2,0,.4,0,.6,0v1.6c-.3,0-.5,0-.8,0-.7,0-1.3.5-1.4,1.3,0,0,0,0,0,.1v3.7h-1.8v-6.5Z"/>
  <path class="st0" d="M63.4,20.2c-.1-.5-.6-.8-1.1-.8-.6,0-1,.3-1,.6,0,.3.2.5.8.7l1.2.2c1.3.3,1.9.8,1.9,1.8,0,1.3-1.2,2.2-2.9,2.2s-2.8-.8-3-2h1.8c.1.4.6.8,1.2.7.6,0,1.1-.3,1.1-.7,0-.3-.3-.5-.8-.7l-1.1-.2c-1.3-.3-1.9-.9-1.9-1.9,0-1.3,1.1-2,2.8-2s2.6.7,2.8,1.9h-1.7Z"/>
  <path class="st0" d="M69.8,19.6h-1.2v3.2c0,.5.3.6.6.6.2,0,.3,0,.5,0l.3,1.3c-.3.1-.6.2-1,.2-1.3,0-2.2-.6-2.2-1.9v-3.4h-.9v-1.4h.9v-1.6h1.8v1.6h1.2v1.4Z"/>
  <path class="st0" d="M70.7,22.9c0-1.5,1.2-1.9,2.5-2,1.1-.1,1.6-.2,1.6-.6h0c0-.6-.4-.9-1-.9-.5,0-1,.3-1.2.8h-1.7c.3-1.4,1.5-2.2,2.8-2.1,1.5,0,2.8.7,2.8,2.2v4.4h-1.7v-.9h0c-.4.7-1.1,1.1-1.9,1-1,.1-2-.6-2.2-1.6,0-.1,0-.2,0-.3ZM74.8,22.4v-.7c-.4.2-.8.3-1.3.3-.6,0-1.1.3-1.1.9s.4.8,1,.8c.7,0,1.3-.5,1.4-1.1,0,0,0,0,0,0Z"/>
  <path class="st0" d="M79.8,24.8h-1.8v-6.5h1.7v1.2h0c.3-.8,1.1-1.3,2-1.2,1.2,0,2.2.9,2.3,2.1,0,.1,0,.2,0,.3v4.2h-1.8v-3.8c0-.6-.3-1.2-1-1.3,0,0-.1,0-.2,0-.7,0-1.2.5-1.2,1.2,0,0,0,.1,0,.2v3.8Z"/>
  <path class="st0" d="M85.2,21.5c0-2.2,1.2-3.4,2.6-3.4.8,0,1.5.4,1.9,1.2h0v-3.3h1.8v8.7h-1.8v-1h0c-.3.7-1.1,1.2-1.9,1.2-1.5,0-2.7-1.2-2.7-3.4ZM89.8,21.5c0-1.2-.5-1.9-1.4-1.9s-1.4.8-1.4,1.9.5,1.9,1.4,1.9c.9,0,1.4-.8,1.4-1.9Z"/>
  <path class="st0" d="M93.1,23.9c0-.6.5-1,1-1,0,0,0,0,0,0,.6,0,1,.5,1,1s-.5,1-1,1c0,0,0,0,0,0-.6,0-1-.5-1-1,0,0,0,0,0,0Z"/>
  <path class="st0" d="M103,17.6c-1.3,0-2.2,1-2.2,2.8s.9,2.9,2.3,2.9c1,.1,1.9-.6,2-1.5,0,0,0-.2,0-.2h-1.9v-1.4h3.6v1.1c.1,1.9-1.4,3.6-3.3,3.7-.1,0-.3,0-.4,0-2.5,0-4.1-1.7-4.1-4.5s1.8-4.5,4.1-4.5c1.8-.1,3.4,1.1,3.7,2.9h-1.9c-.2-.8-1-1.4-1.8-1.3Z"/>
  <path class="st0" d="M107.9,21.5c0-1.8,1.3-3.3,3.1-3.4,1.8,0,3.3,1.3,3.4,3.1,0,.1,0,.2,0,.3,0,1.8-1.3,3.3-3.1,3.4-1.8,0-3.3-1.3-3.4-3.1,0-.1,0-.2,0-.3ZM112.5,21.5c0-1.1-.5-2-1.4-2s-1.4.8-1.4,2,.5,2,1.4,2,1.4-.8,1.4-2Z"/>
  <path class="st0" d="M115.2,21.5c0-1.8,1.3-3.3,3.1-3.4,1.8,0,3.3,1.3,3.4,3.1,0,.1,0,.2,0,.3,0,1.8-1.3,3.3-3.1,3.4-1.8,0-3.3-1.3-3.4-3.1,0-.1,0-.2,0-.3ZM119.8,21.5c0-1.1-.5-2-1.4-2s-1.4.8-1.4,2,.5,2,1.4,2,1.4-.8,1.4-2Z"/>
  <path class="st0" d="M122.6,21.5c0-2.2,1.2-3.4,2.6-3.4.8,0,1.5.4,1.9,1.2h0v-3.3h1.8v8.7h-1.8v-1h0c-.3.7-1.1,1.2-1.9,1.2-1.5,0-2.7-1.2-2.7-3.4ZM127.2,21.5c0-1.2-.5-1.9-1.4-1.9s-1.4.8-1.4,1.9.5,1.9,1.4,1.9c.9,0,1.4-.8,1.4-1.9Z"/>
  <path class="st0" d="M133.3,18.2h1.8v1.1h0c.3-.7,1.1-1.2,1.9-1.2,1.4,0,2.6,1.1,2.6,3.4s-1.2,3.4-2.7,3.4c-.8,0-1.5-.4-1.9-1.2h0v3.5h-1.8v-9ZM136.4,23.4c.9,0,1.4-.8,1.4-1.9s-.5-1.9-1.4-1.9-1.4.7-1.4,1.9.5,1.9,1.4,1.9h0Z"/>
  <path class="st0" d="M140.8,18.2h1.8v1.1h0c.2-.7.8-1.2,1.6-1.2.2,0,.4,0,.6,0v1.6c-.3,0-.5,0-.8,0-.7,0-1.3.5-1.4,1.3,0,0,0,0,0,.1v3.7h-1.8v-6.5Z"/>
  <path class="st0" d="M145.2,21.5c0-1.8,1.3-3.3,3.1-3.4,1.8,0,3.3,1.3,3.4,3.1,0,.1,0,.2,0,.3,0,1.8-1.3,3.3-3.1,3.4-1.8,0-3.3-1.3-3.4-3.1,0-.1,0-.2,0-.3ZM149.8,21.5c0-1.1-.5-2-1.4-2s-1.4.8-1.4,2,.5,2,1.4,2,1.4-.8,1.4-2Z"/>
  <path class="st0" d="M152.8,25.5l1.7-.2c.2.5.8.8,1.4.7.8,0,1.4-.3,1.4-1.2v-1.2h0c-.3.7-1.1,1.1-1.9,1.1-1.5,0-2.7-1-2.7-3.2s1.2-3.3,2.6-3.3c.8,0,1.6.4,1.9,1.2h0v-1.1h1.8v6.6c0,1.7-1.3,2.5-3.2,2.5-1.8,0-2.8-.8-3-1.8ZM157.2,21.5c0-1.1-.5-1.9-1.4-1.9s-1.4.8-1.4,1.9.5,1.8,1.4,1.8c.9,0,1.4-.7,1.4-1.8Z"/>
  <path class="st0" d="M160.4,18.2h1.8v1.1h0c.2-.7.8-1.2,1.6-1.2.2,0,.4,0,.6,0v1.6c-.3,0-.5,0-.8,0-.7,0-1.3.5-1.4,1.3,0,0,0,0,0,.1v3.7h-1.8v-6.5Z"/>
  <path class="st0" d="M164.8,22.9c0-1.5,1.2-1.9,2.5-2,1.1-.1,1.6-.2,1.6-.6h0c0-.6-.4-.9-1-.9-.5,0-1,.3-1.2.8h-1.7c.3-1.4,1.5-2.2,2.8-2.1,1.5,0,2.8.7,2.8,2.2v4.4h-1.7v-.9h0c-.4.7-1.1,1.1-1.9,1-1,.1-2-.6-2.2-1.6,0-.1,0-.2,0-.3ZM168.9,22.4v-.7c-.4.2-.8.3-1.3.3-.6,0-1.1.3-1.1.9s.4.8,1,.8c.7,0,1.3-.5,1.4-1.1,0,0,0,0,0,0Z"/>
  <path class="st0" d="M172.1,18.2h1.7v1.2h0c.3-.8,1-1.3,1.8-1.2.8,0,1.5.5,1.8,1.2h0c.5-1.1,1.7-1.5,2.8-1.1.8.4,1.3,1.2,1.2,2v4.4h-1.8v-4c0-.5-.3-1-.8-1.1,0,0-.1,0-.2,0-.6,0-1,.4-1.1,1,0,0,0,.1,0,.2v4h-1.8v-4.1c0-.5-.3-1-.9-1,0,0,0,0-.1,0-.6,0-1.1.5-1.1,1.1,0,0,0,0,0,0v3.9h-1.8v-6.5Z"/>
  <path class="st0" d="M183,18.2h1.7v1.2h0c.3-.8,1-1.3,1.8-1.2.8,0,1.5.5,1.8,1.2h0c.5-1.1,1.7-1.5,2.8-1.1.8.4,1.3,1.2,1.2,2v4.4h-1.8v-4c0-.5-.3-1-.8-1.1,0,0-.1,0-.2,0-.6,0-1,.4-1.1,1,0,0,0,.1,0,.2v4h-1.8v-4.1c0-.5-.3-1-.9-1,0,0,0,0-.1,0-.6,0-1.1.5-1.1,1.1,0,0,0,0,0,0v3.9h-1.8v-6.5Z"/>
  <path class="st0" d="M193.7,21.5c-.2-1.7,1.1-3.2,2.8-3.4.1,0,.3,0,.4,0,1.7,0,3.1,1.1,3.1,3.3v.5h-4.5c0,.8.5,1.5,1.3,1.6,0,0,.1,0,.2,0,.5,0,1-.3,1.3-.8h1.7c-.4,1.4-1.6,2.3-3,2.1-1.7.1-3.1-1.2-3.3-2.9,0-.2,0-.3,0-.5ZM198.2,20.8c0-.7-.5-1.3-1.2-1.3,0,0,0,0-.1,0-.8,0-1.4.6-1.4,1.3h2.7Z"/>
  <path class="st0" d="M201.1,18.2h1.8v1.1h0c.2-.7.8-1.2,1.6-1.2.2,0,.4,0,.6,0v1.6c-.2,0-.5,0-.8,0-.7,0-1.3.5-1.4,1.3,0,0,0,0,0,.1v3.7h-1.8v-6.5Z"/>
  <path class="st0" d="M209.8,20.2c-.1-.5-.6-.8-1.1-.8-.6,0-1,.3-1,.6,0,.3.2.5.8.7l1.2.2c1.3.3,1.9.8,1.9,1.8,0,1.3-1.2,2.2-2.9,2.2s-2.8-.8-3-2h1.8c.1.4.6.8,1.2.7.6,0,1.1-.3,1.1-.7,0-.3-.3-.5-.8-.7l-1.1-.2c-1.3-.3-1.9-.9-1.9-1.9,0-1.3,1.1-2,2.8-2s2.6.7,2.8,1.9h-1.7Z"/>
  <path class="st0" d="M215.1,18.2h1.8l1,4.4h0l1.1-4.4h1.8l1.1,4.4h0l1-4.4h1.8l-1.8,6.5h-1.9l-1.1-4.1h0l-1.1,4.1h-1.9l-1.8-6.5Z"/>
  <path class="st0" d="M225.8,18.2h1.8v1.1h0c.2-.7.8-1.2,1.6-1.2.2,0,.4,0,.6,0v1.6c-.2,0-.5,0-.8,0-.7,0-1.3.5-1.4,1.3,0,0,0,0,0,.1v3.7h-1.8v-6.5Z"/>
  <path class="st0" d="M230.6,16.5c0-.5.4-1,.9-1,.5,0,1,.4,1,.9,0,.5-.4,1-.9,1,0,0,0,0,0,0-.5,0-1-.4-1-.9ZM230.7,18.2h1.8v6.5h-1.8v-6.5Z"/>
  <path class="st0" d="M237.4,19.6h-1.2v3.2c0,.5.3.6.6.6.2,0,.3,0,.5,0l.3,1.3c-.3.1-.6.2-1,.2-1.3,0-2.2-.6-2.2-1.9v-3.4h-.9v-1.4h.9v-1.6h1.8v1.6h1.2v1.4Z"/>
  <path class="st0" d="M238.3,21.5c-.2-1.7,1.1-3.2,2.8-3.4.1,0,.3,0,.4,0,1.7,0,3.1,1.1,3.1,3.3v.5h-4.5c0,.8.5,1.5,1.3,1.6,0,0,.1,0,.2,0,.5,0,1-.3,1.3-.8h1.7c-.4,1.4-1.6,2.3-3,2.1-1.7.1-3.1-1.2-3.3-2.9,0-.2,0-.3,0-.5ZM242.8,20.8c0-.7-.5-1.3-1.2-1.3,0,0,0,0-.1,0-.8,0-1.4.6-1.4,1.3h2.7Z"/>
  <path class="st0" d="M248.2,21.5c-.2-1.7,1.1-3.2,2.8-3.4.1,0,.3,0,.4,0,1.5-.2,2.8.9,2.9,2.4,0,0,0,0,0,.1h-1.7c0-.6-.6-1.1-1.2-1.1-.8,0-1.4.7-1.4,1.9s.5,2,1.4,2c.6,0,1.1-.5,1.2-1.1h1.7c0,1.5-1.3,2.6-2.8,2.5,0,0-.1,0-.2,0-1.7,0-3.1-1.2-3.2-2.9,0-.1,0-.3,0-.4Z"/>
  <path class="st0" d="M255.3,21.5c0-1.8,1.3-3.3,3.1-3.4,1.8,0,3.3,1.3,3.4,3.1,0,.1,0,.2,0,.3,0,1.8-1.3,3.3-3.1,3.4-1.8,0-3.3-1.3-3.4-3.1,0-.1,0-.2,0-.3ZM259.9,21.5c0-1.1-.5-2-1.4-2s-1.4.8-1.4,2,.5,2,1.4,2,1.4-.8,1.4-2Z"/>
  <path class="st0" d="M262.7,21.5c0-2.2,1.2-3.4,2.6-3.4.8,0,1.5.4,1.9,1.2h0v-3.3h1.8v8.7h-1.8v-1h0c-.3.7-1.1,1.2-1.9,1.2-1.5,0-2.7-1.2-2.7-3.4ZM267.3,21.5c0-1.2-.5-1.9-1.4-1.9s-1.4.8-1.4,1.9.5,1.9,1.4,1.9c.9,0,1.4-.8,1.4-1.9Z"/>
  <path class="st0" d="M270.3,21.5c-.2-1.7,1.1-3.2,2.8-3.4.1,0,.3,0,.4,0,1.7,0,3.1,1.1,3.1,3.3v.5h-4.5c0,.8.5,1.5,1.3,1.6,0,0,.1,0,.2,0,.5,0,1-.3,1.3-.8h1.7c-.4,1.4-1.6,2.3-3,2.1-1.7.1-3.1-1.2-3.3-2.9,0-.2,0-.3,0-.5ZM274.8,20.8c0-.7-.5-1.3-1.2-1.3,0,0,0,0-.1,0-.8,0-1.4.6-1.4,1.3h2.7Z"/>
  <path class="st0" d="M54.5,34h-1.2v3.2c0,.5.3.6.6.6.2,0,.3,0,.5,0l.3,1.3c-.3.1-.6.2-1,.2-1.3,0-2.2-.6-2.2-1.9v-3.4h-.9v-1.4h.9v-1.6h1.8v1.6h1.2v1.4Z"/>
  <path class="st0" d="M57.7,39.2h-1.8v-8.7h1.8v3.3h0c.3-.8,1.1-1.3,2-1.2,1.2,0,2.2.9,2.3,2.1,0,.1,0,.2,0,.3v4.2h-1.8v-3.8c0-.6-.3-1.2-.9-1.3,0,0-.1,0-.2,0-.7,0-1.2.5-1.3,1.2,0,0,0,.1,0,.2v3.8Z"/>
  <path class="st0" d="M63,37.3c0-1.5,1.2-1.9,2.5-2,1.1-.1,1.6-.2,1.6-.6h0c0-.6-.4-.9-1-.9-.5,0-1,.3-1.2.8h-1.7c.3-1.4,1.5-2.2,2.8-2.1,1.5,0,2.8.7,2.8,2.2v4.4h-1.7v-.9h0c-.4.7-1.1,1.1-1.9,1-1,.1-2-.6-2.2-1.6,0-.1,0-.2,0-.3ZM67.1,36.8v-.7c-.4.2-.8.3-1.3.3-.6,0-1.1.3-1.1.9s.4.8,1,.8c.7,0,1.3-.5,1.4-1.1,0,0,0,0,0,0Z"/>
  <path class="st0" d="M73.8,34h-1.2v3.2c0,.5.3.6.6.6.2,0,.3,0,.5,0l.3,1.3c-.3.1-.6.2-1,.2-1.3,0-2.2-.6-2.2-1.9v-3.4h-.9v-1.4h.9v-1.6h1.8v1.6h1.2v1.4Z"/>
  <path class="st0" d="M79.6,39.2h-1.8v-8.7h1.8v3.3h0c.3-.8,1.1-1.3,2-1.2,1.2,0,2.2.9,2.3,2.1,0,.1,0,.2,0,.3v4.2h-1.8v-3.8c0-.6-.3-1.2-.9-1.3,0,0-.1,0-.2,0-.7,0-1.2.5-1.3,1.2,0,0,0,.1,0,.2v3.8Z"/>
  <path class="st0" d="M89.4,32.6h1.8v6.5h-1.7v-1.2h0c-.3.8-1.1,1.3-2,1.3-1.2,0-2.2-1-2.2-2.2,0,0,0-.2,0-.3v-4.2h1.8v3.8c0,.6.4,1.2,1,1.2,0,0,.1,0,.2,0,.7,0,1.2-.5,1.3-1.2,0,0,0,0,0-.1v-3.8Z"/>
  <path class="st0" d="M92.7,32.6h1.7v1.2h0c.3-.8,1-1.3,1.8-1.2.8,0,1.5.5,1.8,1.2h0c.5-1.1,1.7-1.5,2.8-1.1.8.4,1.3,1.2,1.2,2v4.4h-1.8v-4c0-.5-.3-1-.8-1.1,0,0-.1,0-.2,0-.6,0-1,.4-1.1,1,0,0,0,.1,0,.2v4h-1.8v-4.1c0-.5-.3-1-.9-1,0,0,0,0-.1,0-.6,0-1.1.5-1.1,1.1,0,0,0,0,0,0v3.9h-1.8v-6.5Z"/>
  <path class="st0" d="M103.3,37.3c0-1.5,1.2-1.9,2.5-2,1.1-.1,1.6-.2,1.6-.6h0c0-.6-.4-.9-1-.9-.5,0-1,.3-1.2.8h-1.7c.3-1.4,1.5-2.2,2.8-2.1,1.5,0,2.8.7,2.8,2.2v4.4h-1.7v-.9h0c-.4.7-1.1,1.1-1.9,1-1,.1-2-.6-2.2-1.6,0-.1,0-.2,0-.3ZM107.4,36.8v-.7c-.4.2-.8.3-1.3.3-.6,0-1.1.3-1.1.9s.4.8,1,.8c.7,0,1.3-.5,1.4-1.1,0,0,0,0,0,0Z"/>
  <path class="st0" d="M112.4,39.2h-1.8v-6.5h1.7v1.2h0c.3-.8,1.1-1.3,2-1.2,1.2,0,2.2.9,2.3,2.1,0,.1,0,.2,0,.3v4.2h-1.8v-3.8c0-.6-.3-1.2-1-1.3,0,0-.1,0-.2,0-.7,0-1.2.5-1.2,1.2,0,0,0,.1,0,.2v3.8Z"/>
  <path class="st0" d="M121.9,34.6c-.1-.5-.6-.8-1.1-.8-.6,0-1,.3-1,.6,0,.3.2.5.8.7l1.2.2c1.3.3,1.9.8,1.9,1.8,0,1.3-1.2,2.2-2.9,2.2s-2.8-.8-3-2h1.8c.1.4.6.8,1.2.7.6,0,1.1-.3,1.1-.7,0-.3-.3-.5-.8-.7l-1.1-.2c-1.3-.3-1.9-.9-1.9-1.9,0-1.3,1.1-2,2.8-2s2.6.7,2.8,1.9h-1.7Z"/>
  <path class="st0" d="M127.3,35.9c-.2-1.7,1.1-3.2,2.8-3.4.1,0,.3,0,.4,0,1.5-.2,2.8.9,2.9,2.4,0,0,0,0,0,.1h-1.7c0-.6-.6-1.1-1.2-1.1-.8,0-1.4.7-1.4,1.9s.5,2,1.4,2c.6,0,1.1-.5,1.2-1.1h1.7c0,1.5-1.3,2.6-2.8,2.5,0,0-.1,0-.2,0-1.7,0-3.2-1.2-3.2-2.9,0-.1,0-.3,0-.4Z"/>
  <path class="st0" d="M134.3,37.3c0-1.5,1.2-1.9,2.5-2,1.1-.1,1.6-.2,1.6-.6h0c0-.6-.4-.9-1-.9-.5,0-1,.3-1.2.8h-1.7c.3-1.4,1.5-2.2,2.8-2.1,1.5,0,2.8.7,2.8,2.2v4.4h-1.7v-.9h0c-.4.7-1.1,1.1-1.9,1-1,.1-2-.6-2.2-1.6,0-.1,0-.2,0-.3ZM138.4,36.8v-.7c-.4.2-.8.3-1.3.3-.6,0-1.1.3-1.1.9s.4.8,1,.8c.7,0,1.3-.5,1.4-1.1,0,0,0,0,0,0h0Z"/>
  <path class="st0" d="M143.4,39.2h-1.8v-6.5h1.7v1.2h0c.3-.8,1.1-1.3,2-1.2,1.2,0,2.2.9,2.3,2.1,0,.1,0,.2,0,.3v4.2h-1.8v-3.8c0-.6-.3-1.2-1-1.3,0,0-.1,0-.2,0-.7,0-1.2.5-1.2,1.2,0,0,0,.1,0,.2v3.8Z"/>
  <path class="st0" d="M156.1,32.6h1.8v6.5h-1.7v-1.2h0c-.3.8-1.1,1.3-2,1.3-1.2,0-2.2-1-2.2-2.2,0,0,0-.2,0-.3v-4.2h1.8v3.8c0,.6.4,1.2,1,1.2,0,0,.1,0,.2,0,.7,0,1.2-.5,1.3-1.2,0,0,0,0,0-.1v-3.8Z"/>
  <path class="st0" d="M161.1,39.2h-1.8v-6.5h1.7v1.2h0c.3-.8,1.1-1.3,2-1.2,1.2,0,2.2.9,2.3,2.1,0,.1,0,.2,0,.3v4.2h-1.8v-3.8c0-.6-.3-1.2-1-1.3,0,0-.1,0-.2,0-.7,0-1.2.5-1.2,1.2,0,0,0,.1,0,.2v3.8Z"/>
  <path class="st0" d="M166.5,35.9c0-2.2,1.2-3.4,2.6-3.4.8,0,1.5.4,1.9,1.2h0v-3.3h1.8v8.7h-1.8v-1h0c-.3.7-1.1,1.2-1.9,1.2-1.5,0-2.7-1.2-2.7-3.4ZM171.1,35.9c0-1.2-.5-1.9-1.4-1.9s-1.4.8-1.4,1.9.5,1.9,1.4,1.9,1.4-.8,1.4-1.9h0Z"/>
  <path class="st0" d="M174.1,35.9c-.2-1.7,1.1-3.2,2.8-3.4.1,0,.3,0,.4,0,1.7,0,3.1,1.1,3.1,3.3v.5h-4.5c0,.8.5,1.5,1.3,1.6,0,0,.1,0,.2,0,.5,0,1-.3,1.3-.8h1.7c-.4,1.4-1.6,2.3-3,2.1-1.7.1-3.1-1.2-3.3-2.9,0-.2,0-.3,0-.5ZM178.7,35.2c0-.7-.5-1.3-1.2-1.3,0,0,0,0-.1,0-.8,0-1.4.6-1.4,1.3h2.7Z"/>
  <path class="st0" d="M181.6,32.6h1.8v1.1h0c.2-.7.8-1.2,1.6-1.2.2,0,.4,0,.6,0v1.6c-.2,0-.5,0-.8,0-.7,0-1.3.5-1.4,1.3,0,0,0,0,0,.1v3.7h-1.8v-6.5Z"/>
  <path class="st0" d="M190.3,34.6c-.1-.5-.6-.8-1.1-.8-.6,0-1,.3-1,.6,0,.3.2.5.8.7l1.2.2c1.3.3,1.9.8,1.9,1.8,0,1.3-1.2,2.2-2.9,2.2s-2.8-.8-3-2h1.8c.1.4.6.8,1.2.7.6,0,1.1-.3,1.1-.7,0-.3-.3-.5-.8-.7l-1.1-.2c-1.3-.3-1.9-.9-1.9-1.9,0-1.3,1.1-2,2.8-2s2.6.7,2.8,1.9h-1.7Z"/>
  <path class="st0" d="M196.7,34h-1.2v3.2c0,.5.3.6.6.6.2,0,.3,0,.5,0l.3,1.3c-.3.1-.6.2-1,.2-1.3,0-2.2-.6-2.2-1.9v-3.4h-.9v-1.4h.9v-1.6h1.8v1.6h1.2v1.4Z"/>
  <path class="st0" d="M197.6,37.3c0-1.5,1.2-1.9,2.5-2,1.1-.1,1.6-.2,1.6-.6h0c0-.6-.4-.9-1-.9-.5,0-1,.3-1.2.8h-1.7c.3-1.4,1.5-2.2,2.8-2.1,1.5,0,2.8.7,2.8,2.2v4.4h-1.7v-.9h0c-.4.7-1.1,1.1-1.9,1-1,.1-2-.6-2.2-1.6,0-.1,0-.2,0-.3ZM201.6,36.8v-.7c-.4.2-.8.3-1.3.3-.6,0-1.1.3-1.1.9s.4.8,1,.8c.7,0,1.3-.5,1.4-1.1,0,0,0,0,0,0Z"/>
  <path class="st0" d="M206.7,39.2h-1.8v-6.5h1.7v1.2h0c.3-.8,1.1-1.3,2-1.2,1.2,0,2.2.9,2.3,2.1,0,.1,0,.2,0,.3v4.2h-1.8v-3.8c0-.6-.3-1.2-1-1.3,0,0-.1,0-.2,0-.7,0-1.2.5-1.2,1.2,0,0,0,.1,0,.2v3.8Z"/>
  <path class="st0" d="M212.1,35.9c0-2.2,1.2-3.4,2.6-3.4.8,0,1.5.4,1.9,1.2h0v-3.3h1.8v8.7h-1.8v-1h0c-.3.7-1.1,1.2-1.9,1.2-1.5,0-2.7-1.2-2.7-3.4ZM216.7,35.9c0-1.2-.5-1.9-1.4-1.9s-1.4.8-1.4,1.9.5,1.9,1.4,1.9,1.4-.8,1.4-1.9h0Z"/>
  <path class="st0" d="M220,38.3c0-.6.5-1,1-1,.6,0,1,.4,1,1,0,.6-.4,1-1,1,0,0,0,0,0,0-.6,0-1-.5-1-1h0Z"/>
  <path class="st0" d="M223.8,31.4c0,.8-.5,1.6-1.1,2.2l-.8-.5c.3-.5.5-1.1.5-1.7v-.9h1.4v.9ZM226,31.4c0,.8-.5,1.6-1.1,2.2l-.8-.5c.3-.5.5-1.1.5-1.7v-.9h1.4v.9Z"/>
  <path class="st0" d="M105.7,49.7h-12v-.9h12v.9Z"/>
  <path class="st0" d="M108.1,44.8l3,7.2h.1l3-7.2h1.3v8.7h-1v-6.6h0l-2.7,6.6h-1l-2.7-6.6h0v6.6h-1v-8.7h1.3Z"/>
  <path class="st0" d="M117,51.7c0-1.5,1.3-1.8,2.5-1.9,1.2-.2,1.7-.1,1.7-.6h0c0-.7-.4-1.3-1.1-1.4,0,0-.2,0-.3,0-.7,0-1.4.3-1.7,1l-1-.3c.5-1,1.5-1.6,2.6-1.5,1.2-.2,2.3.7,2.4,1.9,0,.2,0,.3,0,.5v4.3h-1v-.9h0c-.4.7-1.1,1.1-1.9,1-1.1.1-2.1-.7-2.2-1.8,0,0,0-.1,0-.2ZM121.3,51.2v-.9c-.6.2-1.1.4-1.7.4-.8.1-1.5.3-1.5,1.1s.6,1.1,1.4,1.1c.9,0,1.7-.6,1.8-1.5,0,0,0,0,0-.1h0Z"/>
  <path class="st0" d="M124.1,47h1v1h0c.3-.7,1-1.1,1.7-1.1.1,0,.4,0,.5,0v1c-.2,0-.4,0-.6,0-.9,0-1.6.6-1.6,1.4,0,0,0,0,0,0v4.1h-1v-6.5Z"/>
  <path class="st0" d="M131.8,47.9h-1.4v3.8c0,.9.4,1,.9,1,.1,0,.3,0,.4,0l.2.9c-.2,0-.5.1-.7.1-.9,0-1.7-.6-1.8-1.6,0,0,0,0,0-.1v-4.1h-1v-.9h1v-1.6h1v1.6h1.4v.9Z"/>
  <path class="st0" d="M133.1,45.3c0-.4.3-.7.7-.7.4,0,.7.3.7.7s-.3.7-.7.7c0,0,0,0,0,0-.4,0-.7-.3-.7-.7ZM133.3,47h1v6.5h-1v-6.5Z"/>
  <path class="st0" d="M137.2,53.6h-1v-6.5h1v1h0c.3-.7,1.1-1.2,1.9-1.1,1.3,0,2.2.8,2.2,2.5v4.2h-1v-4.1c.1-.8-.5-1.5-1.2-1.6,0,0-.2,0-.3,0-.9,0-1.6.7-1.7,1.6,0,0,0,.2,0,.2v3.9Z"/>
  <path class="st0" d="M146.7,44.8h5.2v.9h-4.2v2.9h3.8v.9h-3.8v3.9h-1.1v-8.7Z"/>
  <path class="st0" d="M152.8,50.3c0-2,1.2-3.4,3-3.4s3,1.3,3,3.4-1.2,3.4-3,3.4-3-1.3-3-3.4ZM157.8,50.3c0-1.3-.6-2.5-2-2.5s-2,1.2-2,2.5.6,2.5,2,2.5,2-1.2,2-2.5Z"/>
  <path class="st0" d="M159.6,47h1.1l1.4,5h0l1.4-5h1.1l1.4,5h0l1.4-5h1.1l-2,6.5h-1l-1.4-5h-.1l-1.4,5h-1l-2-6.5Z"/>
  <path class="st0" d="M170.8,53.6h-1v-8.7h1v8.7Z"/>
  <path class="st0" d="M172.4,50.3c0-2,1.2-3.4,2.9-3.4s2.8.8,2.8,3.3v.4h-4.7c-.1,1.1.7,2.1,1.8,2.2,0,0,.2,0,.2,0,.7,0,1.4-.4,1.6-1l1,.3c-.4,1.1-1.5,1.8-2.6,1.7-1.9,0-3-1.3-3-3.4ZM177.1,49.8c0-1-.6-1.8-1.6-1.9,0,0-.1,0-.2,0-1.1,0-1.9.9-1.9,1.9h3.7Z"/>
  <path class="st0" d="M179.7,47h1v1h0c.3-.7,1-1.1,1.7-1.1.1,0,.4,0,.5,0v1c-.2,0-.4,0-.6,0-.9,0-1.6.6-1.6,1.4,0,0,0,0,0,0v4.1h-1v-6.5Z"/>
</svg>