<?xml version="1.0" encoding="UTF-8"?><svg id="Layer_1" xmlns="http://www.w3.org/2000/svg" width="255.999984741210938" height="249.599990844727472" viewBox="0 0 255.999984741210938 249.599990844727472"><g id="Layer_2"><g id="Surfaces"><g id="Photo_Surface"><g id="Outline_no_shadow"><path d="m45.333332061767578,0h165.333324432373047c25.066665649414062,0,45.333328247070312,20.266666412353516,45.333328247070312,45.333332061767578v158.933330535889581c0,25.066665649414062-20.26666259765625,45.333328247070312-45.333328247070312,45.333328247070312H45.333332061767578c-25.066667556762695,0-45.333332061767578-20.26666259765625-45.333332061767578-45.333328247070312V45.333332061767578C0,20.266666412353516,20.266666412353516,0,45.333332061767578,0Z" style="fill:#fff; stroke-width:0px;"/></g></g></g></g><path d="m89.914061419187419,20.749445103159815c-1.072588238315802.033286347977992-2.227743441409984.429504387911038-3.537862624785703,1.463242679527866-3.209503044286976-1.237658860050942-6.321209070816622-1.667607709847289-9.10396313651836.852044279587972-4.297117846159381-.557380710845791-5.693532372783011.592765260897977-6.751512331362392,1.935540540281181-.943291057536044-.019559290501093-7.058831105294303-.9696669611576-9.863219488386676,3.213651402319556-7.047570226603057-.833936970921968-9.274958692016298,4.145385390999763-6.751217271696078,8.788643271435831-1.439356447825048,2.228277035904284-2.930782448072932,4.429587200980677.435283098979198,8.677510348097712-1.190746634059906,2.365933110073456-.452649790924625,4.932497749435242,2.352301579578125,8.038573901866584-.740259483527552,3.325969086311488.714833479849403,5.672491566214376,3.324783195163036,7.501287206511734-.488122519727767,4.551389187932728,4.173834908389836,7.19752497553327,5.565804321566247,8.140517581912718.534532805133495,2.65197367311066,1.64858088334222,5.154468536446075,6.9734808573794,6.538137842068863.87815409252471,3.952162572535599,4.078409672933049,4.634666104704593,7.177372739455677,5.464156831685614-10.242549778413377,5.953729778815614-19.026154990830037,13.787227037952107-18.966589114081216,33.007789042650074l-1.500286834219878,2.676419536060166c-11.74446791952505,7.142108022065258-22.310933295490031,30.097605376890897-5.787772847585074,48.755984885557154,1.079287562393802,5.840526350575601,2.889322608183647,10.035700516689758,4.501008597739201,14.67865994596832,2.410475814756865,18.709052897531365,18.14213475037468,27.469553016211648,22.291372309244252,28.505594553758783,6.080273069375835,4.631401229928088,12.555880872068883,9.026031208650238,21.319039919239003,12.104238353800611,8.260838618047273,8.519858046409354,17.210403022687387,11.766988546412904,26.208868197201809,11.761652601484457.131924455359695-.000090439743872.266281739846818.00148321181041.39824237110588,0,8.998465174512603.005607264161881,17.947731127995212-3.241505147892894,26.208859153224694-11.761652601484457,8.762860596012615-3.078225233100966,15.238762327877339-7.472837123872523,21.319035397253174-12.104238353800611,4.149239819862487-1.03602344959836,19.880844491633979-9.796541656227419,22.291371178745976-28.505594553758783,1.611545807953007-4.642959429278562,3.421697294914338-8.838133595392719,4.501005206249829-14.67865994596832,16.522871040722748-18.659862720476667,5.956687158461136-41.616843287112715-5.78807129874258-48.758951309177974l-1.502511651933673-2.676066821056338c.059473176008396-19.219078792888467-8.72403481368201-27.052580574011699-18.966589114083035-33.007793564636813,3.098963066522629-.829314369480016,6.299281954752587-1.511813379661362,7.177370478462763-5.464156831686523,5.324866059132546-1.383908970945413,6.43915606365772-3.886372180370927,6.973483118372314-6.538137842068863,1.392211339494679-.942789116953463,6.053891795892923-3.589128393979991,5.565806582560981-8.140517581911809,2.609892059976119-1.828971997800181,4.065067549619926-4.175612049371011,3.32478206466476-7.501284945518819,2.804952500999207-3.106076152431342,3.543194047728321-5.672491566214376,2.352301579578125-8.038573901866584,3.366565226642706-4.246146006136769,1.872952845569671-6.447453910219338.435630161498921-8.675733207117446,2.521966540334688-4.643257880436067.296352954906979-9.622580807606028-6.753877330680552-8.788643271435831-2.803496421112868-4.183318363477156-8.917259327890861-3.233210692820649-9.862625977564676-3.213651402319556-1.057982219574114-1.342775279383204-2.453802104875649-2.492920968503313-6.75091995103503-1.935540540281181-2.782758587689386-2.51965213074709-5.894464614217213-2.089703280950744-9.10396313651836-.852014745359156-3.811094659002265-3.007389716311081-6.333061199336953-.596647386931181-9.21361228279784.314845339048588-4.614217678463319-1.507754896125334-5.669233474416615.557439779304332-7.936331770664765,1.398430485051904-5.032076430161396-1.063344165927447-6.561249718786712,1.251794592122678-8.97356711284192,3.695224954044534l-2.80611012972804-.055566179044945c-7.589893285232392,4.47285527051281-11.360389542911435,13.58067000965184-12.696944263616388,18.262751411424688-1.337169710966919-4.682969972262981-5.099047060992234-13.790784711402011-12.687461656400046-18.262750846176459l-2.806105607742211.055566179044945c-2.41527477370073-2.443429796673627-3.944457106301343-4.758539161806766-8.976533536462739-3.695224954043624-2.267098296246331-.840990423123912-3.319152190566456-2.906185381178148-7.936331770664765-1.398430343740984-1.890642859600121-.598188395390935-3.629432866133357-1.841655748035009-5.676938940650871-1.778117729445512l.003717073499502.000838298710732Z" style="stroke-width:0px;"/><path d="m74.803022620537376,40.427221950872081c20.136590001242439,10.381539838815115,31.843124100418208,18.77959137628477,38.256201863736351,25.932068315062679-3.284183663339718,13.16340533402763-20.417536545666735,13.764115161234258-26.682433309546468,13.394858728253894,1.282734028729465-.597060583514576,2.353011531573429-1.312190253525841,2.73252383158615-2.411037671669874-1.57200555163945-1.117193120324373-7.145960755184205-.117707327518474-11.037370429326984-2.303907272275865,1.494833317623488-.309688295239539,2.194050114583661-.611377195074965,2.893262389556185-1.714520501084735-3.676554234032665-1.172578419879756-7.63671846296711-2.183052641647009-9.965756679255719-4.125531040831447,1.256922525637492.015528504137365,2.430450562835176.281181687761091,4.071888967351697-.857260250541913-3.293073890230517-1.774622233318951-6.806931545823318-3.18105070065576-9.536934369529263-5.893569260748336,1.702607325736608-.041674634283481,3.538158814952112-.016830836458212,4.071888967351697-.642936143932275-3.013909008770497-1.867232531727495-5.556914094679087-3.94386472597489-7.661908192814735-6.215114206496764,2.382678028776354.28761647558531,3.388795315850075.03994271317606,3.964905532542616-.375064925573497-2.278301519603701-2.33354211556798-5.161875551524645-4.303934741904413-6.536656891252278-7.179446070599624,1.769108800392132.609747018679627,3.387610555195351.843153911387162,4.554353350558813-.053581026652864-.774191345182771-1.746556519594378-4.091152632938247-2.776708168779805-6.000851146713103-6.858199576007792,1.862400788375453.180592342890122,3.837770992151491.40632994526095,4.232808404811294,0-.864461515202493-3.521858181494281-2.347708371053159-5.501793331376575-3.802505144265524-7.553147617024479,3.985946339107613-.059270817080687,10.025026365839949.015409801972055,9.751493619472967-.321542684755514l-2.464618698322738-2.518199724974693c3.893485266278731-1.048259947036058,7.877358274245125.168376194395933,10.769467557056487,1.071582096158636,1.298588115947496-1.024699263086404-.022996566041911-2.320443614315991-1.607358447779916-3.643362847786193,3.3087810128618.441743888229212,6.298685052439396,1.202422405081052,9.001128624990088,2.250326245623,1.443951917344748-1.303745442380205-.93762952952784-2.607520842924714-2.089583165665317-3.911266285304009,5.111794542985081.96984473178145,7.27753701752772,2.332504884747323,9.429948673723629,3.697003225521257,1.56160045903016-1.496819600512936.089399687478362-2.768914523794592-.964422303846732-4.071889532599926,3.854365554778269,1.427532016476107,5.839635519090734,3.270551567597067,7.929811065083413,5.089861209189621.708640618340723-.956360731119275,1.800316164742981-1.657324145644452.482224717885401-3.964906097790845,2.736580054126534,1.577398021408044,4.797656612314313,3.436212308663926,6.322393831469526,5.518684649414354,1.693181243361323-1.078102801739988,1.008755866620049-2.552487693123112,1.018003330500505-3.9112662853031,2.843981772755797,2.31347975398603,4.648887754532552,4.775431610341911,6.858199576006882,7.179446635847853.445031372943049-.324032038723999.834709100241525-1.422998159032431,1.17874188847054-3.161196915734763,6.785002168764549,6.582592368000405,16.372311476001414,23.162354530026278,2.464618698322738,29.736053279648331-11.836337742524847-9.761867058172356-25.972372787216955-16.857443831672754-41.637590164509675-22.18024108164991l.004124052351472-.002697365381209Z" style="fill:#75a928; stroke-width:0px;"/><path d="m181.647157613579111,40.427221950872081c-20.13422047993663,10.382428409305248-31.840162198783219,18.778108164474361-38.253235440115532,25.932068315062679,3.284183663339718,13.16340533402763,20.417532023680906,13.764115161234258,26.682437831534116,13.394858728253894-1.282734028729465-.597060583514576-2.353016053561078-1.312190253525841-2.732519309598501-2.411037671669874,1.57200555163945-1.117193120324373,7.145960755184205-.117707327518474,11.037365907339336-2.303907272275865-1.494833317625307-.309688295239539-2.194050114583661-.611377195074965-2.893266911543833-1.714520501084735,3.676556495027398-1.172578419879756,7.636722984954758-2.183052641647009,9.965754418262804-4.125531040831447-1.256922525637492.015528504137365-2.430450562835176.281181687761091-4.071886706356963-.857260250541913,3.293073890228698-1.774622233318951,6.806929284826765-3.18105070065576,9.536934369527444-5.893569260748336-1.702609586729523-.041674634283481-3.538156553957378-.016830836458212-4.071886706358782-.642936143932275,3.013913530758145-1.867232531727495,5.55691635567382-3.94386472597489,7.661910453809469-6.215114206496764-2.382680289769269.28761647558531-3.388795315850075.03994271317606-3.964905532542616-.375064925573497,2.278303780596616-2.33354211556798,5.161875551524645-4.303934741904413,6.536650108271715-7.179446070599624-1.76910993088859.609747018679627-3.38761055519717.843153911387162-4.554355611553547-.053581026652864.774191345182771-1.746556519594378,4.09115941591881-2.776708168779805,6.000848885720188-6.858199576007792-1.862407571356016.180592342890122-3.837774383642682.40632994526095-4.232806143816561,0,.866023861788562-3.523340262807324,2.349344199932602-5.503274282193161,3.803995139056497-7.554629698338431-3.985950861095262-.05919055180766-10.025028626832864.015513807678872-9.751493619472967-.321483898921542l2.464618698322738-2.518199724974693c-3.89348526628055-1.048259947036058-7.877356013252211.168376194396842-10.769465296063572,1.071583226656003-1.298588115947496-1.024699263086404.022998827036645-2.320443614315991,1.607358447779916-3.643362847787103-3.308783273856534.441743888230121-6.298685052439396,1.202422405081961-9.001124103002439,2.250326245623-1.443951917346567-1.303745442379295.937634051515488-2.607520842923805,2.089583165665317-3.9112662853031-5.111790020997432.96984473178054-7.277541539515369,2.332504884747323-9.429953195711278,3.697003225521257-1.561604981017808-1.496819600513845-.089399687478362-2.768914523794592.964422303846732-4.071889532599926-3.854370076765917,1.427532016476107-5.839630997104905,3.270551567596158-7.929811065083413,5.089861209188712-.708640618340723-.956360731118366-1.800311642755332-1.657324145644452-.482224717885401-3.964906097789935-2.736580054128353,1.577398021407134-4.797656612314313,3.436212308663926-6.322389309481878,5.518684649414354-1.693185765348971-1.078102801739988-1.008755866621868-2.552487693123112-1.017998808512857-3.911266285304009-2.843977250768148,2.31347975398694-4.64889227652202,4.775431610341911-6.858199576008701,7.179446635848763-.445035894930697-.324032038723999-.834704578253877-1.422998159033341-1.17874641045637-3.161196915734763-6.784997646776901,6.582592368000405-16.372315997987243,23.162352269032453-2.464618698322738,29.736055540641246,11.830115488101001-9.763940389315394,25.965259701308241-16.858927043483163,41.631657317266217-22.181722032466496l-.00264988451454.000203489425076Z" style="fill:#75a928; stroke-width:0px;"/><path d="m152.610830964649722,174.469365472382378c.070185989303354,12.283577816120669-10.671728013616303,22.293852576993231-23.99273416800861,22.358574400921498-13.321001039539624.064721823930086-24.176705138950638-9.840614620276028-24.246891128253992-22.124212840501059-.000444992061603-.078106917402692-.000444992061603-.156234238911566,0-.234361560420439-.070185989303354-12.28358801817194,10.671728013616303-22.293862779044503,23.99273416800861-22.358584602974588,13.321006154390489-.064711621875176,24.176705138948819,9.840635024382209,24.246891128253992,22.124223042555968.000450106912467.078106917402692.000450106912467.156234238911566,0,.23436156041862Z" style="fill:#bc1142; stroke-width:0px;"/><path d="m114.534535380566012,110.932762851198277c9.994198617525399,6.547841430439803,11.795836371971745,21.38990148184439,4.024088527839922,33.150677390852252-7.771751314383437,11.760781160441184-22.173887933007791,15.986715394923522-32.168086550533189,9.438873964483719h0c-9.994198617525399-6.547841430439803-11.795836371971745-21.389901481843481-4.024088527838103-33.150677390851342,7.771751314383437-11.760781160442093,22.173887933005972-15.986715394923522,32.16808655053137-9.438873964484628h0Z" style="fill:#bc1142; stroke-width:0px;"/><path d="m141.509728670120239,109.747351031568542c-9.994198617525399,6.547841430438893-11.795836371971745,21.38990148184439-4.024088527838103,33.150677390852252,7.771751314381618,11.760781160441184,22.173887933005972,15.986715394923522,32.16808655053137,9.438873964483719h0c9.994198617525399-6.547841430439803,11.795836371971745-21.3899014818453,4.024088527838103-33.150677390852252-7.771751314381618-11.760781160441184-22.173887933005972-15.986715394923522-32.16808655053137-9.438873964483719h0Z" style="fill:#bc1142; stroke-width:0px;"/><path d="m64.584774001481492,121.638006583079004c10.790212173460532-2.892407733969776,3.64277046746065,44.639647044758021-5.136685821675201,40.739641072897939-9.657254275167361-7.767408415813406-12.767774410545826-30.515464128588064,5.136685821675201-40.739641072897939Z" style="fill:#bc1142; stroke-width:0px;"/><path d="m189.281203582095259,121.045300673263228c-10.791396934115255-2.891485248575009-3.642768206465917,44.642604424405363,5.136688082669934,40.742607496518758,9.657246361688522-7.768303769284103,12.767776671538741-30.518430552208883-5.136688082669934-40.742598452544371v-.000009043974387Z" style="fill:#bc1142; stroke-width:0px;"/><path d="m152.619382062795921,85.648903015589894c18.621335389301748-3.144305032448756,34.116150721920349,7.919143697215077,33.49085032817311,28.111449103081213-.612530301817969,7.741036186305791-40.35141942548762-26.958930218540445-33.49085032817311-28.111449103081213Z" style="fill:#bc1142; stroke-width:0px;"/><path d="m101.169545380420459,85.056197105774118c-18.622818601113977-3.144305032447846-34.116152982913263,7.921513218522705-33.490848067180195,28.112046005396223.612561955729689,7.740737735148286,40.351421686482354-26.95922866969795,33.490848067180195-28.112041483408575v-.000004521987648Z" style="fill:#bc1142; stroke-width:0px;"/><path d="m127.918361462458051,80.347148833173378c-11.11412211852803-.289086121433684-21.780458973893474,8.248688038368527-21.806243345061375,13.200743382560177-.031002744428406,6.017146127686829,8.787161755370107,12.178028141370305,21.881814795598984,12.334208536216465,13.37233018788902.095784733441178,21.905229645461077-4.93130846679469,21.948197568091928-11.141091250350655.048846506024347-7.035420777420768-12.162029350562079-14.502623505209158-22.024058425811745-14.394159119583492l.000289407182208.000298451157505Z" style="fill:#bc1142; stroke-width:0px;"/><path d="m128.597012261509008,203.736665319353961c9.68984988959528-.422932421364749,22.692046378981104,3.12118411175652,22.717532298993319,7.822531440111561.160828997713907,4.565325952566127-11.791886608085406,14.88017778475114-23.360314695359193,14.680740060091921-11.980661486861209.516808876198411-23.728684818843249-9.81403270282317-23.574878467292365-13.394849684278597-.179310359511874-5.250189962067452,14.588269943287742-9.349335207429249,24.217669907633535-9.108403727976111l-.000009043975297-.000018087948774Z" style="fill:#bc1142; stroke-width:0px;"/><path d="m92.806464631170456,175.873554710803546c6.898802499317753,8.311521050887677,10.043699912093871,22.913705148874215,4.286450478290135,27.218239054085643-5.44667030707933,3.285965326307632-18.673792702127685,1.932697340811501-28.075293554207747-11.57317617386434-6.340470475410257-11.333131003906601-5.523426518269844-22.865699732470603-1.071582096159545-26.253608738823459,6.657274117551424-4.055291013235546,16.943388720908843,1.422201158782627,24.860755277144563,10.608545858602156h-.000330105067405Z" style="fill:#bc1142; stroke-width:0px;"/><path d="m163.006549514715516,173.238990688517333c-7.464245348142867,8.743009072086352-11.6205937319246,24.689163949828071-6.17540663665568,29.824965723002606,5.206326685964086,3.990093001395508,19.182631575837149,3.43235109681882,29.506681130042125-10.892743711845469,7.496541380918643-9.621106639770005,4.984658872099317-25.688468863145317.702590199431143-29.955361746679046-6.360916640656797-4.920048718598991-15.492445811310972,1.376529087790914-24.033928000639207,11.020770214214281l.00006330782162.002369521307628Z" style="fill:#bc1142; stroke-width:0px;"/></svg>