<?xml version="1.0" encoding="UTF-8"?><svg id="Layer_1" xmlns="http://www.w3.org/2000/svg" width="256" height="249.600006103515625" viewBox="0 0 256 249.600006103515625"><g id="Layer_2"><g id="Surfaces"><g id="Photo_Surface"><g id="Outline_no_shadow"><path d="m45.333339691162109.000007629394531h165.333324432373047C235.733329772949219.000007629394531,255.999992370605469,20.266674041748047,255.999992370605469,45.333339691162109v158.933330535888672c0,25.066665649414062-20.26666259765625,45.333328247070312-45.333328247070312,45.333328247070312H45.333339691162109C20.266672134399414,249.599998474121094.000007629394531,229.333335876464844.000007629394531,204.266670227050781V45.333339691162109C.000007629394531,20.266674041748047,20.266674041748047.000007629394531,45.333339691162109.000007629394531Z" style="fill:#fff; stroke-width:0px;"/></g></g></g></g><circle cx="128.042327010436111" cy="126.693513254827849" r="21.252540679933645" style="fill:#61dafb; stroke-width:0px;"/><path d="m234.686042948180329,105.52563305568674c-7.366427587056023-6.096329807516668-17.738681762572014-11.599974880239643-30.058369243337438-15.833548013104519-2.459136483652401-.851055692773116-5.00586948171258-1.655083168373494-7.625832132225696-2.414847272532825.436587229323777-1.776736380711554.836172037226788-3.528485791089224,1.190795802334833-5.247909762078962,5.927002386011736-28.61896988197168,1.735754648603688-50.972230855558337-10.922613514851037-58.253981812021266-6.181032277791019-3.556185927797742-14.648178543518952-3.556185927797742-24.427722144564541.042351235137176-8.975180209607061,3.302181875697897-18.924077071837019,9.567864944400753-28.745971908017964,18.11968784072269-1.978363401927709,1.719217253552415-3.959569168626331,3.538640785236566-5.938811119664024,5.444885640935354-1.326738357585782-1.271079687368911-2.650143396484054-2.496810736749467-3.967734507432397-3.666805596875747-21.84522702970844-19.432085176040346-43.309447981264384-26.967840184603119-55.925490749265009-19.643763832683362-6.223357673246028,3.598537162935827-10.414605410654076,10.922613514854675-12.192711294393121,21.210191059778481-1.608752622552856,9.440862918350831-1.143069913809086,21.167865664321653,1.354748570453012,33.953261693507557.504416388711434,2.582030000618943,1.093638606416789,5.216333673405643,1.758855322312229,7.892110032215896-3.048694617193178.866507821272535-5.998061505366422,1.791361639458955-8.828927622131232,2.776499430538024-25.86712150592939,8.97518020960797-41.277338045427314,22.734267051738243-41.277338045427314,36.789735020784065,0,7.324102191600105,4.318249763457061,14.902182595615159,12.446715346492965,21.845252869385149,7.662757034611786,6.562038355941695,18.416043127959711,12.319687480763605,31.074411291416254,16.637937244220666,2.082652349460659.713795313860828,4.244451638045575,1.389167023900882,6.473149857543831,2.030223639219912-.712167414030773,2.877300021304109-1.333043239447761,5.703514995710066-1.858544806850659,8.46903256234873-5.12261315489377,26.883189393691282-.889040022028894,47.119689640525394,11.261294197546704,54.147410705207221,3.217531084785151,1.862756674650882,7.027746904362175,2.794147931816042,11.345996667821055,2.794147931816042,4.148896502269963,0,8.805826948421782-.889040022027984,13.759086842128454-2.66712006608941,9.483214153487097-3.344533110832344,19.855468329005816-9.779569440723208,29.931367217285697-18.585396389142261,1.64358451087719-1.437590583780548,3.293603102016277-2.961020583748905,4.947471805440728-4.557964472647654,2.147484105995318,2.064900489462161,4.296518592773282,4.024711001316973,6.440850257837155,5.870335968284053,15.240863278309916,13.124076711876114,29.846690586691693,20.067146985646104,41.362014676020408,20.067146985646104,4.191221897726791,0,7.959112321846987-.931365417485722,11.134292171496782-2.794147931816042,6.350359699297769-3.68321379353074,10.753286093347924-11.1766175669527,12.700719398593719-21.718225003660336,1.820457118872582-9.906571466774039,1.397099805588368-22.099256921486813-1.185395309268642-35.223333633366565-.408680375177937-2.078156245182981-.88475063518672-4.201919525150515-1.419864563460578-6.36384801213535,1.508029550823267-.445992872759234,2.986653546073285-.905965012274464,4.425716991601803-1.383585653069531,27.772229415721085-9.186858866250986,45.002877234413972-23.96203943582077,45.002877234413972-38.567866744200728,0-7.154723090733569-4.233573132865786-14.478825282333673-12.235036689849949-21.167865664322562Zm-68.372231935440141-72.140096519878171c6.773717012583802-2.49779264458266,12.404364111358518-2.751822536363761,15.875899248241694-.762037995980791,6.816042408039721,3.937217845627856,11.60000071991999,20.4481530637986,6.054004412062568,47.416019088079338-.317259588169691,1.535626328814942-.673950527658235,3.100658213204042-1.061364846391371,4.687369588916226-9.895227847357091-2.290687611258363-20.626601892263352-3.984349421521074-31.837844630103064-5.034525686571214-6.536043638096089-9.302439753845647-13.302215464185792-17.753048624523217-20.05986019595548-25.046634154318781,1.820896393432122-1.750328227990394,3.64184446622312-3.422801500846617,5.458399793453282-5.003259674054789,8.890503579013966-7.747433665204881,17.738655922894395-13.378106603659035,25.57076621869237-16.25693116606999Zm-5.080287759436033,112.697721964779703c-3.735203229216495,6.467749364474003-7.539605120848137,12.602166859967838-11.382585654369905,18.370048497978132-7.065937951056185.505760052059486-14.367146186379614.76570723050645-21.808612203478333.76570723050645-7.441879451971545,0-14.63060756127652-.226794869307923-21.522928703985599-.669790339215979-4.05471086952457-5.911110982951868-7.959086482169369-12.085838378879998-11.625943758404901-18.423614154129609-3.682748679292672-6.3621425932688-7.076868135597579-12.78237278665074-10.154554873488451-19.174360210054147,3.080994216900763-6.424209504066312,6.460410895419045-12.848341489095219,10.094115862515537-19.150122590431238l.018087775836648.010620108384501c3.67773578141805-6.373227815890459,7.550871221224952-12.528058658396731,11.557856202221956-18.395087147669983,7.103431326397185-.541806405333773,14.357146230311628-.825319371726437,21.63336749530481-.825319371726437,7.344773935412377,0,14.598747236126655.278991022433729,21.671791099119218.817128193240933,3.938173913777064,5.809819438270097,7.783970972393945,11.93958579140417,11.477081363271282,18.318627535241831,3.756210888868736,6.484984430877375,7.183275936875361,12.861778122573014,10.269877364286003,19.087538886038601-3.088771960510712,6.372013350941415-6.508705256901521,12.824956578906495-10.227551968828266,19.268623361836944Zm15.699646792558269-7.576271626432572c3.193474342921036,7.269347910174474,5.868113755821469,14.272857194917378,7.991050166037894,20.929753015278038-6.889246220815039,1.576401343485486-14.335673456427685,2.845155459677699-22.186853435894591,3.787942015616864,2.459911674046452-3.898742562456391,4.89656763630046-7.934926381583864,7.302009265400557-12.103435200800959,2.421694787672095-4.20496860736057,4.720728615493499-8.417172325063802,6.89379400445614-12.614259830093943Zm-48.476944659914807,53.743562350144202c-4.818531803406586-5.204318222315123-9.628303955372758-10.963466048566261-14.314510758698816-17.135299400360964,4.531685518325503.175322227214565,9.168357655539694.264339924009619,13.900610768207116.264339924009619,4.859926970393644,0,9.665616452957693-.111058943635726,14.395337277008366-.324572217541572-4.649178542220398,6.323331394263732-9.326548175065909,12.077853917833636-13.981437286516666,17.195531693892917Zm-34.911345339870422-28.831914682925344c-7.808957942728739-.869608582845103-15.137969673483894-2.049241643522691-21.903288790142142-3.527452203898065,2.104874474060125-6.78245082434114,4.696310118114525-13.831308747076037,7.706917047332354-20.977375545084215,2.129654726956687,4.110085303262167,4.376983355566153,8.214589235694802,6.739117681376229,12.29209070277102,2.411384755443578,4.167061797144925,4.90297587688292,8.242366891445272,7.457254061433559,12.212737046211259Zm-7.457254061433559-60.729474812963417c-2.362160165490423,4.093935503408829-4.609721351217559,8.211721031242632-6.739298559134113,12.332503961927614-2.954379786046957-7.008599701655839-5.48643584599904-13.913763165208366-7.557382820526982-20.600710533136407,6.798264708359966-1.514851226283099,14.050610109249646-2.755620969288429,21.583729470476101-3.697735693557661-2.497430889065981,3.895435083445591-4.932071356300185,7.888673354806997-7.287048090815006,11.965942264766454Zm42.076197585073714-40.781448751036805c4.668248225889329,5.060572083775696,9.350992512123412,10.716593748079504,13.961437374375237,16.857083568316739-4.661064794912818-.219895674808868-9.376470436372983-.334029540336815-14.125260944090769-.334029540336815-4.681090546733685,0-9.327840159055995.109715280287674-13.920171405792644.321988249565948,4.600910020418269-6.064159406209001,9.322439665986167-11.710723747718475,14.083994975508176-16.845042277545872Zm41.790901680775278,40.696772120444621c-2.350997423831359-4.062747009931627-4.766309810598614-8.029835525368981-7.229425604937205-11.888500744507837,7.586194063465882.957050059172616,14.869882995910302,2.229576768610059,21.728276639087198,3.792515638937402-2.05097290206686,6.578136476433428-4.609204557624253,13.464772889594315-7.623661599127445,20.52944469634258-2.160119709398714-4.098354088649103-4.451944266565988-8.245984446611146-6.875189435022548-12.433459590772145Zm-102.537172285587985-25.316788006273782c-2.286113987939643-11.557649484782814-2.709471301225676-22.056905686350547-1.312397335316746-30.270022060298288,1.227720704722742-7.112423534956179,3.810215819577934-12.150360059256855,7.281750956462929-14.140144599639825,6.816042408039721-3.937217845626947,23.496330887396653.169353261187098,44.071485977246084,18.458394363097796,1.187514163006199,1.054052217014032,2.380997292038955,2.158491809574116,3.578046296878711,3.301871799540095-6.908290064803623,7.422913127024003-13.716735606992188,15.860808875258044-20.212004230415914,25.030561873502847-11.19090690986468,1.033819747758571-21.897397343154807,2.70130596242052-31.775028368592757,4.945766386575997-.616353881458053-2.485286239574634-1.163509100503688-4.931011929429587-1.631853296262307-7.326427762778621Zm-11.515298249647458,78.278777562531104c-25.147434745085775-8.594148291776946-36.620433438954933-20.998512403133645-36.620433438954933-28.872973934066977,0-7.578080404020511,10.668609462753921-18.924051232161219,34.461295637386684-27.221870076382402,2.600686249409591-.905784134518399,5.32979570725729-1.759811390464165,8.165597202858407-2.562546882076276,2.982338319554401,9.713962493799045,6.892398661748302,19.845830128453599,11.600853429352355,30.070384694428867-4.76680076451521,10.365019065182423-8.715543107318808,20.619754377121353-11.717287026376653,30.433380515778481-2.02877661714956-.584571075341955-3.99558968222027-1.198961141142718-5.890025804265861-1.846374317681693Zm23.919662361003247,66.89045549925504c-2.582469275175754,0-4.699255841607737-.508033943875489-6.308008464158775-1.439425201040649-6.519712960483957-3.767864584442577-11.049641380584035-18.670047180063193-6.35035969929686-43.436450007315216.482478500591242-2.559213563386947,1.061054770231749-5.192276931546076,1.729449766738981-7.885934348752926,9.684479419185664,2.148026739267152,20.431047195793326,3.702981148548133,32.025544063923007,4.637550686324175,6.576120981412714,9.267401148081262,13.459992548837363,17.773384452499158,20.435181544556144,25.246788313788784-1.515910653154606,1.46032950197332-3.026834248109481,2.852183852568487-4.530367694657798,4.165072141802739-15.32553990890392,13.378106603659035-28.576618646832685,18.712398415193093-37.0014395171047,18.712398415193093Zm109.183861432442427-47.458344483535257c5.164964390029127,26.078800162573316.169353261184369,42.208729302594293-6.64671498653297,46.145947148221239-6.562038355939876,3.810215819577934-21.718225003658517.254004052098026-40.811629497005924-16.172254535475076-1.983789734675156-1.70417855992855-3.984711177035933-3.529571057641078-5.994185553401621-5.464963072117826,6.677541724495313-7.294980872500673,13.373713858100018-15.793806585621496,19.95580380553838-25.325547657712377,11.518347331859331-1.028186697567435,22.387110954079617-2.704355044630574,32.197171216928837-4.971916142496411.488344107898229,1.967872491941307.923329277080484,3.899285195731863,1.299555014473299,5.788734259580451Zm9.737218205586032-19.389785620258408c-1.303792721953869.434597573981591-2.642184775113492.853846378186063-4.007165858754888,1.26058877738069-2.984870608172059-9.478201255609747-7.026015645817097-19.586632300715792-12.032324402083759-30.119402566941062,4.750831842418847-10.249412337910144,8.657765583362561-20.269755914694542,11.580595120412909-29.714804861167977,2.433529361007459.701857381804075,4.799565478462682,1.442448443577632,7.083741490418106,2.224770588174579,11.134292171498601,3.852541215033852,20.4481530637986,8.721150317827778,26.840838158552287,14.055442129365474,5.545970468179803,4.614605050693172,8.594148291778765,9.356212127437175,8.594148291778765,13.378106603659944,0,7.832110295797975-11.938681402614748,20.236474407156493-38.05983280032342,28.915299329528352Z" style="fill:#61dafb; stroke-width:0px;"/></svg>