<?xml version="1.0" encoding="UTF-8"?><svg id="Layer_1" xmlns="http://www.w3.org/2000/svg" width="255.999984741210938" height="249.599990844727472" viewBox="0 0 255.999984741210938 249.599990844727472"><g id="Layer_2"><g id="Surfaces"><g id="Photo_Surface"><g id="Outline_no_shadow"><path d="m45.333332061767578,0h165.333324432373047c25.066665649414062,0,45.333328247070312,20.266666412353516,45.333328247070312,45.333332061767578v158.933330535889581c0,25.066665649414062-20.26666259765625,45.333328247070312-45.333328247070312,45.333328247070312H45.333332061767578c-25.066667556762695,0-45.333332061767578-20.26666259765625-45.333332061767578-45.333328247070312V45.333332061767578C0,20.266666412353516,20.266666412353516,0,45.333332061767578,0Z" style="fill:#cd6799; stroke-width:0px;"/></g></g></g></g><path d="m213.289106148944484,136.972551139177995c-7.564190050477919.039605493793715-14.138303185605764,1.861343392272829-19.64312841778883,4.554353810624889-2.019759324501138-3.99991315520856-4.039518649002275-7.564190050479738-4.395943921348589-10.177989481242548-.396030766140029-3.049435690698374-.871272519869308-4.910779082971203-.396030766140029-8.554266965833449.47524175372746-3.643481839910237,2.613805473709363-8.831487293540704,2.574199979917466-9.227518059680733-.039605493793715-.396030766143667-.475241753731098-2.257374158418315-4.831580181284153-2.29697965221203-4.356338427554874-.039605493793715-8.118630705899704.831667026077412-8.55426696583163,1.980153830705603-.435636259937382,1.14848680463183-1.267303286012975,3.762292278343011-1.821743941431123,6.455302696695071-.752456038488162,3.960307661414845-8.712676855109748,18.0986048040686-13.267030665734637,25.504378922320029-1.465318669079352-2.891025801420255-2.732609869195585-5.425620287544007-3.00983623985303-7.445379612046963-.396030766140029-3.049435690696555-.871272519869308-4.910779082971203-.396030766140029-8.554266965829811.47524175372746-3.643481839912056,2.613805473711182-8.831487293540704,2.574199979917466-9.227518059682552s-.475241753732917-2.257374158418315-4.831580181285972-2.29697965221203c-4.356338427554874-.039605493795534-8.118630705894248.831667026079231-8.554266965829811,1.980153830709241-.435636259937382,1.148486804628192-.9108659277681,3.841497222978433-1.821743941431123,6.455302696693252-.910865927764462,2.613805473711182-11.484892218097229,26.217241552911219-14.25710758108653,32.316112934311604-1.425713175289275,3.128640635333795-2.653410967508535,5.62364171356603-3.524671401479281,7.32656917361237h0s-.039605493793715.118804395484403-.1584098892763.316819778556237c-.752456038489981,1.465318669079352-1.188092298423726,2.257380201363048-1.188092298423726,2.257380201363048v.039605493791896c-.594046149210953,1.069287902941142-1.22769779221926,2.059364818298491-1.544517570771859,2.059364818298491-.237620876865549,0-.673251093849103-2.851426350580368.07920494463815-6.732523024404145,1.584123064564665-8.197841693485316,5.346409299957486-20.950025111696959,5.306815892064151-21.385661371632523,0-.237620876861911.712850544694447-2.455389541484692-2.455395584434882-3.603882389066712-3.089041184494818-1.148486804628192-4.197928538280394.752456038489981-4.475148865987649.752456038489981-.277220327709983,0-.475235710779998.673251093850922-.475235710779998.673251093850922,0,0,3.445466456839313-14.336312525725589-6.574113135126936-14.336312525725589-6.257287313622328,0-14.890759224093927,6.8513334628351-19.167886664058642,13.029409788870908-2.69301041835206,1.465312626130981-8.435456527399765,4.593959304418604-14.573933402590228,7.960220816619767-2.336579103054646,1.30689669390631-4.752369193696723,2.613805473711182-7.0097433521114,3.841503265930442-.158412910752304-.1584098892763-.316825821504608-.356425272346314-.475235710780908-.514835161624433-12.118540839629532-12.950204844231848-34.533881598933476-22.098517959275341-33.58341017737348-39.484266175699304.356428293823228-6.336492258262297,2.534597507599756-22.969784436196278,43.048543070971391-43.167353509403256,33.345813472308691-16.435282837815976,59.879874803775238-11.880929027190177,64.473834108195661-1.782144490587598,6.574113135127845,14.415520491840653-14.217502087292814,41.187199678699471-48.672178741587231,45.068302395471619-13.148220227301863,1.465312626134619-20.039159183930678-3.603882389064893-21.781692137772552-5.504825232183066-1.821743941429304-1.980153830705603-2.098964269138378-2.098964269138378-2.7722153629893-1.702933503000168-1.108887353785576.594046149215501-.396030766141848,2.37618459685109,0,3.405867006000335,1.029682409148336,2.693010418348422,5.267210398269526,7.445379612045144,12.435363639658135,9.781958715097062,6.336492258261387,2.059358775344663,21.742086643977927,3.207851622926682,40.395138146413956-3.999913155204922,20.87082621000809-8.07902521210417,37.187286523490911-30.53397146520183,32.395311835998655-49.345432856913249-4.791962601588239-19.088684740898316-36.474429935845365-25.385573771471172-66.453957724151223-14.732346313343442-17.821384476359526,6.336492258261387-37.147687072646477,16.316467867171013-51.048366359911597,29.306276694458575-16.514483250241028,15.445199879510255-19.128285702478934,28.870640434521192-18.05900233174998,34.494282148087223,3.841498356034208,19.959948196341429,31.365635469803237,32.949752491418622,42.375291977121378,42.573307360191393-.554443676892333.316819778554418-1.069281859990951.594046149211863-1.504918119927424.831667026077412-5.504828253658161,2.732609869195585-26.494458859148835,13.70266692567202-31.722063763623737,25.306363539250015-5.940461492120448,13.148226270252053.95047368766609,22.573753670058068,5.50482825365907,23.841056956067405,14.138297142654665,3.920702167619311,28.672628072926273-3.128640635335614,36.474435978796464-14.771942742709143,7.801804884392368-11.643302107377167,6.851333462834191-26.771682208333004,3.247451073767479-33.702220615807164-.039605493792806-.07921098758743-.079204944639059-.158409889278118-.158409889277209-.237620876865549,1.425713175289275-.831667026077412,2.891025801422984-1.70292746004634,4.316732933761159-2.534594486121932,2.811820856783925-1.663334052156642,5.584036219772315-3.207851622926682,7.960220816621586-4.475142823039278-1.346502187700935,3.683081290753762-2.336579103054646,8.07902521210417-2.811820856784834,14.415517470366467-.594046149211863,7.445373569096773,2.455389541487421,17.108533931661441,6.455302696694162,20.910419617899606,1.782138447635589,1.663334052151185,3.881102716773967,1.702927460048159,5.227604904475811,1.702927460048159,4.673164249057663,0,6.772128518196041-3.881096673825596,9.108707621250687-8.475055978246019,2.85142030762654-5.62364171356603,5.425620287544916-12.158149354898342,5.425620287544916-12.158149354898342,0,0-3.207851622923954,17.662974587083227,5.504825232185794,17.662974587083227,3.168246129129329,0,6.376097752055102-4.118717550691144,7.801810927344377-6.217687862777893v.039605493793715s.07921098758743-.118804395482584.237620876865549-.396030766140029c.316819778552599-.514835161626252.514835161620795-.831667026077412.514835161620795-.831667026077412v-.079210987585611c1.267303286012975-2.217774707572971,4.118717550689325-7.247358186030397,8.356251582763434-15.603609768790193,5.465219738389351-10.772041673402782,10.732436179610886-24.237081679259063,10.732436179610886-24.237081679259063,0,0,.47524175372746,3.287056567562104,2.098958226186369,8.752282348903464.950471421561815,3.207845579972854,2.930625252267419,6.732529067352516,4.514748316832993,10.138383987447014-1.267303286012975,1.782138447635589-2.059364818296672,2.7722153629893-2.059364818296672,2.7722153629893l.039605493793715.039605493793715c-1.029682409147426,1.346502187700025-2.138563719983722,2.811820856784834-3.366261512199344,4.23753403207229-4.316732933761159,5.148399959838571-9.465132893597911,11.049255958163485-10.177995524194557,12.752195504112024-.831667026075593,2.019759324499319-.633651643003759,3.485065907681928.950471421561815,4.673158206107473,1.148486804630011.871272519869308,3.207851622923044.990076915353711,5.306809849113051.871272519869308,3.881096673823777-.277226370657445,6.613718628919742-1.22769779221926,7.960220816619767-1.821743941431123,2.098958226190007-.752456038484524,4.554353810624889-1.900942843116354,6.851327419886729-3.603882389064893,4.237534032070471-3.128640635335614,6.811734011991575-7.603795544273453,6.574113135127845-13.504651542598367-.118804395488041-3.247457116718579-1.188092298429183-6.494902147538596-2.494988992331855-9.54434388118716.396030766140029-.554440655418148.752456038486343-1.108881310836296,1.148486804628192-1.663334052153004,6.692917530606792-9.781958715098881,11.880922984240897-20.514394894711586,11.880922984240897-20.514394894711586,0,0,.47524175372746,3.287056567565742,2.098958226186369,8.752282348905283.792061532285516,2.772215362991119,2.415790090642986,5.782051602844149,3.841503265930442,8.712682898059938-6.296886764464944,5.108794466043037-10.177995524190919,11.049255958161666-11.564103205682841,14.930364717885823-2.494988992331855,7.207764778131605-.554440655418148,10.455209808949803,3.128640635333795,11.207665847439785,1.663334052151185.356425272346314,4.039518649002275-.435636259933744,5.782051602844149-1.188092298423726,2.217774707571152-.712850544694447,4.831580181282334-1.940548336911888,7.32656917361237-3.762292278343011,4.237534032074109-3.128640635335614,8.316646088969719-7.484979062890488,8.07902521210417-13.385835061215403-.118804395480765-2.69300437540187-.831667026075593-5.346415342910404-1.821743941429304-7.920615322826052,5.346415342908585-2.217774707572971,12.237348256587211-3.445466456840222,21.029236099282571-2.415790090642986,18.85105479961021,2.217774707572971,22.573753670056249,13.979881210427266,21.86090312536362,18.930265787194003-.712850544694447,4.950384576766737-4.673158206109292,7.643388952166788-5.980054900015602,8.4750559782442s-1.742545039742254,1.108881310836296-1.623716472460728,1.702927460049978c.15842197517668.871272519871127.792061532283697.831667026075593,1.900942843118173.673257136799293,1.544529656672239-.277226370659264,9.900769153537112-3.99991315520856,10.257206511781988-13.108620776458338.594046149210044-11.643302107373529-10.494815302745337-24.355886074741647-30.098350312640832-24.237075636307054Zm-145.42249611850184,49.028604013934455c-6.257284292148142,6.811734011991575-14.969961147256981,9.385933991907223-18.732253425599083,7.207764778131605-4.039514116790087-2.336579103053737-2.455391052225423-12.39575814586351,5.227604904473992-19.603522923995115,4.673164249058573-4.395943921350408,10.692830685816261-8.4750559782442,14.692740819547907-10.970057056474616.910871970716471-.554440655419967,2.257374158416496-1.346502187701844,3.881102716775786-2.336579103053737.277220327709074-.1584098892763.435633238460468-.23762087686373.435633238460468-.23762087686373h0c.316825821502789-.198015383071834.633648621530483-.396030766141848.950474443034182-.594046149211863,2.81181783530883,10.296799919671685.118810438430955,19.365914133029946-6.455302696693252,26.534061331467456Zm45.543538106251617-30.969598660713018c-2.178169213777437,5.306809849116689-6.732523024403235,18.890672379304306-9.504738387392536,18.138204254915763-2.376184596847452-.633651643007397-3.841497222980252-10.930451562680901-.475235710779089-21.108435000975078,1.702933502997439-5.108794466041218,5.306809849113051-11.207671890388156,7.405774118253248-13.583856487235607,3.405867005994878-3.801897772138545,7.168159284337889-5.069195015197693,8.079025212103261-3.524671401477462,1.148492847579291,2.019753281550948-4.15831700153467,16.752102616364937-5.504825232184885,20.078758634772385Zm37.583323332581131,17.979794365637645c-.910865927766281.475241753729279-1.782138447637408.792061532281878-2.178169213779256.554440655416329-.277226370657445-.158409889274481.396030766141848-.792061532280059.396030766141848-.792061532280059,0,0,4.712763699901188-5.069188972249322,6.574113135126026-7.366174667411542,1.06928790294296-1.346502187698206,2.336579103055556-2.9306252522656,3.6830812907574-4.712763699899369v.514835161622614c0,6.059277973501594-5.861250504533018,10.138390030397204-8.475055978246019,11.801724082552028Zm28.989444830005596-6.613718628919742c-.673257136802931-.475241753729279-.554440655418148-2.059364818296672,1.702927460044521-7.00974939506159.871272519874765-1.940548336913707,2.930625252267419-5.188005453632286,6.455296653748519-8.3166460889679.39603076613821,1.267303286009337.673257136797474,2.494988992331855.633651643003759,3.643487882860427-.039593407896973,7.643401038065349-5.504813146284505,10.494815302743518-8.791875756796799,11.682907601169063Z" style="fill:#fff; stroke-width:0px;"/></svg>