<?xml version="1.0" encoding="UTF-8"?><svg id="Layer_1" xmlns="http://www.w3.org/2000/svg" width="255.999984741209119" height="249.599990844728381" viewBox="0 0 255.999984741209119 249.599990844728381"><g id="Layer_2"><g id="Surfaces"><g id="Photo_Surface"><g id="Outline_no_shadow"><path d="m45.333332061767578,0h165.333324432371228c25.066665649414062,0,45.333328247070312,20.266666412353516,45.333328247070312,45.333332061767578v158.933330535890491c0,25.066665649414062-20.26666259765625,45.333328247070312-45.333328247070312,45.333328247070312H45.333332061767578c-25.066667556762695,0-45.333332061767578-20.26666259765625-45.333332061767578-45.333328247070312V45.333332061767578C0,20.266666412353516,20.266666412353516,0,45.333332061767578,0Z" style="fill:#fff; stroke-width:0px;"/></g></g></g></g><path d="m31.852882112561929,28.652936598835367h192.294117647061285v192.294117647059466H31.852882112561929V28.652936598835367Z" style="fill:none; stroke-width:0px;"/><path d="m64.699121564539382,196.868225385162077c3.532257172113532,2.831123930565809,8.690798240548247,2.262742067083309,11.52192503652077-1.269512239625328s2.262747797896736-8.690798240550066-1.269509374218615-11.521922171115875-8.690798240550066-2.262753528706526-11.52192503652077,1.269512239625328c-2.662979061989972,3.322460767099983-2.338509123115728,8.130657283698383.746710383715254,11.065222358003666l-1.598443615084761-1.406146242337854c-18.874871829195399-17.552856045611406-30.724996846389331-42.581131335569808-30.724996846389331-70.337587992937188,0-52.940971055450063,43.073883682489395-96.014854737939459,96.02687224921101-96.014854737939459,26.921173719800208,0,51.258393399855777,11.159067974589561,68.715109355309323,29.06044832309999,4.107707991321149-5.615292458849581,7.536738925122336-11.696786415926908,10.215629584650742-18.117712027447851,12.234709017415298,36.764233233738196,19.427725343142811,67.663495455159136,16.795689796699662,92.000720866028132-3.557446953129329,49.720048802737438-45.117003868608663,89.116304688592209-95.726417275036511,89.116304688592209-22.605861358782931.014945955837902-44.485101692816897-7.984303825040115-61.750448666951343-22.576531066613825l-1.430186995688928-1.261924645481486-.000008596216503-.00601735185046Zm141.696724617306245-29.937792550113954c24.09685799304134-32.065046776744566,10.666312045910672-83.918355696343497-.51077574842202-117.059041366857855-9.957227303701075,20.74973754497114-34.480744197087915,36.620010204173013-55.657123449969731,41.643696686798648-19.848355430014635,4.73524328890926-37.413223256084166.853306339067785-55.783321645330943,7.920113007814507-41.88406123922141,16.104634186798648-41.223052272902351,66.053027165286039-18.14775723832463,77.278196466319059.012017511269732,0,1.382114085205103.745143006828584,1.3640849528947.721107984289119,0-.012023242081341,33.915875320924897-6.74231094121933,52.664551103816848-13.664901743915834,27.401908555450063-10.119478032869665,57.483922702424024-35.06362501312833,67.381068180589864-64.039947891938937-5.270065521493962,30.136090082283772-31.139623908436988,59.130442093402962-57.129380331321954,72.44680735644215-13.833158363313487,7.1028592025541-24.589610339964565,8.683279416141886-47.352427158284627,16.561333999914496-2.788263192949671.949457890848862-4.975610706736916,1.886881077993166-4.975610706736916,1.886881077993166,5.76882375864443-.961469671306986,11.519618384978457-1.273947887562827,11.519618384978457-1.273947887562827,32.407565905767115-1.532338706885639,82.968897805496454,9.109938316487387,106.633102469584628-22.414280337445234l-.006028813473677-.00601735185046Z" style="fill:#70ad51; fill-rule:evenodd; stroke-width:0px;"/></svg>