<?xml version="1.0" encoding="UTF-8"?><svg id="Layer_1" xmlns="http://www.w3.org/2000/svg" width="255.999984741210938" height="249.599990844727472" xmlns:xlink="http://www.w3.org/1999/xlink" viewBox="0 0 255.999984741210938 249.599990844727472"><defs><clipPath id="clippath"><rect x="23.680138633002571" y="62.13613932025055" width="208.639707475207615" height="125.327712204227282" style="fill:none; stroke-width:0px;"/></clipPath></defs><g id="Layer_2"><g id="Surfaces"><g id="Photo_Surface"><g id="Outline_no_shadow"><path d="m45.333332061767578,0h165.333324432373047c25.066665649414062,0,45.333328247070312,20.266666412353516,45.333328247070312,45.333332061767578v158.933330535889581c0,25.066665649414062-20.26666259765625,45.333328247070312-45.333328247070312,45.333328247070312H45.333332061767578c-25.066667556762695,0-45.333332061767578-20.26666259765625-45.333332061767578-45.333328247070312V45.333332061767578C0,20.266666412353516,20.266666412353516,0,45.333332061767578,0Z" style="fill:#fff; stroke-width:0px;"/></g></g></g></g><g style="clip-path:url(#clippath);"><path d="m127.999992370605469,62.13613932025055c-27.818630611129265,0-45.205269216019587,13.925300331317885-52.15992686880054,41.77590283842801,10.431988321528479-13.925300331318795,22.602636450365026-19.14728772500348,36.511951755928749-15.66596402552932,7.936039582131343,1.98435539404818,13.607942889202604,7.751749601678966,19.886452604892838,14.13031159944876,10.227206888446744,10.393690779490498,22.065575254930081,22.423605689764372,47.921449376781311,22.423605689764372,27.818630611129265,0,45.205272900730051-13.925302175788602,52.159926868802359-41.775902838425282-10.431988321528479,13.92529848684444-22.602629080945917,19.14728772500257-36.511951755930568,15.665964025526591-7.936039582129524-1.984357238517987-13.607942889200785-7.751749601677147-19.8864526048892-14.130311599445122-10.227206888448563-10.393693546201575-22.065575254933719-22.42360568976801-47.921449376784949-22.42360568976801Zm-52.15992686880054,62.663856102111822c-27.818626926418801,0-45.205270137197658,13.925294797905735-52.159926868802359,41.775899149484758,10.431985557994267-13.92530217579224,22.602634608008884-19.147291413948551,36.511948071218285-15.66596033658243,7.936035897420879,1.988223252772514,13.607946573913068,7.751749601678966,19.886456289601483,14.13031159944876,10.227206888446744,10.393690779492317,22.065582624352828,22.423605689764372,47.92144937678313,22.423605689764372,27.818630611131084,0,45.205272900728232-13.925302175790421,52.159926868802359-41.77589914948112-10.431988321528479,13.92530217579224-22.602629080945917,19.147291413946732-36.511951755930568,15.66596033658243-7.936039582129524-1.984357238519806-13.607942889200785-7.751749601678966-19.886452604891019-14.13031159944876-10.227206888446744-10.393698157378822-22.065582624351009-22.42360568976801-47.921449376781311-22.42360568976801Z" style="fill:#38bdf8; fill-rule:evenodd; stroke-width:0px;"/></g></svg>