<?xml version="1.0" encoding="UTF-8"?><svg id="Layer_1" xmlns="http://www.w3.org/2000/svg" width="256" height="249.600006103515625" viewBox="0 0 256 249.600006103515625"><g id="Layer_2"><g id="Surfaces"><g id="Photo_Surface"><g id="Outline_no_shadow"><path d="m45.333339691162109-.224419221282005h165.333332061767578c25.066665649414062,0,45.333328247070312,20.266666993498802,45.333328247070312,45.333332642912865v158.933338165283203c0,25.066665649414062-20.26666259765625,45.333328247070312-45.333328247070312,45.333328247070312H45.333339691162109C20.266672134399414,249.375564575195312.000007629394531,229.108901977539062.000007629394531,204.042236328125V45.108913421630859C.000007629394531,20.042247772216797,20.266674041748047-.224419221282005,45.333339691162109-.224419221282005Z" style="fill:#007acc; stroke-width:0px;"/></g></g></g></g><path d="m57.580596300588695,129.301855732866898l-.081268310546875,10.483810424804688h33.320640563964844v94.679359436035156h23.568252563476562v-94.679374694824219h33.320632934569403v-10.2806396484375c0-5.688888549804688-.121906280517578-10.44317626953125-.284442901611328-10.565078735351562-.121906280517578-.16253662109375-20.398731231689453-.243804931640625-44.982852935790106-.203170776367188l-44.739044189453125.121902465820312-.121917724609375,10.443191528320312Z" style="fill:#fff; stroke-width:0px;"/><path d="m207.536071154103411,118.56108730024971c6.5015869140625,1.625396728515625,11.45904541015625,4.510482788085938,16.010162353515625,9.22412109375,2.356826782226562,2.519363403320312,5.851425170898438,7.111114501953125,6.135879516601562,8.208251953125.081268310546875.3250732421875-11.052703857421875,7.801910400390625-17.798095703125,11.9873046875-.243804931640625.16253662109375-1.21905517578125-.893966674804688-2.316192626953125-2.519363403320312-3.291427612304688-4.794921875-6.745391845703125-6.8673095703125-12.027938842773438-7.233016967773438-7.761276245117188-.52825927734375-12.759368896484375,3.535232543945312-12.718734741210938,10.321273803710938,0,1.991104125976562.284439086914062,3.169525146484375,1.097137451171875,4.794921875,1.7066650390625,3.535232543945312,4.876190185546875,5.64825439453125,14.831741333007812,9.955551147460938,18.32635498046875,7.8831787109375,26.16888427734375,13.084442138671875,31.045074462890625,20.479995727539062,5.445083618164062,8.248886108398438,6.66412353515625,21.414596557617188,2.966354370117188,31.207611083984375-4.063491821289062,10.646347045898438-14.140945434570312,17.879364013671875-28.322540283203125,20.276824951171875-4.388565063476562.772064208984375-14.791107177734375.650161743164062-19.5047607421875-.203170776367188-10.2806396484375-1.828575134277344-20.03302001953125-6.907936096191406-26.046981811523438-13.572067260742188-2.356826782226562-2.600631713867188-6.948577880859375-9.386672973632812-6.66412353515625-9.874282836914062.121902465820312-.16253662109375,1.17840576171875-.812698364257812,2.356826782226562-1.503494262695312,1.137771606445312-.650161743164062,5.445083618164062-3.128890991210938,9.508575439453125-5.4857177734375l7.35491943359375-4.26666259765625,1.54412841796875,2.275558471679688c2.153656005859375,3.291427612304688,6.8673095703125,7.801910400390625,9.711746215820312,9.305404663085938,8.167617797851562,4.307296752929688,19.382858276367188,3.697784423828125,24.909210205078125-1.259689331054688,2.356826782226562-2.153656005859375,3.332061767578125-4.388565063476562,3.332061767578125-7.67999267578125,0-2.966354370117188-.365707397460938-4.26666259765625-1.909835815429688-6.5015869140625-1.991119384765625-2.844436645507812-6.054611206054688-5.241897583007812-17.594924926757812-10.240005493164062-13.206344604492188-5.688888549804688-18.895233154296875-9.22412109375-24.096511840820312-14.831741333007812-3.006988525390625-3.25079345703125-5.851425170898438-8.452056884765625-7.02984619140625-12.800003051757812-.975234985351562-3.616500854492188-1.21905517578125-12.6781005859375-.446990966796875-16.335235595703125,2.7225341796875-12.759368896484375,12.353012084960938-21.658416748046875,26.250152587890625-24.2996826171875,4.510482788085938-.85333251953125,14.994293212890625-.52825927734375,19.423492431640625.568893432617188h.000015258789062Z" style="fill:#fff; stroke-width:0px;"/></svg>