<?xml version="1.0" encoding="UTF-8"?><svg id="Layer_1" xmlns="http://www.w3.org/2000/svg" width="255.999984741210938" height="249.599990844726562" xmlns:xlink="http://www.w3.org/1999/xlink" viewBox="0 0 255.999984741210938 249.599990844726562"><defs><clipPath id="clippath"><rect x="34.001894754934256" y="30.801897806691159" width="187.996195231344245" height="187.996195231345155" style="fill:none; stroke-width:0px;"/></clipPath><clipPath id="clippath-1"><rect x="34.001894754934256" y="30.801897806691159" width="187.996195231344245" height="187.996195231345155" style="fill:none; stroke-width:0px;"/></clipPath><mask id="mask" x="34.001899356205286" y="30.801899450307246" width="187.996751064475575" height="187.994441585558889" maskUnits="userSpaceOnUse"><g id="mask0"><path d="m68.466981349458365,189.814610457971867l-31.33078295622181-23.499398415118776c-.976859239011901-.725532920336263-1.769576702850827-1.670530201516158-2.314013932056696-2.759366050457174s-.825403429062135-2.289533495435535-.820214519380897-3.50621139872419v-70.498812996888773c-.005188909681237-1.216998971520297.275777290175029-2.418123354272211.820214519380897-3.506422734774787.544437229205869-1.088405048529239,1.337154693044795-2.03351612604547,2.314013932056696-2.759154714406577l31.33078295622181-23.499605687014082c-.841662080460083.790307420023055-1.477702311429312,1.774092994905914-1.852933534462863,2.866017601518251-.375231223031733,1.091920542457046-.478257547983958,2.258845062310684-.300227245636052,3.399563911817495v117.497813034867249c-.178030302347906,1.141035853583162-.075003977395681,2.307643369360449.300227245636052,3.399665515687957.375231223033552,1.092022146327508,1.011271454002781,2.075385049109173,1.852933534462863,2.865911933493408Z" style="fill:#fff; stroke-width:0px;"/><path d="m218.511602946986386,63.428112842467272c-1.291247016119087-.847945263829388-2.803047586576213-1.297436723924875-4.347865350875509-1.292429685173374-1.000399839829697-.008095796422822-1.993354148011349.181330396070734-2.92024155526633.557415091618168-.927960344131861.37597902752168-1.771760170035122.93126043785378-2.484499130963741,1.633887781565136l-.546547541602195.549315231040964-62.50879026820985,59.923821165682966-34.585022851688336,33.173062308796943-31.997611192109616,30.666299737671579-.549209563014301.549733838988686c-.711897680879702.703163812147977-1.555900714523887,1.25930275915016-2.483434322397443,1.636456327418273-.927639275900219.376080631391233-1.920479787744625.565714095781004-2.921521764037607.557195627256078-1.694618447198081-.003202554005838-3.342889272707907-.552936392994525-4.699878057363094-1.568259809360825l-31.33078295622181-23.499398415118776c1.591805490374099,1.195381731975431,3.579403779105633,1.739799656446849,5.558266167028705,1.521391975857114,1.978863403961441-.218407680589735,3.80004572881262-1.182587772569605,5.092902150241571-2.696517960159326l34.779354479062022-40.378207328303688,28.551915058811574-33.134282143403652,50.016187942570468-58.085058323076737c.725532920336263-.860198690643301,1.631124156279839-1.551191375113376,2.652836424040288-2.024610546772237,1.021712267762268-.473418155621403,2.133973905145467-.717787657267763,3.260102438811373-.715987236677393,1.544817764299296-.004985701938494,3.056618334756422.444503726079347,4.346808670617975,1.292482519185796l47.117031222565856,31.333689842964304Z" style="fill:#fff; stroke-width:0px;"/><path d="m218.511602946986386,186.172022279755765l-46.998780573618205,31.333235673662784c-1.599147386074037,1.044081375946917-3.521118718641446,1.476637502863014-5.413259154753177,1.217750840161898-1.891083755856016-.258902919318643-3.626607921421964-1.192179177969592-4.885894423952777-2.627264761846163l-50.0950325462818-58.12255929573621-28.551915058811574-33.211306005750885-34.779354479062022-40.342950785150606c-1.304362043754736-1.498583938948286-3.127251313633678-2.448380986984375-5.102916227744572-2.658688806996906-1.975560262122599-.210311884166913-3.957619107821301.334532776560991-5.548252089525704,1.525005009501911l31.33078295622181-23.499605687014082c1.356988784655186-1.015108016161321,3.005259610165012-1.565276719717076,4.699878057363094-1.568686545620039,1.001041976292981-.008416864653555,1.993882488137388.181119060020137,2.921521764037607.557626427669675.927533607873556.376617099829673,1.771536641517741.932861714856699,2.483434322397443,1.636659535159197l.549209563014301.549315231040964,31.997611192109616,30.667043478006235,34.585022851688336,33.172525840357594,62.50879026820985,59.924036565889764.546547541602195.548677158732971c.712738960928618.703163812149796,1.556538786831879,1.258229822275098,2.484499130963741,1.634310453668149.926887407254981.376080631391233,1.919841715436633.565730352400351,2.92024155526633.557195627256078,1.544817764299296.005332171138434,3.056618334756422-.444260892827515,4.347865350875509-1.292319952992329Z" style="fill:#fff; stroke-width:0px;"/><path d="m221.998647791528128,69.966862458577452v109.666845069634292c.001056680257534,1.292319952992329-.316418838479876,2.565473351805849-.924774046743551,3.705436268513949-.608338951644328,1.141035853583162-1.48834226877625,2.113734414087958-2.562270797798192,2.832878483030072l-46.998780573618205,31.333235673662784c1.07392852902376-.719144068942114,1.953931846155683-1.692915566323791,2.562270797798192-2.833951419906953.607282271388613-1.141035853583162.92477404674537-2.414172995775516.923701109870308-3.707565885644726V38.636079502356552c-.017036937049852-1.302550446739588-.354768203462299-2.580702755994025-.983362902779845-3.721632941551434-.628578442700018-1.140930185558318-1.528837507506978-2.109480260020064-2.620859653836305-2.82002356130215l47.117031222565856,31.333689842964304c1.070725975016103.722017426406637,1.949672611892311,1.695573523581515,2.556954883279104,2.835438900573536.608338951644328,1.139971045017774.9268874072568,2.41141343464642.930089961262638,3.703310715536645Z" style="fill:#fff; stroke-width:0px;"/></g></mask><linearGradient id="linear-gradient" x1="197.127561609642726" y1="207.61233227782941" x2="57.531246472642408" y2="67.111931478612405" gradientTransform="translate(0 248.727055637475132) scale(1 -1)" gradientUnits="userSpaceOnUse"><stop offset="0" stop-color="#7252aa"/><stop offset="1" stop-color="#7252aa"/></linearGradient><linearGradient id="linear-gradient-2" x1="59.39553328465081" y1="190.596252578765416" x2="190.60038001320828" y2="43.725436039178931" gradientTransform="translate(0 248.727055637475132) scale(1 -1)" gradientUnits="userSpaceOnUse"><stop offset="0" stop-color="#ae7fe2"/><stop offset="1" stop-color="#9a70d4"/></linearGradient><linearGradient id="linear-gradient-3" x1="196.696611072553424" y1="220.413586999466133" x2="196.696611072553424" y2="31.379471650897955" gradientTransform="translate(0 248.727055637475132) scale(1 -1)" gradientUnits="userSpaceOnUse"><stop offset="0" stop-color="#d59dff"/><stop offset="1" stop-color="#c18ef1"/></linearGradient></defs><g id="Layer_2"><g id="Surfaces"><g id="Photo_Surface"><g id="Outline_no_shadow"><path d="m45.333332061767578,0h165.333324432373047c25.066665649414062,0,45.333328247070312,20.266666412353516,45.333328247070312,45.333332061767578v158.933330535888672c0,25.066665649414062-20.26666259765625,45.333328247070312-45.333328247070312,45.333328247070312H45.333332061767578c-25.066667556762695,0-45.333332061767578-20.26666259765625-45.333332061767578-45.333328247070312V45.333332061767578C0,20.266666412353516,20.266666412353516,0,45.333332061767578,0Z" style="fill:#fff; stroke-width:0px;"/></g></g></g></g><g style="clip-path:url(#clippath);"><g style="clip-path:url(#clippath-1);"><g style="mask:url(#mask);"><path d="m68.466981349458365,189.814610457971867l-31.33078295622181-23.499398415118776c-.976859239011901-.725532920336263-1.769576702850827-1.67160313839122-2.314013932056696-2.759366050457174-.544437229205869-1.088835848941017-.825403429062135-2.289533495435535-.820214519380897-3.50621139872419v-70.498918664914527c-.005188909681237-1.216998971519388.275777290175029-2.418123354271302.820214519380897-3.506422734774787.544437229205869-1.088405048529239,1.337154693044795-2.03351612604547,2.314013932056696-2.759158778560959l31.33078295622181-23.4996016228597c-.841662080460083.790307420023055-1.477702311429312,1.774092994905914-1.852933534462863,2.86601353736387-.375231223031733,1.091924606611428-.478257547983958,2.258849126465066-.300227245636052,3.399567975971877v117.497918702893003c-.178030302347906,1.141035853583162-.075003977395681,2.307643369360449.300227245636052,3.399665515687957.375231223033552,1.092022146327508,1.011271454002781,2.075385049109173,1.852933534462863,2.865911933493408Z" style="fill:#5e438f; stroke-width:0px;"/><path d="m218.510546266730671,63.428112842467272c-1.290190335863372-.847945263829388-2.801990906320498-1.297436723924875-4.346808670619794-1.292429685173374-1.000399839829697-.008095796422822-1.993354148011349.181330396070734-2.921314492141391.557415091618168-.9268874072568.37597902752168-1.770687233160061.93126043785378-2.483426194088679,1.633887781565136l-.546547541602195.549315231040964-33.293556371208979,31.921225402069467-29.215233897000871,28.002595763613499-34.585559320126777,33.173062308796943-31.997607127952506,30.666299737671579-.54920956301612.549733838988686c-.711897680879702.703163812147977-1.555904778677359,1.25930275915016-2.483434322397443,1.636456327418273-.927639275900219.376080631391233-1.920479787744625.565714095781004-2.921521764037607.557195627256078-1.694618447196262-.003202554005838-3.342889272707907-.552936392994525-4.699878057363094-1.568259809360825l-31.330782956219991-23.499398415118776c1.591697790268881,1.195381731975431,3.579403779103814,1.739799656446849,5.558266167026886,1.521391975857114,1.978861371884705-.218407680589735,3.80004572881262-1.182587772569605,5.09290215024339-2.696517960159326l17.548313395027435-20.365000285213682,17.231041084034587-20.013101375065162,28.551910994654463-33.134387811428496,50.015659602442611-58.085058323076737c.726597728902561-.860198690643301,1.632188964846137-1.551191375113376,2.653901232606586-2.024610546772237,1.020639330887207-.473418155621403,2.133973905145467-.717787657267763,3.259029501934492-.715987236677393,1.544834020920462-.004985701938494,3.056618334758241.444503726079347,4.347881607494855,1.292482519185796l47.115974542310141,31.333689842964304Z" style="fill:url(#linear-gradient); stroke-width:0px;"/><path d="m218.510546266730671,186.172022279755765l-46.998780573618205,31.334308610537846c-1.598090705818322,1.044081375946917-3.520062038385731,1.475564565987952-5.412202474497462,1.216677903286836-1.89214043611355-.258902919318643-3.626607921421964-1.191122497713877-4.885894423952777-2.627264761846163l-50.09556901472024-58.12255929573621-28.551910994654463-33.211094669699378-17.231041084034587-19.974646342058804-17.548313395027435-20.368194710911666c-1.304362043756555-1.49868960697404-3.127356981660341-2.448380986984375-5.102916227744572-2.658798539177042-1.975560262124418-.210307820012531-3.95761910782312.334532776560991-5.548252089525704,1.524899341476157l31.330782956219991-23.499500018989238c1.356988784655186-1.015103952006029,3.005259610166831-1.565276719716167,4.699878057363094-1.568576813438995,1.001041976292981-.008522532679308,1.993882488137388.181009327839092,2.921521764037607.557626427669675.927529543720084.37651143180392,1.771536641517741.932751982676564,2.483434322397443,1.636659535159197l.54920956301612.549209563015211,31.997607127952506,30.6669337458261,34.585559320126777,33.172525840358503,29.256785815987314,28.044147682599942,33.252004452222536,31.87978321526316.546547541602195.549733838988686c.712738960928618.702107131894081,1.556538786831879,1.257173142019383,2.483426194088679,1.633253773412434.927960344130042.376080631391233,1.920914652311694.565730352400351,2.921314492141391.557195627256078,1.544817764299296.005332171138434,3.056618334756422-.444260892827515,4.346808670619794-1.292319952992329Z" style="fill:url(#linear-gradient-2); stroke-width:0px;"/><path d="m221.998647791528128,69.966435722320966v109.666198869015716c.001056680257534,1.293392889867391-.316418838479876,2.565473351805849-.924774046743551,3.706509205389011-.608338951644328,1.139979173327447-1.48834226877625,2.113734414087958-2.562270797798192,2.832878483030072l-46.99983725387392,31.333235673662784c1.074985209279475-.719144068942114,1.954988526411398-1.692915566323791,2.562270797798192-2.833951419906953.608338951644328-1.141035853583162.925830727001085-2.414172995775516.924757790126023-3.707565885644726V38.635653782137524c-.017036937049852-1.302443762675466-.354768203462299-2.580703772032393-.983362902779845-3.721633957589802-.628578442700018-1.140930185557409-1.528837507506978-2.109479243981696-2.620859653836305-2.820012384876463l47.117031222565856,31.333678666538617c1.070725975016103.722017426406637,1.948615931636596,1.695573523581515,2.556954883279104,2.835544568599289.607266014769266,1.13986537699202.9268874072568,2.41141343464642.930089961262638,3.703205047511801Z" style="fill:url(#linear-gradient-3); stroke-width:0px;"/></g></g></g></svg>