<?xml version="1.0" encoding="UTF-8"?><svg id="Layer_1" xmlns="http://www.w3.org/2000/svg" width="255.999984741210938" height="249.599990844726562" xmlns:xlink="http://www.w3.org/1999/xlink" viewBox="0 0 255.999984741210938 249.599990844726562"><defs><mask id="mask" x="35.540550929728852" y="32.872966696310868" width="184.918882881755053" height="183.854057452102097" maskUnits="userSpaceOnUse"><g id="mask0"><path d="m166.702724888467856,215.941136640900368c2.910697582288776,1.133976127232017,6.229635594138017,1.06134897890297,9.167503146301897-.352420029594214l38.048532540933593-18.308231112117937c3.998102660998484-1.92383690170027,6.540673235780559-5.970188466129912,6.540673235780559-10.409242677660586V62.729479120666838c0-4.43905244907728-2.542387279707327-8.485391676339532-6.540489940705811-10.409228578038892l-38.048715836008341-18.308866366141956c-3.85561189008331-1.855245246685627-8.367857234785333-1.400826272315498-11.751850898424891,1.059300017557689-.48326451347566.351428209371988-.943800437726168.743809429171051-1.37588332658197,1.176219913909335l-72.839463946742399,66.452907060097459-31.727406267877996-24.083806033001565c-2.953578054983154-2.241889104842812-7.084687729251527-2.058188666331262-9.827771659487553.437067104915513l-10.176003220386519,9.256591602272238c-3.355314428465135,3.05208153294916-3.35916026535233,8.330708258070445-.00831613277478,11.38796435196582l27.515054576784678,25.102457834283996-27.515054576784678,25.102457834283996c-3.350844132577549,3.05706574900978-3.346998295690355,8.335893393730657.00831613277478,11.38796787686988l10.176003220386519,9.256584552460481c2.743083930236025,2.49526634596441,6.874193604504399,2.678956209760145,9.827771659487553.436890859651612l31.727406267877996-24.083626262830876,72.839463946742399,66.452747998746418c1.152277435428914,1.153010615726089,2.505248877709164,2.021222984691121,3.960231078704965,2.588027753232382Zm7.583156921640693-133.094353372423029l-55.268427999350024,41.953302760009137,55.268427999350024,41.953126514745236v-83.906429274754373Z" style="fill:#fff; fill-rule:evenodd; stroke-width:0px;"/></g></mask><linearGradient id="linear-gradient" x1="127.943812430301477" y1="215.853943783746217" x2="127.943812430301492" y2="32.000176646473847" gradientTransform="translate(0 248.727024148414785) scale(1 -1)" gradientUnits="userSpaceOnUse"><stop offset="0" stop-color="#fff"/><stop offset="1" stop-color="#fff" stop-opacity="0"/></linearGradient></defs><g id="Layer_2"><g id="Surfaces"><g id="Photo_Surface"><g id="Outline_no_shadow"><path d="m45.333332061767578,0h165.333324432373047c25.066665649414062,0,45.333328247070312,20.266666412353516,45.333328247070312,45.333332061767578v158.933330535888672c0,25.066665649414062-20.26666259765625,45.333328247070312-45.333328247070312,45.333328247070312H45.333332061767578c-25.066667556762695,0-45.333332061767578-20.26666259765625-45.333332061767578-45.333328247070312V45.333332061767578C0,20.266666412353516,20.266666412353516,0,45.333332061767578,0Z" style="fill:#fff; stroke-width:0px;"/></g></g></g></g><g style="mask:url(#mask);"><path d="m213.919874445769892,52.348710627834407l-38.07846603654616-18.334025818169721c-4.407640255702063-2.122161346054781-9.675004908462142-1.226987968004323-13.134022656018715,2.232071252265996l-124.654644688780536,113.655787800839789c-3.352895517294201,3.056882453935032-3.349040482607052,8.335695999036034.00831613277478,11.387784581795131l10.182175549834028,9.2565845524623c2.744765310052571,2.495266345962591,6.878464027247901,2.678956209756507,9.833704075069363.437074154724542L208.189943523320835,57.105076812400512c5.03615906583218-3.820505595977011,12.26949028816307-.228605969286946,12.26949028816307,6.092703598841581v-.442058370786981c0-4.437205398712649-2.541823294863207-8.482065928211341-6.539559365714013-10.407011412620705Z" style="fill:#0065a9; stroke-width:0px;"/><path d="m213.919874445769892,197.251087789176381l-38.07846603654616,18.334103916853564c-4.407640255702063,2.122514662731191-9.675004908462142,1.226934929194613-13.134022656018715-2.23208281836196L38.052741064424481,99.697444899127731c-3.352895517294201-3.057072798820627-3.349040482607052-8.335886343921629.00831613277478-11.387964351964911l10.182175549834028-9.256591602272238c2.744765310052571-2.495259296153563,6.878464027247901-2.678956209759235,9.833704075069363-.437067104916423l150.113006701218183,113.878899764638845c5.03615906583218,3.820517933143492,12.26949028816307.228611256643489,12.26949028816307-6.092516778864592v.442065420598738c0,4.437023866092204-2.541823294863207,8.481880870685927-6.539559365714013,10.406817542829231Z" style="fill:#007acc; stroke-width:0px;"/><path d="m175.843072164514524,215.588519216609711c-4.408937420843358,2.121034202516967-9.676287973981744,1.223790713689596-13.135686411309507-2.235593624014655,4.262371859425912,4.262371859425912,11.550409611656505,1.243558382479023,11.550409611656505-4.784283434359168V41.03102848096205c0-6.027909450961488-7.288037752230593-9.046717144858121-11.550409611656505-4.784346001428275,3.459398437327764-3.459371890383409,8.726748990466149-4.355809332511853,13.135686411309507-2.23552554928483l38.07181101538481,18.308908554852678c4.000499596586451,1.923836901698451,6.544550631584571,5.970176128960702,6.544550631584571,10.409230340491376v124.141763700861702c0,4.439054211528855-2.54405103499812,8.485391676336803-6.544733926661138,10.409228578037073l-38.071627720308243,18.308231112117937Z" style="fill:#1f9cf0; stroke-width:0px;"/><g style="opacity:.25;"><path d="m166.59035090823636,215.941136640900368c2.91071168191047,1.13379283215545,6.22983298883446,1.061151584206527,9.167517245923591-.352420029594214l38.048532540933593-18.308231112117937c3.998102661000303-1.92383690170027,6.540673235780559-5.970188466129912,6.540673235780559-10.409425972733516V62.729479120666838c0-4.439237506604513-2.542387279707327-8.485576733866765-6.540489940705811-10.409413635565215l-38.048715836008341-18.308793995431188c-3.855428595008561-1.855245301762807-8.367857234785333-1.400826313623838-11.751850898424891,1.059283384410264-.48326451347566.351446715125348-.943800437726168.743827934924411-1.37588332658197,1.176238199355794l-72.839467471646458,66.452834799538323-31.727404505426421-24.083622737925907c-2.953392997455921-2.242072399917561-7.084652480199111-2.058188666331262-9.827735529208439.436883809841675l-10.176003000080527,9.256591602272238c-3.355318228753276,3.052264828022999-3.359164120716741,8.330891553144284-.008316353081682,11.387964351964911l27.515016684054899,25.102457834283996-27.515016684054899,25.102641129358744c-3.350847767635059,3.05706574900978-3.347001875671594,8.335695999036034.008316353081682,11.387784581795131l10.176003000080527,9.2565845524623c2.743083049009329,2.495266345962591,6.874342531752518,2.678956209756507,9.827735529208439.437074154724542l31.727404505426421-24.083809557905624,72.839467471646458,66.452931293821166c1.152277435430733,1.152813221029646,2.50523477808747,2.021222984691121,3.96021697908327,2.588027753232382Zm7.583171021262388-133.094353372423029l-55.268427999350024,41.953119464934389,55.268427999350024,41.953309809819984v-83.906429274754373Z" style="fill:url(#linear-gradient); fill-rule:evenodd; stroke-width:0px;"/></g></g></svg>