<?xml version="1.0" encoding="UTF-8"?><svg id="Layer_1" xmlns="http://www.w3.org/2000/svg" width="255.999984741211847" height="249.599990844726562" viewBox="0 0 255.999984741211847 249.599990844726562"><g id="Layer_2"><g id="Surfaces"><g id="Photo_Surface"><g id="Outline_no_shadow"><path d="m45.333332061767578,0h165.333324432373956c25.066665649414062,0,45.333328247070312,20.266666412353516,45.333328247070312,45.333332061767578v158.933330535888672c0,25.066665649414062-20.26666259765625,45.333328247070312-45.333328247070312,45.333328247070312H45.333332061767578c-25.066667556762695,0-45.333332061767578-20.26666259765625-45.333332061767578-45.333328247070312V45.333332061767578C0,20.266666412353516,20.266666412353516,0,45.333332061767578,0Z" style="fill:#470137; stroke-width:0px;"/></g></g></g></g><g id="Outlined_Mnemonics_Logos"><g id="Xd"><path d="m134.828838840222488,72.064547376236987l-33.205531711969343,54.789127324749643,35.419233826100935,58.109680495946122c.221366833571665.442733667146967.332058694961233.885484223494132.221366833571665,1.328217890641099-.11069186138775.442733667141511-.553425528532898.110691861385931-1.21753447384981.221366833571665h-25.346890895724755c-1.770960002384527,0-2.988494476236156-.110691861391388-3.763295282944455-1.217542918457184-2.324385530916516-4.648771061831212-4.759462923223509-9.186867151485785-7.083848454140934-13.835638213322454-2.324385530917425-4.538096089649116-4.870146340010251-9.186867151485785-7.526590565888-13.946330074710204s-5.312888451755498-9.518925846447019-7.96932423303133-14.389063741851714h-.221366833571665c-2.324385530917425,4.759462923224419-4.870146340009342,9.518925846448838-7.415898704498431,14.278371880465784-2.545760809092826,4.759462923224419-5.091513173581916,9.518925846447019-7.526590565887091,14.167696908281869-2.545760809092826,4.648771061831212-5.091513173582825,9.40823398505745-7.637273982673833,13.946330074708385-.442742111747975,1.106851057065796-1.328222112940239,1.217542918455365-2.545756586790958,1.217542918455365h-24.350714810841964c-.442742111746156,0-.774796584406431.221366833569846-.774796584406431-.332058694961233-.110683416784923-.44273366714333,0-.885484223494132.221371055873533-1.217542918455365l34.42307040812284-56.449403910348337-33.537590406930576-56.781437271500181c-.332054472659365-.442742111747066-.442742111747066-.885480001192263-.221371055873533-1.106851057064887.221371055873533-.332054472660275.664108945318731-.442742111747066,1.106851057065796-.442742111747066h25.125519839851222c.553425528532898,0,1.106851057065796.110683416785832,1.549593168812862.221371055872623.442742111747066.221371055874442.774796584405522.553425528533808,1.106851057065796.996167640280873,2.10301869734576,4.759458700922551,4.538087645047199,9.51892162414606,7.083848454140025,14.278376102764923,2.656444225878658,4.759462923223509,5.202196590367748,9.408233985059269,7.969324233032239,14.0570050468923,2.656444225877749,4.64877106183576,5.091513173581006,9.297550568273437,7.415898704497522,14.0570050468923h.221366833572574c2.324385530917425-4.870146340008432,4.759462923223509-9.629600818628205,7.194531870926767-14.278380325065882,2.435068947703257-4.64877106183576,4.980829756795174-9.297550568273437,7.526590565888-13.946321630107377s4.980829756795174-9.408233985058359,7.415898704497522-13.946321630106468c.110683416786742-.442742111747066.332058694961233-.885480001192263.664108945318731-1.106851057066706.442742111747975-.221371055872623.885484223495041-.332054472657546,1.43890975202703-.221371055872623h23.354555615163918c.553425528534717-.110683416784923,1.106851057067615.221371055872623,1.217534473851629.774796584407341.110691861389569.11069186138775-.110674972182096.553429750832947-.332050250357497.77480080670739h0Z" style="fill:#ff61f6; stroke-width:0px;"/><path d="m185.965354298815328,188.837333896664859c-8.190691066602085.110691861389569-16.381399022413461-1.549584724210945-23.797297726912802-4.980829756794265-6.973165037352373-3.209861309809639-12.728787156254839-8.522749761565137-16.713457717372876-15.053181131779638-4.095345533300133-6.751798203780709-6.08768081386188-15.163856103956277-6.08768081386188-25.236207478939832-.110691861389569-8.190699511204002,1.992335280561747-16.270707161020255,6.08768081386188-23.354555615161189,4.206037394691521-7.194531870927676,10.293718208551581-13.171529268002814,17.598925051661354-17.156191384518934,7.747957399460574-4.316720811476443,17.045499523128456-6.419739508820385,28.003335121604323-6.419739508820385.553425528531079,0,1.328217890633823,0,2.324393975519342.110683416784923.996159195676228.110683416785832,2.103010252742024.110683416785832,3.431245032585139.221366833571665v-34.976474825146397c0-.774796584407341.332058694963052-1.217534473852538,1.106851057065796-1.217534473852538h22.469079836273522c.553425528532898-.110683416784923.996159195678047.332054472660275,1.106851057063977.774796584406431v105.593579866079381c0,1.992335280558109.110691861391388,4.206037394691521.221366833575303,6.641106342396597.221366833571665,2.324393975519342.332058694961233,4.538096089647297.44273366714333,6.419739508819475,0,.774792362102744-.332058694963052,1.438909752025211-1.106851057065796,1.770968446988263-5.755622118900646,2.435068947703257-11.843302932760707,4.206037394691521-18.041675608012156,5.312888451755498-5.644930257509259.996159195678047-11.289860515020337,1.549584724210945-17.045499523128456,1.549584724210945Zm10.84714373708448-22.137021141312289v-48.701446510890491c-.996159195674409-.221366833572574-1.992335280559928-.442742111747066-2.988494476234337-.553425528531989-1.217542918453546-.110683416787651-2.435068947703257-.221366833573484-3.652611866158622-.221366833573484-4.316712366873617,0-8.633441622952887.885484223494132-12.507420322684993,2.877811059451233-3.7632868383389,1.88164341916945-6.973165037354192,4.648771061833031-9.408233985055631,8.190699511204912-2.435068947705076,3.541920004769054-3.652611866158622,8.301382927991654-3.652611866158622,14.057005046894119-.110691861391388,3.873978699730287.553425528531079,7.747957399460574,1.881643419172178,11.400569265615559,1.106851057062158,2.988494476236156,2.767127642660853,5.644947146716731,4.980829756794265,7.858649260850143,2.103010252742024,1.992335280558109,4.648771061833031,3.541920004769054,7.526590565885272,4.427404228261366,2.988494476236156.996159195679866,6.087680813863699,1.43890975202703,9.186867151487604,1.43890975202703,1.660276585598695,0,3.20986130980782-.110691861389569,4.64877106183485-.221366833569846,1.43890975202703.110674972180277,2.656452670480576-.110708750597041,3.984670561118037-.553442417738552Z" style="fill:#ff61f6; stroke-width:0px;"/></g></g></svg>